M48
;Layer_Color=9474304
;FILE_FORMAT=2:5
INCH,LZ
;TYPE=PLATED
T1F00S00C0.01300
T2F00S00C0.05906
T3F00S00C0.06299
%
T01
X0063Y-00981
X00493Y-00817
X00521Y-00661
X00468Y-00577
X00509Y-00421
X00571Y-00211
X00622Y-00024
X00514Y0002
X00533Y00089
X00548Y00152
X00611Y0017
X00669Y00154
X0069Y00233
X00629Y00249
X0057Y00263
X0043Y00186
X00412Y00119
X01168Y00208
X00882Y-00769
X00754Y-00727
X0066Y-00694
X0028Y-00703
Y-00641
X00163
X00097Y-00639
X00037Y-00585
X00039Y-00759
X00098Y-00758
X00161
X00183Y-00828
X00261Y-00827
X00262Y-00754
X00327Y-00897
X00322Y-00976
X00328Y-01134
X00126Y-00859
X00037
X-0004957Y-0090551
X-00104Y-00889
X-002Y-00888
X-0027Y-00919
X-00268Y-00998
X-0027Y-0115
X-0053Y-01044
X-00505Y-0081
X-0062Y-00601
X-00578Y-00532
X-00596Y-00454
X-00537Y-00441
X-00475Y-00427
X-00419Y-0042
X-00358Y-00405
X-00318Y-00337
X-00391Y-00295
X-00406Y-00239
X-00361Y-00164
X-00321Y-00039
X-00175Y-00016
X-0003Y00081
X-00038Y-00223
X00185Y-0022
X00135Y-00077
X00246Y-00021
X00338Y00066
X00222Y-00581
X-00075Y-00506
X-0026Y-00504
X-00499Y-00344
X-0056Y-0036
X-0062Y-00374
X-00663Y-00237
X-00541Y-00208
X-00711Y-0004
X-00758Y00153
X-00854Y00191
X-00939Y00167
X-01169Y00102
X-00484Y00221
X-0038Y00154
X-00734Y-0063
X-00955Y-00695
X-00747Y-00907
X-00491Y00312
X-00317Y00418
X-00272Y00524
X-00244Y00618
X-00188Y00645
X-00097Y00622
X-00075Y00707
X-00109Y00766
X-00148Y00808
X-00187Y00879
X-00264Y00836
X-00224Y00764
X-00302Y00717
X-00358Y00686
X-00399Y00756
X-00701Y0077
X-00652Y00682
X-0078Y00896
X-00987Y00655
X-01104Y00398
X-00183Y00267
X-00029Y00405
X00109Y00279
Y00598
X00082Y00676
X00141Y00776
X00174Y0084
X00204Y00902
X0018069Y0094554
X00107Y00965
X-00119Y0096
X-00237Y01164
X-00013Y01181
X00205Y01174
X00285Y00868
X00254Y00807
X00227Y00741
X00305Y00706
X00362Y0068
X00255Y006
X00196Y00622
X00284Y00517
X00371Y00397
X00396Y00271
X00463Y00309
X00526Y00292
X00704Y00282
X00767Y00321
X0092Y00281
X00874Y00411
X01079Y00467
X00963Y00672
X00778Y00578
X00654Y00697
X00462Y00785
X00805Y00875
T02
X0040082Y-0017454
X-0017143Y-007038
X-0053655Y0000924
X-00499Y00535
X0054Y00536
T03
X0047153Y-0029701
X0052329Y-0010383
X0033011Y-0005206
X0027834Y-0024525
X-0007143Y-0060379
Y-0080379
X-0027143
Y-0060379
X-0041407Y-0006148
X-0060726Y-0011324
X-0065902Y0007994
X-0046584Y0013171
X-005356Y003984
X-006356Y005716
X-004624Y006716
X-003624Y004984
X0040711Y0048763
X0058837Y0040311
X0067289Y0058437
X0049163Y0066889
M30
