G04 Layer_Color=8388736*
%FSLAX25Y25*%
%MOIN*%
G70*
G01*
G75*
%ADD89R,0.01181X0.01181*%
%ADD91R,0.03937X0.03937*%
%ADD95O,0.01476X0.00984*%
%ADD96O,0.00984X0.01476*%
%ADD132R,0.05847X0.05847*%
%ADD133R,0.02769X0.02769*%
%ADD134R,0.02375X0.02769*%
%ADD135R,0.02769X0.02769*%
%ADD136R,0.02769X0.02375*%
%ADD137P,0.03915X4X322.5*%
G04:AMPARAMS|DCode=138|XSize=23.75mil|YSize=27.69mil|CornerRadius=0mil|HoleSize=0mil|Usage=FLASHONLY|Rotation=277.500|XOffset=0mil|YOffset=0mil|HoleType=Round|Shape=Rectangle|*
%AMROTATEDRECTD138*
4,1,4,-0.01527,0.00997,0.01217,0.01358,0.01527,-0.00997,-0.01217,-0.01358,-0.01527,0.00997,0.0*
%
%ADD138ROTATEDRECTD138*%

%ADD139P,0.03915X4X330.0*%
G04:AMPARAMS|DCode=140|XSize=23.75mil|YSize=27.69mil|CornerRadius=0mil|HoleSize=0mil|Usage=FLASHONLY|Rotation=285.000|XOffset=0mil|YOffset=0mil|HoleType=Round|Shape=Rectangle|*
%AMROTATEDRECTD140*
4,1,4,-0.01644,0.00789,0.01030,0.01505,0.01644,-0.00789,-0.01030,-0.01505,-0.01644,0.00789,0.0*
%
%ADD140ROTATEDRECTD140*%

%ADD141P,0.03915X4X337.5*%
G04:AMPARAMS|DCode=142|XSize=23.75mil|YSize=27.69mil|CornerRadius=0mil|HoleSize=0mil|Usage=FLASHONLY|Rotation=292.500|XOffset=0mil|YOffset=0mil|HoleType=Round|Shape=Rectangle|*
%AMROTATEDRECTD142*
4,1,4,-0.01733,0.00567,0.00825,0.01627,0.01733,-0.00567,-0.00825,-0.01627,-0.01733,0.00567,0.0*
%
%ADD142ROTATEDRECTD142*%

%ADD143P,0.03915X4X345.0*%
G04:AMPARAMS|DCode=144|XSize=23.75mil|YSize=27.69mil|CornerRadius=0mil|HoleSize=0mil|Usage=FLASHONLY|Rotation=300.000|XOffset=0mil|YOffset=0mil|HoleType=Round|Shape=Rectangle|*
%AMROTATEDRECTD144*
4,1,4,-0.01793,0.00336,0.00605,0.01720,0.01793,-0.00336,-0.00605,-0.01720,-0.01793,0.00336,0.0*
%
%ADD144ROTATEDRECTD144*%

%ADD145P,0.03915X4X352.5*%
G04:AMPARAMS|DCode=146|XSize=23.75mil|YSize=27.69mil|CornerRadius=0mil|HoleSize=0mil|Usage=FLASHONLY|Rotation=307.500|XOffset=0mil|YOffset=0mil|HoleType=Round|Shape=Rectangle|*
%AMROTATEDRECTD146*
4,1,4,-0.01821,0.00099,0.00375,0.01785,0.01821,-0.00099,-0.00375,-0.01785,-0.01821,0.00099,0.0*
%
%ADD146ROTATEDRECTD146*%

%ADD147P,0.03915X4X360.0*%
G04:AMPARAMS|DCode=148|XSize=23.75mil|YSize=27.69mil|CornerRadius=0mil|HoleSize=0mil|Usage=FLASHONLY|Rotation=315.000|XOffset=0mil|YOffset=0mil|HoleType=Round|Shape=Rectangle|*
%AMROTATEDRECTD148*
4,1,4,-0.01818,-0.00139,0.00139,0.01818,0.01818,0.00139,-0.00139,-0.01818,-0.01818,-0.00139,0.0*
%
%ADD148ROTATEDRECTD148*%

%ADD149P,0.03915X4X367.5*%
G04:AMPARAMS|DCode=150|XSize=23.75mil|YSize=27.69mil|CornerRadius=0mil|HoleSize=0mil|Usage=FLASHONLY|Rotation=322.500|XOffset=0mil|YOffset=0mil|HoleType=Round|Shape=Rectangle|*
%AMROTATEDRECTD150*
4,1,4,-0.01785,-0.00375,-0.00099,0.01821,0.01785,0.00375,0.00099,-0.01821,-0.01785,-0.00375,0.0*
%
%ADD150ROTATEDRECTD150*%

%ADD151P,0.03915X4X375.0*%
G04:AMPARAMS|DCode=152|XSize=23.75mil|YSize=27.69mil|CornerRadius=0mil|HoleSize=0mil|Usage=FLASHONLY|Rotation=330.000|XOffset=0mil|YOffset=0mil|HoleType=Round|Shape=Rectangle|*
%AMROTATEDRECTD152*
4,1,4,-0.01720,-0.00605,-0.00336,0.01793,0.01720,0.00605,0.00336,-0.01793,-0.01720,-0.00605,0.0*
%
%ADD152ROTATEDRECTD152*%

%ADD153P,0.03915X4X382.5*%
G04:AMPARAMS|DCode=154|XSize=23.75mil|YSize=27.69mil|CornerRadius=0mil|HoleSize=0mil|Usage=FLASHONLY|Rotation=337.500|XOffset=0mil|YOffset=0mil|HoleType=Round|Shape=Rectangle|*
%AMROTATEDRECTD154*
4,1,4,-0.01627,-0.00825,-0.00567,0.01733,0.01627,0.00825,0.00567,-0.01733,-0.01627,-0.00825,0.0*
%
%ADD154ROTATEDRECTD154*%

%ADD155P,0.03915X4X390.0*%
G04:AMPARAMS|DCode=156|XSize=23.75mil|YSize=27.69mil|CornerRadius=0mil|HoleSize=0mil|Usage=FLASHONLY|Rotation=345.000|XOffset=0mil|YOffset=0mil|HoleType=Round|Shape=Rectangle|*
%AMROTATEDRECTD156*
4,1,4,-0.01505,-0.01030,-0.00789,0.01644,0.01505,0.01030,0.00789,-0.01644,-0.01505,-0.01030,0.0*
%
%ADD156ROTATEDRECTD156*%

%ADD157P,0.03915X4X397.5*%
G04:AMPARAMS|DCode=158|XSize=23.75mil|YSize=27.69mil|CornerRadius=0mil|HoleSize=0mil|Usage=FLASHONLY|Rotation=352.500|XOffset=0mil|YOffset=0mil|HoleType=Round|Shape=Rectangle|*
%AMROTATEDRECTD158*
4,1,4,-0.01358,-0.01217,-0.00997,0.01527,0.01358,0.01217,0.00997,-0.01527,-0.01358,-0.01217,0.0*
%
%ADD158ROTATEDRECTD158*%

%ADD159P,0.03915X4X52.5*%
G04:AMPARAMS|DCode=160|XSize=23.75mil|YSize=27.69mil|CornerRadius=0mil|HoleSize=0mil|Usage=FLASHONLY|Rotation=7.500|XOffset=0mil|YOffset=0mil|HoleType=Round|Shape=Rectangle|*
%AMROTATEDRECTD160*
4,1,4,-0.00997,-0.01527,-0.01358,0.01217,0.00997,0.01527,0.01358,-0.01217,-0.00997,-0.01527,0.0*
%
%ADD160ROTATEDRECTD160*%

%ADD161P,0.03915X4X60.0*%
G04:AMPARAMS|DCode=162|XSize=23.75mil|YSize=27.69mil|CornerRadius=0mil|HoleSize=0mil|Usage=FLASHONLY|Rotation=15.000|XOffset=0mil|YOffset=0mil|HoleType=Round|Shape=Rectangle|*
%AMROTATEDRECTD162*
4,1,4,-0.00789,-0.01644,-0.01505,0.01030,0.00789,0.01644,0.01505,-0.01030,-0.00789,-0.01644,0.0*
%
%ADD162ROTATEDRECTD162*%

%ADD163P,0.03915X4X67.5*%
G04:AMPARAMS|DCode=164|XSize=23.75mil|YSize=27.69mil|CornerRadius=0mil|HoleSize=0mil|Usage=FLASHONLY|Rotation=22.500|XOffset=0mil|YOffset=0mil|HoleType=Round|Shape=Rectangle|*
%AMROTATEDRECTD164*
4,1,4,-0.00567,-0.01733,-0.01627,0.00825,0.00567,0.01733,0.01627,-0.00825,-0.00567,-0.01733,0.0*
%
%ADD164ROTATEDRECTD164*%

%ADD165P,0.03915X4X75.0*%
G04:AMPARAMS|DCode=166|XSize=23.75mil|YSize=27.69mil|CornerRadius=0mil|HoleSize=0mil|Usage=FLASHONLY|Rotation=30.000|XOffset=0mil|YOffset=0mil|HoleType=Round|Shape=Rectangle|*
%AMROTATEDRECTD166*
4,1,4,-0.00336,-0.01793,-0.01720,0.00605,0.00336,0.01793,0.01720,-0.00605,-0.00336,-0.01793,0.0*
%
%ADD166ROTATEDRECTD166*%

%ADD167P,0.03915X4X82.5*%
G04:AMPARAMS|DCode=168|XSize=23.75mil|YSize=27.69mil|CornerRadius=0mil|HoleSize=0mil|Usage=FLASHONLY|Rotation=37.500|XOffset=0mil|YOffset=0mil|HoleType=Round|Shape=Rectangle|*
%AMROTATEDRECTD168*
4,1,4,-0.00099,-0.01821,-0.01785,0.00375,0.00099,0.01821,0.01785,-0.00375,-0.00099,-0.01821,0.0*
%
%ADD168ROTATEDRECTD168*%

%ADD169P,0.03915X4X127.5*%
G04:AMPARAMS|DCode=170|XSize=23.75mil|YSize=27.69mil|CornerRadius=0mil|HoleSize=0mil|Usage=FLASHONLY|Rotation=82.500|XOffset=0mil|YOffset=0mil|HoleType=Round|Shape=Rectangle|*
%AMROTATEDRECTD170*
4,1,4,0.01217,-0.01358,-0.01527,-0.00997,-0.01217,0.01358,0.01527,0.00997,0.01217,-0.01358,0.0*
%
%ADD170ROTATEDRECTD170*%

%ADD171P,0.03915X4X120.0*%
G04:AMPARAMS|DCode=172|XSize=23.75mil|YSize=27.69mil|CornerRadius=0mil|HoleSize=0mil|Usage=FLASHONLY|Rotation=75.000|XOffset=0mil|YOffset=0mil|HoleType=Round|Shape=Rectangle|*
%AMROTATEDRECTD172*
4,1,4,0.01030,-0.01505,-0.01644,-0.00789,-0.01030,0.01505,0.01644,0.00789,0.01030,-0.01505,0.0*
%
%ADD172ROTATEDRECTD172*%

%ADD173P,0.03915X4X112.5*%
G04:AMPARAMS|DCode=174|XSize=23.75mil|YSize=27.69mil|CornerRadius=0mil|HoleSize=0mil|Usage=FLASHONLY|Rotation=67.500|XOffset=0mil|YOffset=0mil|HoleType=Round|Shape=Rectangle|*
%AMROTATEDRECTD174*
4,1,4,0.00825,-0.01627,-0.01733,-0.00567,-0.00825,0.01627,0.01733,0.00567,0.00825,-0.01627,0.0*
%
%ADD174ROTATEDRECTD174*%

%ADD175P,0.03915X4X105.0*%
G04:AMPARAMS|DCode=176|XSize=23.75mil|YSize=27.69mil|CornerRadius=0mil|HoleSize=0mil|Usage=FLASHONLY|Rotation=60.000|XOffset=0mil|YOffset=0mil|HoleType=Round|Shape=Rectangle|*
%AMROTATEDRECTD176*
4,1,4,0.00605,-0.01720,-0.01793,-0.00336,-0.00605,0.01720,0.01793,0.00336,0.00605,-0.01720,0.0*
%
%ADD176ROTATEDRECTD176*%

%ADD177P,0.03915X4X97.5*%
G04:AMPARAMS|DCode=178|XSize=23.75mil|YSize=27.69mil|CornerRadius=0mil|HoleSize=0mil|Usage=FLASHONLY|Rotation=52.500|XOffset=0mil|YOffset=0mil|HoleType=Round|Shape=Rectangle|*
%AMROTATEDRECTD178*
4,1,4,0.00375,-0.01785,-0.01821,-0.00099,-0.00375,0.01785,0.01821,0.00099,0.00375,-0.01785,0.0*
%
%ADD178ROTATEDRECTD178*%

%ADD179P,0.03915X4X90.0*%
G04:AMPARAMS|DCode=180|XSize=23.75mil|YSize=27.69mil|CornerRadius=0mil|HoleSize=0mil|Usage=FLASHONLY|Rotation=45.000|XOffset=0mil|YOffset=0mil|HoleType=Round|Shape=Rectangle|*
%AMROTATEDRECTD180*
4,1,4,0.00139,-0.01818,-0.01818,0.00139,-0.00139,0.01818,0.01818,-0.00139,0.00139,-0.01818,0.0*
%
%ADD180ROTATEDRECTD180*%

%ADD181R,0.03162X0.03753*%
%ADD182R,0.02965X0.03359*%
%ADD183R,0.03359X0.02965*%
%ADD184R,0.03162X0.06312*%
%ADD185O,0.01587X0.03359*%
%ADD186O,0.03359X0.01587*%
%ADD187R,0.19304X0.19304*%
%ADD188R,0.06312X0.03162*%
%ADD189R,0.05328X0.06509*%
%ADD190R,0.06509X0.05328*%
%ADD191R,0.09461X0.05918*%
%ADD192R,0.04343X0.04737*%
%ADD193R,0.04737X0.04343*%
%ADD194R,0.04737X0.13595*%
%ADD195R,0.03556X0.06706*%
%ADD196R,0.04934X0.13595*%
%ADD197R,0.03359X0.05131*%
%ADD198R,0.03753X0.03359*%
%ADD199R,0.02847X0.02847*%
%ADD200R,0.03359X0.03753*%
%ADD201R,0.02965X0.02572*%
%ADD202R,0.03162X0.03162*%
%ADD203R,0.03162X0.03162*%
%ADD204R,0.03950X0.11430*%
%ADD205R,0.03241X0.03241*%
%ADD206R,0.05328X0.06706*%
%ADD207R,0.31509X0.06706*%
%ADD208O,0.03898X0.01654*%
%ADD209O,0.01654X0.03898*%
%ADD210R,0.02572X0.02965*%
%ADD211R,0.04383X0.05603*%
%ADD212R,0.02847X0.02847*%
%ADD213R,0.05918X0.03556*%
%ADD214C,0.02769*%
%ADD215R,0.07047X0.10000*%
%ADD216R,0.01732X0.03307*%
%ADD217R,0.06850X0.04488*%
%ADD218R,0.02769X0.03162*%
%ADD219R,0.03162X0.02769*%
%ADD220R,0.02769X0.03359*%
%ADD221R,0.03950X0.03753*%
%ADD222R,0.04343X0.03753*%
%ADD223R,0.04934X0.03359*%
%ADD224R,0.01902X0.03556*%
%ADD225C,0.03398*%
G36*
X-24953Y-68185D02*
X-28693Y-71728D01*
X-41307D01*
X-45047Y-68185D01*
Y-62657D01*
X-24953D01*
Y-68185D01*
D02*
G37*
G36*
Y-52815D02*
Y-58342D01*
X-45047D01*
Y-52815D01*
X-41346Y-49272D01*
X-28732D01*
X-24953Y-52815D01*
D02*
G37*
G36*
X20578Y-30794D02*
X20620Y-30804D01*
X20661Y-30820D01*
X20698Y-30843D01*
X20731Y-30871D01*
X20759Y-30904D01*
X20781Y-30941D01*
X20798Y-30981D01*
X20808Y-31023D01*
X20811Y-31067D01*
Y-35219D01*
X23035D01*
X23078Y-35223D01*
X23121Y-35233D01*
X23161Y-35249D01*
X23198Y-35272D01*
X23231Y-35300D01*
X23259Y-35333D01*
X23281Y-35370D01*
X23298Y-35410D01*
X23308Y-35452D01*
X23312Y-35496D01*
Y-47504D01*
X23308Y-47547D01*
X23298Y-47589D01*
X23281Y-47629D01*
X23259Y-47666D01*
X23231Y-47699D01*
X23198Y-47727D01*
X23161Y-47750D01*
X23121Y-47767D01*
X23078Y-47777D01*
X23035Y-47780D01*
X20811D01*
Y-51933D01*
X20808Y-51976D01*
X20798Y-52018D01*
X20781Y-52058D01*
X20759Y-52095D01*
X20731Y-52128D01*
X20698Y-52156D01*
X20661Y-52179D01*
X20620Y-52196D01*
X20578Y-52206D01*
X20535Y-52209D01*
X19630D01*
X19586Y-52206D01*
X19544Y-52196D01*
X19504Y-52179D01*
X19467Y-52156D01*
X19434Y-52128D01*
X19406Y-52095D01*
X19383Y-52058D01*
X19367Y-52018D01*
X19357Y-51976D01*
X19353Y-51933D01*
Y-49355D01*
X18646D01*
Y-51933D01*
X18643Y-51976D01*
X18633Y-52018D01*
X18616Y-52058D01*
X18593Y-52095D01*
X18565Y-52128D01*
X18532Y-52156D01*
X18495Y-52179D01*
X18455Y-52196D01*
X18413Y-52206D01*
X18370Y-52209D01*
X17464D01*
X17421Y-52206D01*
X17379Y-52196D01*
X17339Y-52179D01*
X17302Y-52156D01*
X17269Y-52128D01*
X17241Y-52095D01*
X17218Y-52058D01*
X17201Y-52018D01*
X17191Y-51976D01*
X17188Y-51933D01*
Y-47780D01*
X14964D01*
X14921Y-47777D01*
X14879Y-47767D01*
X14839Y-47750D01*
X14802Y-47727D01*
X14769Y-47699D01*
X14741Y-47666D01*
X14718Y-47629D01*
X14701Y-47589D01*
X14691Y-47547D01*
X14688Y-47504D01*
Y-35496D01*
X14691Y-35452D01*
X14701Y-35410D01*
X14718Y-35370D01*
X14741Y-35333D01*
X14769Y-35300D01*
X14802Y-35272D01*
X14839Y-35249D01*
X14879Y-35233D01*
X14921Y-35223D01*
X14964Y-35219D01*
X17188D01*
Y-31067D01*
X17191Y-31023D01*
X17201Y-30981D01*
X17218Y-30941D01*
X17241Y-30904D01*
X17269Y-30871D01*
X17302Y-30843D01*
X17339Y-30820D01*
X17379Y-30804D01*
X17421Y-30794D01*
X17464Y-30790D01*
X18370D01*
X18413Y-30794D01*
X18455Y-30804D01*
X18495Y-30820D01*
X18532Y-30843D01*
X18565Y-30871D01*
X18593Y-30904D01*
X18616Y-30941D01*
X18633Y-30981D01*
X18643Y-31023D01*
X18646Y-31067D01*
Y-33645D01*
X19353D01*
Y-31067D01*
X19357Y-31023D01*
X19367Y-30981D01*
X19383Y-30941D01*
X19406Y-30904D01*
X19434Y-30871D01*
X19467Y-30843D01*
X19504Y-30820D01*
X19544Y-30804D01*
X19586Y-30794D01*
X19630Y-30790D01*
X20535D01*
X20578Y-30794D01*
D02*
G37*
D89*
X19000Y-41500D02*
D03*
D91*
X-35000Y-53807D02*
D03*
Y-67193D02*
D03*
D95*
X94953Y2953D02*
D03*
Y984D02*
D03*
Y-984D02*
D03*
Y-2953D02*
D03*
X89047D02*
D03*
Y-984D02*
D03*
Y984D02*
D03*
Y2953D02*
D03*
D96*
X92984Y-2953D02*
D03*
X91016D02*
D03*
Y2953D02*
D03*
X92984D02*
D03*
D132*
X-75528Y35498D02*
D03*
D133*
X-12453Y11559D02*
D03*
X-6547D02*
D03*
X-12453Y6441D02*
D03*
X-6547D02*
D03*
X6547Y11559D02*
D03*
X12453D02*
D03*
X6547Y6441D02*
D03*
X12453D02*
D03*
X-2953Y2559D02*
D03*
X2953D02*
D03*
X-2953Y-2559D02*
D03*
X2953D02*
D03*
X-6547Y-11559D02*
D03*
X-12453D02*
D03*
X-6547Y-6441D02*
D03*
X-12453D02*
D03*
X12453Y-11559D02*
D03*
X6547D02*
D03*
X12453Y-6441D02*
D03*
X6547D02*
D03*
X-11667Y108491D02*
D03*
X-17573Y108491D02*
D03*
X-11667Y113609D02*
D03*
X-17573Y113609D02*
D03*
X-26037Y105632D02*
D03*
X-31942Y105632D02*
D03*
X-26037Y110750D02*
D03*
X-31942Y110750D02*
D03*
X-39911Y100923D02*
D03*
X-45816Y100923D02*
D03*
X-39911Y106041D02*
D03*
X-45816Y106041D02*
D03*
X-53051Y94443D02*
D03*
X-58957D02*
D03*
X-53051Y99561D02*
D03*
X-58957Y99561D02*
D03*
X-65233Y86303D02*
D03*
X-71139Y86303D02*
D03*
X-65233Y91421D02*
D03*
X-71139Y91421D02*
D03*
X-76249Y76643D02*
D03*
X-82154D02*
D03*
X-76249Y81761D02*
D03*
X-82154D02*
D03*
X-2953Y-109449D02*
D03*
X2953D02*
D03*
X-2953Y-114567D02*
D03*
X2953D02*
D03*
Y109449D02*
D03*
X-2953D02*
D03*
X2953Y114567D02*
D03*
X-2953D02*
D03*
X17573Y108491D02*
D03*
X11667Y108491D02*
D03*
X17573Y113609D02*
D03*
X11667Y113609D02*
D03*
X31942Y105632D02*
D03*
X26037Y105632D02*
D03*
X31942Y110750D02*
D03*
X26037Y110750D02*
D03*
X45816Y100923D02*
D03*
X39911Y100923D02*
D03*
X45816Y106041D02*
D03*
X39911Y106041D02*
D03*
X58957Y94443D02*
D03*
X53051D02*
D03*
X58957Y99561D02*
D03*
X53051Y99561D02*
D03*
X71139Y86303D02*
D03*
X65233Y86303D02*
D03*
X71139Y91421D02*
D03*
X65233Y91421D02*
D03*
X82154Y76643D02*
D03*
X76249D02*
D03*
X82154Y81761D02*
D03*
X76249D02*
D03*
D134*
X-9500Y11953D02*
D03*
Y6047D02*
D03*
X9500Y11953D02*
D03*
Y6047D02*
D03*
X0Y2953D02*
D03*
Y-2953D02*
D03*
X-9500Y-11953D02*
D03*
Y-6047D02*
D03*
X9500Y-11953D02*
D03*
Y-6047D02*
D03*
X-14620Y108097D02*
D03*
X-14620Y114003D02*
D03*
X-28990Y105239D02*
D03*
X-28990Y111144D02*
D03*
X-42864Y100529D02*
D03*
X-42864Y106435D02*
D03*
X-56004Y94049D02*
D03*
Y99954D02*
D03*
X-68186Y85909D02*
D03*
X-68186Y91815D02*
D03*
X-79202Y76249D02*
D03*
Y82154D02*
D03*
X0Y-109055D02*
D03*
Y-114961D02*
D03*
Y109055D02*
D03*
Y114961D02*
D03*
X14620Y108097D02*
D03*
X14620Y114003D02*
D03*
X28990Y105239D02*
D03*
X28990Y111144D02*
D03*
X42864Y100529D02*
D03*
X42864Y106435D02*
D03*
X56004Y94049D02*
D03*
Y99954D02*
D03*
X68186Y85909D02*
D03*
X68186Y91815D02*
D03*
X79202Y76249D02*
D03*
Y82154D02*
D03*
D135*
X-86303Y71139D02*
D03*
X-86303Y65233D02*
D03*
X-91421Y71139D02*
D03*
X-91421Y65233D02*
D03*
X-94443Y58957D02*
D03*
Y53051D02*
D03*
X-99561Y58957D02*
D03*
X-99561Y53051D02*
D03*
X-100923Y45816D02*
D03*
X-100923Y39911D02*
D03*
X-106041Y45816D02*
D03*
X-106041Y39911D02*
D03*
X-105632Y31942D02*
D03*
X-105632Y26037D02*
D03*
X-110750Y31942D02*
D03*
X-110750Y26037D02*
D03*
X-108491Y17573D02*
D03*
X-108491Y11667D02*
D03*
X-113609Y17573D02*
D03*
X-113609Y11667D02*
D03*
X-109449Y2953D02*
D03*
Y-2953D02*
D03*
X-114567Y2953D02*
D03*
Y-2953D02*
D03*
X86303Y65233D02*
D03*
X86303Y71139D02*
D03*
X91421Y65233D02*
D03*
X91421Y71139D02*
D03*
X94443Y53051D02*
D03*
Y58957D02*
D03*
X99561Y53051D02*
D03*
X99561Y58957D02*
D03*
X100923Y39911D02*
D03*
X100923Y45816D02*
D03*
X106041Y39911D02*
D03*
X106041Y45816D02*
D03*
X105632Y26037D02*
D03*
X105632Y31942D02*
D03*
X110750Y26037D02*
D03*
X110750Y31942D02*
D03*
X108491Y11667D02*
D03*
X108491Y17573D02*
D03*
X113609Y11667D02*
D03*
X113609Y17573D02*
D03*
X109449Y-2953D02*
D03*
Y2953D02*
D03*
X114567Y-2953D02*
D03*
Y2953D02*
D03*
D136*
X-85909Y68186D02*
D03*
X-91815Y68186D02*
D03*
X-94049Y56004D02*
D03*
X-99954D02*
D03*
X-100529Y42864D02*
D03*
X-106435Y42864D02*
D03*
X-105239Y28990D02*
D03*
X-111144Y28990D02*
D03*
X-108097Y14620D02*
D03*
X-114003Y14620D02*
D03*
X-109055Y0D02*
D03*
X-114961D02*
D03*
X85909Y68186D02*
D03*
X91815Y68186D02*
D03*
X94049Y56004D02*
D03*
X99954D02*
D03*
X100529Y42864D02*
D03*
X106435Y42864D02*
D03*
X105239Y28990D02*
D03*
X111144Y28990D02*
D03*
X108097Y14620D02*
D03*
X114003Y14620D02*
D03*
X109055Y0D02*
D03*
X114961D02*
D03*
D137*
X-108898Y-11358D02*
D03*
X-108127Y-17213D02*
D03*
X-113972Y-12026D02*
D03*
X-113201Y-17881D02*
D03*
D138*
X-108122Y-14235D02*
D03*
X-113977Y-15005D02*
D03*
D139*
X-106484Y-25475D02*
D03*
X-104955Y-31180D02*
D03*
X-111427Y-26800D02*
D03*
X-109899Y-32504D02*
D03*
D140*
X-105339Y-28226D02*
D03*
X-111043Y-29754D02*
D03*
D141*
X-102247Y-39156D02*
D03*
X-99988Y-44612D02*
D03*
X-106976Y-41115D02*
D03*
X-104716Y-46571D02*
D03*
D142*
X-100754Y-41734D02*
D03*
X-106210Y-43994D02*
D03*
D143*
X-96262Y-52167D02*
D03*
X-93309Y-57282D02*
D03*
X-100694Y-54726D02*
D03*
X-97741Y-59841D02*
D03*
D144*
X-94444Y-54528D02*
D03*
X-99559Y-57480D02*
D03*
D145*
X-88629Y-64286D02*
D03*
X-85034Y-68971D02*
D03*
X-92690Y-67401D02*
D03*
X-89095Y-72087D02*
D03*
D146*
X-86519Y-66389D02*
D03*
X-91204Y-69984D02*
D03*
D147*
X-79480Y-75304D02*
D03*
X-75304Y-79480D02*
D03*
X-83099Y-78923D02*
D03*
X-78923Y-83099D02*
D03*
D148*
X-77114Y-77114D02*
D03*
X-81289Y-81289D02*
D03*
D149*
X-68971Y-85034D02*
D03*
X-64286Y-88629D02*
D03*
X-72087Y-89095D02*
D03*
X-67401Y-92690D02*
D03*
D150*
X-66389Y-86519D02*
D03*
X-69984Y-91204D02*
D03*
D151*
X-57282Y-93309D02*
D03*
X-52167Y-96262D02*
D03*
X-59841Y-97741D02*
D03*
X-54726Y-100694D02*
D03*
D152*
X-54528Y-94444D02*
D03*
X-57480Y-99559D02*
D03*
D153*
X-44612Y-99988D02*
D03*
X-39156Y-102247D02*
D03*
X-46571Y-104716D02*
D03*
X-41115Y-106976D02*
D03*
D154*
X-41734Y-100754D02*
D03*
X-43994Y-106210D02*
D03*
D155*
X-31180Y-104955D02*
D03*
X-25475Y-106484D02*
D03*
X-32504Y-109899D02*
D03*
X-26800Y-111427D02*
D03*
D156*
X-28226Y-105339D02*
D03*
X-29754Y-111043D02*
D03*
D157*
X-17213Y-108127D02*
D03*
X-11358Y-108898D02*
D03*
X-17881Y-113201D02*
D03*
X-12026Y-113972D02*
D03*
D158*
X-14235Y-108122D02*
D03*
X-15005Y-113977D02*
D03*
D159*
X11358Y-108898D02*
D03*
X17213Y-108127D02*
D03*
X12026Y-113972D02*
D03*
X17881Y-113201D02*
D03*
D160*
X14235Y-108122D02*
D03*
X15005Y-113977D02*
D03*
D161*
X25475Y-106484D02*
D03*
X31180Y-104955D02*
D03*
X26800Y-111427D02*
D03*
X32504Y-109899D02*
D03*
D162*
X28226Y-105339D02*
D03*
X29754Y-111043D02*
D03*
D163*
X39156Y-102247D02*
D03*
X44612Y-99988D02*
D03*
X41115Y-106976D02*
D03*
X46571Y-104716D02*
D03*
D164*
X41734Y-100754D02*
D03*
X43994Y-106210D02*
D03*
D165*
X52167Y-96262D02*
D03*
X57282Y-93309D02*
D03*
X54726Y-100694D02*
D03*
X59841Y-97741D02*
D03*
D166*
X54528Y-94444D02*
D03*
X57480Y-99559D02*
D03*
D167*
X64286Y-88629D02*
D03*
X68971Y-85034D02*
D03*
X67401Y-92690D02*
D03*
X72087Y-89095D02*
D03*
D168*
X66389Y-86519D02*
D03*
X69984Y-91204D02*
D03*
D169*
X108127Y-17213D02*
D03*
X108898Y-11358D02*
D03*
X113201Y-17881D02*
D03*
X113972Y-12026D02*
D03*
D170*
X108122Y-14235D02*
D03*
X113977Y-15005D02*
D03*
D171*
X104955Y-31180D02*
D03*
X106484Y-25475D02*
D03*
X109899Y-32504D02*
D03*
X111427Y-26800D02*
D03*
D172*
X105339Y-28226D02*
D03*
X111043Y-29754D02*
D03*
D173*
X99988Y-44612D02*
D03*
X102247Y-39156D02*
D03*
X104716Y-46571D02*
D03*
X106976Y-41115D02*
D03*
D174*
X100754Y-41734D02*
D03*
X106210Y-43994D02*
D03*
D175*
X93309Y-57282D02*
D03*
X96262Y-52167D02*
D03*
X97741Y-59841D02*
D03*
X100694Y-54726D02*
D03*
D176*
X94444Y-54528D02*
D03*
X99559Y-57480D02*
D03*
D177*
X85034Y-68971D02*
D03*
X88629Y-64286D02*
D03*
X89095Y-72087D02*
D03*
X92690Y-67401D02*
D03*
D178*
X86519Y-66389D02*
D03*
X91204Y-69984D02*
D03*
D179*
X75304Y-79480D02*
D03*
X79480Y-75304D02*
D03*
X78923Y-83099D02*
D03*
X83099Y-78923D02*
D03*
D180*
X77114Y-77114D02*
D03*
X81289Y-81289D02*
D03*
D181*
X45740Y-75669D02*
D03*
X38260D02*
D03*
X42000Y-84331D02*
D03*
D182*
X45968Y-70000D02*
D03*
X42031D02*
D03*
X1969Y-33500D02*
D03*
X-1969D02*
D03*
X88968Y21000D02*
D03*
X85031D02*
D03*
D183*
X51000Y-76531D02*
D03*
Y-80468D02*
D03*
X-27000Y-37031D02*
D03*
Y-40968D02*
D03*
X-40000Y10469D02*
D03*
Y6532D02*
D03*
D184*
X-55500Y64260D02*
D03*
X-59240Y71740D02*
D03*
X-51760D02*
D03*
X-69500Y49760D02*
D03*
X-73240Y57240D02*
D03*
X-65760D02*
D03*
D185*
X-9339Y50909D02*
D03*
X-10913D02*
D03*
X-12488D02*
D03*
X-14063D02*
D03*
X-15638D02*
D03*
X-17213D02*
D03*
X-18787D02*
D03*
X-20362D02*
D03*
X-21937D02*
D03*
X-23512D02*
D03*
X-25087D02*
D03*
X-26661D02*
D03*
Y27091D02*
D03*
X-25087D02*
D03*
X-23512D02*
D03*
X-21937D02*
D03*
X-20362D02*
D03*
X-18787D02*
D03*
X-17213D02*
D03*
X-15638D02*
D03*
X-14063D02*
D03*
X-12488D02*
D03*
X-10913D02*
D03*
X-9339D02*
D03*
D186*
X-29909Y47661D02*
D03*
Y46087D02*
D03*
Y44512D02*
D03*
Y42937D02*
D03*
Y41362D02*
D03*
Y39787D02*
D03*
Y38213D02*
D03*
Y36638D02*
D03*
Y35063D02*
D03*
Y33488D02*
D03*
Y31913D02*
D03*
Y30339D02*
D03*
X-6091D02*
D03*
Y31913D02*
D03*
Y33488D02*
D03*
Y35063D02*
D03*
Y36638D02*
D03*
Y38213D02*
D03*
Y39787D02*
D03*
Y41362D02*
D03*
Y42937D02*
D03*
Y44512D02*
D03*
Y46087D02*
D03*
Y47661D02*
D03*
D187*
X-18000Y39000D02*
D03*
D188*
X-50260Y53000D02*
D03*
X-57740Y49260D02*
D03*
Y56740D02*
D03*
D189*
X-21043Y-21500D02*
D03*
X-13957D02*
D03*
X62957Y17500D02*
D03*
X70043D02*
D03*
X58957Y-4000D02*
D03*
X66043D02*
D03*
X-20043Y18500D02*
D03*
X-12957D02*
D03*
X67043Y6500D02*
D03*
X59957D02*
D03*
X66043Y-13000D02*
D03*
X58957D02*
D03*
D190*
X6000Y36457D02*
D03*
Y43543D02*
D03*
X-20500Y2457D02*
D03*
Y9543D02*
D03*
D191*
X16500Y42232D02*
D03*
Y58768D02*
D03*
D192*
X5350Y20500D02*
D03*
X11650D02*
D03*
X80350Y-17000D02*
D03*
X86650D02*
D03*
X15850Y-24000D02*
D03*
X22150D02*
D03*
X-20150Y-33000D02*
D03*
X-13850D02*
D03*
X27850Y24000D02*
D03*
X34150D02*
D03*
X77850Y-9500D02*
D03*
X84150D02*
D03*
X36150Y-24000D02*
D03*
X29850D02*
D03*
X20150Y67000D02*
D03*
X13850D02*
D03*
X82650Y3500D02*
D03*
X76350D02*
D03*
X-21350Y59000D02*
D03*
X-27650D02*
D03*
X-8350Y60000D02*
D03*
X-14650D02*
D03*
X-42650Y-84000D02*
D03*
X-36350D02*
D03*
X-21350Y66000D02*
D03*
X-27650D02*
D03*
D193*
X-31000Y-23150D02*
D03*
Y-16850D02*
D03*
X84000Y31850D02*
D03*
Y38150D02*
D03*
X21000Y-12150D02*
D03*
Y-5850D02*
D03*
X20500Y4350D02*
D03*
Y10650D02*
D03*
X51500Y-150D02*
D03*
Y6150D02*
D03*
X50500Y-12650D02*
D03*
Y-6350D02*
D03*
X-20500Y-6850D02*
D03*
Y-13150D02*
D03*
X-38000Y26150D02*
D03*
Y19850D02*
D03*
X-43500Y64650D02*
D03*
Y58350D02*
D03*
X8000Y59150D02*
D03*
Y52850D02*
D03*
X-28500Y7650D02*
D03*
Y1350D02*
D03*
X25500Y89650D02*
D03*
Y83350D02*
D03*
D194*
X16142Y84500D02*
D03*
X-16142D02*
D03*
X-31142Y-83500D02*
D03*
X1142D02*
D03*
D195*
X2953Y67768D02*
D03*
X-2953D02*
D03*
X-17953Y-66768D02*
D03*
X-12047D02*
D03*
D196*
X-22583Y78000D02*
D03*
X-45417D02*
D03*
D197*
X-55760Y-55276D02*
D03*
X-59500D02*
D03*
X-63240D02*
D03*
Y-64724D02*
D03*
X-55760D02*
D03*
D198*
X-34000Y-6165D02*
D03*
Y-1835D02*
D03*
X-38000Y34835D02*
D03*
Y39165D02*
D03*
D199*
X79075Y-3000D02*
D03*
X75925D02*
D03*
X30575Y32500D02*
D03*
X27425D02*
D03*
X34075Y56500D02*
D03*
X30925D02*
D03*
X-29425Y15000D02*
D03*
X-32575D02*
D03*
D200*
X-37165Y62000D02*
D03*
X-32835D02*
D03*
X77835Y11500D02*
D03*
X82165D02*
D03*
D201*
X52500Y16772D02*
D03*
Y13228D02*
D03*
D202*
X60067Y66500D02*
D03*
X55933D02*
D03*
X34567Y62000D02*
D03*
X30433D02*
D03*
X33067Y51500D02*
D03*
X28933D02*
D03*
X59567Y70500D02*
D03*
X55433D02*
D03*
X52067Y-18500D02*
D03*
X47933D02*
D03*
X80567Y-24000D02*
D03*
X76433D02*
D03*
X91567Y12000D02*
D03*
X87433D02*
D03*
D203*
X85000Y-28433D02*
D03*
Y-32567D02*
D03*
D204*
X669Y-22000D02*
D03*
X9331D02*
D03*
D205*
X21272Y24500D02*
D03*
X17728D02*
D03*
X-16228Y-39000D02*
D03*
X-19772D02*
D03*
X-11228Y66500D02*
D03*
X-14772D02*
D03*
X54772Y76500D02*
D03*
X51228D02*
D03*
X-39728Y52000D02*
D03*
X-43272D02*
D03*
D206*
X25996Y-58181D02*
D03*
X13004D02*
D03*
D207*
X19500Y-95780D02*
D03*
D208*
X25791Y-48389D02*
D03*
Y-46421D02*
D03*
Y-44452D02*
D03*
Y-42484D02*
D03*
Y-40515D02*
D03*
Y-38547D02*
D03*
Y-36578D02*
D03*
Y-34610D02*
D03*
X12208D02*
D03*
Y-36578D02*
D03*
Y-38547D02*
D03*
Y-40515D02*
D03*
Y-42484D02*
D03*
Y-44452D02*
D03*
Y-46421D02*
D03*
Y-48389D02*
D03*
X-20807Y-50063D02*
D03*
Y-52031D02*
D03*
Y-54000D02*
D03*
Y-55968D02*
D03*
Y-57937D02*
D03*
X-9193D02*
D03*
Y-55968D02*
D03*
Y-54000D02*
D03*
Y-52031D02*
D03*
Y-50063D02*
D03*
D209*
X21952Y-32740D02*
D03*
X16047D02*
D03*
Y-50260D02*
D03*
X21952D02*
D03*
D210*
X89772Y-23500D02*
D03*
X86228D02*
D03*
X60772Y-70000D02*
D03*
X57228D02*
D03*
X-54728Y-74000D02*
D03*
X-58272D02*
D03*
D211*
X-50937Y-77500D02*
D03*
X-38063D02*
D03*
D212*
X29000Y41075D02*
D03*
Y37925D02*
D03*
X31000Y86425D02*
D03*
Y89575D02*
D03*
X90000Y-28425D02*
D03*
Y-31575D02*
D03*
D213*
X33776Y72260D02*
D03*
Y76000D02*
D03*
Y79740D02*
D03*
X43224D02*
D03*
Y76000D02*
D03*
Y72260D02*
D03*
D214*
X25500Y77000D02*
D03*
D215*
X-15000Y-54000D02*
D03*
D216*
X-559Y-50634D02*
D03*
X2000D02*
D03*
X4559D02*
D03*
Y-42366D02*
D03*
X2000D02*
D03*
X-559D02*
D03*
D217*
X2000Y-46500D02*
D03*
D218*
X85500Y-36531D02*
D03*
Y-40468D02*
D03*
X81000Y-28532D02*
D03*
Y-32469D02*
D03*
X-7000Y-66031D02*
D03*
Y-69968D02*
D03*
X81000Y-37031D02*
D03*
Y-40968D02*
D03*
D219*
X79969Y16500D02*
D03*
X76032D02*
D03*
X79969Y24500D02*
D03*
X76032D02*
D03*
X7468Y30000D02*
D03*
X3531D02*
D03*
X79969Y20000D02*
D03*
X76032D02*
D03*
D220*
X81000Y-45630D02*
D03*
Y-49370D02*
D03*
X2000Y58370D02*
D03*
Y54630D02*
D03*
X2500Y-57130D02*
D03*
Y-60870D02*
D03*
X2000Y-65630D02*
D03*
Y-69370D02*
D03*
D221*
X32000Y-38157D02*
D03*
Y-32842D02*
D03*
X-6000Y-23658D02*
D03*
Y-18342D02*
D03*
X-3000Y-57342D02*
D03*
Y-62657D02*
D03*
D222*
X13547Y34961D02*
D03*
X19453D02*
D03*
X13547Y30039D02*
D03*
X19453D02*
D03*
D223*
X40429Y-4760D02*
D03*
Y-8500D02*
D03*
Y-12240D02*
D03*
X31571D02*
D03*
Y-8500D02*
D03*
Y-4760D02*
D03*
Y4760D02*
D03*
Y8500D02*
D03*
Y12240D02*
D03*
X40429D02*
D03*
Y8500D02*
D03*
Y4760D02*
D03*
D224*
X-15984Y-47898D02*
D03*
X-14016D02*
D03*
Y-60102D02*
D03*
X-15984D02*
D03*
D225*
X-10913Y41362D02*
D03*
Y36638D02*
D03*
Y31913D02*
D03*
X-15638Y46087D02*
D03*
Y41362D02*
D03*
Y36638D02*
D03*
Y31913D02*
D03*
X-20362Y46087D02*
D03*
Y41362D02*
D03*
Y36638D02*
D03*
Y31913D02*
D03*
X-25087Y46087D02*
D03*
Y41362D02*
D03*
Y36638D02*
D03*
Y31913D02*
D03*
M02*
