G04 Layer_Physical_Order=4*
G04 Layer_Color=16711680*
%FSLAX25Y25*%
%MOIN*%
G70*
G01*
G75*
%ADD97C,0.01969*%
%ADD109C,0.02598*%
%ADD110C,0.02400*%
%ADD114R,0.01200X0.04000*%
%ADD115R,0.04000X0.01200*%
%ADD116R,0.07874X0.07874*%
D97*
X1969Y-104500D02*
D03*
X-1969D02*
D03*
D109*
X-10913Y46087D02*
D03*
Y41362D02*
D03*
Y36638D02*
D03*
Y31913D02*
D03*
X-15638Y46087D02*
D03*
Y41362D02*
D03*
Y36638D02*
D03*
Y31913D02*
D03*
X-20362Y46087D02*
D03*
Y41362D02*
D03*
Y36638D02*
D03*
Y31913D02*
D03*
X-25087Y46087D02*
D03*
Y41362D02*
D03*
Y36638D02*
D03*
Y31913D02*
D03*
D110*
X17031Y-37563D02*
D03*
Y-41500D02*
D03*
Y-45437D02*
D03*
X20968Y-37563D02*
D03*
Y-41500D02*
D03*
Y-45437D02*
D03*
X-15000Y-54000D02*
D03*
X-13032Y-51047D02*
D03*
X-16969D02*
D03*
Y-56953D02*
D03*
X-13032D02*
D03*
X425Y-46500D02*
D03*
X3575D02*
D03*
X55032Y41032D02*
D03*
X58969Y44969D02*
D03*
Y-41032D02*
D03*
X55032Y-44969D02*
D03*
D114*
X46000Y26500D02*
D03*
X48000D02*
D03*
X50000D02*
D03*
X52000D02*
D03*
X54000D02*
D03*
X56000D02*
D03*
X58000D02*
D03*
X60000D02*
D03*
X62000D02*
D03*
X64000D02*
D03*
X66000D02*
D03*
X68000D02*
D03*
Y59500D02*
D03*
X66000D02*
D03*
X64000D02*
D03*
X62000D02*
D03*
X60000D02*
D03*
X58000D02*
D03*
X56000D02*
D03*
X54000D02*
D03*
X52000D02*
D03*
X50000D02*
D03*
X48000D02*
D03*
X46000D02*
D03*
X68000Y-26500D02*
D03*
X66000D02*
D03*
X64000D02*
D03*
X62000D02*
D03*
X60000D02*
D03*
X58000D02*
D03*
X56000D02*
D03*
X54000D02*
D03*
X52000D02*
D03*
X50000D02*
D03*
X48000D02*
D03*
X46000D02*
D03*
Y-59500D02*
D03*
X48000D02*
D03*
X50000D02*
D03*
X52000D02*
D03*
X54000D02*
D03*
X56000D02*
D03*
X58000D02*
D03*
X60000D02*
D03*
X62000D02*
D03*
X64000D02*
D03*
X66000D02*
D03*
X68000D02*
D03*
D115*
X73500Y32000D02*
D03*
Y34000D02*
D03*
Y36000D02*
D03*
Y38000D02*
D03*
Y40000D02*
D03*
Y42000D02*
D03*
Y44000D02*
D03*
Y46000D02*
D03*
Y48000D02*
D03*
Y50000D02*
D03*
Y52000D02*
D03*
Y54000D02*
D03*
X40500D02*
D03*
Y52000D02*
D03*
Y50000D02*
D03*
Y48000D02*
D03*
Y46000D02*
D03*
Y44000D02*
D03*
Y42000D02*
D03*
Y40000D02*
D03*
Y38000D02*
D03*
Y36000D02*
D03*
Y34000D02*
D03*
Y32000D02*
D03*
Y-32000D02*
D03*
Y-34000D02*
D03*
Y-36000D02*
D03*
Y-38000D02*
D03*
Y-40000D02*
D03*
Y-42000D02*
D03*
Y-44000D02*
D03*
Y-46000D02*
D03*
Y-48000D02*
D03*
Y-50000D02*
D03*
Y-52000D02*
D03*
Y-54000D02*
D03*
X73500D02*
D03*
Y-52000D02*
D03*
Y-50000D02*
D03*
Y-48000D02*
D03*
Y-46000D02*
D03*
Y-44000D02*
D03*
Y-42000D02*
D03*
Y-40000D02*
D03*
Y-38000D02*
D03*
Y-36000D02*
D03*
Y-34000D02*
D03*
Y-32000D02*
D03*
D116*
X57000Y43000D02*
D03*
Y-43000D02*
D03*
M02*
