M48
;Layer_Color=9474304
;FILE_FORMAT=2:5
INCH,LZ
;TYPE=PLATED
T1F00S00C0.01299
T2F00S00C0.01300
%
T01
X-0025087Y0031913
X-0020362
X-0015638
X-0010913
Y0036638
X-0015638
Y0041362
X-0010913
Y0046087
X-0015638
X-0020362
Y0041362
Y0036638
X-0025087
Y0041362
Y0046087
T02
X0055032Y-0044969
X0058969Y-0041032
X0020968Y-00415
Y-0037563
X0017031
Y-00415
Y-0045437
X0020968
X0003575Y-00465
X0000425
X-0013032Y-0051047
X-0016969
X-0015Y-0054
X-0016969Y-0056953
X-0013032
X0055032Y0041032
X0058969Y0044969
M30
