M48
;Layer_Color=9474304
;FILE_FORMAT=2:5
INCH,LZ
;TYPE=PLATED
T1F00S00C0.00787
T2F00S00C0.01300
T3F00S00C0.04000
T4F00S00C0.04016
%
T01
X-0018049Y-0072635
X-0014112
X-0016081Y-0069682
X-0018049Y-0066729
X-0014112
X00436Y-0078425
Y-0081575
T02
X-00923Y-00705
X-00816Y-00523
X-0063932Y-0048731
X-00651Y-00729
X-00568Y-00717
X-00595Y-00791
X-0051136Y-0090131
X-00704Y-00923
X-00447Y-01073
X-00215Y-00961
X-0015Y-01152
X00151Y-01153
X0018Y-0067
X00196Y-00515
X00123Y-0053
X0005669Y-0045437
X0001732Y-0045437
X0001732Y-0045437
Y-00415
Y-0037563
X0005669
Y-00415
X-0006331Y-0046431
X-0017Y-0051478
X-0011631Y-0058281
X-0007931Y-0063432
X-000438Y-0060782
X-00267Y-00577
X-0026131Y-0068632
X-0009617Y-0030146
X-002305Y-001565
X-0023176Y0011576
X-00279
Y00163
X-0032624
Y0011576
Y0021024
X-00279
X-0023176
Y00163
X-0016904Y0006496
X-00111Y0002
X-00089Y-00016
X-0004901Y0011201
X00009Y00074
X-0010126Y0025469
X-0018531Y0029068
X-0037931Y0027968
X-0046632Y002319
X-0044232Y0020518
X-0043431Y0015316
X-00444Y00117
X-00412Y00079
X-00369Y00022
X0018568Y-0009132
X0017778Y-0014232
X0021068Y-0024732
X0028468Y-0033031
X0031032Y-0036869
X00278Y-00398
X0029568Y-0007231
Y0017075
X0013468Y0029269
X-00954Y00282
X-00996Y00088
X-01152Y0015
X-01151Y-00151
X-00958Y-00123
X-01073Y-00444
X0048044Y-00513
X0046247Y-0066853
X0058868Y-0064289
X00568Y-00774
X00708Y-0092
X0076169Y-0059232
X0081968Y-0056832
X00922Y-00706
X01073Y-00442
X01151Y-00151
X00964Y-00155
X00827Y-00123
X00777Y-00183
X0066974Y-0018726
X0070124Y-0011332
X00759Y-00037
X0084069Y0000828
X0081368Y0010768
X0085568Y0015739
X00853Y0019189
X0081368Y0023374
X0070294Y0025274
X0070268Y0020268
X00599Y00207
X0047868Y0023374
X0036869Y0026568
Y0007668
Y0003269
X0048077Y0004261
X0039369Y-0010232
X00539Y-00174
X0055869Y-0029831
X00587Y-004
X00857Y-00267
X0091969Y0015768
X01151Y00156
X0067212Y0010869
X00445Y-01073
X0066969Y0039018
X00708Y00389
X0074568Y0046668
X0084148Y0050005
X0080616Y0062157
X0071368Y0067269
X0092Y0071
X01071Y00447
X0086548Y0033744
X0061668Y0047969
X00704Y00925
X00441Y01075
X0033518Y0075568
X00331Y00488
X00298Y00381
X0017569Y0043169
X00001Y00557
X-0016632Y0064268
X-0014831Y0084469
X-00106Y00976
X-0005032Y0105504
X-00154Y01151
X-00248Y01033
X-00446Y01073
X-00417Y00856
X-00542Y00802
X-00536Y00668
X-00627Y00608
X-00578Y00502
X-00765Y0052
X-0071843Y00705
X-00922
X-01073Y00444
X-0041631Y0040569
X-00707Y00922
X00147Y01153
X0025168Y0107569
T03
X00453Y00632
T04
X-00402Y-00815
X-0031137Y-0085726
X-00124Y-00902
X-00024
X00103Y-00895
Y-00795
X0022Y-00791
Y-00891
X00239Y00808
X00139
X00039
Y00908
X00139
X00239
X-00098Y00854
X-00198
X-00298
M30
