G04 Layer_Color=8388736*
%FSLAX25Y25*%
%MOIN*%
G70*
G01*
G75*
G04:AMPARAMS|DCode=72|XSize=23.75mil|YSize=27.69mil|CornerRadius=0mil|HoleSize=0mil|Usage=FLASHONLY|Rotation=45.000|XOffset=0mil|YOffset=0mil|HoleType=Round|Shape=Rectangle|*
%AMROTATEDRECTD72*
4,1,4,0.00139,-0.01818,-0.01818,0.00139,-0.00139,0.01818,0.01818,-0.00139,0.00139,-0.01818,0.0*
%
%ADD72ROTATEDRECTD72*%

%ADD73P,0.03915X4X90.0*%
G04:AMPARAMS|DCode=74|XSize=23.75mil|YSize=27.69mil|CornerRadius=0mil|HoleSize=0mil|Usage=FLASHONLY|Rotation=52.500|XOffset=0mil|YOffset=0mil|HoleType=Round|Shape=Rectangle|*
%AMROTATEDRECTD74*
4,1,4,0.00375,-0.01785,-0.01821,-0.00099,-0.00375,0.01785,0.01821,0.00099,0.00375,-0.01785,0.0*
%
%ADD74ROTATEDRECTD74*%

%ADD75P,0.03915X4X97.5*%
G04:AMPARAMS|DCode=76|XSize=23.75mil|YSize=27.69mil|CornerRadius=0mil|HoleSize=0mil|Usage=FLASHONLY|Rotation=60.000|XOffset=0mil|YOffset=0mil|HoleType=Round|Shape=Rectangle|*
%AMROTATEDRECTD76*
4,1,4,0.00605,-0.01720,-0.01793,-0.00336,-0.00605,0.01720,0.01793,0.00336,0.00605,-0.01720,0.0*
%
%ADD76ROTATEDRECTD76*%

%ADD77P,0.03915X4X105.0*%
G04:AMPARAMS|DCode=78|XSize=23.75mil|YSize=27.69mil|CornerRadius=0mil|HoleSize=0mil|Usage=FLASHONLY|Rotation=67.500|XOffset=0mil|YOffset=0mil|HoleType=Round|Shape=Rectangle|*
%AMROTATEDRECTD78*
4,1,4,0.00825,-0.01627,-0.01733,-0.00567,-0.00825,0.01627,0.01733,0.00567,0.00825,-0.01627,0.0*
%
%ADD78ROTATEDRECTD78*%

%ADD79P,0.03915X4X112.5*%
G04:AMPARAMS|DCode=80|XSize=23.75mil|YSize=27.69mil|CornerRadius=0mil|HoleSize=0mil|Usage=FLASHONLY|Rotation=75.000|XOffset=0mil|YOffset=0mil|HoleType=Round|Shape=Rectangle|*
%AMROTATEDRECTD80*
4,1,4,0.01030,-0.01505,-0.01644,-0.00789,-0.01030,0.01505,0.01644,0.00789,0.01030,-0.01505,0.0*
%
%ADD80ROTATEDRECTD80*%

%ADD81P,0.03915X4X120.0*%
G04:AMPARAMS|DCode=82|XSize=23.75mil|YSize=27.69mil|CornerRadius=0mil|HoleSize=0mil|Usage=FLASHONLY|Rotation=82.500|XOffset=0mil|YOffset=0mil|HoleType=Round|Shape=Rectangle|*
%AMROTATEDRECTD82*
4,1,4,0.01217,-0.01358,-0.01527,-0.00997,-0.01217,0.01358,0.01527,0.00997,0.01217,-0.01358,0.0*
%
%ADD82ROTATEDRECTD82*%

%ADD83P,0.03915X4X127.5*%
%ADD84R,0.02769X0.02375*%
%ADD85R,0.02769X0.02769*%
%ADD86R,0.02375X0.02769*%
%ADD87R,0.02769X0.02769*%
%ADD88R,0.04343X0.04737*%
%ADD89R,0.04737X0.04343*%
G04:AMPARAMS|DCode=90|XSize=23.75mil|YSize=27.69mil|CornerRadius=0mil|HoleSize=0mil|Usage=FLASHONLY|Rotation=37.500|XOffset=0mil|YOffset=0mil|HoleType=Round|Shape=Rectangle|*
%AMROTATEDRECTD90*
4,1,4,-0.00099,-0.01821,-0.01785,0.00375,0.00099,0.01821,0.01785,-0.00375,-0.00099,-0.01821,0.0*
%
%ADD90ROTATEDRECTD90*%

%ADD91P,0.03915X4X82.5*%
G04:AMPARAMS|DCode=92|XSize=23.75mil|YSize=27.69mil|CornerRadius=0mil|HoleSize=0mil|Usage=FLASHONLY|Rotation=30.000|XOffset=0mil|YOffset=0mil|HoleType=Round|Shape=Rectangle|*
%AMROTATEDRECTD92*
4,1,4,-0.00336,-0.01793,-0.01720,0.00605,0.00336,0.01793,0.01720,-0.00605,-0.00336,-0.01793,0.0*
%
%ADD92ROTATEDRECTD92*%

%ADD93P,0.03915X4X75.0*%
G04:AMPARAMS|DCode=94|XSize=23.75mil|YSize=27.69mil|CornerRadius=0mil|HoleSize=0mil|Usage=FLASHONLY|Rotation=22.500|XOffset=0mil|YOffset=0mil|HoleType=Round|Shape=Rectangle|*
%AMROTATEDRECTD94*
4,1,4,-0.00567,-0.01733,-0.01627,0.00825,0.00567,0.01733,0.01627,-0.00825,-0.00567,-0.01733,0.0*
%
%ADD94ROTATEDRECTD94*%

%ADD95P,0.03915X4X67.5*%
G04:AMPARAMS|DCode=96|XSize=23.75mil|YSize=27.69mil|CornerRadius=0mil|HoleSize=0mil|Usage=FLASHONLY|Rotation=15.000|XOffset=0mil|YOffset=0mil|HoleType=Round|Shape=Rectangle|*
%AMROTATEDRECTD96*
4,1,4,-0.00789,-0.01644,-0.01505,0.01030,0.00789,0.01644,0.01505,-0.01030,-0.00789,-0.01644,0.0*
%
%ADD96ROTATEDRECTD96*%

%ADD97P,0.03915X4X60.0*%
G04:AMPARAMS|DCode=98|XSize=23.75mil|YSize=27.69mil|CornerRadius=0mil|HoleSize=0mil|Usage=FLASHONLY|Rotation=7.500|XOffset=0mil|YOffset=0mil|HoleType=Round|Shape=Rectangle|*
%AMROTATEDRECTD98*
4,1,4,-0.00997,-0.01527,-0.01358,0.01217,0.00997,0.01527,0.01358,-0.01217,-0.00997,-0.01527,0.0*
%
%ADD98ROTATEDRECTD98*%

%ADD99P,0.03915X4X52.5*%
G04:AMPARAMS|DCode=100|XSize=23.75mil|YSize=27.69mil|CornerRadius=0mil|HoleSize=0mil|Usage=FLASHONLY|Rotation=352.500|XOffset=0mil|YOffset=0mil|HoleType=Round|Shape=Rectangle|*
%AMROTATEDRECTD100*
4,1,4,-0.01358,-0.01217,-0.00997,0.01527,0.01358,0.01217,0.00997,-0.01527,-0.01358,-0.01217,0.0*
%
%ADD100ROTATEDRECTD100*%

%ADD101P,0.03915X4X397.5*%
G04:AMPARAMS|DCode=102|XSize=23.75mil|YSize=27.69mil|CornerRadius=0mil|HoleSize=0mil|Usage=FLASHONLY|Rotation=345.000|XOffset=0mil|YOffset=0mil|HoleType=Round|Shape=Rectangle|*
%AMROTATEDRECTD102*
4,1,4,-0.01505,-0.01030,-0.00789,0.01644,0.01505,0.01030,0.00789,-0.01644,-0.01505,-0.01030,0.0*
%
%ADD102ROTATEDRECTD102*%

%ADD103P,0.03915X4X390.0*%
G04:AMPARAMS|DCode=104|XSize=23.75mil|YSize=27.69mil|CornerRadius=0mil|HoleSize=0mil|Usage=FLASHONLY|Rotation=337.500|XOffset=0mil|YOffset=0mil|HoleType=Round|Shape=Rectangle|*
%AMROTATEDRECTD104*
4,1,4,-0.01627,-0.00825,-0.00567,0.01733,0.01627,0.00825,0.00567,-0.01733,-0.01627,-0.00825,0.0*
%
%ADD104ROTATEDRECTD104*%

%ADD105P,0.03915X4X382.5*%
G04:AMPARAMS|DCode=106|XSize=23.75mil|YSize=27.69mil|CornerRadius=0mil|HoleSize=0mil|Usage=FLASHONLY|Rotation=330.000|XOffset=0mil|YOffset=0mil|HoleType=Round|Shape=Rectangle|*
%AMROTATEDRECTD106*
4,1,4,-0.01720,-0.00605,-0.00336,0.01793,0.01720,0.00605,0.00336,-0.01793,-0.01720,-0.00605,0.0*
%
%ADD106ROTATEDRECTD106*%

%ADD107P,0.03915X4X375.0*%
G04:AMPARAMS|DCode=108|XSize=23.75mil|YSize=27.69mil|CornerRadius=0mil|HoleSize=0mil|Usage=FLASHONLY|Rotation=322.500|XOffset=0mil|YOffset=0mil|HoleType=Round|Shape=Rectangle|*
%AMROTATEDRECTD108*
4,1,4,-0.01785,-0.00375,-0.00099,0.01821,0.01785,0.00375,0.00099,-0.01821,-0.01785,-0.00375,0.0*
%
%ADD108ROTATEDRECTD108*%

%ADD109P,0.03915X4X367.5*%
G04:AMPARAMS|DCode=110|XSize=23.75mil|YSize=27.69mil|CornerRadius=0mil|HoleSize=0mil|Usage=FLASHONLY|Rotation=315.000|XOffset=0mil|YOffset=0mil|HoleType=Round|Shape=Rectangle|*
%AMROTATEDRECTD110*
4,1,4,-0.01818,-0.00139,0.00139,0.01818,0.01818,0.00139,-0.00139,-0.01818,-0.01818,-0.00139,0.0*
%
%ADD110ROTATEDRECTD110*%

%ADD111P,0.03915X4X360.0*%
G04:AMPARAMS|DCode=112|XSize=23.75mil|YSize=27.69mil|CornerRadius=0mil|HoleSize=0mil|Usage=FLASHONLY|Rotation=307.500|XOffset=0mil|YOffset=0mil|HoleType=Round|Shape=Rectangle|*
%AMROTATEDRECTD112*
4,1,4,-0.01821,0.00099,0.00375,0.01785,0.01821,-0.00099,-0.00375,-0.01785,-0.01821,0.00099,0.0*
%
%ADD112ROTATEDRECTD112*%

%ADD113P,0.03915X4X352.5*%
G04:AMPARAMS|DCode=114|XSize=23.75mil|YSize=27.69mil|CornerRadius=0mil|HoleSize=0mil|Usage=FLASHONLY|Rotation=300.000|XOffset=0mil|YOffset=0mil|HoleType=Round|Shape=Rectangle|*
%AMROTATEDRECTD114*
4,1,4,-0.01793,0.00336,0.00605,0.01720,0.01793,-0.00336,-0.00605,-0.01720,-0.01793,0.00336,0.0*
%
%ADD114ROTATEDRECTD114*%

%ADD115P,0.03915X4X345.0*%
G04:AMPARAMS|DCode=116|XSize=23.75mil|YSize=27.69mil|CornerRadius=0mil|HoleSize=0mil|Usage=FLASHONLY|Rotation=292.500|XOffset=0mil|YOffset=0mil|HoleType=Round|Shape=Rectangle|*
%AMROTATEDRECTD116*
4,1,4,-0.01733,0.00567,0.00825,0.01627,0.01733,-0.00567,-0.00825,-0.01627,-0.01733,0.00567,0.0*
%
%ADD116ROTATEDRECTD116*%

%ADD117P,0.03915X4X337.5*%
G04:AMPARAMS|DCode=118|XSize=23.75mil|YSize=27.69mil|CornerRadius=0mil|HoleSize=0mil|Usage=FLASHONLY|Rotation=285.000|XOffset=0mil|YOffset=0mil|HoleType=Round|Shape=Rectangle|*
%AMROTATEDRECTD118*
4,1,4,-0.01644,0.00789,0.01030,0.01505,0.01644,-0.00789,-0.01030,-0.01505,-0.01644,0.00789,0.0*
%
%ADD118ROTATEDRECTD118*%

%ADD119P,0.03915X4X330.0*%
G04:AMPARAMS|DCode=120|XSize=23.75mil|YSize=27.69mil|CornerRadius=0mil|HoleSize=0mil|Usage=FLASHONLY|Rotation=277.500|XOffset=0mil|YOffset=0mil|HoleType=Round|Shape=Rectangle|*
%AMROTATEDRECTD120*
4,1,4,-0.01527,0.00997,0.01217,0.01358,0.01527,-0.00997,-0.01217,-0.01358,-0.01527,0.00997,0.0*
%
%ADD120ROTATEDRECTD120*%

%ADD121P,0.03915X4X322.5*%
%ADD122R,0.08674X0.08674*%
%ADD123R,0.04400X0.01600*%
%ADD124R,0.01600X0.04400*%
%ADD125R,0.04934X0.03359*%
%ADD126R,0.06784X0.06784*%
%ADD127C,0.06784*%
D72*
X81289Y-81289D02*
D03*
X77114Y-77114D02*
D03*
D73*
X83099Y-78923D02*
D03*
X78923Y-83099D02*
D03*
X79480Y-75304D02*
D03*
X75304Y-79480D02*
D03*
D74*
X91204Y-69984D02*
D03*
X86519Y-66389D02*
D03*
D75*
X92690Y-67401D02*
D03*
X89095Y-72087D02*
D03*
X88629Y-64286D02*
D03*
X85034Y-68971D02*
D03*
D76*
X99559Y-57480D02*
D03*
X94444Y-54528D02*
D03*
D77*
X100694Y-54726D02*
D03*
X97741Y-59841D02*
D03*
X96262Y-52167D02*
D03*
X93309Y-57282D02*
D03*
D78*
X106210Y-43994D02*
D03*
X100754Y-41734D02*
D03*
D79*
X106976Y-41115D02*
D03*
X104716Y-46571D02*
D03*
X102247Y-39156D02*
D03*
X99988Y-44612D02*
D03*
D80*
X111043Y-29754D02*
D03*
X105339Y-28226D02*
D03*
D81*
X111427Y-26800D02*
D03*
X109899Y-32504D02*
D03*
X106484Y-25475D02*
D03*
X104955Y-31180D02*
D03*
D82*
X113977Y-15005D02*
D03*
X108122Y-14235D02*
D03*
D83*
X113972Y-12026D02*
D03*
X113201Y-17881D02*
D03*
X108898Y-11358D02*
D03*
X108127Y-17213D02*
D03*
D84*
X114961Y0D02*
D03*
X109055D02*
D03*
X114003Y14620D02*
D03*
X108097Y14620D02*
D03*
X111144Y28990D02*
D03*
X105239Y28990D02*
D03*
X106435Y42864D02*
D03*
X100529Y42864D02*
D03*
X99954Y56004D02*
D03*
X94049D02*
D03*
X91815Y68186D02*
D03*
X85909Y68186D02*
D03*
X-114961Y0D02*
D03*
X-109055D02*
D03*
X-114003Y14620D02*
D03*
X-108097Y14620D02*
D03*
X-111144Y28990D02*
D03*
X-105239Y28990D02*
D03*
X-106435Y42864D02*
D03*
X-100529Y42864D02*
D03*
X-99954Y56004D02*
D03*
X-94049D02*
D03*
X-91815Y68186D02*
D03*
X-85909Y68186D02*
D03*
D85*
X114567Y2953D02*
D03*
Y-2953D02*
D03*
X109449Y2953D02*
D03*
Y-2953D02*
D03*
X113609Y17573D02*
D03*
X113609Y11667D02*
D03*
X108491Y17573D02*
D03*
X108491Y11667D02*
D03*
X110750Y31942D02*
D03*
X110750Y26037D02*
D03*
X105632Y31942D02*
D03*
X105632Y26037D02*
D03*
X106041Y45816D02*
D03*
X106041Y39911D02*
D03*
X100923Y45816D02*
D03*
X100923Y39911D02*
D03*
X99561Y58957D02*
D03*
X99561Y53051D02*
D03*
X94443Y58957D02*
D03*
Y53051D02*
D03*
X91421Y71139D02*
D03*
X91421Y65233D02*
D03*
X86303Y71139D02*
D03*
X86303Y65233D02*
D03*
X-114567Y-2953D02*
D03*
Y2953D02*
D03*
X-109449Y-2953D02*
D03*
Y2953D02*
D03*
X-113609Y11667D02*
D03*
X-113609Y17573D02*
D03*
X-108491Y11667D02*
D03*
X-108491Y17573D02*
D03*
X-110750Y26037D02*
D03*
X-110750Y31942D02*
D03*
X-105632Y26037D02*
D03*
X-105632Y31942D02*
D03*
X-106041Y39911D02*
D03*
X-106041Y45816D02*
D03*
X-100923Y39911D02*
D03*
X-100923Y45816D02*
D03*
X-99561Y53051D02*
D03*
X-99561Y58957D02*
D03*
X-94443Y53051D02*
D03*
Y58957D02*
D03*
X-91421Y65233D02*
D03*
X-91421Y71139D02*
D03*
X-86303Y65233D02*
D03*
X-86303Y71139D02*
D03*
D86*
X79202Y82154D02*
D03*
Y76249D02*
D03*
X68186Y91815D02*
D03*
X68186Y85909D02*
D03*
X56004Y99954D02*
D03*
Y94049D02*
D03*
X42864Y106435D02*
D03*
X42864Y100529D02*
D03*
X28990Y111144D02*
D03*
X28990Y105239D02*
D03*
X14620Y114003D02*
D03*
X14620Y108097D02*
D03*
X0Y114961D02*
D03*
Y109055D02*
D03*
Y-114961D02*
D03*
Y-109055D02*
D03*
X-79202Y82154D02*
D03*
Y76249D02*
D03*
X-68186Y91815D02*
D03*
X-68186Y85909D02*
D03*
X-56004Y99954D02*
D03*
Y94049D02*
D03*
X-42864Y106435D02*
D03*
X-42864Y100529D02*
D03*
X-28990Y111144D02*
D03*
X-28990Y105239D02*
D03*
X-14620Y114003D02*
D03*
X-14620Y108097D02*
D03*
X9500Y-6047D02*
D03*
Y-11953D02*
D03*
X-9500Y-6047D02*
D03*
Y-11953D02*
D03*
X0Y-2953D02*
D03*
Y2953D02*
D03*
X9500Y6047D02*
D03*
Y11953D02*
D03*
X-9500Y6047D02*
D03*
Y11953D02*
D03*
D87*
X76249Y81761D02*
D03*
X82154D02*
D03*
X76249Y76643D02*
D03*
X82154D02*
D03*
X65233Y91421D02*
D03*
X71139Y91421D02*
D03*
X65233Y86303D02*
D03*
X71139Y86303D02*
D03*
X53051Y99561D02*
D03*
X58957Y99561D02*
D03*
X53051Y94443D02*
D03*
X58957D02*
D03*
X39911Y106041D02*
D03*
X45816Y106041D02*
D03*
X39911Y100923D02*
D03*
X45816Y100923D02*
D03*
X26037Y110750D02*
D03*
X31942Y110750D02*
D03*
X26037Y105632D02*
D03*
X31942Y105632D02*
D03*
X11667Y113609D02*
D03*
X17573Y113609D02*
D03*
X11667Y108491D02*
D03*
X17573Y108491D02*
D03*
X-2953Y114567D02*
D03*
X2953D02*
D03*
X-2953Y109449D02*
D03*
X2953D02*
D03*
Y-114567D02*
D03*
X-2953D02*
D03*
X2953Y-109449D02*
D03*
X-2953D02*
D03*
X-82154Y81761D02*
D03*
X-76249D02*
D03*
X-82154Y76643D02*
D03*
X-76249D02*
D03*
X-71139Y91421D02*
D03*
X-65233Y91421D02*
D03*
X-71139Y86303D02*
D03*
X-65233Y86303D02*
D03*
X-58957Y99561D02*
D03*
X-53051Y99561D02*
D03*
X-58957Y94443D02*
D03*
X-53051D02*
D03*
X-45816Y106041D02*
D03*
X-39911Y106041D02*
D03*
X-45816Y100923D02*
D03*
X-39911Y100923D02*
D03*
X-31942Y110750D02*
D03*
X-26037Y110750D02*
D03*
X-31942Y105632D02*
D03*
X-26037Y105632D02*
D03*
X-17573Y113609D02*
D03*
X-11667Y113609D02*
D03*
X-17573Y108491D02*
D03*
X-11667Y108491D02*
D03*
X6547Y-6441D02*
D03*
X12453D02*
D03*
X6547Y-11559D02*
D03*
X12453D02*
D03*
X-12453Y-6441D02*
D03*
X-6547D02*
D03*
X-12453Y-11559D02*
D03*
X-6547D02*
D03*
X2953Y-2559D02*
D03*
X-2953D02*
D03*
X2953Y2559D02*
D03*
X-2953D02*
D03*
X12453Y6441D02*
D03*
X6547D02*
D03*
X12453Y11559D02*
D03*
X6547D02*
D03*
X-6547Y6441D02*
D03*
X-12453D02*
D03*
X-6547Y11559D02*
D03*
X-12453D02*
D03*
D88*
X55150Y-35500D02*
D03*
X48850D02*
D03*
X55150Y-29000D02*
D03*
X48850D02*
D03*
X-50850Y32500D02*
D03*
X-57150D02*
D03*
X-50850Y39000D02*
D03*
X-57150D02*
D03*
X-6850Y46500D02*
D03*
X-13150D02*
D03*
D89*
X61500Y-35650D02*
D03*
Y-29350D02*
D03*
X-9500Y-33150D02*
D03*
Y-26850D02*
D03*
X0Y-33150D02*
D03*
Y-26850D02*
D03*
X8000Y-33150D02*
D03*
Y-26850D02*
D03*
X-63500Y39150D02*
D03*
Y32850D02*
D03*
X25500Y62150D02*
D03*
Y55850D02*
D03*
X32000Y62150D02*
D03*
Y55850D02*
D03*
X25000Y78850D02*
D03*
Y85150D02*
D03*
X-5500Y78850D02*
D03*
Y85150D02*
D03*
X1000Y78850D02*
D03*
Y85150D02*
D03*
D90*
X69984Y-91204D02*
D03*
X66389Y-86519D02*
D03*
D91*
X72087Y-89095D02*
D03*
X67401Y-92690D02*
D03*
X68971Y-85034D02*
D03*
X64286Y-88629D02*
D03*
D92*
X57480Y-99559D02*
D03*
X54528Y-94444D02*
D03*
D93*
X59841Y-97741D02*
D03*
X54726Y-100694D02*
D03*
X57282Y-93309D02*
D03*
X52167Y-96262D02*
D03*
D94*
X43994Y-106210D02*
D03*
X41734Y-100754D02*
D03*
D95*
X46571Y-104716D02*
D03*
X41115Y-106976D02*
D03*
X44612Y-99988D02*
D03*
X39156Y-102247D02*
D03*
D96*
X29754Y-111043D02*
D03*
X28226Y-105339D02*
D03*
D97*
X32504Y-109899D02*
D03*
X26800Y-111427D02*
D03*
X31180Y-104955D02*
D03*
X25475Y-106484D02*
D03*
D98*
X15005Y-113977D02*
D03*
X14235Y-108122D02*
D03*
D99*
X17881Y-113201D02*
D03*
X12026Y-113972D02*
D03*
X17213Y-108127D02*
D03*
X11358Y-108898D02*
D03*
D100*
X-15005Y-113977D02*
D03*
X-14235Y-108122D02*
D03*
D101*
X-12026Y-113972D02*
D03*
X-17881Y-113201D02*
D03*
X-11358Y-108898D02*
D03*
X-17213Y-108127D02*
D03*
D102*
X-29754Y-111043D02*
D03*
X-28226Y-105339D02*
D03*
D103*
X-26800Y-111427D02*
D03*
X-32504Y-109899D02*
D03*
X-25475Y-106484D02*
D03*
X-31180Y-104955D02*
D03*
D104*
X-43994Y-106210D02*
D03*
X-41734Y-100754D02*
D03*
D105*
X-41115Y-106976D02*
D03*
X-46571Y-104716D02*
D03*
X-39156Y-102247D02*
D03*
X-44612Y-99988D02*
D03*
D106*
X-57480Y-99559D02*
D03*
X-54528Y-94444D02*
D03*
D107*
X-54726Y-100694D02*
D03*
X-59841Y-97741D02*
D03*
X-52167Y-96262D02*
D03*
X-57282Y-93309D02*
D03*
D108*
X-69984Y-91204D02*
D03*
X-66389Y-86519D02*
D03*
D109*
X-67401Y-92690D02*
D03*
X-72087Y-89095D02*
D03*
X-64286Y-88629D02*
D03*
X-68971Y-85034D02*
D03*
D110*
X-81289Y-81289D02*
D03*
X-77114Y-77114D02*
D03*
D111*
X-78923Y-83099D02*
D03*
X-83099Y-78923D02*
D03*
X-75304Y-79480D02*
D03*
X-79480Y-75304D02*
D03*
D112*
X-91204Y-69984D02*
D03*
X-86519Y-66389D02*
D03*
D113*
X-89095Y-72087D02*
D03*
X-92690Y-67401D02*
D03*
X-85034Y-68971D02*
D03*
X-88629Y-64286D02*
D03*
D114*
X-99559Y-57480D02*
D03*
X-94444Y-54528D02*
D03*
D115*
X-97741Y-59841D02*
D03*
X-100694Y-54726D02*
D03*
X-93309Y-57282D02*
D03*
X-96262Y-52167D02*
D03*
D116*
X-106210Y-43994D02*
D03*
X-100754Y-41734D02*
D03*
D117*
X-104716Y-46571D02*
D03*
X-106976Y-41115D02*
D03*
X-99988Y-44612D02*
D03*
X-102247Y-39156D02*
D03*
D118*
X-111043Y-29754D02*
D03*
X-105339Y-28226D02*
D03*
D119*
X-109899Y-32504D02*
D03*
X-111427Y-26800D02*
D03*
X-104955Y-31180D02*
D03*
X-106484Y-25475D02*
D03*
D120*
X-113977Y-15005D02*
D03*
X-108122Y-14235D02*
D03*
D121*
X-113201Y-17881D02*
D03*
X-113972Y-12026D02*
D03*
X-108127Y-17213D02*
D03*
X-108898Y-11358D02*
D03*
D122*
X55906Y0D02*
D03*
X-55906D02*
D03*
D123*
X72406Y-11000D02*
D03*
Y-9000D02*
D03*
Y-7000D02*
D03*
Y-5000D02*
D03*
Y-3000D02*
D03*
Y-1000D02*
D03*
Y1000D02*
D03*
Y3000D02*
D03*
Y5000D02*
D03*
Y7000D02*
D03*
Y9000D02*
D03*
Y11000D02*
D03*
X39406D02*
D03*
Y9000D02*
D03*
Y7000D02*
D03*
Y5000D02*
D03*
Y3000D02*
D03*
Y1000D02*
D03*
Y-1000D02*
D03*
Y-3000D02*
D03*
Y-5000D02*
D03*
Y-7000D02*
D03*
Y-9000D02*
D03*
Y-11000D02*
D03*
X-72406Y11000D02*
D03*
Y9000D02*
D03*
Y7000D02*
D03*
Y5000D02*
D03*
Y3000D02*
D03*
Y1000D02*
D03*
Y-1000D02*
D03*
Y-3000D02*
D03*
Y-5000D02*
D03*
Y-7000D02*
D03*
Y-9000D02*
D03*
Y-11000D02*
D03*
X-39406D02*
D03*
Y-9000D02*
D03*
Y-7000D02*
D03*
Y-5000D02*
D03*
Y-3000D02*
D03*
Y-1000D02*
D03*
Y1000D02*
D03*
Y3000D02*
D03*
Y5000D02*
D03*
Y7000D02*
D03*
Y9000D02*
D03*
Y11000D02*
D03*
D124*
X66906Y16500D02*
D03*
X64906D02*
D03*
X62906D02*
D03*
X60906D02*
D03*
X58906D02*
D03*
X56906D02*
D03*
X54906D02*
D03*
X52906D02*
D03*
X50906D02*
D03*
X48906D02*
D03*
X46906D02*
D03*
X44906D02*
D03*
Y-16500D02*
D03*
X46906D02*
D03*
X48906D02*
D03*
X50906D02*
D03*
X52906D02*
D03*
X54906D02*
D03*
X56906D02*
D03*
X58906D02*
D03*
X60906D02*
D03*
X62906D02*
D03*
X64906D02*
D03*
X66906D02*
D03*
X-66906D02*
D03*
X-64906D02*
D03*
X-62906D02*
D03*
X-60906D02*
D03*
X-58906D02*
D03*
X-56906D02*
D03*
X-54906D02*
D03*
X-52906D02*
D03*
X-50906D02*
D03*
X-48906D02*
D03*
X-46906D02*
D03*
X-44906D02*
D03*
Y16500D02*
D03*
X-46906D02*
D03*
X-48906D02*
D03*
X-50906D02*
D03*
X-52906D02*
D03*
X-54906D02*
D03*
X-56906D02*
D03*
X-58906D02*
D03*
X-60906D02*
D03*
X-62906D02*
D03*
X-64906D02*
D03*
X-66906D02*
D03*
D125*
X8571Y81260D02*
D03*
Y85000D02*
D03*
Y88740D02*
D03*
X17429D02*
D03*
Y85000D02*
D03*
Y81260D02*
D03*
X-13071D02*
D03*
Y85000D02*
D03*
Y88740D02*
D03*
X-21929D02*
D03*
Y85000D02*
D03*
Y81260D02*
D03*
D126*
X-5000Y-55906D02*
D03*
X-15000Y55906D02*
D03*
Y68500D02*
D03*
D127*
X5000Y-55906D02*
D03*
X15000Y55906D02*
D03*
X5000D02*
D03*
X-5000D02*
D03*
X15000Y68500D02*
D03*
X5000D02*
D03*
X-5000D02*
D03*
M02*
