G04 Layer_Physical_Order=2*
G04 Layer_Color=16711680*
%FSLAX25Y25*%
%MOIN*%
G70*
G01*
G75*
%ADD64C,0.00800*%
%ADD65C,0.01200*%
%ADD66R,0.05984X0.05984*%
%ADD67C,0.05984*%
%ADD68C,0.02400*%
D64*
X-78900Y-11100D02*
X-31053D01*
X-101358Y11358D02*
X-78900Y-11100D01*
X-104258Y11358D02*
X-101358D01*
X-100900Y-4000D02*
Y4600D01*
X-89500Y51500D02*
Y59000D01*
X-95184Y45816D02*
X-89500Y51500D01*
X-95184Y29184D02*
Y45816D01*
Y29184D02*
X-56300Y-9700D01*
X-30400D01*
X-106900Y14035D02*
X-103935Y17000D01*
X-83500Y30000D02*
Y68500D01*
X-86500Y71500D02*
X-83500Y68500D01*
X-86500Y71500D02*
Y75500D01*
X-85500Y76500D02*
X-72500D01*
X-86500Y75500D02*
X-85500Y76500D01*
X-83500Y30000D02*
X-58353Y4853D01*
X-75000Y86500D02*
X-57500D01*
X-61400Y90300D02*
X29700D01*
X-23600Y16175D02*
Y33200D01*
Y16175D02*
X-19950Y12525D01*
X100Y7500D02*
X42900D01*
X-47500Y95500D02*
X-35500D01*
X-31942Y99057D01*
X-34500Y77000D02*
X43616D01*
X43750Y76866D01*
X37200Y99500D02*
X45950Y90750D01*
X-26000Y99500D02*
X37200D01*
X22000Y102500D02*
X34100D01*
X0Y105200D02*
X41800D01*
X45816Y96684D02*
X59000Y83500D01*
X45816Y96684D02*
Y97184D01*
X75000Y86000D02*
X75500D01*
X86000Y75500D01*
X89933Y51000D02*
Y53334D01*
X86000Y57267D02*
X89933Y53334D01*
X86000Y57267D02*
Y61656D01*
X-60906Y24150D02*
Y26094D01*
X-26500Y60500D01*
X406D01*
X5000Y55906D01*
X-67400Y55800D02*
X-61000Y62200D01*
X8706D01*
X15000Y55906D01*
X-4006Y14100D02*
X-2100D01*
X2300Y9700D01*
X29700Y90300D02*
X36500Y83500D01*
X-14235Y105200D02*
X0D01*
X2300Y9700D02*
X16900D01*
X-5000Y55906D02*
X35306Y15600D01*
X49300D01*
X36200Y72500D02*
X38700Y70000D01*
X-42200Y72500D02*
X36200D01*
X15000Y55906D02*
X42994D01*
X53600Y45300D01*
Y16800D02*
Y45300D01*
Y16800D02*
X62350Y8050D01*
X42900Y7500D02*
X43000Y7400D01*
X-3794Y11394D02*
X100Y7500D01*
X-4937Y11394D02*
X-3794D01*
X-6068Y12525D02*
X-4937Y11394D01*
X-19950Y12525D02*
X-6068D01*
X10900Y-6500D02*
X13800Y-3600D01*
X-22200Y-31000D02*
X75095D01*
X-31053Y-11100D02*
X-21953Y-20200D01*
X19553Y-20900D02*
X21429Y-19024D01*
X-32783Y-12500D02*
X-23683Y-21600D01*
X-2953Y-104800D02*
X21200D01*
X26650Y-24600D02*
X91828D01*
X25850Y-23800D02*
X26650Y-24600D01*
X-19850Y-23800D02*
X25850D01*
X41800Y105200D02*
X66200Y80800D01*
Y31400D02*
Y80800D01*
X57900Y23100D02*
X66200Y31400D01*
X-2550Y3900D02*
X6547D01*
X-5550Y6900D02*
X-2550Y3900D01*
X-13200Y6900D02*
X-5550D01*
X-15200Y8900D02*
X-13200Y6900D01*
X12400Y-13400D02*
X14437Y-15437D01*
X0Y-13400D02*
X12400D01*
X4200Y-8800D02*
X19950D01*
X-3700D02*
X4200D01*
X-9400Y-14500D02*
X-3700Y-8800D01*
X-25600Y55500D02*
X-3100Y33000D01*
Y25617D02*
Y33000D01*
Y25617D02*
X7817Y14700D01*
X21800D01*
X24600Y11900D01*
X47600D01*
X47700Y11800D01*
Y5100D02*
Y11800D01*
X-2953Y92800D02*
X33400D01*
X31169Y66000D02*
X34569Y62600D01*
X64000D01*
X81000Y10900D02*
X99800Y29700D01*
X68550Y10900D02*
X81000D01*
X-15256Y-33500D02*
X89600D01*
X90850Y-32250D01*
X25200Y14200D02*
X48650D01*
X15550Y23850D02*
X25200Y14200D01*
X2900Y23850D02*
X15550D01*
X20500Y-25200D02*
X25250D01*
X94300Y-59700D02*
Y-30500D01*
X-28456Y-33100D02*
X-12956Y-48600D01*
X63650D01*
X80300Y-65250D01*
X-29679Y-30421D02*
X-27250D01*
X-46550Y-39350D02*
Y-33516D01*
X-39400Y-26366D01*
X-37150D01*
X-68600Y-56740D02*
X-42500Y-82840D01*
X-54900Y-81500D02*
X-36700Y-99700D01*
X-97500Y-34500D02*
X-93200Y-30200D01*
Y-14200D01*
X-28300Y-28200D02*
X22250D01*
X-30400Y-9700D02*
X-21300Y-18800D01*
X18153Y-19500D02*
X20029Y-17624D01*
X45926D01*
X46900Y-16650D01*
Y2150D01*
X46200Y2850D02*
X46900Y2150D01*
X42350Y2850D02*
X46200D01*
X41000Y1500D02*
X42350Y2850D01*
X41000Y-1000D02*
Y1500D01*
X1939Y-1761D02*
X3700Y0D01*
X17288D01*
X18088Y800D01*
X28400D01*
X-22105Y11125D02*
X-8600D01*
X-7468Y9994D01*
X-4494D01*
X-600Y6100D01*
X19750D01*
X20950Y4900D01*
X-52751Y4853D02*
X-39598Y-8300D01*
X16612Y-18100D02*
X19302Y-15409D01*
X28906D01*
X44700Y384D01*
X15888Y1400D02*
X16688Y2200D01*
X2300Y1400D02*
X15888D01*
X539Y-361D02*
X2300Y1400D01*
X-27189Y-361D02*
X539D01*
X-78600Y28100D02*
Y54256D01*
Y28100D02*
X-56800Y6300D01*
X-52200D01*
X-41500Y-4400D01*
X9700D01*
X12700Y-1400D01*
X26200D01*
X7000Y13300D02*
X20400D01*
X23200Y10500D01*
X44350D01*
X45500Y9350D01*
X45950Y66750D02*
Y90750D01*
X44700Y65500D02*
X45950Y66750D01*
X5000Y55906D02*
X9006Y51900D01*
X15000D01*
X62650Y4250D01*
Y3000D02*
Y4250D01*
X99000Y-34000D02*
Y-31772D01*
X91828Y-24600D02*
X99000Y-31772D01*
X103500Y-17500D02*
Y-14000D01*
Y-17500D02*
X107500Y-21500D01*
X-108461Y17039D02*
X-104500Y21000D01*
X-87000Y-60138D02*
Y-41700D01*
X-77000Y-73214D02*
Y-70500D01*
X-61000Y-91500D02*
Y-89214D01*
X-77000Y-73214D02*
X-61000Y-89214D01*
X21429Y-19024D02*
X45024D01*
X48000Y-22000D01*
X88500Y-54528D02*
Y-38900D01*
X53300Y-102500D02*
X62600Y-93200D01*
X-48000Y-44500D02*
X10000Y-102500D01*
X49000Y-100000D02*
X84000Y-65000D01*
Y-53000D01*
X-27250Y-30421D02*
X-17671Y-40000D01*
X71000D01*
X84000Y-53000D01*
X-19000Y19000D02*
Y28000D01*
Y19000D02*
X-8906D01*
X-4006Y14100D01*
X-46550Y-39350D02*
X13910Y-99810D01*
X36325D01*
X-108461Y-4539D02*
Y17039D01*
X-89500Y-8000D02*
X-85000Y-12500D01*
X-32783D01*
X-106900Y-2600D02*
Y14035D01*
Y-2600D02*
X-101500Y-8000D01*
X-89500D01*
X-108461Y-4539D02*
X-102500Y-10500D01*
X-91100D01*
X-52000Y14000D02*
X-36239Y-1761D01*
X1939D01*
X-91100Y-10500D02*
X-86600Y-15000D01*
X-35000Y-21500D02*
X-28300Y-28200D01*
X-86600Y-15000D02*
X-39000D01*
X-35000Y-19000D01*
Y-21500D02*
Y-19000D01*
X-3500Y-15500D02*
X-3400Y-15600D01*
X8300D01*
X8400Y-15700D01*
X-4700Y-16700D02*
X-3500Y-15500D01*
X19950Y-8800D02*
X23000Y-5750D01*
Y-4500D01*
X99000Y-14000D02*
X104600Y-8400D01*
X108898D01*
X52000Y-14000D02*
X99000D01*
X48650Y14200D02*
X49900Y12950D01*
X51500Y-7500D02*
Y13400D01*
X49300Y15600D02*
X51500Y13400D01*
X49000Y-11000D02*
X52000Y-14000D01*
X49000Y-11000D02*
Y-1000D01*
X49900Y-100D01*
Y12950D01*
X92000Y6500D02*
X108000D01*
X39000Y-102500D02*
Y-92000D01*
X10000Y-102500D02*
X39000D01*
X53300D01*
X-31250Y-20300D02*
X-25050Y-26500D01*
X19200D01*
X20500Y-25200D01*
X25250D02*
X27550Y-27500D01*
X91300D01*
X94300Y-30500D01*
X82000Y-72000D02*
X94300Y-59700D01*
X-69500Y24000D02*
X-59500Y14000D01*
X-52000D01*
X-40480Y29500D02*
X-22105Y11125D01*
X-62894Y21950D02*
X-57550D01*
X-56000Y23500D01*
Y27500D01*
X-54000Y29500D01*
X-40480D01*
X-70944Y30000D02*
X-62894Y21950D01*
X-53500Y25950D02*
X-27189Y-361D01*
X-53500Y25950D02*
Y26000D01*
X16688Y2200D02*
X30200D01*
X32500Y4500D01*
Y-3500D02*
X38500D01*
X41000Y-1000D01*
X28000Y-6000D02*
X30000Y-4000D01*
Y-800D01*
X28400Y800D02*
X30000Y-800D01*
X-11604Y-16700D02*
X-4700D01*
X-13004Y-18100D02*
X16612D01*
X-39598Y-8300D02*
X-27600D01*
X-14404Y-19500D02*
X18153D01*
X-15100Y-20900D02*
X19553D01*
X-16500Y-22300D02*
X43500D01*
X-23683Y-21600D02*
X-17200D01*
X-16500Y-22300D01*
X-21953Y-20200D02*
X-15800D01*
X-15100Y-20900D01*
X-21300Y-18800D02*
X-15104D01*
X-14404Y-19500D01*
X-14643Y-16462D02*
X-13004Y-18100D01*
X-27600Y-8300D02*
X-19438Y-16462D01*
X-14643D01*
X-18700Y-11400D02*
X-15200Y-7900D01*
X-13504Y-14800D02*
X-11604Y-16700D01*
X-18700Y-13511D02*
X-17411Y-14800D01*
X-18700Y-13511D02*
Y-11400D01*
X-17411Y-14800D02*
X-13504D01*
X-12500Y2000D02*
Y3900D01*
X-21100D02*
X-12500D01*
X-7200D01*
X-16500Y-12600D02*
X-12600D01*
X-6500Y-6500D01*
X10900D01*
X-58353Y4853D02*
X-52751D01*
X-38100Y-22000D02*
X-29679Y-30421D01*
X-40358Y-22000D02*
X-38100D01*
X-48000Y-44500D02*
Y-21404D01*
X-44096Y-17500D01*
X-40500D01*
X-19000Y28100D02*
Y31500D01*
X-29500Y49800D02*
X7000Y13300D01*
D65*
X-25044Y-55906D02*
X-5000D01*
X-44350Y-36600D02*
X-25044Y-55906D01*
X57874Y-1968D02*
X62832D01*
X66300Y1500D01*
X42200Y60600D02*
X55500Y47300D01*
X29400Y60600D02*
X42200D01*
X25700Y64300D02*
X29400Y60600D01*
X-10800Y64300D02*
X25700D01*
X-15000Y68500D02*
X-10800Y64300D01*
X55150Y-21650D02*
X97650D01*
X104000Y-28000D01*
X116000D01*
X55500Y20700D02*
Y47300D01*
Y20700D02*
X66300Y9900D01*
Y1500D02*
Y9900D01*
X-69800Y61700D02*
X-63000Y68500D01*
X-15000D01*
X-69800Y51300D02*
Y61700D01*
Y51300D02*
X-65500Y47000D01*
X-57150D01*
D66*
X-5000Y-55906D02*
D03*
X-15000Y55906D02*
D03*
Y68500D02*
D03*
D67*
X5000Y-55906D02*
D03*
X15000Y55906D02*
D03*
X5000D02*
D03*
X-5000D02*
D03*
X15000Y68500D02*
D03*
X5000D02*
D03*
X-5000D02*
D03*
D68*
X-100900Y4600D02*
D03*
X-95184Y45816D02*
D03*
X-89500Y59000D02*
D03*
X-103935Y17000D02*
D03*
X-86500Y75500D02*
D03*
X-72500Y76500D02*
D03*
X-75000Y86500D02*
D03*
X-57500D02*
D03*
X-47500Y95500D02*
D03*
X-31942Y99057D02*
D03*
X-34500Y77000D02*
D03*
X-26000Y99500D02*
D03*
X45816Y97184D02*
D03*
X59000Y83500D02*
D03*
X86000Y75500D02*
D03*
X75000Y86000D02*
D03*
X89933Y51000D02*
D03*
X86000Y61656D02*
D03*
X-60906Y24150D02*
D03*
X-67400Y55800D02*
D03*
X-7200Y3900D02*
D03*
X-4006Y14100D02*
D03*
X43750Y76866D02*
D03*
X-61400Y90300D02*
D03*
X36500Y83500D02*
D03*
X-14235Y105200D02*
D03*
X16900Y9700D02*
D03*
X2300D02*
D03*
X-100900Y-4000D02*
D03*
X38700Y70000D02*
D03*
X-42200Y72500D02*
D03*
X62350Y8050D02*
D03*
X-23600Y33200D02*
D03*
X13800Y-3600D02*
D03*
X-22200Y-31000D02*
D03*
X75095D02*
D03*
X8400Y-15700D02*
D03*
X-15200Y-7900D02*
D03*
X-87100Y-41600D02*
D03*
X-104258Y11358D02*
D03*
X43500Y-22300D02*
D03*
X21200Y-104800D02*
D03*
X-2953D02*
D03*
X34500Y102900D02*
D03*
X22000Y102500D02*
D03*
X-19850Y-23800D02*
D03*
X0Y105200D02*
D03*
X57900Y23100D02*
D03*
X6547Y3900D02*
D03*
X-15200Y8900D02*
D03*
X14437Y-15437D02*
D03*
X0Y-13400D02*
D03*
X-44350Y-36600D02*
D03*
X-57150Y47000D02*
D03*
X4200Y-8800D02*
D03*
X-9400Y-14500D02*
D03*
X-25600Y55500D02*
D03*
X47700Y5100D02*
D03*
X33400Y92800D02*
D03*
X-2953D02*
D03*
X31169Y66000D02*
D03*
X64000Y62600D02*
D03*
X99800Y29700D02*
D03*
X68550Y10900D02*
D03*
X-15256Y-33500D02*
D03*
X90850Y-32250D02*
D03*
X108898Y-8400D02*
D03*
X2900Y23850D02*
D03*
X88500Y-38900D02*
D03*
X-31250Y-20300D02*
D03*
X-28456Y-33100D02*
D03*
X80300Y-65250D02*
D03*
X62600Y-93200D02*
D03*
X36325Y-99810D02*
D03*
X-37150Y-26366D02*
D03*
X-42500Y-82840D02*
D03*
X-68600Y-56740D02*
D03*
X-54900Y-81500D02*
D03*
X-36700Y-99700D02*
D03*
X-97500Y-34500D02*
D03*
X-93200Y-14200D02*
D03*
X22250Y-28200D02*
D03*
X20950Y4900D02*
D03*
X44700Y384D02*
D03*
X32500Y4500D02*
D03*
X-78600Y54256D02*
D03*
X26200Y-1400D02*
D03*
X43000Y7400D02*
D03*
X45500Y9350D02*
D03*
X44700Y65500D02*
D03*
X62650Y3000D02*
D03*
X99000Y-34000D02*
D03*
X107500Y-21500D02*
D03*
X103500Y-14000D02*
D03*
X-104500Y21000D02*
D03*
X-87000Y-60138D02*
D03*
X-77000Y-70500D02*
D03*
X-61000Y-91500D02*
D03*
X39000Y-92000D02*
D03*
X49000Y-100000D02*
D03*
X48000Y-22000D02*
D03*
X88500Y-54528D02*
D03*
X55150Y-21650D02*
D03*
X116000Y-28000D02*
D03*
X-19000Y19000D02*
D03*
X-3500Y-15500D02*
D03*
X23000Y-4500D02*
D03*
X32500Y-3500D02*
D03*
X28000Y-6000D02*
D03*
X51500Y-7500D02*
D03*
X108000Y6500D02*
D03*
X92000D02*
D03*
X82000Y-72000D02*
D03*
X-69500Y24000D02*
D03*
X-70944Y30000D02*
D03*
X-53500Y26000D02*
D03*
X-16500Y-12600D02*
D03*
X-21100Y3900D02*
D03*
X-12500Y2000D02*
D03*
X-40358Y-22000D02*
D03*
X-40500Y-17500D02*
D03*
X-19000Y31500D02*
D03*
X-29500Y49800D02*
D03*
X53937Y1969D02*
D03*
X57874Y-1968D02*
D03*
X-53937D02*
D03*
X-57874Y1969D02*
D03*
M02*
