G04 Layer_Color=32768*
%FSLAX25Y25*%
%MOIN*%
G70*
G01*
G75*
%ADD58C,0.00197*%
D58*
X43951Y8534D02*
X49656Y7005D01*
X47008Y19942D02*
X52713Y18414D01*
X43951Y8534D02*
X47008Y19942D01*
X49656Y7005D02*
X52713Y18414D01*
X47848Y11667D02*
X48816Y15280D01*
X46526Y13958D02*
X50138Y12990D01*
X42105Y2405D02*
X43073Y6018D01*
X40783Y4695D02*
X44396Y3727D01*
X37649Y8592D02*
X49058Y5535D01*
X36121Y2888D02*
X47530Y-169D01*
X36121Y2888D02*
X37649Y8592D01*
X47530Y-169D02*
X49058Y5535D01*
X53007Y20271D02*
X54535Y25975D01*
X41598Y23328D02*
X43126Y29032D01*
X41598Y23328D02*
X53007Y20271D01*
X43126Y29032D02*
X54535Y25975D01*
X46260Y25136D02*
X49873Y24168D01*
X47582Y22845D02*
X48550Y26458D01*
X12989Y-72214D02*
Y-68474D01*
X11119Y-70344D02*
X14859D01*
X7084Y-73297D02*
X18894D01*
X7084Y-67391D02*
X18894D01*
Y-73297D02*
Y-67391D01*
X7084Y-73297D02*
Y-67391D01*
X784Y-73100D02*
X6690D01*
X784Y-61289D02*
X6690D01*
X784Y-73100D02*
Y-61289D01*
X6690Y-73100D02*
Y-61289D01*
X3737Y-69065D02*
Y-65324D01*
X1867Y-67194D02*
X5607D01*
X20272D02*
X24013D01*
X22142Y-69065D02*
Y-65324D01*
X25095Y-73100D02*
Y-61289D01*
X19190Y-73100D02*
Y-61289D01*
X25095D01*
X19190Y-73100D02*
X25095D01*
X-50179Y-23321D02*
X-44475Y-21793D01*
X-47122Y-34730D02*
X-41418Y-33201D01*
X-44475Y-21793D02*
X-41418Y-33201D01*
X-50179Y-23321D02*
X-47122Y-34730D01*
X-46282Y-26455D02*
X-45314Y-30068D01*
X-47605Y-28745D02*
X-43992Y-27777D01*
X-45609Y-16798D02*
X-44641Y-20411D01*
X-46931Y-19088D02*
X-43319Y-18120D01*
X-50065Y-22985D02*
X-38656Y-19928D01*
X-51594Y-17281D02*
X-40185Y-14224D01*
X-38656Y-19928D01*
X-51594Y-17281D02*
X-50065Y-22985D01*
X-46906Y-34774D02*
X-45378Y-40478D01*
X-35498Y-31717D02*
X-33969Y-37421D01*
X-46906Y-34774D02*
X-35498Y-31717D01*
X-45378Y-40478D02*
X-33969Y-37421D01*
X-42244Y-36582D02*
X-38631Y-35614D01*
X-40922Y-34291D02*
X-39954Y-37904D01*
X-25435Y69719D02*
X-23565Y66480D01*
X-26120Y67165D02*
X-22880Y69035D01*
X-28138Y62590D02*
X-17909Y68496D01*
X-31091Y67704D02*
X-20862Y73610D01*
X-17909Y68496D01*
X-31091Y67704D02*
X-28138Y62590D01*
X-37210Y63938D02*
X-32096Y66891D01*
X-31304Y53709D02*
X-26190Y56662D01*
X-32096Y66891D02*
X-26190Y56662D01*
X-37210Y63938D02*
X-31304Y53709D01*
X-32635Y61919D02*
X-30765Y58680D01*
X-33320Y59365D02*
X-30081Y61235D01*
X-16019Y69765D02*
X-12780Y71635D01*
X-15335Y72320D02*
X-13465Y69080D01*
X-19910Y74338D02*
X-14004Y64109D01*
X-14796Y77291D02*
X-8890Y67062D01*
X-14004Y64109D02*
X-8890Y67062D01*
X-19910Y74338D02*
X-14796Y77291D01*
X29304Y61328D02*
X31800Y66680D01*
X18600Y66320D02*
X21096Y71672D01*
X18600Y66320D02*
X29304Y61328D01*
X21096Y71672D02*
X31800Y66680D01*
X23505Y67290D02*
X26895Y65710D01*
X24410Y64805D02*
X25990Y68195D01*
X30705Y60690D02*
X34095Y59110D01*
X31610Y58205D02*
X33190Y61595D01*
X27228Y55796D02*
X32220Y66500D01*
X32580Y53300D02*
X37572Y64004D01*
X27228Y55796D02*
X32580Y53300D01*
X32220Y66500D02*
X37572Y64004D01*
X14520Y74500D02*
X19872Y72004D01*
X9528Y63796D02*
X14880Y61300D01*
X19872Y72004D01*
X9528Y63796D02*
X14520Y74500D01*
X13910Y66205D02*
X15490Y69595D01*
X13005Y68690D02*
X16395Y67110D01*
M02*
