G04 Layer_Color=65535*
%FSLAX25Y25*%
%MOIN*%
G70*
G01*
G75*
%ADD36C,0.01000*%
D36*
X67500Y43900D02*
X70035Y49336D01*
X72753Y48069D01*
X73237Y46740D01*
X72391Y44928D01*
X71063Y44445D01*
X68345Y45712D01*
X79095Y45111D02*
X75471Y46801D01*
X74203Y44083D01*
X76438Y44144D01*
X77344Y43722D01*
X77828Y42393D01*
X76983Y40581D01*
X75654Y40098D01*
X73842Y40943D01*
X73359Y42271D01*
X-44021Y32687D02*
X-47020Y37881D01*
X-44422Y39381D01*
X-43057Y39015D01*
X-42057Y37283D01*
X-42423Y35918D01*
X-45020Y34418D01*
X-35363Y37685D02*
X-38826Y35686D01*
X-37363Y41148D01*
X-37862Y42014D01*
X-39228Y42380D01*
X-40959Y41380D01*
X-41325Y40014D01*
X3660Y78036D02*
X2331Y77553D01*
X1486Y75741D01*
X1970Y74412D01*
X5594Y72723D01*
X6922Y73206D01*
X7767Y75018D01*
X7284Y76347D01*
X9035Y77736D02*
X9880Y79548D01*
X9457Y78642D01*
X4021Y81177D01*
X4505Y79848D01*
X7401Y88425D02*
X5711Y84801D01*
X8429Y83534D01*
X8368Y85768D01*
X8791Y86674D01*
X10119Y87158D01*
X11931Y86313D01*
X12415Y84984D01*
X11570Y83172D01*
X10241Y82689D01*
X19737Y50640D02*
X19253Y51969D01*
X17441Y52814D01*
X16112Y52330D01*
X14423Y48706D01*
X14906Y47377D01*
X16718Y46533D01*
X18046Y47016D01*
X19436Y45265D02*
X21248Y44420D01*
X20342Y44843D01*
X22877Y50279D01*
X21549Y49795D01*
X26684Y41885D02*
X29219Y47321D01*
X25234Y45871D01*
X28858Y44181D01*
X32836Y79340D02*
X32353Y80669D01*
X30541Y81514D01*
X29212Y81030D01*
X27523Y77406D01*
X28006Y76078D01*
X29818Y75233D01*
X31147Y75716D01*
X32536Y73965D02*
X34348Y73120D01*
X33442Y73543D01*
X35977Y78979D01*
X34648Y78495D01*
X39179Y76383D02*
X40507Y76866D01*
X42319Y76021D01*
X42803Y74693D01*
X42380Y73787D01*
X41052Y73303D01*
X40146Y73726D01*
X41052Y73303D01*
X41535Y71975D01*
X41113Y71069D01*
X39784Y70585D01*
X37972Y71430D01*
X37489Y72759D01*
X-216Y60066D02*
X150Y61431D01*
X-849Y63163D01*
X-2215Y63529D01*
X-5678Y61529D01*
X-6044Y60164D01*
X-5044Y58432D01*
X-3678Y58066D01*
X1650Y58834D02*
X3649Y55371D01*
X2784Y54871D01*
X-2679Y56335D01*
X-3545Y55835D01*
X-18755Y48268D02*
X-18389Y49634D01*
X-19388Y51365D01*
X-20754Y51731D01*
X-24217Y49732D01*
X-24583Y48366D01*
X-23583Y46635D01*
X-22218Y46269D01*
X-14890Y43574D02*
X-16755Y44805D01*
X-19486Y45537D01*
X-21218Y44537D01*
X-21584Y43172D01*
X-20584Y41440D01*
X-19218Y41074D01*
X-18353Y41574D01*
X-17987Y42940D01*
X-19486Y45537D01*
X-12472Y56136D02*
X-12106Y57502D01*
X-13106Y59233D01*
X-14471Y59599D01*
X-17934Y57600D01*
X-18300Y56234D01*
X-17300Y54503D01*
X-15935Y54137D01*
X-14301Y49308D02*
X-9107Y52307D01*
X-13204Y53405D01*
X-11204Y49942D01*
X71900Y68300D02*
X73590Y71924D01*
X76247Y72891D01*
X77214Y70234D01*
X75524Y66610D01*
X76792Y69328D01*
X73167Y71018D01*
X77336Y65765D02*
X79871Y71201D01*
X80960Y64075D01*
X83495Y69511D01*
X85307Y68666D02*
X88931Y66976D01*
X87119Y67821D01*
X84584Y62385D01*
X90926Y59428D02*
X93461Y64864D01*
X89476Y63413D01*
X93100Y61724D01*
X-63557Y19763D02*
X-65110Y25557D01*
X-62213Y26333D01*
X-60989Y25626D01*
X-60471Y23695D01*
X-61178Y22470D01*
X-64075Y21694D01*
X-54867Y22092D02*
X-56419Y27885D01*
X-58540Y24212D01*
X-54677Y25247D01*
X-46558Y-72017D02*
Y-66019D01*
X-43559D01*
X-42560Y-67019D01*
Y-69018D01*
X-43559Y-70018D01*
X-46558D01*
X-40560Y-67019D02*
X-39560Y-66019D01*
X-37561D01*
X-36562Y-67019D01*
Y-68019D01*
X-37561Y-69018D01*
X-38561D01*
X-37561D01*
X-36562Y-70018D01*
Y-71018D01*
X-37561Y-72017D01*
X-39560D01*
X-40560Y-71018D01*
X30836Y-40501D02*
X32389Y-34707D01*
X35285Y-35484D01*
X35992Y-36708D01*
X35475Y-38639D01*
X34251Y-39346D01*
X31354Y-38570D01*
X36630Y-42053D02*
X38561Y-42571D01*
X37596Y-42312D01*
X39148Y-36518D01*
X37924Y-37225D01*
X-23831Y-30637D02*
X-25056Y-29930D01*
X-26987Y-30448D01*
X-27694Y-31672D01*
X-26659Y-35534D01*
X-25434Y-36241D01*
X-23503Y-35724D01*
X-22796Y-34499D01*
X-20606Y-34948D02*
X-18675Y-34430D01*
X-19641Y-34689D01*
X-21193Y-28895D01*
X-21900Y-30119D01*
X-11916Y-32619D02*
X-15778Y-33654D01*
X-12951Y-28756D01*
X-13209Y-27791D01*
X-14434Y-27084D01*
X-16365Y-27602D01*
X-17072Y-28826D01*
X-27831Y-12137D02*
X-29056Y-11430D01*
X-30987Y-11948D01*
X-31694Y-13172D01*
X-30659Y-17034D01*
X-29434Y-17741D01*
X-27503Y-17224D01*
X-26796Y-15999D01*
X-24606Y-16448D02*
X-22675Y-15930D01*
X-23641Y-16189D01*
X-25193Y-10395D01*
X-25900Y-11620D01*
X-19778Y-15154D02*
X-17847Y-14636D01*
X-18813Y-14895D01*
X-20365Y-9102D01*
X-21072Y-10326D01*
X-30892Y-22047D02*
X-32116Y-21340D01*
X-34048Y-21858D01*
X-34754Y-23082D01*
X-33720Y-26945D01*
X-32495Y-27652D01*
X-30564Y-27134D01*
X-29857Y-25910D01*
X-27667Y-26358D02*
X-25736Y-25840D01*
X-26702Y-26099D01*
X-28254Y-20305D01*
X-28961Y-21530D01*
X-24133Y-20236D02*
X-23426Y-19012D01*
X-21495Y-18494D01*
X-20270Y-19201D01*
X-19235Y-23064D01*
X-19942Y-24288D01*
X-21873Y-24806D01*
X-23098Y-24099D01*
X-24133Y-20236D01*
X20702Y-48201D02*
X19702Y-49201D01*
Y-51200D01*
X20702Y-52200D01*
X24700D01*
X25700Y-51200D01*
Y-49201D01*
X24700Y-48201D01*
Y-46202D02*
X25700Y-45202D01*
Y-43203D01*
X24700Y-42203D01*
X20702D01*
X19702Y-43203D01*
Y-45202D01*
X20702Y-46202D01*
X21701D01*
X22701Y-45202D01*
Y-42203D01*
X-798Y-48401D02*
X-1798Y-49401D01*
Y-51400D01*
X-798Y-52400D01*
X3200D01*
X4200Y-51400D01*
Y-49401D01*
X3200Y-48401D01*
X-798Y-46402D02*
X-1798Y-45402D01*
Y-43403D01*
X-798Y-42403D01*
X201D01*
X1201Y-43403D01*
X2201Y-42403D01*
X3200D01*
X4200Y-43403D01*
Y-45402D01*
X3200Y-46402D01*
X2201D01*
X1201Y-45402D01*
X201Y-46402D01*
X-798D01*
X1201Y-45402D02*
Y-43403D01*
X11377Y-53338D02*
X10378Y-52338D01*
X8378D01*
X7379Y-53338D01*
Y-57336D01*
X8378Y-58336D01*
X10378D01*
X11377Y-57336D01*
X17376Y-52338D02*
X13377D01*
Y-55337D01*
X15376Y-54338D01*
X16376D01*
X17376Y-55337D01*
Y-57336D01*
X16376Y-58336D01*
X14377D01*
X13377Y-57336D01*
X30156Y31693D02*
X29449Y32917D01*
X27518Y33435D01*
X26294Y32728D01*
X25259Y28866D01*
X25966Y27641D01*
X27897Y27124D01*
X29121Y27831D01*
X32087Y31176D02*
X33312Y31883D01*
X35243Y31365D01*
X35950Y30141D01*
X35691Y29175D01*
X34467Y28468D01*
X33501Y28727D01*
X34467Y28468D01*
X35174Y27244D01*
X34915Y26278D01*
X33691Y25571D01*
X31759Y26089D01*
X31052Y27313D01*
X24636Y12094D02*
X23930Y13318D01*
X21998Y13836D01*
X20774Y13129D01*
X19739Y9267D01*
X20446Y8042D01*
X22377Y7525D01*
X23601Y8232D01*
X29136Y5714D02*
X25274Y6749D01*
X30171Y9576D01*
X30430Y10542D01*
X29723Y11766D01*
X27792Y12284D01*
X26568Y11577D01*
X31814Y18677D02*
X30590Y17970D01*
X30073Y16039D01*
X30779Y14814D01*
X34642Y13779D01*
X35866Y14486D01*
X36384Y16417D01*
X35677Y17642D01*
X37160Y19314D02*
X37677Y21246D01*
X37419Y20280D01*
X31625Y21832D01*
X32332Y20608D01*
X-82600Y-76800D02*
X-83635Y-72938D01*
X-82221Y-70489D01*
X-79773Y-71903D01*
X-78737Y-75765D01*
X-79514Y-72868D01*
X-83376Y-73903D01*
X-76806Y-75248D02*
X-78359Y-69454D01*
X-72944Y-74213D01*
X-74496Y-68419D01*
X-72565Y-67901D02*
X-68703Y-66866D01*
X-70634Y-67384D01*
X-69081Y-73178D01*
X-66513Y-67315D02*
X-65806Y-66090D01*
X-63875Y-65573D01*
X-62650Y-66280D01*
X-62391Y-67245D01*
X-63098Y-68470D01*
X-64064Y-68728D01*
X-63098Y-68470D01*
X-61874Y-69177D01*
X-61615Y-70142D01*
X-62322Y-71367D01*
X-64253Y-71884D01*
X-65478Y-71177D01*
X31200Y-107300D02*
Y-103301D01*
X33199Y-101302D01*
X35199Y-103301D01*
Y-107300D01*
Y-104301D01*
X31200D01*
X37198Y-107300D02*
Y-101302D01*
X41197Y-107300D01*
Y-101302D01*
X43196D02*
X47195D01*
X45195D01*
Y-107300D01*
X53193D02*
X49194D01*
X53193Y-103301D01*
Y-102302D01*
X52193Y-101302D01*
X50194D01*
X49194Y-102302D01*
X61900Y-78900D02*
X62935Y-75037D01*
X65384Y-73624D01*
X66797Y-76073D01*
X65763Y-79935D01*
X66539Y-77038D01*
X62676Y-76003D01*
X67694Y-80452D02*
X69246Y-74659D01*
X71556Y-81487D01*
X73109Y-75694D01*
X75040Y-76211D02*
X78902Y-77246D01*
X76971Y-76729D01*
X75419Y-82522D01*
X79281Y-83557D02*
X81212Y-84075D01*
X80247Y-83816D01*
X81799Y-78022D01*
X80575Y-78729D01*
X-90400Y70000D02*
X-92399Y73463D01*
X-91667Y76194D01*
X-88936Y75462D01*
X-86937Y71999D01*
X-88437Y74597D01*
X-91900Y72597D01*
X-85206Y72999D02*
X-88205Y78193D01*
X-81743Y74998D01*
X-84742Y80193D01*
X-83010Y81192D02*
X-79547Y83192D01*
X-81279Y82192D01*
X-78280Y76998D01*
X-74353Y86191D02*
X-77816Y84192D01*
X-76316Y81594D01*
X-75085Y83460D01*
X-74219Y83960D01*
X-72853Y83594D01*
X-71853Y81862D01*
X-72219Y80497D01*
X-73951Y79497D01*
X-75316Y79863D01*
X-14648Y98545D02*
X-16648Y102008D01*
X-15916Y104739D01*
X-13185Y104007D01*
X-11185Y100544D01*
X-12685Y103142D01*
X-16148Y101142D01*
X-9454Y101544D02*
X-12453Y106738D01*
X-5991Y103543D01*
X-8990Y108738D01*
X-7258Y109738D02*
X-3795Y111737D01*
X-5527Y110737D01*
X-2528Y105543D01*
X1399Y114736D02*
X167Y112871D01*
X-564Y110139D01*
X435Y108408D01*
X1801Y108042D01*
X3532Y109042D01*
X3898Y110407D01*
X3399Y111273D01*
X2033Y111639D01*
X-564Y110139D01*
M02*
