G04 Layer_Physical_Order=3*
G04 Layer_Color=16440176*
%FSLAX25Y25*%
%MOIN*%
G70*
G01*
G75*
G36*
X16253Y120459D02*
X20129Y119824D01*
X20137Y119316D01*
X19739Y119237D01*
X19094Y118806D01*
X18663Y118161D01*
X18512Y117400D01*
X18663Y116639D01*
X19094Y115994D01*
X19739Y115563D01*
X20500Y115412D01*
X21261Y115563D01*
X21906Y115994D01*
X22337Y116639D01*
X22488Y117400D01*
X22337Y118161D01*
X21906Y118806D01*
X21469Y119098D01*
X21656Y119574D01*
X23045Y119346D01*
X24910Y118931D01*
X25131Y118482D01*
X24044Y116159D01*
X24022Y116169D01*
X23525Y116191D01*
X23159Y115855D01*
X14507Y97301D01*
X14507Y97301D01*
X14485Y96804D01*
X14487Y96802D01*
X14821Y96438D01*
X16121Y95832D01*
X16256Y95350D01*
X16232Y95314D01*
X16081Y94554D01*
X16232Y93793D01*
X16663Y93148D01*
X17308Y92717D01*
X18069Y92565D01*
X18830Y92717D01*
X19475Y93148D01*
X19906Y93793D01*
X20187Y93935D01*
X69057Y71147D01*
X69550Y71126D01*
X69553Y71126D01*
X69920Y71461D01*
X69920Y71461D01*
X78572Y90016D01*
X78572Y90016D01*
X78593Y90512D01*
X78591Y90514D01*
X78258Y90879D01*
X78195Y90908D01*
X78725Y92056D01*
X79215Y92157D01*
X83482Y88349D01*
X88349Y83481D01*
X92932Y78347D01*
X97218Y72961D01*
X101192Y67341D01*
X104841Y61506D01*
X108155Y55473D01*
X111121Y49262D01*
X113731Y42893D01*
X115977Y36387D01*
X117850Y29764D01*
X119346Y23045D01*
X120243Y17573D01*
X119872Y17237D01*
X74748Y29328D01*
X74255Y29263D01*
X73953Y28869D01*
X49803Y-61259D01*
X49868Y-61751D01*
X50262Y-62054D01*
X95679Y-74223D01*
X95836Y-74698D01*
X92932Y-78347D01*
X88349Y-83482D01*
X83481Y-88349D01*
X78347Y-92932D01*
X72961Y-97218D01*
X67341Y-101192D01*
X61506Y-104841D01*
X55473Y-108155D01*
X49262Y-111121D01*
X42893Y-113731D01*
X36387Y-115977D01*
X29764Y-117850D01*
X28733Y-118080D01*
X28343Y-117767D01*
Y-117201D01*
X28802Y-117010D01*
X28992Y-116551D01*
Y-86551D01*
X28802Y-86092D01*
X28343Y-85902D01*
X16842D01*
X16383Y-86092D01*
X16193Y-86551D01*
Y-89551D01*
Y-91902D01*
X-2984D01*
X-3220Y-91461D01*
X-3121Y-91312D01*
X-2969Y-90551D01*
X-3121Y-89790D01*
X-3551Y-89145D01*
X-4197Y-88714D01*
X-4957Y-88563D01*
X-5718Y-88714D01*
X-6363Y-89145D01*
X-6794Y-89790D01*
X-6946Y-90551D01*
X-6794Y-91312D01*
X-6695Y-91461D01*
X-6931Y-91902D01*
X-22658D01*
X-23117Y-92092D01*
X-23307Y-92551D01*
Y-116551D01*
X-23117Y-117010D01*
X-22658Y-117201D01*
Y-119024D01*
X-22754Y-119106D01*
X-23157Y-119321D01*
X-29764Y-117850D01*
X-36387Y-115977D01*
X-42893Y-113731D01*
X-49262Y-111121D01*
X-55473Y-108155D01*
X-61506Y-104841D01*
X-67341Y-101192D01*
X-72961Y-97218D01*
X-78347Y-92932D01*
X-83482Y-88349D01*
X-88349Y-83481D01*
X-92932Y-78347D01*
X-97218Y-72961D01*
X-100800Y-67896D01*
X-100630Y-67426D01*
X-61263Y-56877D01*
X-60871Y-56577D01*
X-60868Y-56575D01*
X-60804Y-56082D01*
X-60804Y-56082D01*
X-80164Y16172D01*
X-80467Y16567D01*
X-80959Y16632D01*
X-120417Y6059D01*
X-120814Y6363D01*
X-120814Y12911D01*
X-120459Y16253D01*
X-119346Y23045D01*
X-117850Y29764D01*
X-115977Y36387D01*
X-113731Y42893D01*
X-111121Y49262D01*
X-108155Y55472D01*
X-104841Y61506D01*
X-101192Y67341D01*
X-97218Y72961D01*
X-92932Y78347D01*
X-88349Y83482D01*
X-83481Y88349D01*
X-78347Y92932D01*
X-76415Y94470D01*
X-75924Y94374D01*
X-60390Y66944D01*
X-14105Y93666D01*
X-28152Y117796D01*
X-27952Y118254D01*
X-23045Y119346D01*
X-16253Y120459D01*
X-12911Y120813D01*
X12911Y120814D01*
X16253Y120459D01*
D02*
G37*
%LPC*%
G36*
X-1300Y120088D02*
X-2061Y119937D01*
X-2706Y119506D01*
X-3137Y118861D01*
X-3288Y118100D01*
X-3137Y117339D01*
X-2706Y116694D01*
X-2061Y116263D01*
X-1300Y116112D01*
X-539Y116263D01*
X106Y116694D01*
X537Y117339D01*
X688Y118100D01*
X537Y118861D01*
X106Y119506D01*
X-539Y119937D01*
X-1300Y120088D01*
D02*
G37*
G36*
X-23700Y118388D02*
X-24461Y118237D01*
X-25106Y117806D01*
X-25537Y117161D01*
X-25688Y116400D01*
X-25537Y115639D01*
X-25106Y114994D01*
X-24461Y114563D01*
X-23700Y114412D01*
X-22939Y114563D01*
X-22294Y114994D01*
X-21863Y115639D01*
X-21712Y116400D01*
X-21863Y117161D01*
X-22294Y117806D01*
X-22939Y118237D01*
X-23700Y118388D01*
D02*
G37*
G36*
X10700Y98488D02*
X9939Y98337D01*
X9294Y97906D01*
X8863Y97261D01*
X8712Y96500D01*
X8863Y95739D01*
X9294Y95094D01*
X9939Y94663D01*
X10700Y94512D01*
X11461Y94663D01*
X12106Y95094D01*
X12537Y95739D01*
X12688Y96500D01*
X12537Y97261D01*
X12106Y97906D01*
X11461Y98337D01*
X10700Y98488D01*
D02*
G37*
G36*
X-11900Y97988D02*
X-12661Y97837D01*
X-13306Y97406D01*
X-13737Y96761D01*
X-13888Y96000D01*
X-13737Y95239D01*
X-13306Y94594D01*
X-12661Y94163D01*
X-11900Y94012D01*
X-11139Y94163D01*
X-10494Y94594D01*
X-10063Y95239D01*
X-9912Y96000D01*
X-10063Y96761D01*
X-10494Y97406D01*
X-11139Y97837D01*
X-11900Y97988D01*
D02*
G37*
G36*
X20400Y92188D02*
X19639Y92037D01*
X18994Y91606D01*
X18563Y90961D01*
X18412Y90200D01*
X18563Y89439D01*
X18994Y88794D01*
X19639Y88363D01*
X20400Y88212D01*
X21161Y88363D01*
X21806Y88794D01*
X22237Y89439D01*
X22388Y90200D01*
X22237Y90961D01*
X21806Y91606D01*
X21161Y92037D01*
X20400Y92188D01*
D02*
G37*
G36*
X-78000Y91588D02*
X-78761Y91437D01*
X-79406Y91006D01*
X-79837Y90361D01*
X-79988Y89600D01*
X-79837Y88839D01*
X-79406Y88194D01*
X-78761Y87763D01*
X-78000Y87612D01*
X-77239Y87763D01*
X-76594Y88194D01*
X-76163Y88839D01*
X-76012Y89600D01*
X-76163Y90361D01*
X-76594Y91006D01*
X-77239Y91437D01*
X-78000Y91588D01*
D02*
G37*
G36*
X-18700Y89888D02*
X-19461Y89737D01*
X-20106Y89306D01*
X-20537Y88661D01*
X-20688Y87900D01*
X-20537Y87139D01*
X-20106Y86494D01*
X-19461Y86063D01*
X-18700Y85912D01*
X-17939Y86063D01*
X-17294Y86494D01*
X-16863Y87139D01*
X-16712Y87900D01*
X-16863Y88661D01*
X-17294Y89306D01*
X-17939Y89737D01*
X-18700Y89888D01*
D02*
G37*
G36*
X80500Y89488D02*
X79739Y89337D01*
X79094Y88906D01*
X78663Y88261D01*
X78512Y87500D01*
X78663Y86739D01*
X79094Y86094D01*
X79739Y85663D01*
X80500Y85512D01*
X81261Y85663D01*
X81906Y86094D01*
X82337Y86739D01*
X82488Y87500D01*
X82337Y88261D01*
X81906Y88906D01*
X81261Y89337D01*
X80500Y89488D01*
D02*
G37*
G36*
X28500Y88788D02*
X27739Y88637D01*
X27094Y88206D01*
X26663Y87561D01*
X26512Y86800D01*
X26663Y86039D01*
X27094Y85394D01*
X27739Y84963D01*
X28500Y84812D01*
X29261Y84963D01*
X29906Y85394D01*
X30337Y86039D01*
X30488Y86800D01*
X30337Y87561D01*
X29906Y88206D01*
X29261Y88637D01*
X28500Y88788D01*
D02*
G37*
G36*
X17400Y85988D02*
X16639Y85837D01*
X15994Y85406D01*
X15563Y84761D01*
X15412Y84000D01*
X15563Y83239D01*
X15994Y82594D01*
X16639Y82163D01*
X17400Y82012D01*
X18161Y82163D01*
X18806Y82594D01*
X19237Y83239D01*
X19388Y84000D01*
X19237Y84761D01*
X18806Y85406D01*
X18161Y85837D01*
X17400Y85988D01*
D02*
G37*
G36*
X-26400Y85588D02*
X-27161Y85437D01*
X-27806Y85006D01*
X-28237Y84361D01*
X-28388Y83600D01*
X-28237Y82839D01*
X-27806Y82194D01*
X-27161Y81763D01*
X-26400Y81612D01*
X-25639Y81763D01*
X-24994Y82194D01*
X-24563Y82839D01*
X-24412Y83600D01*
X-24563Y84361D01*
X-24994Y85006D01*
X-25639Y85437D01*
X-26400Y85588D01*
D02*
G37*
G36*
X-14800Y82788D02*
X-15561Y82637D01*
X-16206Y82206D01*
X-16637Y81561D01*
X-16788Y80800D01*
X-16637Y80039D01*
X-16206Y79394D01*
X-15561Y78963D01*
X-14800Y78812D01*
X-14039Y78963D01*
X-13394Y79394D01*
X-12963Y80039D01*
X-12812Y80800D01*
X-12963Y81561D01*
X-13394Y82206D01*
X-14039Y82637D01*
X-14800Y82788D01*
D02*
G37*
G36*
X25400Y82688D02*
X24639Y82537D01*
X23994Y82106D01*
X23563Y81461D01*
X23412Y80700D01*
X23563Y79939D01*
X23994Y79294D01*
X24639Y78863D01*
X25400Y78712D01*
X26161Y78863D01*
X26806Y79294D01*
X27237Y79939D01*
X27388Y80700D01*
X27237Y81461D01*
X26806Y82106D01*
X26161Y82537D01*
X25400Y82688D01*
D02*
G37*
G36*
X46200Y80488D02*
X45439Y80337D01*
X44794Y79906D01*
X44363Y79261D01*
X44212Y78500D01*
X44363Y77739D01*
X44794Y77094D01*
X45439Y76663D01*
X46200Y76512D01*
X46961Y76663D01*
X47606Y77094D01*
X48037Y77739D01*
X48188Y78500D01*
X48037Y79261D01*
X47606Y79906D01*
X46961Y80337D01*
X46200Y80488D01*
D02*
G37*
G36*
X14100Y79588D02*
X13339Y79437D01*
X12694Y79006D01*
X12263Y78361D01*
X12112Y77600D01*
X12263Y76839D01*
X12694Y76194D01*
X13339Y75763D01*
X14100Y75612D01*
X14861Y75763D01*
X15506Y76194D01*
X15937Y76839D01*
X16088Y77600D01*
X15937Y78361D01*
X15506Y79006D01*
X14861Y79437D01*
X14100Y79588D01*
D02*
G37*
G36*
X-70100Y78988D02*
X-70861Y78837D01*
X-71506Y78406D01*
X-71937Y77761D01*
X-72088Y77000D01*
X-71937Y76239D01*
X-71506Y75594D01*
X-70861Y75163D01*
X-70100Y75012D01*
X-69339Y75163D01*
X-68694Y75594D01*
X-68263Y76239D01*
X-68112Y77000D01*
X-68263Y77761D01*
X-68694Y78406D01*
X-69339Y78837D01*
X-70100Y78988D01*
D02*
G37*
G36*
X-10900Y78588D02*
X-11661Y78437D01*
X-12306Y78006D01*
X-12737Y77361D01*
X-12888Y76600D01*
X-12737Y75839D01*
X-12306Y75194D01*
X-11661Y74763D01*
X-10900Y74612D01*
X-10139Y74763D01*
X-9494Y75194D01*
X-9063Y75839D01*
X-8912Y76600D01*
X-9063Y77361D01*
X-9494Y78006D01*
X-10139Y78437D01*
X-10900Y78588D01*
D02*
G37*
G36*
X-22400Y78388D02*
X-23161Y78237D01*
X-23806Y77806D01*
X-24237Y77161D01*
X-24388Y76400D01*
X-24237Y75639D01*
X-23806Y74994D01*
X-23161Y74563D01*
X-22400Y74412D01*
X-21639Y74563D01*
X-20994Y74994D01*
X-20563Y75639D01*
X-20412Y76400D01*
X-20563Y77161D01*
X-20994Y77806D01*
X-21639Y78237D01*
X-22400Y78388D01*
D02*
G37*
G36*
X-39900Y77588D02*
X-40661Y77437D01*
X-41306Y77006D01*
X-41737Y76361D01*
X-41888Y75600D01*
X-41737Y74839D01*
X-41306Y74194D01*
X-40661Y73763D01*
X-39900Y73612D01*
X-39139Y73763D01*
X-38494Y74194D01*
X-38063Y74839D01*
X-37912Y75600D01*
X-38063Y76361D01*
X-38494Y77006D01*
X-39139Y77437D01*
X-39900Y77588D01*
D02*
G37*
G36*
X22700Y76088D02*
X21939Y75937D01*
X21294Y75506D01*
X20863Y74861D01*
X20712Y74100D01*
X20863Y73339D01*
X21294Y72694D01*
X21939Y72263D01*
X22700Y72112D01*
X23461Y72263D01*
X24106Y72694D01*
X24537Y73339D01*
X24688Y74100D01*
X24537Y74861D01*
X24106Y75506D01*
X23461Y75937D01*
X22700Y76088D01*
D02*
G37*
G36*
X-30200Y73688D02*
X-30961Y73537D01*
X-31606Y73106D01*
X-32037Y72461D01*
X-32188Y71700D01*
X-32037Y70939D01*
X-31606Y70294D01*
X-30961Y69863D01*
X-30200Y69712D01*
X-29439Y69863D01*
X-28794Y70294D01*
X-28363Y70939D01*
X-28212Y71700D01*
X-28363Y72461D01*
X-28794Y73106D01*
X-29439Y73537D01*
X-30200Y73688D01*
D02*
G37*
G36*
X-7500Y72688D02*
X-8261Y72537D01*
X-8906Y72106D01*
X-9337Y71461D01*
X-9488Y70700D01*
X-9337Y69939D01*
X-8906Y69294D01*
X-8261Y68863D01*
X-7500Y68712D01*
X-6739Y68863D01*
X-6094Y69294D01*
X-5663Y69939D01*
X-5512Y70700D01*
X-5663Y71461D01*
X-6094Y72106D01*
X-6739Y72537D01*
X-7500Y72688D01*
D02*
G37*
G36*
X30500Y72588D02*
X29739Y72437D01*
X29094Y72006D01*
X28663Y71361D01*
X28512Y70600D01*
X28663Y69839D01*
X29094Y69194D01*
X29739Y68763D01*
X30500Y68612D01*
X31261Y68763D01*
X31906Y69194D01*
X32337Y69839D01*
X32488Y70600D01*
X32337Y71361D01*
X31906Y72006D01*
X31261Y72437D01*
X30500Y72588D01*
D02*
G37*
G36*
X65400Y71688D02*
X64639Y71537D01*
X63994Y71106D01*
X63563Y70461D01*
X63412Y69700D01*
X63563Y68939D01*
X63994Y68294D01*
X64639Y67863D01*
X65400Y67712D01*
X66161Y67863D01*
X66806Y68294D01*
X67237Y68939D01*
X67388Y69700D01*
X67237Y70461D01*
X66806Y71106D01*
X66161Y71537D01*
X65400Y71688D01*
D02*
G37*
G36*
X-35800Y70588D02*
X-36561Y70437D01*
X-37206Y70006D01*
X-37637Y69361D01*
X-37788Y68600D01*
X-37637Y67839D01*
X-37206Y67194D01*
X-36561Y66763D01*
X-35800Y66612D01*
X-35039Y66763D01*
X-34394Y67194D01*
X-33963Y67839D01*
X-33812Y68600D01*
X-33963Y69361D01*
X-34394Y70006D01*
X-35039Y70437D01*
X-35800Y70588D01*
D02*
G37*
G36*
X-65200Y70188D02*
X-65961Y70037D01*
X-66606Y69606D01*
X-67037Y68961D01*
X-67188Y68200D01*
X-67037Y67439D01*
X-66606Y66794D01*
X-65961Y66363D01*
X-65200Y66212D01*
X-64439Y66363D01*
X-63794Y66794D01*
X-63363Y67439D01*
X-63212Y68200D01*
X-63363Y68961D01*
X-63794Y69606D01*
X-64439Y70037D01*
X-65200Y70188D01*
D02*
G37*
G36*
X36200Y69988D02*
X35439Y69837D01*
X34794Y69406D01*
X34363Y68761D01*
X34212Y68000D01*
X34363Y67239D01*
X34794Y66594D01*
X35439Y66163D01*
X36200Y66012D01*
X36961Y66163D01*
X37606Y66594D01*
X38037Y67239D01*
X38188Y68000D01*
X38037Y68761D01*
X37606Y69406D01*
X36961Y69837D01*
X36200Y69988D01*
D02*
G37*
G36*
X8200Y69588D02*
X7439Y69437D01*
X6794Y69006D01*
X6363Y68361D01*
X6212Y67600D01*
X6363Y66839D01*
X6794Y66194D01*
X7439Y65763D01*
X8200Y65612D01*
X8961Y65763D01*
X9606Y66194D01*
X10037Y66839D01*
X10188Y67600D01*
X10037Y68361D01*
X9606Y69006D01*
X8961Y69437D01*
X8200Y69588D01*
D02*
G37*
G36*
X96300Y69188D02*
X95539Y69037D01*
X94894Y68606D01*
X94463Y67961D01*
X94312Y67200D01*
X94463Y66439D01*
X94894Y65794D01*
X95539Y65363D01*
X96300Y65212D01*
X97061Y65363D01*
X97706Y65794D01*
X98137Y66439D01*
X98288Y67200D01*
X98137Y67961D01*
X97706Y68606D01*
X97061Y69037D01*
X96300Y69188D01*
D02*
G37*
G36*
X-98700Y67488D02*
X-99461Y67337D01*
X-100106Y66906D01*
X-100537Y66261D01*
X-100688Y65500D01*
X-100537Y64739D01*
X-100106Y64094D01*
X-99461Y63663D01*
X-98700Y63512D01*
X-97939Y63663D01*
X-97294Y64094D01*
X-96863Y64739D01*
X-96712Y65500D01*
X-96863Y66261D01*
X-97294Y66906D01*
X-97939Y67337D01*
X-98700Y67488D01*
D02*
G37*
G36*
X-18800Y66488D02*
X-19561Y66337D01*
X-20206Y65906D01*
X-20637Y65261D01*
X-20788Y64500D01*
X-20637Y63739D01*
X-20206Y63094D01*
X-19561Y62663D01*
X-18800Y62512D01*
X-18039Y62663D01*
X-17394Y63094D01*
X-16963Y63739D01*
X-16812Y64500D01*
X-16963Y65261D01*
X-17394Y65906D01*
X-18039Y66337D01*
X-18800Y66488D01*
D02*
G37*
G36*
X-46240Y72332D02*
X-47578Y72156D01*
X-48826Y71639D01*
X-49897Y70817D01*
X-50719Y69746D01*
X-51235Y68499D01*
X-51411Y67160D01*
X-51235Y65822D01*
X-50719Y64574D01*
X-49897Y63503D01*
X-48826Y62681D01*
X-47578Y62165D01*
X-46240Y61989D01*
X-44901Y62165D01*
X-43654Y62681D01*
X-42583Y63503D01*
X-41761Y64574D01*
X-41244Y65822D01*
X-41068Y67160D01*
X-41244Y68499D01*
X-41761Y69746D01*
X-42583Y70817D01*
X-43654Y71639D01*
X-44901Y72156D01*
X-46240Y72332D01*
D02*
G37*
G36*
X48712Y72041D02*
X47394Y71749D01*
X46197Y71126D01*
X45201Y70214D01*
X44476Y69075D01*
X44070Y67787D01*
X44011Y66439D01*
X44303Y65120D01*
X44927Y63923D01*
X45839Y62927D01*
X46977Y62202D01*
X48265Y61796D01*
X49614Y61737D01*
X50932Y62029D01*
X52130Y62653D01*
X53125Y63565D01*
X53850Y64704D01*
X54256Y65991D01*
X54315Y67340D01*
X54023Y68658D01*
X53400Y69856D01*
X52487Y70851D01*
X51349Y71576D01*
X50061Y71983D01*
X48712Y72041D01*
D02*
G37*
G36*
X19600Y64188D02*
X18839Y64037D01*
X18194Y63606D01*
X17763Y62961D01*
X17612Y62200D01*
X17763Y61439D01*
X18194Y60794D01*
X18839Y60363D01*
X19600Y60212D01*
X20361Y60363D01*
X21006Y60794D01*
X21437Y61439D01*
X21588Y62200D01*
X21437Y62961D01*
X21006Y63606D01*
X20361Y64037D01*
X19600Y64188D01*
D02*
G37*
G36*
X-9700D02*
X-10461Y64037D01*
X-11106Y63606D01*
X-11537Y62961D01*
X-11688Y62200D01*
X-11537Y61439D01*
X-11106Y60794D01*
X-10461Y60363D01*
X-9700Y60212D01*
X-8939Y60363D01*
X-8294Y60794D01*
X-7863Y61439D01*
X-7712Y62200D01*
X-7863Y62961D01*
X-8294Y63606D01*
X-8939Y64037D01*
X-9700Y64188D01*
D02*
G37*
G36*
X-24400Y63788D02*
X-25161Y63637D01*
X-25806Y63206D01*
X-26237Y62561D01*
X-26388Y61800D01*
X-26237Y61039D01*
X-25806Y60394D01*
X-25161Y59963D01*
X-24400Y59812D01*
X-23639Y59963D01*
X-22994Y60394D01*
X-22563Y61039D01*
X-22412Y61800D01*
X-22563Y62561D01*
X-22994Y63206D01*
X-23639Y63637D01*
X-24400Y63788D01*
D02*
G37*
G36*
X25500Y61988D02*
X24739Y61837D01*
X24094Y61406D01*
X23663Y60761D01*
X23512Y60000D01*
X23663Y59239D01*
X24094Y58594D01*
X24739Y58163D01*
X25500Y58012D01*
X26261Y58163D01*
X26906Y58594D01*
X27337Y59239D01*
X27488Y60000D01*
X27337Y60761D01*
X26906Y61406D01*
X26261Y61837D01*
X25500Y61988D01*
D02*
G37*
G36*
X10900Y61788D02*
X10139Y61637D01*
X9494Y61206D01*
X9063Y60561D01*
X8912Y59800D01*
X9063Y59039D01*
X9494Y58394D01*
X10139Y57963D01*
X10900Y57812D01*
X11661Y57963D01*
X12306Y58394D01*
X12737Y59039D01*
X12888Y59800D01*
X12737Y60561D01*
X12306Y61206D01*
X11661Y61637D01*
X10900Y61788D01*
D02*
G37*
G36*
X77800Y59788D02*
X77039Y59637D01*
X76394Y59206D01*
X75963Y58561D01*
X75812Y57800D01*
X75963Y57039D01*
X76394Y56394D01*
X77039Y55963D01*
X77800Y55812D01*
X78561Y55963D01*
X79206Y56394D01*
X79637Y57039D01*
X79788Y57800D01*
X79637Y58561D01*
X79206Y59206D01*
X78561Y59637D01*
X77800Y59788D01*
D02*
G37*
G36*
X66839Y63589D02*
X65520Y63297D01*
X64323Y62673D01*
X63327Y61761D01*
X62602Y60623D01*
X62196Y59335D01*
X62137Y57986D01*
X62429Y56668D01*
X63053Y55471D01*
X63965Y54475D01*
X65104Y53750D01*
X66391Y53344D01*
X67740Y53285D01*
X69058Y53577D01*
X70256Y54200D01*
X71251Y55112D01*
X71977Y56251D01*
X72382Y57539D01*
X72441Y58888D01*
X72149Y60206D01*
X71526Y61403D01*
X70614Y62399D01*
X69475Y63124D01*
X68187Y63530D01*
X66839Y63589D01*
D02*
G37*
G36*
X-63560Y62332D02*
X-64899Y62156D01*
X-66146Y61639D01*
X-67217Y60817D01*
X-68039Y59746D01*
X-68556Y58499D01*
X-68732Y57160D01*
X-68556Y55822D01*
X-68039Y54574D01*
X-67217Y53503D01*
X-66146Y52681D01*
X-64899Y52165D01*
X-63560Y51989D01*
X-62222Y52165D01*
X-60974Y52681D01*
X-59903Y53503D01*
X-59081Y54574D01*
X-58565Y55822D01*
X-58389Y57160D01*
X-58565Y58499D01*
X-59081Y59746D01*
X-59903Y60817D01*
X-60974Y61639D01*
X-62222Y62156D01*
X-63560Y62332D01*
D02*
G37*
G36*
X-27200Y54388D02*
X-27961Y54237D01*
X-28606Y53806D01*
X-29037Y53161D01*
X-29188Y52400D01*
X-29037Y51639D01*
X-28606Y50994D01*
X-27961Y50563D01*
X-27200Y50412D01*
X-26439Y50563D01*
X-25794Y50994D01*
X-25363Y51639D01*
X-25212Y52400D01*
X-25363Y53161D01*
X-25794Y53806D01*
X-26439Y54237D01*
X-27200Y54388D01*
D02*
G37*
G36*
X28400Y53688D02*
X27639Y53537D01*
X26994Y53106D01*
X26563Y52461D01*
X26412Y51700D01*
X26563Y50939D01*
X26994Y50294D01*
X27639Y49863D01*
X28400Y49712D01*
X29161Y49863D01*
X29806Y50294D01*
X30237Y50939D01*
X30388Y51700D01*
X30237Y52461D01*
X29806Y53106D01*
X29161Y53537D01*
X28400Y53688D01*
D02*
G37*
G36*
X53549Y58752D02*
X52231Y58460D01*
X51034Y57837D01*
X50038Y56924D01*
X49313Y55786D01*
X48907Y54498D01*
X48848Y53149D01*
X49140Y51831D01*
X49764Y50634D01*
X50676Y49638D01*
X51814Y48913D01*
X53102Y48507D01*
X54451Y48448D01*
X55769Y48740D01*
X56966Y49363D01*
X57962Y50276D01*
X58687Y51414D01*
X59093Y52702D01*
X59152Y54051D01*
X58860Y55369D01*
X58236Y56566D01*
X57324Y57562D01*
X56186Y58287D01*
X54898Y58693D01*
X53549Y58752D01*
D02*
G37*
G36*
X-49900Y58672D02*
X-51239Y58496D01*
X-52486Y57979D01*
X-53557Y57157D01*
X-54379Y56086D01*
X-54896Y54839D01*
X-55072Y53500D01*
X-54896Y52161D01*
X-54379Y50914D01*
X-53557Y49843D01*
X-52486Y49021D01*
X-51239Y48504D01*
X-49900Y48328D01*
X-48561Y48504D01*
X-47314Y49021D01*
X-46243Y49843D01*
X-45421Y50914D01*
X-44904Y52161D01*
X-44728Y53500D01*
X-44904Y54839D01*
X-45421Y56086D01*
X-46243Y57157D01*
X-47314Y57979D01*
X-48561Y58496D01*
X-49900Y58672D01*
D02*
G37*
G36*
X107900Y48688D02*
X107139Y48537D01*
X106494Y48106D01*
X106063Y47461D01*
X105912Y46700D01*
X106063Y45939D01*
X106494Y45294D01*
X107139Y44863D01*
X107900Y44712D01*
X108661Y44863D01*
X109306Y45294D01*
X109737Y45939D01*
X109888Y46700D01*
X109737Y47461D01*
X109306Y48106D01*
X108661Y48537D01*
X107900Y48688D01*
D02*
G37*
G36*
X-36240Y55011D02*
X-37578Y54835D01*
X-38826Y54319D01*
X-39897Y53497D01*
X-40719Y52426D01*
X-41235Y51178D01*
X-41412Y49840D01*
X-41235Y48501D01*
X-40719Y47254D01*
X-39897Y46183D01*
X-38826Y45361D01*
X-37578Y44844D01*
X-36240Y44668D01*
X-34901Y44844D01*
X-33654Y45361D01*
X-32583Y46183D01*
X-31761Y47254D01*
X-31244Y48501D01*
X-31068Y49840D01*
X-31244Y51178D01*
X-31761Y52426D01*
X-32583Y53497D01*
X-33654Y54319D01*
X-34901Y54835D01*
X-36240Y55011D01*
D02*
G37*
G36*
X40260Y53915D02*
X38942Y53623D01*
X37744Y53000D01*
X36749Y52087D01*
X36024Y50949D01*
X35618Y49661D01*
X35559Y48312D01*
X35851Y46994D01*
X36474Y45797D01*
X37386Y44801D01*
X38525Y44076D01*
X39813Y43670D01*
X41162Y43611D01*
X42480Y43903D01*
X43677Y44527D01*
X44673Y45439D01*
X45398Y46577D01*
X45804Y47865D01*
X45863Y49214D01*
X45571Y50532D01*
X44947Y51730D01*
X44035Y52725D01*
X42896Y53450D01*
X41609Y53856D01*
X40260Y53915D01*
D02*
G37*
G36*
X-31700Y43788D02*
X-32461Y43637D01*
X-33106Y43206D01*
X-33537Y42561D01*
X-33688Y41800D01*
X-33537Y41039D01*
X-33106Y40394D01*
X-32461Y39963D01*
X-31700Y39812D01*
X-30939Y39963D01*
X-30294Y40394D01*
X-29863Y41039D01*
X-29712Y41800D01*
X-29863Y42561D01*
X-30294Y43206D01*
X-30939Y43637D01*
X-31700Y43788D01*
D02*
G37*
G36*
X87400Y43088D02*
X86639Y42937D01*
X85994Y42506D01*
X85563Y41861D01*
X85412Y41100D01*
X85563Y40339D01*
X85994Y39694D01*
X86639Y39263D01*
X87400Y39112D01*
X88161Y39263D01*
X88806Y39694D01*
X89237Y40339D01*
X89388Y41100D01*
X89237Y41861D01*
X88806Y42506D01*
X88161Y42937D01*
X87400Y43088D01*
D02*
G37*
G36*
X-2900Y42488D02*
X-3661Y42337D01*
X-4306Y41906D01*
X-4737Y41261D01*
X-4888Y40500D01*
X-4737Y39739D01*
X-4306Y39094D01*
X-3661Y38663D01*
X-2900Y38512D01*
X-2139Y38663D01*
X-1494Y39094D01*
X-1063Y39739D01*
X-912Y40500D01*
X-1063Y41261D01*
X-1494Y41906D01*
X-2139Y42337D01*
X-2900Y42488D01*
D02*
G37*
G36*
X-110400Y41788D02*
X-111161Y41637D01*
X-111806Y41206D01*
X-112237Y40561D01*
X-112388Y39800D01*
X-112237Y39039D01*
X-111806Y38394D01*
X-111161Y37963D01*
X-110400Y37812D01*
X-109639Y37963D01*
X-108994Y38394D01*
X-108563Y39039D01*
X-108412Y39800D01*
X-108563Y40561D01*
X-108994Y41206D01*
X-109639Y41637D01*
X-110400Y41788D01*
D02*
G37*
G36*
X37100Y41688D02*
X36339Y41537D01*
X35694Y41106D01*
X35263Y40461D01*
X35112Y39700D01*
X35263Y38939D01*
X35694Y38294D01*
X36339Y37863D01*
X37100Y37712D01*
X37861Y37863D01*
X38506Y38294D01*
X38937Y38939D01*
X39088Y39700D01*
X38937Y40461D01*
X38506Y41106D01*
X37861Y41537D01*
X37100Y41688D01*
D02*
G37*
G36*
X58386Y45463D02*
X57068Y45171D01*
X55870Y44547D01*
X54875Y43635D01*
X54150Y42496D01*
X53744Y41209D01*
X53685Y39860D01*
X53977Y38542D01*
X54600Y37344D01*
X55512Y36349D01*
X56651Y35623D01*
X57939Y35217D01*
X59288Y35159D01*
X60606Y35451D01*
X61803Y36074D01*
X62799Y36986D01*
X63524Y38125D01*
X63930Y39413D01*
X63989Y40762D01*
X63697Y42080D01*
X63073Y43277D01*
X62161Y44273D01*
X61023Y44998D01*
X59735Y45404D01*
X58386Y45463D01*
D02*
G37*
G36*
X-53560Y45011D02*
X-54899Y44835D01*
X-56146Y44319D01*
X-57217Y43497D01*
X-58039Y42426D01*
X-58556Y41178D01*
X-58732Y39840D01*
X-58556Y38501D01*
X-58039Y37254D01*
X-57217Y36183D01*
X-56146Y35361D01*
X-54899Y34844D01*
X-53560Y34668D01*
X-52222Y34844D01*
X-50974Y35361D01*
X-49903Y36183D01*
X-49081Y37254D01*
X-48565Y38501D01*
X-48388Y39840D01*
X-48565Y41178D01*
X-49081Y42426D01*
X-49903Y43497D01*
X-50974Y44319D01*
X-52222Y44835D01*
X-53560Y45011D01*
D02*
G37*
G36*
X76700Y34088D02*
X75939Y33937D01*
X75294Y33506D01*
X74863Y32861D01*
X74712Y32100D01*
X74863Y31339D01*
X75294Y30694D01*
X75939Y30263D01*
X76700Y30112D01*
X77461Y30263D01*
X78106Y30694D01*
X78537Y31339D01*
X78688Y32100D01*
X78537Y32861D01*
X78106Y33506D01*
X77461Y33937D01*
X76700Y34088D01*
D02*
G37*
G36*
X-49100Y33188D02*
X-49861Y33037D01*
X-50506Y32606D01*
X-50937Y31961D01*
X-51088Y31200D01*
X-50937Y30439D01*
X-50506Y29794D01*
X-49861Y29363D01*
X-49100Y29212D01*
X-48339Y29363D01*
X-47694Y29794D01*
X-47263Y30439D01*
X-47112Y31200D01*
X-47263Y31961D01*
X-47694Y32606D01*
X-48339Y33037D01*
X-49100Y33188D01*
D02*
G37*
G36*
X46300Y32888D02*
X45539Y32737D01*
X44894Y32306D01*
X44463Y31661D01*
X44312Y30900D01*
X44463Y30139D01*
X44894Y29494D01*
X45539Y29063D01*
X46300Y28912D01*
X47061Y29063D01*
X47706Y29494D01*
X48137Y30139D01*
X48288Y30900D01*
X48137Y31661D01*
X47706Y32306D01*
X47061Y32737D01*
X46300Y32888D01*
D02*
G37*
G36*
X52600Y31188D02*
X51839Y31037D01*
X51194Y30606D01*
X50763Y29961D01*
X50612Y29200D01*
X50763Y28439D01*
X51194Y27794D01*
X51839Y27363D01*
X52600Y27212D01*
X53361Y27363D01*
X54006Y27794D01*
X54437Y28439D01*
X54588Y29200D01*
X54437Y29961D01*
X54006Y30606D01*
X53361Y31037D01*
X52600Y31188D01*
D02*
G37*
G36*
X70400Y30188D02*
X69639Y30037D01*
X68994Y29606D01*
X68563Y28961D01*
X68412Y28200D01*
X68563Y27439D01*
X68994Y26794D01*
X69639Y26363D01*
X70400Y26212D01*
X71161Y26363D01*
X71806Y26794D01*
X72237Y27439D01*
X72388Y28200D01*
X72237Y28961D01*
X71806Y29606D01*
X71161Y30037D01*
X70400Y30188D01*
D02*
G37*
G36*
X92000Y30088D02*
X91239Y29937D01*
X90594Y29506D01*
X90163Y28861D01*
X90012Y28100D01*
X90163Y27339D01*
X90594Y26694D01*
X91239Y26263D01*
X92000Y26112D01*
X92761Y26263D01*
X93406Y26694D01*
X93837Y27339D01*
X93988Y28100D01*
X93837Y28861D01*
X93406Y29506D01*
X92761Y29937D01*
X92000Y30088D01*
D02*
G37*
G36*
X10900Y29888D02*
X10139Y29737D01*
X9494Y29306D01*
X9063Y28661D01*
X8912Y27900D01*
X9063Y27139D01*
X9494Y26494D01*
X10139Y26063D01*
X10900Y25912D01*
X11661Y26063D01*
X12306Y26494D01*
X12737Y27139D01*
X12888Y27900D01*
X12737Y28661D01*
X12306Y29306D01*
X11661Y29737D01*
X10900Y29888D01*
D02*
G37*
G36*
X39600Y29088D02*
X38839Y28937D01*
X38194Y28506D01*
X37763Y27861D01*
X37612Y27100D01*
X37763Y26339D01*
X38194Y25694D01*
X38839Y25263D01*
X39600Y25112D01*
X40361Y25263D01*
X41006Y25694D01*
X41437Y26339D01*
X41588Y27100D01*
X41437Y27861D01*
X41006Y28506D01*
X40361Y28937D01*
X39600Y29088D01*
D02*
G37*
G36*
X-18300Y28688D02*
X-19061Y28537D01*
X-19706Y28106D01*
X-20137Y27461D01*
X-20288Y26700D01*
X-20137Y25939D01*
X-19706Y25294D01*
X-19061Y24863D01*
X-18300Y24712D01*
X-17539Y24863D01*
X-16894Y25294D01*
X-16463Y25939D01*
X-16312Y26700D01*
X-16463Y27461D01*
X-16894Y28106D01*
X-17539Y28537D01*
X-18300Y28688D01*
D02*
G37*
G36*
X57000Y28288D02*
X56239Y28137D01*
X55594Y27706D01*
X55163Y27061D01*
X55012Y26300D01*
X55163Y25539D01*
X55594Y24894D01*
X56239Y24463D01*
X57000Y24312D01*
X57761Y24463D01*
X58406Y24894D01*
X58837Y25539D01*
X58988Y26300D01*
X58837Y27061D01*
X58406Y27706D01*
X57761Y28137D01*
X57000Y28288D01*
D02*
G37*
G36*
X62900Y26888D02*
X62139Y26737D01*
X61494Y26306D01*
X61063Y25661D01*
X60912Y24900D01*
X61063Y24139D01*
X61494Y23494D01*
X62139Y23063D01*
X62900Y22912D01*
X63661Y23063D01*
X64306Y23494D01*
X64737Y24139D01*
X64888Y24900D01*
X64737Y25661D01*
X64306Y26306D01*
X63661Y26737D01*
X62900Y26888D01*
D02*
G37*
G36*
X69000Y25288D02*
X68239Y25137D01*
X67594Y24706D01*
X67163Y24061D01*
X67012Y23300D01*
X67163Y22539D01*
X67594Y21894D01*
X68239Y21463D01*
X69000Y21312D01*
X69761Y21463D01*
X70406Y21894D01*
X70837Y22539D01*
X70988Y23300D01*
X70837Y24061D01*
X70406Y24706D01*
X69761Y25137D01*
X69000Y25288D01*
D02*
G37*
G36*
X-48400Y24088D02*
X-49161Y23937D01*
X-49806Y23506D01*
X-50237Y22861D01*
X-50388Y22100D01*
X-50237Y21339D01*
X-49806Y20694D01*
X-49161Y20263D01*
X-48400Y20112D01*
X-47639Y20263D01*
X-46994Y20694D01*
X-46563Y21339D01*
X-46412Y22100D01*
X-46563Y22861D01*
X-46994Y23506D01*
X-47639Y23937D01*
X-48400Y24088D01*
D02*
G37*
G36*
X116800Y22788D02*
X116039Y22637D01*
X115394Y22206D01*
X114963Y21561D01*
X114812Y20800D01*
X114963Y20039D01*
X115394Y19394D01*
X116039Y18963D01*
X116800Y18812D01*
X117561Y18963D01*
X118206Y19394D01*
X118637Y20039D01*
X118788Y20800D01*
X118637Y21561D01*
X118206Y22206D01*
X117561Y22637D01*
X116800Y22788D01*
D02*
G37*
G36*
X-85400Y21088D02*
X-86161Y20937D01*
X-86806Y20506D01*
X-87237Y19861D01*
X-87388Y19100D01*
X-87237Y18339D01*
X-86806Y17694D01*
X-86161Y17263D01*
X-85400Y17112D01*
X-84639Y17263D01*
X-83994Y17694D01*
X-83563Y18339D01*
X-83412Y19100D01*
X-83563Y19861D01*
X-83994Y20506D01*
X-84639Y20937D01*
X-85400Y21088D01*
D02*
G37*
G36*
X43000Y20588D02*
X42239Y20437D01*
X41594Y20006D01*
X41163Y19361D01*
X41012Y18600D01*
X41163Y17839D01*
X41594Y17194D01*
X42239Y16763D01*
X43000Y16612D01*
X43761Y16763D01*
X44406Y17194D01*
X44837Y17839D01*
X44988Y18600D01*
X44837Y19361D01*
X44406Y20006D01*
X43761Y20437D01*
X43000Y20588D01*
D02*
G37*
G36*
X61100Y18988D02*
X60339Y18837D01*
X59694Y18406D01*
X59263Y17761D01*
X59112Y17000D01*
X59263Y16239D01*
X59694Y15594D01*
X60339Y15163D01*
X61100Y15012D01*
X61861Y15163D01*
X62506Y15594D01*
X62937Y16239D01*
X63088Y17000D01*
X62937Y17761D01*
X62506Y18406D01*
X61861Y18837D01*
X61100Y18988D01*
D02*
G37*
G36*
X-93900Y18688D02*
X-94661Y18537D01*
X-95306Y18106D01*
X-95737Y17461D01*
X-95888Y16700D01*
X-95737Y15939D01*
X-95306Y15294D01*
X-94661Y14863D01*
X-93900Y14712D01*
X-93139Y14863D01*
X-92494Y15294D01*
X-92063Y15939D01*
X-91912Y16700D01*
X-92063Y17461D01*
X-92494Y18106D01*
X-93139Y18537D01*
X-93900Y18688D01*
D02*
G37*
G36*
X66900Y17388D02*
X66139Y17237D01*
X65494Y16806D01*
X65063Y16161D01*
X64912Y15400D01*
X65063Y14639D01*
X65494Y13994D01*
X66139Y13563D01*
X66900Y13412D01*
X67661Y13563D01*
X68306Y13994D01*
X68737Y14639D01*
X68888Y15400D01*
X68737Y16161D01*
X68306Y16806D01*
X67661Y17237D01*
X66900Y17388D01*
D02*
G37*
G36*
X-38000D02*
X-38761Y17237D01*
X-39406Y16806D01*
X-39837Y16161D01*
X-39988Y15400D01*
X-39837Y14639D01*
X-39406Y13994D01*
X-38761Y13563D01*
X-38000Y13412D01*
X-37239Y13563D01*
X-36594Y13994D01*
X-36163Y14639D01*
X-36012Y15400D01*
X-36163Y16161D01*
X-36594Y16806D01*
X-37239Y17237D01*
X-38000Y17388D01*
D02*
G37*
G36*
X-75800Y17288D02*
X-76561Y17137D01*
X-77206Y16706D01*
X-77637Y16061D01*
X-77788Y15300D01*
X-77637Y14539D01*
X-77206Y13894D01*
X-76561Y13463D01*
X-75800Y13312D01*
X-75039Y13463D01*
X-74394Y13894D01*
X-73963Y14539D01*
X-73812Y15300D01*
X-73963Y16061D01*
X-74394Y16706D01*
X-75039Y17137D01*
X-75800Y17288D01*
D02*
G37*
G36*
X54800Y17188D02*
X54039Y17037D01*
X53394Y16606D01*
X52963Y15961D01*
X52812Y15200D01*
X52963Y14439D01*
X53394Y13794D01*
X54039Y13363D01*
X54800Y13212D01*
X55561Y13363D01*
X56206Y13794D01*
X56637Y14439D01*
X56788Y15200D01*
X56637Y15961D01*
X56206Y16606D01*
X55561Y17037D01*
X54800Y17188D01*
D02*
G37*
G36*
X41200Y13888D02*
X40439Y13737D01*
X39794Y13306D01*
X39363Y12661D01*
X39212Y11900D01*
X39363Y11139D01*
X39794Y10494D01*
X40439Y10063D01*
X41200Y9912D01*
X41961Y10063D01*
X42606Y10494D01*
X43037Y11139D01*
X43188Y11900D01*
X43037Y12661D01*
X42606Y13306D01*
X41961Y13737D01*
X41200Y13888D01*
D02*
G37*
G36*
X-116900Y12188D02*
X-117661Y12037D01*
X-118306Y11606D01*
X-118737Y10961D01*
X-118888Y10200D01*
X-118737Y9439D01*
X-118306Y8794D01*
X-117661Y8363D01*
X-116900Y8212D01*
X-116139Y8363D01*
X-115494Y8794D01*
X-115063Y9439D01*
X-114912Y10200D01*
X-115063Y10961D01*
X-115494Y11606D01*
X-116139Y12037D01*
X-116900Y12188D01*
D02*
G37*
G36*
X-46584Y18343D02*
X-47922Y18167D01*
X-49170Y17650D01*
X-50241Y16828D01*
X-51063Y15757D01*
X-51579Y14510D01*
X-51756Y13171D01*
X-51579Y11832D01*
X-51063Y10585D01*
X-50241Y9514D01*
X-49170Y8692D01*
X-47922Y8175D01*
X-46584Y7999D01*
X-45245Y8175D01*
X-43998Y8692D01*
X-42927Y9514D01*
X-42105Y10585D01*
X-41588Y11832D01*
X-41412Y13171D01*
X-41588Y14510D01*
X-42105Y15757D01*
X-42927Y16828D01*
X-43998Y17650D01*
X-45245Y18167D01*
X-46584Y18343D01*
D02*
G37*
G36*
X53300Y10888D02*
X52539Y10737D01*
X51894Y10306D01*
X51463Y9661D01*
X51312Y8900D01*
X51463Y8139D01*
X51894Y7494D01*
X52539Y7063D01*
X53300Y6912D01*
X54061Y7063D01*
X54706Y7494D01*
X55137Y8139D01*
X55288Y8900D01*
X55137Y9661D01*
X54706Y10306D01*
X54061Y10737D01*
X53300Y10888D01*
D02*
G37*
G36*
X-3000Y10088D02*
X-3761Y9937D01*
X-4406Y9506D01*
X-4837Y8861D01*
X-4988Y8100D01*
X-4837Y7339D01*
X-4406Y6694D01*
X-3761Y6263D01*
X-3000Y6112D01*
X-2239Y6263D01*
X-1594Y6694D01*
X-1163Y7339D01*
X-1012Y8100D01*
X-1163Y8861D01*
X-1594Y9506D01*
X-2239Y9937D01*
X-3000Y10088D01*
D02*
G37*
G36*
X33800Y8588D02*
X33039Y8437D01*
X32394Y8006D01*
X31963Y7361D01*
X31812Y6600D01*
X31963Y5839D01*
X32394Y5194D01*
X33039Y4763D01*
X33800Y4612D01*
X34561Y4763D01*
X35206Y5194D01*
X35637Y5839D01*
X35788Y6600D01*
X35637Y7361D01*
X35206Y8006D01*
X34561Y8437D01*
X33800Y8588D01*
D02*
G37*
G36*
X-65902Y13166D02*
X-67241Y12990D01*
X-68488Y12473D01*
X-69559Y11652D01*
X-70381Y10580D01*
X-70898Y9333D01*
X-71074Y7994D01*
X-70898Y6656D01*
X-70381Y5409D01*
X-69559Y4338D01*
X-68488Y3516D01*
X-67241Y2999D01*
X-65902Y2823D01*
X-64564Y2999D01*
X-63316Y3516D01*
X-62245Y4338D01*
X-61423Y5409D01*
X-60907Y6656D01*
X-60730Y7994D01*
X-60907Y9333D01*
X-61423Y10580D01*
X-62245Y11652D01*
X-63316Y12473D01*
X-64564Y12990D01*
X-65902Y13166D01*
D02*
G37*
G36*
X51400Y3988D02*
X50639Y3837D01*
X49994Y3406D01*
X49563Y2761D01*
X49412Y2000D01*
X49563Y1239D01*
X49994Y594D01*
X50639Y163D01*
X51400Y12D01*
X52161Y163D01*
X52806Y594D01*
X53237Y1239D01*
X53388Y2000D01*
X53237Y2761D01*
X52806Y3406D01*
X52161Y3837D01*
X51400Y3988D01*
D02*
G37*
G36*
X-17500Y388D02*
X-18261Y237D01*
X-18906Y-194D01*
X-19337Y-839D01*
X-19488Y-1600D01*
X-19337Y-2361D01*
X-18906Y-3006D01*
X-18261Y-3437D01*
X-17500Y-3588D01*
X-16739Y-3437D01*
X-16094Y-3006D01*
X-15663Y-2361D01*
X-15512Y-1600D01*
X-15663Y-839D01*
X-16094Y-194D01*
X-16739Y237D01*
X-17500Y388D01*
D02*
G37*
G36*
X24600Y-112D02*
X23839Y-263D01*
X23194Y-694D01*
X22763Y-1339D01*
X22612Y-2100D01*
X22763Y-2861D01*
X23194Y-3506D01*
X23839Y-3937D01*
X24600Y-4088D01*
X25361Y-3937D01*
X26006Y-3506D01*
X26437Y-2861D01*
X26588Y-2100D01*
X26437Y-1339D01*
X26006Y-694D01*
X25361Y-263D01*
X24600Y-112D01*
D02*
G37*
G36*
X-53655Y6095D02*
X-54993Y5919D01*
X-56241Y5402D01*
X-57312Y4580D01*
X-58134Y3509D01*
X-58650Y2262D01*
X-58827Y924D01*
X-58650Y-415D01*
X-58134Y-1663D01*
X-57312Y-2734D01*
X-56241Y-3556D01*
X-54993Y-4072D01*
X-53655Y-4248D01*
X-52316Y-4072D01*
X-51069Y-3556D01*
X-49998Y-2734D01*
X-49176Y-1663D01*
X-48659Y-415D01*
X-48483Y924D01*
X-48659Y2262D01*
X-49176Y3509D01*
X-49998Y4580D01*
X-51069Y5402D01*
X-52316Y5919D01*
X-53655Y6095D01*
D02*
G37*
G36*
X62200Y-412D02*
X61439Y-563D01*
X60794Y-994D01*
X60363Y-1639D01*
X60212Y-2400D01*
X60363Y-3161D01*
X60794Y-3806D01*
X61439Y-4237D01*
X62200Y-4388D01*
X62961Y-4237D01*
X63606Y-3806D01*
X64037Y-3161D01*
X64188Y-2400D01*
X64037Y-1639D01*
X63606Y-994D01*
X62961Y-563D01*
X62200Y-412D01*
D02*
G37*
G36*
X-32100Y-1912D02*
X-32861Y-2063D01*
X-33506Y-2494D01*
X-33937Y-3139D01*
X-34088Y-3900D01*
X-33937Y-4661D01*
X-33506Y-5306D01*
X-32861Y-5737D01*
X-32100Y-5888D01*
X-31339Y-5737D01*
X-30694Y-5306D01*
X-30263Y-4661D01*
X-30112Y-3900D01*
X-30263Y-3139D01*
X-30694Y-2494D01*
X-31339Y-2063D01*
X-32100Y-1912D01*
D02*
G37*
G36*
X-71100Y-2012D02*
X-71861Y-2163D01*
X-72506Y-2594D01*
X-72937Y-3239D01*
X-73088Y-4000D01*
X-72937Y-4761D01*
X-72506Y-5406D01*
X-71861Y-5837D01*
X-71100Y-5988D01*
X-70339Y-5837D01*
X-69694Y-5406D01*
X-69263Y-4761D01*
X-69112Y-4000D01*
X-69263Y-3239D01*
X-69694Y-2594D01*
X-70339Y-2163D01*
X-71100Y-2012D01*
D02*
G37*
G36*
X13500Y-5712D02*
X12739Y-5863D01*
X12094Y-6294D01*
X11663Y-6939D01*
X11512Y-7700D01*
X11663Y-8461D01*
X12094Y-9106D01*
X12739Y-9537D01*
X13500Y-9688D01*
X14261Y-9537D01*
X14906Y-9106D01*
X15337Y-8461D01*
X15488Y-7700D01*
X15337Y-6939D01*
X14906Y-6294D01*
X14261Y-5863D01*
X13500Y-5712D01*
D02*
G37*
G36*
X33011Y-34D02*
X31672Y-210D01*
X30425Y-727D01*
X29354Y-1549D01*
X28532Y-2620D01*
X28015Y-3867D01*
X27839Y-5206D01*
X28015Y-6545D01*
X28532Y-7792D01*
X29354Y-8863D01*
X30425Y-9685D01*
X31672Y-10202D01*
X33011Y-10378D01*
X34349Y-10202D01*
X35597Y-9685D01*
X36668Y-8863D01*
X37490Y-7792D01*
X38006Y-6545D01*
X38183Y-5206D01*
X38006Y-3867D01*
X37490Y-2620D01*
X36668Y-1549D01*
X35597Y-727D01*
X34349Y-210D01*
X33011Y-34D01*
D02*
G37*
G36*
X-41407Y-976D02*
X-42746Y-1152D01*
X-43993Y-1669D01*
X-45064Y-2491D01*
X-45886Y-3562D01*
X-46403Y-4809D01*
X-46579Y-6148D01*
X-46403Y-7486D01*
X-45886Y-8733D01*
X-45064Y-9805D01*
X-43993Y-10627D01*
X-42746Y-11143D01*
X-41407Y-11319D01*
X-40069Y-11143D01*
X-38822Y-10627D01*
X-37750Y-9805D01*
X-36928Y-8733D01*
X-36412Y-7486D01*
X-36236Y-6148D01*
X-36412Y-4809D01*
X-36928Y-3562D01*
X-37750Y-2491D01*
X-38822Y-1669D01*
X-40069Y-1152D01*
X-41407Y-976D01*
D02*
G37*
G36*
X52329Y-5211D02*
X50991Y-5387D01*
X49743Y-5903D01*
X48672Y-6725D01*
X47850Y-7797D01*
X47334Y-9044D01*
X47157Y-10383D01*
X47334Y-11721D01*
X47850Y-12968D01*
X48672Y-14040D01*
X49743Y-14861D01*
X50991Y-15378D01*
X52329Y-15554D01*
X53668Y-15378D01*
X54915Y-14861D01*
X55986Y-14040D01*
X56808Y-12968D01*
X57325Y-11721D01*
X57501Y-10383D01*
X57325Y-9044D01*
X56808Y-7797D01*
X55986Y-6725D01*
X54915Y-5903D01*
X53668Y-5387D01*
X52329Y-5211D01*
D02*
G37*
G36*
X-60726Y-6152D02*
X-62064Y-6328D01*
X-63312Y-6845D01*
X-64383Y-7667D01*
X-65205Y-8738D01*
X-65721Y-9985D01*
X-65898Y-11324D01*
X-65721Y-12663D01*
X-65205Y-13910D01*
X-64383Y-14981D01*
X-63312Y-15803D01*
X-62064Y-16320D01*
X-60726Y-16496D01*
X-59387Y-16320D01*
X-58140Y-15803D01*
X-57069Y-14981D01*
X-56247Y-13910D01*
X-55730Y-12663D01*
X-55554Y-11324D01*
X-55730Y-9985D01*
X-56247Y-8738D01*
X-57069Y-7667D01*
X-58140Y-6845D01*
X-59387Y-6328D01*
X-60726Y-6152D01*
D02*
G37*
G36*
X-36100Y-14412D02*
X-36861Y-14563D01*
X-37506Y-14994D01*
X-37937Y-15639D01*
X-38088Y-16400D01*
X-37937Y-17161D01*
X-37506Y-17806D01*
X-36861Y-18237D01*
X-36100Y-18388D01*
X-35339Y-18237D01*
X-34694Y-17806D01*
X-34263Y-17161D01*
X-34112Y-16400D01*
X-34263Y-15639D01*
X-34694Y-14994D01*
X-35339Y-14563D01*
X-36100Y-14412D01*
D02*
G37*
G36*
X40082Y-12282D02*
X38743Y-12458D01*
X37496Y-12975D01*
X36425Y-13796D01*
X35603Y-14868D01*
X35086Y-16115D01*
X34910Y-17454D01*
X35086Y-18792D01*
X35603Y-20039D01*
X36425Y-21111D01*
X37496Y-21932D01*
X38743Y-22449D01*
X40082Y-22625D01*
X41420Y-22449D01*
X42668Y-21932D01*
X43739Y-21111D01*
X44561Y-20039D01*
X45077Y-18792D01*
X45254Y-17454D01*
X45077Y-16115D01*
X44561Y-14868D01*
X43739Y-13796D01*
X42668Y-12975D01*
X41420Y-12458D01*
X40082Y-12282D01*
D02*
G37*
G36*
X-54100Y-18812D02*
X-54861Y-18963D01*
X-55506Y-19394D01*
X-55937Y-20039D01*
X-56088Y-20800D01*
X-55937Y-21561D01*
X-55506Y-22206D01*
X-54861Y-22637D01*
X-54100Y-22788D01*
X-53339Y-22637D01*
X-52694Y-22206D01*
X-52263Y-21561D01*
X-52112Y-20800D01*
X-52263Y-20039D01*
X-52694Y-19394D01*
X-53339Y-18963D01*
X-54100Y-18812D01*
D02*
G37*
G36*
X57100Y-19112D02*
X56339Y-19263D01*
X55694Y-19694D01*
X55263Y-20339D01*
X55112Y-21100D01*
X55263Y-21861D01*
X55694Y-22506D01*
X56339Y-22937D01*
X57100Y-23088D01*
X57861Y-22937D01*
X58506Y-22506D01*
X58937Y-21861D01*
X59088Y-21100D01*
X58937Y-20339D01*
X58506Y-19694D01*
X57861Y-19263D01*
X57100Y-19112D01*
D02*
G37*
G36*
X18500Y-20012D02*
X17739Y-20163D01*
X17094Y-20594D01*
X16663Y-21239D01*
X16512Y-22000D01*
X16663Y-22761D01*
X17094Y-23406D01*
X17739Y-23837D01*
X18500Y-23988D01*
X19261Y-23837D01*
X19906Y-23406D01*
X20337Y-22761D01*
X20488Y-22000D01*
X20337Y-21239D01*
X19906Y-20594D01*
X19261Y-20163D01*
X18500Y-20012D01*
D02*
G37*
G36*
X-3800Y-20312D02*
X-4561Y-20463D01*
X-5206Y-20894D01*
X-5637Y-21539D01*
X-5788Y-22300D01*
X-5637Y-23061D01*
X-5206Y-23706D01*
X-4561Y-24137D01*
X-3800Y-24288D01*
X-3039Y-24137D01*
X-2394Y-23706D01*
X-1963Y-23061D01*
X-1812Y-22300D01*
X-1963Y-21539D01*
X-2394Y-20894D01*
X-3039Y-20463D01*
X-3800Y-20312D01*
D02*
G37*
G36*
X-66300Y-21712D02*
X-67061Y-21863D01*
X-67706Y-22294D01*
X-68137Y-22939D01*
X-68288Y-23700D01*
X-68137Y-24461D01*
X-67706Y-25106D01*
X-67061Y-25537D01*
X-66300Y-25688D01*
X-65539Y-25537D01*
X-64894Y-25106D01*
X-64463Y-24461D01*
X-64312Y-23700D01*
X-64463Y-22939D01*
X-64894Y-22294D01*
X-65539Y-21863D01*
X-66300Y-21712D01*
D02*
G37*
G36*
X-40600Y-21912D02*
X-41361Y-22063D01*
X-42006Y-22494D01*
X-42437Y-23139D01*
X-42588Y-23900D01*
X-42437Y-24661D01*
X-42006Y-25306D01*
X-41361Y-25737D01*
X-40600Y-25888D01*
X-39839Y-25737D01*
X-39194Y-25306D01*
X-38763Y-24661D01*
X-38612Y-23900D01*
X-38763Y-23139D01*
X-39194Y-22494D01*
X-39839Y-22063D01*
X-40600Y-21912D01*
D02*
G37*
G36*
X27834Y-19353D02*
X26496Y-19529D01*
X25248Y-20046D01*
X24177Y-20868D01*
X23355Y-21939D01*
X22839Y-23186D01*
X22662Y-24525D01*
X22839Y-25863D01*
X23355Y-27110D01*
X24177Y-28182D01*
X25248Y-29004D01*
X26496Y-29520D01*
X27834Y-29696D01*
X29173Y-29520D01*
X30420Y-29004D01*
X31491Y-28182D01*
X32313Y-27110D01*
X32830Y-25863D01*
X33006Y-24525D01*
X32830Y-23186D01*
X32313Y-21939D01*
X31491Y-20868D01*
X30420Y-20046D01*
X29173Y-19529D01*
X27834Y-19353D01*
D02*
G37*
G36*
X-39100Y-27512D02*
X-39861Y-27663D01*
X-40506Y-28094D01*
X-40937Y-28739D01*
X-41088Y-29500D01*
X-40937Y-30261D01*
X-40506Y-30906D01*
X-39861Y-31337D01*
X-39100Y-31488D01*
X-38339Y-31337D01*
X-37694Y-30906D01*
X-37263Y-30261D01*
X-37112Y-29500D01*
X-37263Y-28739D01*
X-37694Y-28094D01*
X-38339Y-27663D01*
X-39100Y-27512D01*
D02*
G37*
G36*
X47153Y-24529D02*
X45814Y-24705D01*
X44567Y-25222D01*
X43496Y-26044D01*
X42674Y-27115D01*
X42157Y-28362D01*
X41981Y-29701D01*
X42157Y-31040D01*
X42674Y-32287D01*
X43496Y-33358D01*
X44567Y-34180D01*
X45814Y-34697D01*
X47153Y-34873D01*
X48491Y-34697D01*
X49739Y-34180D01*
X50810Y-33358D01*
X51632Y-32287D01*
X52148Y-31040D01*
X52325Y-29701D01*
X52148Y-28362D01*
X51632Y-27115D01*
X50810Y-26044D01*
X49739Y-25222D01*
X48491Y-24705D01*
X47153Y-24529D01*
D02*
G37*
G36*
X-31800Y-31712D02*
X-32561Y-31863D01*
X-33206Y-32294D01*
X-33637Y-32939D01*
X-33788Y-33700D01*
X-33637Y-34461D01*
X-33206Y-35106D01*
X-32561Y-35537D01*
X-31800Y-35688D01*
X-31039Y-35537D01*
X-30394Y-35106D01*
X-29963Y-34461D01*
X-29812Y-33700D01*
X-29963Y-32939D01*
X-30394Y-32294D01*
X-31039Y-31863D01*
X-31800Y-31712D01*
D02*
G37*
G36*
X-49900Y-32412D02*
X-50661Y-32563D01*
X-51306Y-32994D01*
X-51737Y-33639D01*
X-51888Y-34400D01*
X-51737Y-35161D01*
X-51306Y-35806D01*
X-50661Y-36237D01*
X-49900Y-36388D01*
X-49139Y-36237D01*
X-48494Y-35806D01*
X-48063Y-35161D01*
X-47912Y-34400D01*
X-48063Y-33639D01*
X-48494Y-32994D01*
X-49139Y-32563D01*
X-49900Y-32412D01*
D02*
G37*
G36*
X-56000Y-34012D02*
X-56761Y-34163D01*
X-57406Y-34594D01*
X-57837Y-35239D01*
X-57988Y-36000D01*
X-57837Y-36761D01*
X-57406Y-37406D01*
X-56761Y-37837D01*
X-56000Y-37988D01*
X-55239Y-37837D01*
X-54594Y-37406D01*
X-54163Y-36761D01*
X-54012Y-36000D01*
X-54163Y-35239D01*
X-54594Y-34594D01*
X-55239Y-34163D01*
X-56000Y-34012D01*
D02*
G37*
G36*
X-62000Y-35412D02*
X-62761Y-35563D01*
X-63406Y-35994D01*
X-63837Y-36639D01*
X-63988Y-37400D01*
X-63837Y-38161D01*
X-63406Y-38806D01*
X-62761Y-39237D01*
X-62000Y-39388D01*
X-61239Y-39237D01*
X-60594Y-38806D01*
X-60163Y-38161D01*
X-60012Y-37400D01*
X-60163Y-36639D01*
X-60594Y-35994D01*
X-61239Y-35563D01*
X-62000Y-35412D01*
D02*
G37*
G36*
X-35800Y-38512D02*
X-36561Y-38663D01*
X-37206Y-39094D01*
X-37637Y-39739D01*
X-37788Y-40500D01*
X-37637Y-41261D01*
X-37206Y-41906D01*
X-36561Y-42337D01*
X-35800Y-42488D01*
X-35039Y-42337D01*
X-34394Y-41906D01*
X-33963Y-41261D01*
X-33812Y-40500D01*
X-33963Y-39739D01*
X-34394Y-39094D01*
X-35039Y-38663D01*
X-35800Y-38512D01*
D02*
G37*
G36*
X-41900Y-40012D02*
X-42661Y-40163D01*
X-43306Y-40594D01*
X-43737Y-41239D01*
X-43888Y-42000D01*
X-43737Y-42761D01*
X-43306Y-43406D01*
X-42661Y-43837D01*
X-41900Y-43988D01*
X-41139Y-43837D01*
X-40494Y-43406D01*
X-40063Y-42761D01*
X-39912Y-42000D01*
X-40063Y-41239D01*
X-40494Y-40594D01*
X-41139Y-40163D01*
X-41900Y-40012D01*
D02*
G37*
G36*
X50900Y-40112D02*
X50139Y-40263D01*
X49494Y-40694D01*
X49063Y-41339D01*
X48912Y-42100D01*
X49063Y-42861D01*
X49494Y-43506D01*
X50139Y-43937D01*
X50900Y-44088D01*
X51661Y-43937D01*
X52306Y-43506D01*
X52737Y-42861D01*
X52888Y-42100D01*
X52737Y-41339D01*
X52306Y-40694D01*
X51661Y-40263D01*
X50900Y-40112D01*
D02*
G37*
G36*
X-47500Y-40712D02*
X-48261Y-40863D01*
X-48906Y-41294D01*
X-49337Y-41939D01*
X-49488Y-42700D01*
X-49337Y-43461D01*
X-48906Y-44106D01*
X-48261Y-44537D01*
X-47500Y-44688D01*
X-46739Y-44537D01*
X-46094Y-44106D01*
X-45663Y-43461D01*
X-45512Y-42700D01*
X-45663Y-41939D01*
X-46094Y-41294D01*
X-46739Y-40863D01*
X-47500Y-40712D01*
D02*
G37*
G36*
X-53700Y-42112D02*
X-54461Y-42263D01*
X-55106Y-42694D01*
X-55537Y-43339D01*
X-55688Y-44100D01*
X-55537Y-44861D01*
X-55106Y-45506D01*
X-54461Y-45937D01*
X-53700Y-46088D01*
X-52939Y-45937D01*
X-52294Y-45506D01*
X-51863Y-44861D01*
X-51712Y-44100D01*
X-51863Y-43339D01*
X-52294Y-42694D01*
X-52939Y-42263D01*
X-53700Y-42112D01*
D02*
G37*
G36*
X-59600Y-43412D02*
X-60361Y-43563D01*
X-61006Y-43994D01*
X-61437Y-44639D01*
X-61588Y-45400D01*
X-61437Y-46161D01*
X-61006Y-46806D01*
X-60361Y-47237D01*
X-59600Y-47388D01*
X-58839Y-47237D01*
X-58194Y-46806D01*
X-57763Y-46161D01*
X-57612Y-45400D01*
X-57763Y-44639D01*
X-58194Y-43994D01*
X-58839Y-43563D01*
X-59600Y-43412D01*
D02*
G37*
G36*
X-26000Y-48412D02*
X-26761Y-48563D01*
X-27406Y-48994D01*
X-27837Y-49639D01*
X-27988Y-50400D01*
X-27837Y-51161D01*
X-27406Y-51806D01*
X-26761Y-52237D01*
X-26000Y-52388D01*
X-25239Y-52237D01*
X-24594Y-51806D01*
X-24163Y-51161D01*
X-24012Y-50400D01*
X-24163Y-49639D01*
X-24594Y-48994D01*
X-25239Y-48563D01*
X-26000Y-48412D01*
D02*
G37*
G36*
X-7500Y-48612D02*
X-8261Y-48763D01*
X-8906Y-49194D01*
X-9337Y-49839D01*
X-9488Y-50600D01*
X-9337Y-51361D01*
X-8906Y-52006D01*
X-8261Y-52437D01*
X-7500Y-52588D01*
X-6739Y-52437D01*
X-6094Y-52006D01*
X-5663Y-51361D01*
X-5512Y-50600D01*
X-5663Y-49839D01*
X-6094Y-49194D01*
X-6739Y-48763D01*
X-7500Y-48612D01*
D02*
G37*
G36*
X-57800Y-51212D02*
X-58561Y-51363D01*
X-59206Y-51794D01*
X-59637Y-52439D01*
X-59788Y-53200D01*
X-59637Y-53961D01*
X-59206Y-54606D01*
X-58561Y-55037D01*
X-57800Y-55188D01*
X-57039Y-55037D01*
X-56394Y-54606D01*
X-55963Y-53961D01*
X-55812Y-53200D01*
X-55963Y-52439D01*
X-56394Y-51794D01*
X-57039Y-51363D01*
X-57800Y-51212D01*
D02*
G37*
G36*
X46800Y-55712D02*
X46039Y-55863D01*
X45394Y-56294D01*
X44963Y-56939D01*
X44812Y-57700D01*
X44963Y-58461D01*
X45394Y-59106D01*
X46039Y-59537D01*
X46800Y-59688D01*
X47561Y-59537D01*
X48206Y-59106D01*
X48637Y-58461D01*
X48788Y-57700D01*
X48637Y-56939D01*
X48206Y-56294D01*
X47561Y-55863D01*
X46800Y-55712D01*
D02*
G37*
G36*
X22200Y-56112D02*
X21439Y-56263D01*
X20794Y-56694D01*
X20363Y-57339D01*
X20212Y-58100D01*
X20363Y-58861D01*
X20794Y-59506D01*
X21439Y-59937D01*
X22200Y-60088D01*
X22961Y-59937D01*
X23606Y-59506D01*
X24037Y-58861D01*
X24188Y-58100D01*
X24037Y-57339D01*
X23606Y-56694D01*
X22961Y-56263D01*
X22200Y-56112D01*
D02*
G37*
G36*
X3700Y-56512D02*
X2939Y-56663D01*
X2294Y-57094D01*
X1863Y-57739D01*
X1712Y-58500D01*
X1863Y-59261D01*
X2294Y-59906D01*
X2939Y-60337D01*
X3700Y-60488D01*
X4461Y-60337D01*
X5106Y-59906D01*
X5537Y-59261D01*
X5688Y-58500D01*
X5537Y-57739D01*
X5106Y-57094D01*
X4461Y-56663D01*
X3700Y-56512D01*
D02*
G37*
G36*
X-62000Y-58112D02*
X-62761Y-58263D01*
X-63406Y-58694D01*
X-63837Y-59339D01*
X-63988Y-60100D01*
X-63837Y-60861D01*
X-63406Y-61506D01*
X-62761Y-61937D01*
X-62000Y-62088D01*
X-61239Y-61937D01*
X-60594Y-61506D01*
X-60163Y-60861D01*
X-60012Y-60100D01*
X-60163Y-59339D01*
X-60594Y-58694D01*
X-61239Y-58263D01*
X-62000Y-58112D01*
D02*
G37*
G36*
X-73400Y-61012D02*
X-74161Y-61163D01*
X-74806Y-61594D01*
X-75237Y-62239D01*
X-75388Y-63000D01*
X-75237Y-63761D01*
X-74806Y-64406D01*
X-74161Y-64837D01*
X-73400Y-64988D01*
X-72639Y-64837D01*
X-71994Y-64406D01*
X-71563Y-63761D01*
X-71412Y-63000D01*
X-71563Y-62239D01*
X-71994Y-61594D01*
X-72639Y-61163D01*
X-73400Y-61012D01*
D02*
G37*
G36*
X-7143Y-55208D02*
X-8482Y-55384D01*
X-9729Y-55901D01*
X-10800Y-56722D01*
X-11622Y-57794D01*
X-12139Y-59041D01*
X-12315Y-60379D01*
X-12139Y-61718D01*
X-11622Y-62965D01*
X-10800Y-64037D01*
X-9729Y-64858D01*
X-8482Y-65375D01*
X-7143Y-65551D01*
X-5804Y-65375D01*
X-4557Y-64858D01*
X-3486Y-64037D01*
X-2664Y-62965D01*
X-2147Y-61718D01*
X-1971Y-60379D01*
X-2147Y-59041D01*
X-2664Y-57794D01*
X-3486Y-56722D01*
X-4557Y-55901D01*
X-5804Y-55384D01*
X-7143Y-55208D01*
D02*
G37*
G36*
X-27143D02*
X-28482Y-55384D01*
X-29729Y-55901D01*
X-30800Y-56722D01*
X-31622Y-57794D01*
X-32138Y-59041D01*
X-32315Y-60379D01*
X-32138Y-61718D01*
X-31622Y-62965D01*
X-30800Y-64037D01*
X-29729Y-64858D01*
X-28482Y-65375D01*
X-27143Y-65551D01*
X-25804Y-65375D01*
X-24557Y-64858D01*
X-23486Y-64037D01*
X-22664Y-62965D01*
X-22147Y-61718D01*
X-21971Y-60379D01*
X-22147Y-59041D01*
X-22664Y-57794D01*
X-23486Y-56722D01*
X-24557Y-55901D01*
X-25804Y-55384D01*
X-27143Y-55208D01*
D02*
G37*
G36*
X9700Y-61912D02*
X8939Y-62063D01*
X8294Y-62494D01*
X7863Y-63139D01*
X7712Y-63900D01*
X7863Y-64661D01*
X8294Y-65306D01*
X8939Y-65737D01*
X9700Y-65888D01*
X10461Y-65737D01*
X11106Y-65306D01*
X11537Y-64661D01*
X11688Y-63900D01*
X11537Y-63139D01*
X11106Y-62494D01*
X10461Y-62063D01*
X9700Y-61912D01*
D02*
G37*
G36*
X28000Y-62112D02*
X27239Y-62263D01*
X26594Y-62694D01*
X26163Y-63339D01*
X26012Y-64100D01*
X26163Y-64861D01*
X26594Y-65506D01*
X27239Y-65937D01*
X28000Y-66088D01*
X28761Y-65937D01*
X29406Y-65506D01*
X29837Y-64861D01*
X29988Y-64100D01*
X29837Y-63339D01*
X29406Y-62694D01*
X28761Y-62263D01*
X28000Y-62112D01*
D02*
G37*
G36*
X16300D02*
X15539Y-62263D01*
X14894Y-62694D01*
X14463Y-63339D01*
X14312Y-64100D01*
X14463Y-64861D01*
X14894Y-65506D01*
X15539Y-65937D01*
X16300Y-66088D01*
X17061Y-65937D01*
X17706Y-65506D01*
X18137Y-64861D01*
X18288Y-64100D01*
X18137Y-63339D01*
X17706Y-62694D01*
X17061Y-62263D01*
X16300Y-62112D01*
D02*
G37*
G36*
X52100Y-64112D02*
X51339Y-64263D01*
X50694Y-64694D01*
X50263Y-65339D01*
X50112Y-66100D01*
X50263Y-66861D01*
X50694Y-67506D01*
X51339Y-67937D01*
X52100Y-68088D01*
X52861Y-67937D01*
X53506Y-67506D01*
X53937Y-66861D01*
X54088Y-66100D01*
X53937Y-65339D01*
X53506Y-64694D01*
X52861Y-64263D01*
X52100Y-64112D01*
D02*
G37*
G36*
X66000Y-67412D02*
X65239Y-67563D01*
X64594Y-67994D01*
X64163Y-68639D01*
X64012Y-69400D01*
X64163Y-70161D01*
X64594Y-70806D01*
X65239Y-71237D01*
X66000Y-71388D01*
X66761Y-71237D01*
X67406Y-70806D01*
X67837Y-70161D01*
X67988Y-69400D01*
X67837Y-68639D01*
X67406Y-67994D01*
X66761Y-67563D01*
X66000Y-67412D01*
D02*
G37*
G36*
X-95500Y-67512D02*
X-96261Y-67663D01*
X-96906Y-68094D01*
X-97337Y-68739D01*
X-97488Y-69500D01*
X-97337Y-70261D01*
X-96906Y-70906D01*
X-96261Y-71337D01*
X-95500Y-71488D01*
X-94739Y-71337D01*
X-94094Y-70906D01*
X-93663Y-70261D01*
X-93512Y-69500D01*
X-93663Y-68739D01*
X-94094Y-68094D01*
X-94739Y-67663D01*
X-95500Y-67512D01*
D02*
G37*
G36*
X28000Y-68312D02*
X27239Y-68463D01*
X26594Y-68894D01*
X26163Y-69539D01*
X26012Y-70300D01*
X26163Y-71061D01*
X26594Y-71706D01*
X27239Y-72137D01*
X28000Y-72288D01*
X28761Y-72137D01*
X29406Y-71706D01*
X29837Y-71061D01*
X29988Y-70300D01*
X29837Y-69539D01*
X29406Y-68894D01*
X28761Y-68463D01*
X28000Y-68312D01*
D02*
G37*
G36*
X75400Y-70712D02*
X74639Y-70863D01*
X73994Y-71294D01*
X73563Y-71939D01*
X73412Y-72700D01*
X73563Y-73461D01*
X73994Y-74106D01*
X74639Y-74537D01*
X75400Y-74688D01*
X76161Y-74537D01*
X76806Y-74106D01*
X77237Y-73461D01*
X77388Y-72700D01*
X77237Y-71939D01*
X76806Y-71294D01*
X76161Y-70863D01*
X75400Y-70712D01*
D02*
G37*
G36*
X-17143Y-65208D02*
X-18482Y-65384D01*
X-19729Y-65900D01*
X-20800Y-66722D01*
X-21622Y-67794D01*
X-22139Y-69041D01*
X-22315Y-70380D01*
X-22139Y-71718D01*
X-21622Y-72965D01*
X-20800Y-74037D01*
X-19729Y-74858D01*
X-18482Y-75375D01*
X-17143Y-75551D01*
X-15804Y-75375D01*
X-14557Y-74858D01*
X-13486Y-74037D01*
X-12664Y-72965D01*
X-12147Y-71718D01*
X-11971Y-70380D01*
X-12147Y-69041D01*
X-12664Y-67794D01*
X-13486Y-66722D01*
X-14557Y-65900D01*
X-15804Y-65384D01*
X-17143Y-65208D01*
D02*
G37*
G36*
X26200Y-73412D02*
X25439Y-73563D01*
X24794Y-73994D01*
X24363Y-74639D01*
X24212Y-75400D01*
X24363Y-76161D01*
X24794Y-76806D01*
X25439Y-77237D01*
X26200Y-77388D01*
X26961Y-77237D01*
X27606Y-76806D01*
X28037Y-76161D01*
X28188Y-75400D01*
X28037Y-74639D01*
X27606Y-73994D01*
X26961Y-73563D01*
X26200Y-73412D01*
D02*
G37*
G36*
X16100Y-73812D02*
X15339Y-73963D01*
X14694Y-74394D01*
X14263Y-75039D01*
X14112Y-75800D01*
X14263Y-76561D01*
X14694Y-77206D01*
X15339Y-77637D01*
X16100Y-77788D01*
X16861Y-77637D01*
X17506Y-77206D01*
X17937Y-76561D01*
X18088Y-75800D01*
X17937Y-75039D01*
X17506Y-74394D01*
X16861Y-73963D01*
X16100Y-73812D01*
D02*
G37*
G36*
X9800D02*
X9039Y-73963D01*
X8394Y-74394D01*
X7963Y-75039D01*
X7812Y-75800D01*
X7963Y-76561D01*
X8394Y-77206D01*
X9039Y-77637D01*
X9800Y-77788D01*
X10561Y-77637D01*
X11206Y-77206D01*
X11637Y-76561D01*
X11788Y-75800D01*
X11637Y-75039D01*
X11206Y-74394D01*
X10561Y-73963D01*
X9800Y-73812D01*
D02*
G37*
G36*
X3900Y-73912D02*
X3139Y-74063D01*
X2494Y-74494D01*
X2063Y-75139D01*
X1912Y-75900D01*
X2063Y-76661D01*
X2494Y-77306D01*
X3139Y-77737D01*
X3900Y-77888D01*
X4661Y-77737D01*
X5306Y-77306D01*
X5737Y-76661D01*
X5888Y-75900D01*
X5737Y-75139D01*
X5306Y-74494D01*
X4661Y-74063D01*
X3900Y-73912D01*
D02*
G37*
G36*
X88200Y-74912D02*
X87439Y-75063D01*
X86794Y-75494D01*
X86363Y-76139D01*
X86212Y-76900D01*
X86363Y-77661D01*
X86794Y-78306D01*
X87439Y-78737D01*
X88200Y-78888D01*
X88961Y-78737D01*
X89606Y-78306D01*
X90037Y-77661D01*
X90188Y-76900D01*
X90037Y-76139D01*
X89606Y-75494D01*
X88961Y-75063D01*
X88200Y-74912D01*
D02*
G37*
G36*
X-50500Y-79012D02*
X-51261Y-79163D01*
X-51906Y-79594D01*
X-52337Y-80239D01*
X-52488Y-81000D01*
X-52337Y-81761D01*
X-51906Y-82406D01*
X-51261Y-82837D01*
X-50500Y-82988D01*
X-49739Y-82837D01*
X-49094Y-82406D01*
X-48663Y-81761D01*
X-48512Y-81000D01*
X-48663Y-80239D01*
X-49094Y-79594D01*
X-49739Y-79163D01*
X-50500Y-79012D01*
D02*
G37*
G36*
X49300Y-79712D02*
X48539Y-79863D01*
X47894Y-80294D01*
X47463Y-80939D01*
X47312Y-81700D01*
X47463Y-82461D01*
X47894Y-83106D01*
X48539Y-83537D01*
X49300Y-83688D01*
X50061Y-83537D01*
X50706Y-83106D01*
X51137Y-82461D01*
X51288Y-81700D01*
X51137Y-80939D01*
X50706Y-80294D01*
X50061Y-79863D01*
X49300Y-79712D01*
D02*
G37*
G36*
X26100Y-80712D02*
X25339Y-80863D01*
X24694Y-81294D01*
X24263Y-81939D01*
X24112Y-82700D01*
X24263Y-83461D01*
X24694Y-84106D01*
X25339Y-84537D01*
X26100Y-84688D01*
X26861Y-84537D01*
X27506Y-84106D01*
X27937Y-83461D01*
X28088Y-82700D01*
X27937Y-81939D01*
X27506Y-81294D01*
X26861Y-80863D01*
X26100Y-80712D01*
D02*
G37*
G36*
X18300Y-80812D02*
X17539Y-80963D01*
X16894Y-81394D01*
X16463Y-82039D01*
X16312Y-82800D01*
X16463Y-83561D01*
X16894Y-84206D01*
X17539Y-84637D01*
X18300Y-84788D01*
X19061Y-84637D01*
X19706Y-84206D01*
X20137Y-83561D01*
X20288Y-82800D01*
X20137Y-82039D01*
X19706Y-81394D01*
X19061Y-80963D01*
X18300Y-80812D01*
D02*
G37*
G36*
X-7143Y-75208D02*
X-8482Y-75384D01*
X-9729Y-75901D01*
X-10800Y-76722D01*
X-11622Y-77794D01*
X-12139Y-79041D01*
X-12315Y-80379D01*
X-12139Y-81718D01*
X-11622Y-82965D01*
X-10800Y-84036D01*
X-9729Y-84858D01*
X-8482Y-85375D01*
X-7143Y-85551D01*
X-5804Y-85375D01*
X-4557Y-84858D01*
X-3486Y-84036D01*
X-2664Y-82965D01*
X-2147Y-81718D01*
X-1971Y-80379D01*
X-2147Y-79041D01*
X-2664Y-77794D01*
X-3486Y-76722D01*
X-4557Y-75901D01*
X-5804Y-75384D01*
X-7143Y-75208D01*
D02*
G37*
G36*
X-27143D02*
X-28482Y-75384D01*
X-29729Y-75901D01*
X-30800Y-76722D01*
X-31622Y-77794D01*
X-32138Y-79041D01*
X-32315Y-80379D01*
X-32138Y-81718D01*
X-31622Y-82965D01*
X-30800Y-84036D01*
X-29729Y-84858D01*
X-28482Y-85375D01*
X-27143Y-85551D01*
X-25804Y-85375D01*
X-24557Y-84858D01*
X-23486Y-84036D01*
X-22664Y-82965D01*
X-22147Y-81718D01*
X-21971Y-80379D01*
X-22147Y-79041D01*
X-22664Y-77794D01*
X-23486Y-76722D01*
X-24557Y-75901D01*
X-25804Y-75384D01*
X-27143Y-75208D01*
D02*
G37*
G36*
X12600Y-83912D02*
X11839Y-84063D01*
X11194Y-84494D01*
X10763Y-85139D01*
X10612Y-85900D01*
X10763Y-86661D01*
X11194Y-87306D01*
X11839Y-87737D01*
X12600Y-87888D01*
X13361Y-87737D01*
X14006Y-87306D01*
X14437Y-86661D01*
X14588Y-85900D01*
X14437Y-85139D01*
X14006Y-84494D01*
X13361Y-84063D01*
X12600Y-83912D01*
D02*
G37*
G36*
X3700D02*
X2939Y-84063D01*
X2294Y-84494D01*
X1863Y-85139D01*
X1712Y-85900D01*
X1863Y-86661D01*
X2294Y-87306D01*
X2939Y-87737D01*
X3700Y-87888D01*
X4461Y-87737D01*
X5106Y-87306D01*
X5537Y-86661D01*
X5688Y-85900D01*
X5537Y-85139D01*
X5106Y-84494D01*
X4461Y-84063D01*
X3700Y-83912D01*
D02*
G37*
G36*
X-20000Y-86812D02*
X-20761Y-86963D01*
X-21406Y-87394D01*
X-21837Y-88039D01*
X-21988Y-88800D01*
X-21837Y-89561D01*
X-21406Y-90206D01*
X-20761Y-90637D01*
X-20000Y-90788D01*
X-19239Y-90637D01*
X-18594Y-90206D01*
X-18163Y-89561D01*
X-18012Y-88800D01*
X-18163Y-88039D01*
X-18594Y-87394D01*
X-19239Y-86963D01*
X-20000Y-86812D01*
D02*
G37*
G36*
X-10400Y-86912D02*
X-11161Y-87063D01*
X-11806Y-87494D01*
X-12237Y-88139D01*
X-12388Y-88900D01*
X-12237Y-89661D01*
X-11806Y-90306D01*
X-11161Y-90737D01*
X-10400Y-90888D01*
X-9639Y-90737D01*
X-8994Y-90306D01*
X-8563Y-89661D01*
X-8412Y-88900D01*
X-8563Y-88139D01*
X-8994Y-87494D01*
X-9639Y-87063D01*
X-10400Y-86912D01*
D02*
G37*
G36*
X32700Y-87712D02*
X31939Y-87863D01*
X31294Y-88294D01*
X30863Y-88939D01*
X30712Y-89700D01*
X30863Y-90461D01*
X31294Y-91106D01*
X31939Y-91537D01*
X32700Y-91688D01*
X33461Y-91537D01*
X34106Y-91106D01*
X34537Y-90461D01*
X34688Y-89700D01*
X34537Y-88939D01*
X34106Y-88294D01*
X33461Y-87863D01*
X32700Y-87712D01*
D02*
G37*
G36*
X-74700Y-88712D02*
X-75461Y-88863D01*
X-76106Y-89294D01*
X-76537Y-89939D01*
X-76688Y-90700D01*
X-76537Y-91461D01*
X-76106Y-92106D01*
X-75461Y-92537D01*
X-74700Y-92688D01*
X-73939Y-92537D01*
X-73294Y-92106D01*
X-72863Y-91461D01*
X-72712Y-90700D01*
X-72863Y-89939D01*
X-73294Y-89294D01*
X-73939Y-88863D01*
X-74700Y-88712D01*
D02*
G37*
G36*
X-27000Y-89912D02*
X-27761Y-90063D01*
X-28406Y-90494D01*
X-28837Y-91139D01*
X-28988Y-91900D01*
X-28837Y-92661D01*
X-28406Y-93306D01*
X-27761Y-93737D01*
X-27000Y-93888D01*
X-26239Y-93737D01*
X-25594Y-93306D01*
X-25163Y-92661D01*
X-25012Y-91900D01*
X-25163Y-91139D01*
X-25594Y-90494D01*
X-26239Y-90063D01*
X-27000Y-89912D01*
D02*
G37*
G36*
X32200Y-95612D02*
X31439Y-95763D01*
X30794Y-96194D01*
X30363Y-96839D01*
X30212Y-97600D01*
X30363Y-98361D01*
X30794Y-99006D01*
X31439Y-99437D01*
X32200Y-99588D01*
X32961Y-99437D01*
X33606Y-99006D01*
X34037Y-98361D01*
X34188Y-97600D01*
X34037Y-96839D01*
X33606Y-96194D01*
X32961Y-95763D01*
X32200Y-95612D01*
D02*
G37*
G36*
X63000Y-96112D02*
X62239Y-96263D01*
X61594Y-96694D01*
X61163Y-97339D01*
X61012Y-98100D01*
X61163Y-98861D01*
X61594Y-99506D01*
X62239Y-99937D01*
X63000Y-100088D01*
X63761Y-99937D01*
X64406Y-99506D01*
X64837Y-98861D01*
X64988Y-98100D01*
X64837Y-97339D01*
X64406Y-96694D01*
X63761Y-96263D01*
X63000Y-96112D01*
D02*
G37*
G36*
X-26800Y-97812D02*
X-27561Y-97963D01*
X-28206Y-98394D01*
X-28637Y-99039D01*
X-28788Y-99800D01*
X-28637Y-100561D01*
X-28206Y-101206D01*
X-27561Y-101637D01*
X-26800Y-101788D01*
X-26039Y-101637D01*
X-25394Y-101206D01*
X-24963Y-100561D01*
X-24812Y-99800D01*
X-24963Y-99039D01*
X-25394Y-98394D01*
X-26039Y-97963D01*
X-26800Y-97812D01*
D02*
G37*
G36*
X-53000Y-102412D02*
X-53761Y-102563D01*
X-54406Y-102994D01*
X-54837Y-103639D01*
X-54988Y-104400D01*
X-54837Y-105161D01*
X-54406Y-105806D01*
X-53761Y-106237D01*
X-53000Y-106388D01*
X-52239Y-106237D01*
X-51594Y-105806D01*
X-51163Y-105161D01*
X-51012Y-104400D01*
X-51163Y-103639D01*
X-51594Y-102994D01*
X-52239Y-102563D01*
X-53000Y-102412D01*
D02*
G37*
G36*
X32800Y-111412D02*
X32039Y-111563D01*
X31394Y-111994D01*
X30963Y-112639D01*
X30812Y-113400D01*
X30963Y-114161D01*
X31394Y-114806D01*
X32039Y-115237D01*
X32800Y-115388D01*
X33561Y-115237D01*
X34206Y-114806D01*
X34637Y-114161D01*
X34788Y-113400D01*
X34637Y-112639D01*
X34206Y-111994D01*
X33561Y-111563D01*
X32800Y-111412D01*
D02*
G37*
G36*
X-27000Y-113012D02*
X-27761Y-113163D01*
X-28406Y-113594D01*
X-28837Y-114239D01*
X-28988Y-115000D01*
X-28837Y-115761D01*
X-28406Y-116406D01*
X-27761Y-116837D01*
X-27000Y-116988D01*
X-26239Y-116837D01*
X-25594Y-116406D01*
X-25163Y-115761D01*
X-25012Y-115000D01*
X-25163Y-114239D01*
X-25594Y-113594D01*
X-26239Y-113163D01*
X-27000Y-113012D01*
D02*
G37*
%LPD*%
M02*
