G04 Layer_Physical_Order=2*
G04 Layer_Color=36540*
%FSLAX25Y25*%
%MOIN*%
G70*
G01*
G75*
%ADD34C,0.09055*%
%ADD35C,0.02700*%
G36*
X16253Y120459D02*
X23045Y119346D01*
X24874Y118939D01*
X25095Y118491D01*
X24014Y116170D01*
X23525Y116191D01*
X23159Y115855D01*
X14507Y97301D01*
X14507Y97301D01*
X14485Y96804D01*
X14487Y96802D01*
X14821Y96438D01*
X69057Y71147D01*
X69550Y71126D01*
X69553Y71126D01*
X69920Y71461D01*
X69920Y71461D01*
X78572Y90016D01*
X78572Y90016D01*
X78593Y90512D01*
X78591Y90514D01*
X78258Y90879D01*
X78195Y90908D01*
X78725Y92056D01*
X79215Y92157D01*
X83482Y88349D01*
X88349Y83481D01*
X92932Y78347D01*
X97218Y72961D01*
X101192Y67341D01*
X104841Y61506D01*
X108155Y55473D01*
X111121Y49262D01*
X113731Y42893D01*
X115977Y36387D01*
X117850Y29764D01*
X119346Y23045D01*
X120243Y17573D01*
X119872Y17237D01*
X74748Y29328D01*
X74255Y29263D01*
X73953Y28869D01*
X49803Y-61259D01*
X49868Y-61751D01*
X50262Y-62054D01*
X95679Y-74223D01*
X95836Y-74698D01*
X92932Y-78347D01*
X88349Y-83482D01*
X83481Y-88349D01*
X78347Y-92932D01*
X72961Y-97218D01*
X67341Y-101192D01*
X61506Y-104841D01*
X55473Y-108155D01*
X49262Y-111121D01*
X42893Y-113731D01*
X36387Y-115977D01*
X29764Y-117850D01*
X28733Y-118080D01*
X28343Y-117767D01*
Y-117201D01*
X28802Y-117010D01*
X28992Y-116551D01*
Y-86551D01*
X28802Y-86092D01*
X28343Y-85902D01*
X16842D01*
X16383Y-86092D01*
X16193Y-86551D01*
Y-89551D01*
Y-91902D01*
X-22658D01*
X-23117Y-92092D01*
X-23307Y-92551D01*
Y-116551D01*
X-23117Y-117010D01*
X-22658Y-117201D01*
Y-119024D01*
X-22754Y-119106D01*
X-23157Y-119321D01*
X-29764Y-117850D01*
X-36387Y-115977D01*
X-42893Y-113731D01*
X-49262Y-111121D01*
X-55473Y-108155D01*
X-61506Y-104841D01*
X-67341Y-101192D01*
X-72961Y-97218D01*
X-78347Y-92932D01*
X-83482Y-88349D01*
X-88349Y-83481D01*
X-92932Y-78347D01*
X-97218Y-72961D01*
X-100800Y-67896D01*
X-100630Y-67426D01*
X-61263Y-56877D01*
X-60871Y-56577D01*
X-60868Y-56575D01*
X-60804Y-56082D01*
X-60804Y-56082D01*
X-80164Y16172D01*
X-80467Y16567D01*
X-80959Y16632D01*
X-120417Y6059D01*
X-120814Y6363D01*
X-120814Y12911D01*
X-120459Y16253D01*
X-119346Y23045D01*
X-117850Y29764D01*
X-115977Y36387D01*
X-113731Y42893D01*
X-111121Y49262D01*
X-108155Y55472D01*
X-104841Y61506D01*
X-101192Y67341D01*
X-97218Y72961D01*
X-92932Y78347D01*
X-88349Y83482D01*
X-83481Y88349D01*
X-78347Y92932D01*
X-76415Y94470D01*
X-75924Y94374D01*
X-60390Y66944D01*
X-14105Y93666D01*
X-28375Y117745D01*
X-28177Y118204D01*
X-23045Y119346D01*
X-16253Y120459D01*
X-12911Y120813D01*
X12911Y120814D01*
X16253Y120459D01*
D02*
G37*
%LPC*%
G36*
X-46240Y72736D02*
X-47683Y72546D01*
X-48561Y72182D01*
X-46057Y67843D01*
X-41718Y70348D01*
X-42297Y71103D01*
X-43452Y71989D01*
X-44797Y72545D01*
X-46240Y72736D01*
D02*
G37*
G36*
X48677Y72443D02*
X47256Y72128D01*
X45965Y71456D01*
X44892Y70473D01*
X44381Y69671D01*
X48921Y67554D01*
X51038Y72094D01*
X50131Y72380D01*
X48677Y72443D01*
D02*
G37*
G36*
X51945Y71671D02*
X49828Y67131D01*
X54368Y65014D01*
X54654Y65921D01*
X54717Y67375D01*
X54402Y68796D01*
X53730Y70087D01*
X52747Y71160D01*
X51945Y71671D01*
D02*
G37*
G36*
X-49428Y71682D02*
X-50182Y71103D01*
X-51068Y69948D01*
X-51625Y68603D01*
X-51815Y67160D01*
X-51625Y65717D01*
X-51261Y64838D01*
X-46923Y67343D01*
X-49428Y71682D01*
D02*
G37*
G36*
X-41218Y69482D02*
X-45557Y66977D01*
X-43052Y62639D01*
X-42297Y63218D01*
X-41411Y64373D01*
X-40854Y65717D01*
X-40664Y67160D01*
X-40854Y68603D01*
X-41218Y69482D01*
D02*
G37*
G36*
X43959Y68765D02*
X43672Y67857D01*
X43609Y66403D01*
X43924Y64982D01*
X44596Y63691D01*
X45579Y62618D01*
X46382Y62107D01*
X48499Y66647D01*
X43959Y68765D01*
D02*
G37*
G36*
X-46423Y66477D02*
X-50761Y63973D01*
X-50182Y63218D01*
X-49027Y62332D01*
X-47683Y61775D01*
X-46240Y61585D01*
X-44797Y61775D01*
X-43918Y62139D01*
X-46423Y66477D01*
D02*
G37*
G36*
X49405Y66225D02*
X47288Y61685D01*
X48195Y61399D01*
X49649Y61335D01*
X51070Y61650D01*
X52361Y62322D01*
X53434Y63306D01*
X53945Y64108D01*
X49405Y66225D01*
D02*
G37*
G36*
X66803Y63991D02*
X65382Y63676D01*
X64091Y63004D01*
X63018Y62021D01*
X62507Y61218D01*
X67047Y59101D01*
X69165Y63641D01*
X68257Y63928D01*
X66803Y63991D01*
D02*
G37*
G36*
X-63560Y62735D02*
X-65003Y62546D01*
X-65882Y62182D01*
X-63377Y57843D01*
X-59039Y60348D01*
X-59618Y61103D01*
X-60773Y61989D01*
X-62117Y62546D01*
X-63560Y62735D01*
D02*
G37*
G36*
X70071Y63219D02*
X67954Y58679D01*
X72494Y56562D01*
X72780Y57469D01*
X72843Y58923D01*
X72528Y60344D01*
X71856Y61635D01*
X70873Y62708D01*
X70071Y63219D01*
D02*
G37*
G36*
X-66748Y61682D02*
X-67503Y61103D01*
X-68389Y59948D01*
X-68945Y58603D01*
X-69135Y57160D01*
X-68946Y55717D01*
X-68582Y54839D01*
X-64243Y57343D01*
X-66748Y61682D01*
D02*
G37*
G36*
X62085Y60312D02*
X61799Y59405D01*
X61735Y57951D01*
X62050Y56530D01*
X62722Y55239D01*
X63705Y54166D01*
X64508Y53655D01*
X66625Y58195D01*
X62085Y60312D01*
D02*
G37*
G36*
X67531Y57772D02*
X65414Y53232D01*
X66321Y52946D01*
X67775Y52883D01*
X69196Y53198D01*
X70487Y53870D01*
X71560Y54853D01*
X72071Y55655D01*
X67531Y57772D01*
D02*
G37*
G36*
X-58539Y59482D02*
X-62877Y56977D01*
X-60373Y52639D01*
X-59618Y53218D01*
X-58732Y54373D01*
X-58175Y55717D01*
X-57985Y57160D01*
X-58175Y58603D01*
X-58539Y59482D01*
D02*
G37*
G36*
X-63743Y56477D02*
X-68082Y53973D01*
X-67503Y53218D01*
X-66348Y52332D01*
X-65003Y51775D01*
X-63560Y51585D01*
X-62117Y51775D01*
X-61238Y52139D01*
X-63743Y56477D01*
D02*
G37*
G36*
X-36240Y55415D02*
X-37683Y55225D01*
X-38561Y54861D01*
X-36057Y50523D01*
X-31718Y53027D01*
X-32297Y53782D01*
X-33452Y54668D01*
X-34797Y55225D01*
X-36240Y55415D01*
D02*
G37*
G36*
X40225Y54317D02*
X38804Y54002D01*
X37513Y53330D01*
X36440Y52347D01*
X35929Y51545D01*
X40469Y49428D01*
X42586Y53968D01*
X41679Y54254D01*
X40225Y54317D01*
D02*
G37*
G36*
X53549Y58752D02*
X52231Y58460D01*
X51034Y57837D01*
X50038Y56924D01*
X49313Y55786D01*
X48907Y54498D01*
X48848Y53149D01*
X49140Y51831D01*
X49764Y50634D01*
X50676Y49638D01*
X51814Y48913D01*
X53102Y48507D01*
X54451Y48448D01*
X55769Y48740D01*
X56966Y49363D01*
X57962Y50276D01*
X58687Y51414D01*
X59093Y52702D01*
X59152Y54051D01*
X58860Y55369D01*
X58236Y56566D01*
X57324Y57562D01*
X56186Y58287D01*
X54898Y58693D01*
X53549Y58752D01*
D02*
G37*
G36*
X-49900Y58672D02*
X-51239Y58496D01*
X-52486Y57979D01*
X-53557Y57157D01*
X-54379Y56086D01*
X-54896Y54839D01*
X-55072Y53500D01*
X-54896Y52161D01*
X-54379Y50914D01*
X-53557Y49843D01*
X-52486Y49021D01*
X-51239Y48504D01*
X-49900Y48328D01*
X-48561Y48504D01*
X-47314Y49021D01*
X-46243Y49843D01*
X-45421Y50914D01*
X-44904Y52161D01*
X-44728Y53500D01*
X-44904Y54839D01*
X-45421Y56086D01*
X-46243Y57157D01*
X-47314Y57979D01*
X-48561Y58496D01*
X-49900Y58672D01*
D02*
G37*
G36*
X-39427Y54361D02*
X-40182Y53782D01*
X-41068Y52627D01*
X-41625Y51283D01*
X-41815Y49840D01*
X-41625Y48397D01*
X-41261Y47518D01*
X-36923Y50023D01*
X-39427Y54361D01*
D02*
G37*
G36*
X43492Y53545D02*
X41375Y49005D01*
X45915Y46888D01*
X46201Y47795D01*
X46265Y49249D01*
X45950Y50670D01*
X45278Y51961D01*
X44294Y53034D01*
X43492Y53545D01*
D02*
G37*
G36*
X-31218Y52162D02*
X-35557Y49657D01*
X-33052Y45318D01*
X-32297Y45897D01*
X-31411Y47052D01*
X-30854Y48397D01*
X-30665Y49840D01*
X-30854Y51283D01*
X-31218Y52162D01*
D02*
G37*
G36*
X-36423Y49157D02*
X-40761Y46652D01*
X-40182Y45897D01*
X-39027Y45011D01*
X-37683Y44455D01*
X-36240Y44265D01*
X-34797Y44455D01*
X-33918Y44818D01*
X-36423Y49157D01*
D02*
G37*
G36*
X35506Y50638D02*
X35220Y49731D01*
X35157Y48277D01*
X35472Y46856D01*
X36144Y45565D01*
X37127Y44492D01*
X37929Y43981D01*
X40046Y48521D01*
X35506Y50638D01*
D02*
G37*
G36*
X40953Y48099D02*
X38835Y43559D01*
X39743Y43273D01*
X41197Y43209D01*
X42618Y43524D01*
X43909Y44196D01*
X44982Y45179D01*
X45493Y45981D01*
X40953Y48099D01*
D02*
G37*
G36*
X58351Y45865D02*
X56930Y45550D01*
X55639Y44878D01*
X54566Y43894D01*
X54055Y43092D01*
X58595Y40975D01*
X60712Y45515D01*
X59805Y45801D01*
X58351Y45865D01*
D02*
G37*
G36*
X-53560Y45415D02*
X-55003Y45225D01*
X-55882Y44861D01*
X-53377Y40523D01*
X-49039Y43027D01*
X-49618Y43782D01*
X-50773Y44668D01*
X-52117Y45225D01*
X-53560Y45415D01*
D02*
G37*
G36*
X61618Y45093D02*
X59501Y40553D01*
X64041Y38436D01*
X64328Y39343D01*
X64391Y40797D01*
X64076Y42218D01*
X63404Y43509D01*
X62421Y44582D01*
X61618Y45093D01*
D02*
G37*
G36*
X-56748Y44361D02*
X-57503Y43782D01*
X-58389Y42627D01*
X-58946Y41283D01*
X-59136Y39840D01*
X-58946Y38397D01*
X-58582Y37518D01*
X-54243Y40023D01*
X-56748Y44361D01*
D02*
G37*
G36*
X53632Y42186D02*
X53346Y41279D01*
X53283Y39825D01*
X53598Y38404D01*
X54270Y37113D01*
X55253Y36040D01*
X56055Y35529D01*
X58172Y40069D01*
X53632Y42186D01*
D02*
G37*
G36*
X-48539Y42162D02*
X-52877Y39657D01*
X-50372Y35318D01*
X-49618Y35897D01*
X-48732Y37052D01*
X-48175Y38397D01*
X-47985Y39840D01*
X-48175Y41283D01*
X-48539Y42162D01*
D02*
G37*
G36*
X59079Y39646D02*
X56962Y35106D01*
X57869Y34820D01*
X59323Y34757D01*
X60744Y35072D01*
X62035Y35744D01*
X63108Y36727D01*
X63619Y37529D01*
X59079Y39646D01*
D02*
G37*
G36*
X-53743Y39157D02*
X-58082Y36652D01*
X-57503Y35897D01*
X-56348Y35011D01*
X-55003Y34455D01*
X-53560Y34264D01*
X-52117Y34455D01*
X-51239Y34818D01*
X-53743Y39157D01*
D02*
G37*
G36*
X-46584Y18746D02*
X-47527Y18622D01*
X-46230Y13783D01*
X-41392Y15080D01*
X-41756Y15958D01*
X-42641Y17113D01*
X-43796Y17999D01*
X-45141Y18556D01*
X-46584Y18746D01*
D02*
G37*
G36*
X-48493Y18363D02*
X-49371Y17999D01*
X-50526Y17113D01*
X-51412Y15958D01*
X-51969Y14614D01*
X-52159Y13171D01*
X-52035Y12228D01*
X-47196Y13524D01*
X-48493Y18363D01*
D02*
G37*
G36*
X-65902Y13570D02*
X-66845Y13446D01*
X-65549Y8607D01*
X-60710Y9903D01*
X-61074Y10782D01*
X-61960Y11937D01*
X-63115Y12823D01*
X-64459Y13380D01*
X-65902Y13570D01*
D02*
G37*
G36*
X-41133Y14114D02*
X-45971Y12817D01*
X-44675Y7979D01*
X-43796Y8343D01*
X-42641Y9229D01*
X-41756Y10383D01*
X-41199Y11728D01*
X-41008Y13171D01*
X-41133Y14114D01*
D02*
G37*
G36*
X-46937Y12559D02*
X-51776Y11262D01*
X-51412Y10383D01*
X-50526Y9229D01*
X-49371Y8343D01*
X-48027Y7786D01*
X-46584Y7596D01*
X-45641Y7720D01*
X-46937Y12559D01*
D02*
G37*
G36*
X-67811Y13187D02*
X-68690Y12823D01*
X-69845Y11937D01*
X-70731Y10782D01*
X-71288Y9437D01*
X-71478Y7994D01*
X-71353Y7051D01*
X-66515Y8348D01*
X-67811Y13187D01*
D02*
G37*
G36*
X-60451Y8937D02*
X-65290Y7641D01*
X-63993Y2802D01*
X-63115Y3166D01*
X-61960Y4052D01*
X-61074Y5207D01*
X-60517Y6551D01*
X-60327Y7994D01*
X-60451Y8937D01*
D02*
G37*
G36*
X-66256Y7382D02*
X-71095Y6086D01*
X-70731Y5207D01*
X-69845Y4052D01*
X-68690Y3166D01*
X-67345Y2609D01*
X-65902Y2419D01*
X-64959Y2543D01*
X-66256Y7382D01*
D02*
G37*
G36*
X-53655Y6095D02*
X-54993Y5919D01*
X-56241Y5402D01*
X-57312Y4580D01*
X-58134Y3509D01*
X-58650Y2262D01*
X-58827Y924D01*
X-58650Y-415D01*
X-58134Y-1663D01*
X-57312Y-2734D01*
X-56241Y-3556D01*
X-54993Y-4072D01*
X-53655Y-4248D01*
X-52316Y-4072D01*
X-51069Y-3556D01*
X-49998Y-2734D01*
X-49176Y-1663D01*
X-48659Y-415D01*
X-48483Y924D01*
X-48659Y2262D01*
X-49176Y3509D01*
X-49998Y4580D01*
X-51069Y5402D01*
X-52316Y5919D01*
X-53655Y6095D01*
D02*
G37*
G36*
X33011Y369D02*
X31568Y179D01*
X30223Y-378D01*
X29068Y-1264D01*
X28182Y-2418D01*
X27818Y-3297D01*
X32657Y-4594D01*
X33954Y245D01*
X33011Y369D01*
D02*
G37*
G36*
X-41407Y-572D02*
X-42350Y-697D01*
X-41054Y-5535D01*
X-36215Y-4239D01*
X-36579Y-3360D01*
X-37465Y-2205D01*
X-38620Y-1319D01*
X-39964Y-762D01*
X-41407Y-572D01*
D02*
G37*
G36*
X34920Y-14D02*
X33623Y-4853D01*
X38462Y-6149D01*
X38586Y-5206D01*
X38396Y-3763D01*
X37839Y-2418D01*
X36953Y-1264D01*
X35798Y-378D01*
X34920Y-14D01*
D02*
G37*
G36*
X-43316Y-955D02*
X-44195Y-1319D01*
X-45350Y-2205D01*
X-46236Y-3360D01*
X-46793Y-4705D01*
X-46983Y-6148D01*
X-46859Y-7091D01*
X-42020Y-5794D01*
X-43316Y-955D01*
D02*
G37*
G36*
X52329Y-4807D02*
X50886Y-4997D01*
X49542Y-5554D01*
X48387Y-6440D01*
X47501Y-7595D01*
X47137Y-8474D01*
X51976Y-9770D01*
X53272Y-4931D01*
X52329Y-4807D01*
D02*
G37*
G36*
X27560Y-4263D02*
X27435Y-5206D01*
X27625Y-6649D01*
X28182Y-7994D01*
X29068Y-9148D01*
X30223Y-10034D01*
X31102Y-10398D01*
X32398Y-5560D01*
X27560Y-4263D01*
D02*
G37*
G36*
X-60726Y-5749D02*
X-61669Y-5873D01*
X-60372Y-10712D01*
X-55534Y-9415D01*
X-55898Y-8536D01*
X-56784Y-7382D01*
X-57938Y-6496D01*
X-59283Y-5939D01*
X-60726Y-5749D01*
D02*
G37*
G36*
X33364Y-5818D02*
X32068Y-10657D01*
X33011Y-10781D01*
X34454Y-10591D01*
X35798Y-10034D01*
X36953Y-9148D01*
X37839Y-7994D01*
X38203Y-7115D01*
X33364Y-5818D01*
D02*
G37*
G36*
X54238Y-5190D02*
X52942Y-10029D01*
X57780Y-11325D01*
X57904Y-10383D01*
X57714Y-8940D01*
X57157Y-7595D01*
X56271Y-6440D01*
X55117Y-5554D01*
X54238Y-5190D01*
D02*
G37*
G36*
X-35956Y-5205D02*
X-40795Y-6501D01*
X-39498Y-11340D01*
X-38620Y-10976D01*
X-37465Y-10090D01*
X-36579Y-8935D01*
X-36022Y-7591D01*
X-35832Y-6148D01*
X-35956Y-5205D01*
D02*
G37*
G36*
X-41761Y-6760D02*
X-46600Y-8056D01*
X-46236Y-8935D01*
X-45350Y-10090D01*
X-44195Y-10976D01*
X-42850Y-11533D01*
X-41407Y-11723D01*
X-40464Y-11599D01*
X-41761Y-6760D01*
D02*
G37*
G36*
X-62635Y-6132D02*
X-63513Y-6496D01*
X-64668Y-7382D01*
X-65554Y-8536D01*
X-66111Y-9881D01*
X-66301Y-11324D01*
X-66177Y-12267D01*
X-61338Y-10970D01*
X-62635Y-6132D01*
D02*
G37*
G36*
X46878Y-9439D02*
X46754Y-10383D01*
X46944Y-11825D01*
X47501Y-13170D01*
X48387Y-14325D01*
X49542Y-15211D01*
X50420Y-15575D01*
X51717Y-10736D01*
X46878Y-9439D01*
D02*
G37*
G36*
X52683Y-10995D02*
X51386Y-15834D01*
X52329Y-15958D01*
X53772Y-15768D01*
X55117Y-15211D01*
X56271Y-14325D01*
X57157Y-13170D01*
X57521Y-12291D01*
X52683Y-10995D01*
D02*
G37*
G36*
X-55275Y-10381D02*
X-60114Y-11677D01*
X-58817Y-16516D01*
X-57938Y-16152D01*
X-56784Y-15266D01*
X-55898Y-14112D01*
X-55341Y-12767D01*
X-55151Y-11324D01*
X-55275Y-10381D01*
D02*
G37*
G36*
X-61080Y-11936D02*
X-65918Y-13233D01*
X-65554Y-14112D01*
X-64668Y-15266D01*
X-63513Y-16152D01*
X-62169Y-16709D01*
X-60726Y-16899D01*
X-59783Y-16775D01*
X-61080Y-11936D01*
D02*
G37*
G36*
X40082Y-12282D02*
X38743Y-12458D01*
X37496Y-12975D01*
X36425Y-13796D01*
X35603Y-14868D01*
X35086Y-16115D01*
X34910Y-17454D01*
X35086Y-18792D01*
X35603Y-20039D01*
X36425Y-21111D01*
X37496Y-21932D01*
X38743Y-22449D01*
X40082Y-22625D01*
X41420Y-22449D01*
X42668Y-21932D01*
X43739Y-21111D01*
X44561Y-20039D01*
X45077Y-18792D01*
X45254Y-17454D01*
X45077Y-16115D01*
X44561Y-14868D01*
X43739Y-13796D01*
X42668Y-12975D01*
X41420Y-12458D01*
X40082Y-12282D01*
D02*
G37*
G36*
X27834Y-18949D02*
X26391Y-19139D01*
X25047Y-19696D01*
X23892Y-20582D01*
X23006Y-21737D01*
X22642Y-22616D01*
X27481Y-23912D01*
X28777Y-19073D01*
X27834Y-18949D01*
D02*
G37*
G36*
X29743Y-19332D02*
X28447Y-24171D01*
X33285Y-25468D01*
X33410Y-24525D01*
X33220Y-23082D01*
X32663Y-21737D01*
X31777Y-20582D01*
X30622Y-19696D01*
X29743Y-19332D01*
D02*
G37*
G36*
X47153Y-24126D02*
X45710Y-24316D01*
X44365Y-24873D01*
X43211Y-25759D01*
X42325Y-26913D01*
X41960Y-27792D01*
X46799Y-29089D01*
X48096Y-24250D01*
X47153Y-24126D01*
D02*
G37*
G36*
X22383Y-23582D02*
X22259Y-24525D01*
X22449Y-25968D01*
X23006Y-27312D01*
X23892Y-28467D01*
X25047Y-29353D01*
X25925Y-29717D01*
X27222Y-24878D01*
X22383Y-23582D01*
D02*
G37*
G36*
X28188Y-25137D02*
X26891Y-29976D01*
X27834Y-30100D01*
X29277Y-29910D01*
X30622Y-29353D01*
X31777Y-28467D01*
X32663Y-27312D01*
X33027Y-26434D01*
X28188Y-25137D01*
D02*
G37*
G36*
X49062Y-24509D02*
X47765Y-29347D01*
X52604Y-30644D01*
X52728Y-29701D01*
X52538Y-28258D01*
X51981Y-26913D01*
X51095Y-25759D01*
X49940Y-24873D01*
X49062Y-24509D01*
D02*
G37*
G36*
X41702Y-28758D02*
X41578Y-29701D01*
X41767Y-31144D01*
X42325Y-32489D01*
X43211Y-33643D01*
X44365Y-34529D01*
X45244Y-34893D01*
X46540Y-30055D01*
X41702Y-28758D01*
D02*
G37*
G36*
X47506Y-30313D02*
X46210Y-35152D01*
X47153Y-35276D01*
X48596Y-35086D01*
X49940Y-34529D01*
X51095Y-33643D01*
X51981Y-32489D01*
X52345Y-31610D01*
X47506Y-30313D01*
D02*
G37*
G36*
X-6643Y-54870D02*
Y-59879D01*
X-1633D01*
X-1758Y-58937D01*
X-2315Y-57592D01*
X-3201Y-56437D01*
X-4355Y-55551D01*
X-5700Y-54994D01*
X-6643Y-54870D01*
D02*
G37*
G36*
X-26643D02*
Y-59879D01*
X-21633D01*
X-21758Y-58937D01*
X-22315Y-57592D01*
X-23201Y-56437D01*
X-24355Y-55551D01*
X-25700Y-54994D01*
X-26643Y-54870D01*
D02*
G37*
G36*
X-27643D02*
X-28586Y-54994D01*
X-29931Y-55551D01*
X-31085Y-56437D01*
X-31971Y-57592D01*
X-32528Y-58937D01*
X-32652Y-59879D01*
X-27643D01*
Y-54870D01*
D02*
G37*
G36*
X-7643D02*
X-8586Y-54994D01*
X-9931Y-55551D01*
X-11085Y-56437D01*
X-11971Y-57592D01*
X-12528Y-58937D01*
X-12652Y-59879D01*
X-7643D01*
Y-54870D01*
D02*
G37*
G36*
X-1633Y-60879D02*
X-6643D01*
Y-65889D01*
X-5700Y-65765D01*
X-4355Y-65208D01*
X-3201Y-64322D01*
X-2315Y-63167D01*
X-1758Y-61822D01*
X-1633Y-60879D01*
D02*
G37*
G36*
X-21633D02*
X-26643D01*
Y-65889D01*
X-25700Y-65765D01*
X-24355Y-65208D01*
X-23201Y-64322D01*
X-22315Y-63167D01*
X-21758Y-61822D01*
X-21633Y-60879D01*
D02*
G37*
G36*
X-27643D02*
X-32652D01*
X-32528Y-61822D01*
X-31971Y-63167D01*
X-31085Y-64322D01*
X-29931Y-65208D01*
X-28586Y-65765D01*
X-27643Y-65889D01*
Y-60879D01*
D02*
G37*
G36*
X-7643D02*
X-12652D01*
X-12528Y-61822D01*
X-11971Y-63167D01*
X-11085Y-64322D01*
X-9931Y-65208D01*
X-8586Y-65765D01*
X-7643Y-65889D01*
Y-60879D01*
D02*
G37*
G36*
X-17143Y-65208D02*
X-18482Y-65384D01*
X-19729Y-65900D01*
X-20800Y-66722D01*
X-21622Y-67794D01*
X-22139Y-69041D01*
X-22315Y-70380D01*
X-22139Y-71718D01*
X-21622Y-72965D01*
X-20800Y-74037D01*
X-19729Y-74858D01*
X-18482Y-75375D01*
X-17143Y-75551D01*
X-15804Y-75375D01*
X-14557Y-74858D01*
X-13486Y-74037D01*
X-12664Y-72965D01*
X-12147Y-71718D01*
X-11971Y-70380D01*
X-12147Y-69041D01*
X-12664Y-67794D01*
X-13486Y-66722D01*
X-14557Y-65900D01*
X-15804Y-65384D01*
X-17143Y-65208D01*
D02*
G37*
G36*
X-6643Y-74870D02*
Y-79879D01*
X-1633D01*
X-1758Y-78936D01*
X-2315Y-77592D01*
X-3201Y-76437D01*
X-4355Y-75551D01*
X-5700Y-74994D01*
X-6643Y-74870D01*
D02*
G37*
G36*
X-26643D02*
Y-79879D01*
X-21633D01*
X-21758Y-78936D01*
X-22315Y-77592D01*
X-23201Y-76437D01*
X-24355Y-75551D01*
X-25700Y-74994D01*
X-26643Y-74870D01*
D02*
G37*
G36*
X-27643D02*
X-28586Y-74994D01*
X-29931Y-75551D01*
X-31085Y-76437D01*
X-31971Y-77592D01*
X-32528Y-78936D01*
X-32652Y-79879D01*
X-27643D01*
Y-74870D01*
D02*
G37*
G36*
X-7643D02*
X-8586Y-74994D01*
X-9931Y-75551D01*
X-11085Y-76437D01*
X-11971Y-77592D01*
X-12528Y-78936D01*
X-12652Y-79879D01*
X-7643D01*
Y-74870D01*
D02*
G37*
G36*
X-1633Y-80879D02*
X-6643D01*
Y-85889D01*
X-5700Y-85765D01*
X-4355Y-85208D01*
X-3201Y-84322D01*
X-2315Y-83167D01*
X-1758Y-81822D01*
X-1633Y-80879D01*
D02*
G37*
G36*
X-21633D02*
X-26643D01*
Y-85889D01*
X-25700Y-85765D01*
X-24355Y-85208D01*
X-23201Y-84322D01*
X-22315Y-83167D01*
X-21758Y-81822D01*
X-21633Y-80879D01*
D02*
G37*
G36*
X-27643D02*
X-32652D01*
X-32528Y-81822D01*
X-31971Y-83167D01*
X-31085Y-84322D01*
X-29931Y-85208D01*
X-28586Y-85765D01*
X-27643Y-85889D01*
Y-80879D01*
D02*
G37*
G36*
X-7643D02*
X-12652D01*
X-12528Y-81822D01*
X-11971Y-83167D01*
X-11085Y-84322D01*
X-9931Y-85208D01*
X-8586Y-85765D01*
X-7643Y-85889D01*
Y-80879D01*
D02*
G37*
%LPD*%
D34*
X27834Y-24525D02*
D03*
X47153Y-29701D02*
D03*
X52329Y-10383D02*
D03*
X33011Y-5206D02*
D03*
X-7143Y-60379D02*
D03*
Y-80379D02*
D03*
X-27143D02*
D03*
Y-60379D02*
D03*
X-46584Y13171D02*
D03*
X-65902Y7994D02*
D03*
X-60726Y-11324D02*
D03*
X-41407Y-6148D02*
D03*
X-53560Y39840D02*
D03*
X-63560Y57160D02*
D03*
X-46240Y67160D02*
D03*
X-36240Y49840D02*
D03*
X58837Y40311D02*
D03*
X67289Y58437D02*
D03*
X49163Y66889D02*
D03*
X40711Y48763D02*
D03*
D35*
X26200Y-75400D02*
D03*
X-53700Y-44100D02*
D03*
X-56000Y-36000D02*
D03*
X25400Y80700D02*
D03*
X17400Y84000D02*
D03*
X33800Y6600D02*
D03*
X61100Y17000D02*
D03*
X57000Y26300D02*
D03*
X62900Y24900D02*
D03*
X18069Y94554D02*
D03*
X-4957Y-90551D02*
D03*
X-23700Y116400D02*
D03*
X20500Y117400D02*
D03*
X-1300Y118100D02*
D03*
X-11900Y96000D02*
D03*
X10700Y96500D02*
D03*
X80500Y87500D02*
D03*
X116800Y20800D02*
D03*
X96300Y67200D02*
D03*
X107900Y46700D02*
D03*
X92000Y28100D02*
D03*
X76700Y32100D02*
D03*
X70400Y28200D02*
D03*
X87400Y41100D02*
D03*
X77800Y57800D02*
D03*
X65400Y69700D02*
D03*
X46200Y78500D02*
D03*
X28500Y86800D02*
D03*
X22700Y74100D02*
D03*
X14100Y77600D02*
D03*
X20400Y90200D02*
D03*
X8200Y67600D02*
D03*
X10900Y59800D02*
D03*
X19600Y62200D02*
D03*
X25500Y60000D02*
D03*
X28400Y51700D02*
D03*
X36200Y68000D02*
D03*
X30500Y70600D02*
D03*
X69000Y23300D02*
D03*
X66900Y15400D02*
D03*
X52600Y29200D02*
D03*
X46300Y30900D02*
D03*
X39600Y27100D02*
D03*
X43000Y18600D02*
D03*
X41200Y11900D02*
D03*
X54800Y15200D02*
D03*
X53300Y8900D02*
D03*
X51400Y2000D02*
D03*
X62200Y-2400D02*
D03*
X57100Y-21100D02*
D03*
X50900Y-42100D02*
D03*
X46800Y-57700D02*
D03*
X52100Y-66100D02*
D03*
X88200Y-76900D02*
D03*
X63000Y-98100D02*
D03*
X32800Y-113400D02*
D03*
X32700Y-89700D02*
D03*
X26100Y-82700D02*
D03*
X28000Y-70300D02*
D03*
Y-64100D02*
D03*
X22200Y-58100D02*
D03*
X16300Y-64100D02*
D03*
X9700Y-63900D02*
D03*
X3700Y-58500D02*
D03*
X16100Y-75800D02*
D03*
X18300Y-82800D02*
D03*
X9800Y-75800D02*
D03*
X3900Y-75900D02*
D03*
X12600Y-85900D02*
D03*
X3700D02*
D03*
X-10400Y-88900D02*
D03*
X-20000Y-88800D02*
D03*
X-27000Y-91900D02*
D03*
X-50500Y-81000D02*
D03*
X-73400Y-63000D02*
D03*
X-27000Y-115000D02*
D03*
X-26800Y-99800D02*
D03*
X32200Y-97600D02*
D03*
X75400Y-72700D02*
D03*
X-53000Y-104400D02*
D03*
X-74700Y-90700D02*
D03*
X-95500Y-69500D02*
D03*
X-62000Y-60100D02*
D03*
X-57800Y-53200D02*
D03*
X-59600Y-45400D02*
D03*
X-62000Y-37400D02*
D03*
X-47500Y-42700D02*
D03*
X-49900Y-34400D02*
D03*
X-41900Y-42000D02*
D03*
X-35800Y-40500D02*
D03*
X-31800Y-33700D02*
D03*
X-39100Y-29500D02*
D03*
X-40600Y-23900D02*
D03*
X-36100Y-16400D02*
D03*
X-54100Y-20800D02*
D03*
X-66300Y-23700D02*
D03*
X-71100Y-4000D02*
D03*
X-75800Y15300D02*
D03*
X-85400Y19100D02*
D03*
X-93900Y16700D02*
D03*
X-116900Y10200D02*
D03*
X-110400Y39800D02*
D03*
X-98700Y65500D02*
D03*
X-78000Y89600D02*
D03*
X-70100Y77000D02*
D03*
X-65200Y68200D02*
D03*
X-39900Y75600D02*
D03*
X-26400Y83600D02*
D03*
X-18700Y87900D02*
D03*
X-14800Y80800D02*
D03*
X-22400Y76400D02*
D03*
X-18800Y64500D02*
D03*
X-30200Y71700D02*
D03*
X-24400Y61800D02*
D03*
X-35800Y68600D02*
D03*
X-10900Y76600D02*
D03*
X-7500Y70700D02*
D03*
X-9700Y62200D02*
D03*
X-27200Y52400D02*
D03*
X66000Y-69400D02*
D03*
X49300Y-81700D02*
D03*
X-31700Y41800D02*
D03*
X-49100Y31200D02*
D03*
X-48400Y22100D02*
D03*
X-38000Y15400D02*
D03*
X37100Y39700D02*
D03*
X24600Y-2100D02*
D03*
X18500Y-22000D02*
D03*
X-7500Y-50600D02*
D03*
X-26000Y-50400D02*
D03*
X-32100Y-3900D02*
D03*
X-18300Y26700D02*
D03*
X10900Y27900D02*
D03*
X-2900Y40500D02*
D03*
X-3000Y8100D02*
D03*
X-17500Y-1600D02*
D03*
X13500Y-7700D02*
D03*
X-3800Y-22300D02*
D03*
M02*
