G04 Layer_Color=16711935*
%FSLAX25Y25*%
%MOIN*%
G70*
G01*
G75*
%ADD51C,0.09855*%
%ADD52C,0.03500*%
D51*
X40082Y-17454D02*
D03*
X27834Y-24525D02*
D03*
X47153Y-29701D02*
D03*
X52329Y-10383D02*
D03*
X33011Y-5206D02*
D03*
X-7143Y-60379D02*
D03*
Y-80379D02*
D03*
X-27143D02*
D03*
Y-60379D02*
D03*
X-17143Y-70380D02*
D03*
X-53655Y924D02*
D03*
X-46584Y13171D02*
D03*
X-65902Y7994D02*
D03*
X-60726Y-11324D02*
D03*
X-41407Y-6148D02*
D03*
X-53560Y39840D02*
D03*
X-63560Y57160D02*
D03*
X-46240Y67160D02*
D03*
X-36240Y49840D02*
D03*
X-49900Y53500D02*
D03*
X54000Y53600D02*
D03*
X58837Y40311D02*
D03*
X67289Y58437D02*
D03*
X49163Y66889D02*
D03*
X40711Y48763D02*
D03*
D52*
X26200Y-75400D02*
D03*
X-53700Y-44100D02*
D03*
X-56000Y-36000D02*
D03*
X25400Y80700D02*
D03*
X17400Y84000D02*
D03*
X33800Y6600D02*
D03*
X61100Y17000D02*
D03*
X57000Y26300D02*
D03*
X62900Y24900D02*
D03*
X18069Y94554D02*
D03*
X-4957Y-90551D02*
D03*
X-23700Y116400D02*
D03*
X20500Y117400D02*
D03*
X-1300Y118100D02*
D03*
X-11900Y96000D02*
D03*
X10700Y96500D02*
D03*
X80500Y87500D02*
D03*
X116800Y20800D02*
D03*
X96300Y67200D02*
D03*
X107900Y46700D02*
D03*
X92000Y28100D02*
D03*
X76700Y32100D02*
D03*
X70400Y28200D02*
D03*
X87400Y41100D02*
D03*
X77800Y57800D02*
D03*
X65400Y69700D02*
D03*
X46200Y78500D02*
D03*
X28500Y86800D02*
D03*
X22700Y74100D02*
D03*
X14100Y77600D02*
D03*
X20400Y90200D02*
D03*
X8200Y67600D02*
D03*
X10900Y59800D02*
D03*
X19600Y62200D02*
D03*
X25500Y60000D02*
D03*
X28400Y51700D02*
D03*
X36200Y68000D02*
D03*
X30500Y70600D02*
D03*
X69000Y23300D02*
D03*
X66900Y15400D02*
D03*
X52600Y29200D02*
D03*
X46300Y30900D02*
D03*
X39600Y27100D02*
D03*
X43000Y18600D02*
D03*
X41200Y11900D02*
D03*
X54800Y15200D02*
D03*
X53300Y8900D02*
D03*
X51400Y2000D02*
D03*
X62200Y-2400D02*
D03*
X57100Y-21100D02*
D03*
X50900Y-42100D02*
D03*
X46800Y-57700D02*
D03*
X52100Y-66100D02*
D03*
X88200Y-76900D02*
D03*
X63000Y-98100D02*
D03*
X32800Y-113400D02*
D03*
X32700Y-89700D02*
D03*
X26100Y-82700D02*
D03*
X28000Y-70300D02*
D03*
Y-64100D02*
D03*
X22200Y-58100D02*
D03*
X16300Y-64100D02*
D03*
X9700Y-63900D02*
D03*
X3700Y-58500D02*
D03*
X16100Y-75800D02*
D03*
X18300Y-82800D02*
D03*
X9800Y-75800D02*
D03*
X3900Y-75900D02*
D03*
X12600Y-85900D02*
D03*
X3700D02*
D03*
X-10400Y-88900D02*
D03*
X-20000Y-88800D02*
D03*
X-27000Y-91900D02*
D03*
X-50500Y-81000D02*
D03*
X-73400Y-63000D02*
D03*
X-27000Y-115000D02*
D03*
X-26800Y-99800D02*
D03*
X32200Y-97600D02*
D03*
X75400Y-72700D02*
D03*
X-53000Y-104400D02*
D03*
X-74700Y-90700D02*
D03*
X-95500Y-69500D02*
D03*
X-62000Y-60100D02*
D03*
X-57800Y-53200D02*
D03*
X-59600Y-45400D02*
D03*
X-62000Y-37400D02*
D03*
X-47500Y-42700D02*
D03*
X-49900Y-34400D02*
D03*
X-41900Y-42000D02*
D03*
X-35800Y-40500D02*
D03*
X-31800Y-33700D02*
D03*
X-39100Y-29500D02*
D03*
X-40600Y-23900D02*
D03*
X-36100Y-16400D02*
D03*
X-54100Y-20800D02*
D03*
X-66300Y-23700D02*
D03*
X-71100Y-4000D02*
D03*
X-75800Y15300D02*
D03*
X-85400Y19100D02*
D03*
X-93900Y16700D02*
D03*
X-116900Y10200D02*
D03*
X-110400Y39800D02*
D03*
X-98700Y65500D02*
D03*
X-78000Y89600D02*
D03*
X-70100Y77000D02*
D03*
X-65200Y68200D02*
D03*
X-39900Y75600D02*
D03*
X-26400Y83600D02*
D03*
X-18700Y87900D02*
D03*
X-14800Y80800D02*
D03*
X-22400Y76400D02*
D03*
X-18800Y64500D02*
D03*
X-30200Y71700D02*
D03*
X-24400Y61800D02*
D03*
X-35800Y68600D02*
D03*
X-10900Y76600D02*
D03*
X-7500Y70700D02*
D03*
X-9700Y62200D02*
D03*
X-27200Y52400D02*
D03*
X66000Y-69400D02*
D03*
X49300Y-81700D02*
D03*
X-31700Y41800D02*
D03*
X-49100Y31200D02*
D03*
X-48400Y22100D02*
D03*
X-38000Y15400D02*
D03*
X37100Y39700D02*
D03*
X24600Y-2100D02*
D03*
X18500Y-22000D02*
D03*
X-7500Y-50600D02*
D03*
X-26000Y-50400D02*
D03*
X-32100Y-3900D02*
D03*
X-18300Y26700D02*
D03*
X10900Y27900D02*
D03*
X-2900Y40500D02*
D03*
X-3000Y8100D02*
D03*
X-17500Y-1600D02*
D03*
X13500Y-7700D02*
D03*
X-3800Y-22300D02*
D03*
M02*
