M48
;Layer_Color=9474304
;FILE_FORMAT=2:5
INCH,LZ
;TYPE=PLATED
T1F00S00C0.01300
T2F00S00C0.04016
%
T01
X00407Y-01108
X00449Y-00952
X00542Y-00907
X00606Y-00869
X00681Y-00809
X0074Y-00743
X00804Y-00675
X00851Y-00613
X0091Y-00526
X00951Y-00444
X0098399Y-0037299
X01Y-003118
X01026Y-00241
X00974Y-00188
X01045Y-00153
X01047Y-00067
X01055Y0
X01029Y00029
X01014Y00093
X00959Y00104
X00962Y-00091
X00856Y-00266
X00765Y-00323
X00773Y-00386
X00758Y-00553
X01022Y-0059
X0111Y-00403
X01163Y-00209
X01062Y00201
X0068Y-0007606
X0060906Y-0011506
X0057874Y-0001968
X0053937Y0001969
X00464Y00006
X00432Y-000225
X00479Y-00076
X00469Y-00119
X00394Y-00144
X00432Y-00355
X00478Y-00823
X00591Y-01022
X00761Y-00903
X00905Y-00758
X00351Y-00798
X00361Y-00993
X00274Y-01015
X00192Y-01036
X00154Y-0104
X0009205Y-0100205
X00062Y-01057
X0
X-00094Y-01045
X-0006498Y-01008
X-0018537Y-0104437
X-00242Y-01008
X-00277Y-00991
X-0034659Y-00935
X-00488Y-00933
X-00527Y-00912
X-00525Y-0085
X-00619Y-00849
X-00679Y-00809
X-00749Y-00746
X-00757Y-00906
X-00589Y-01025
X-00403Y-0111
X-00213Y-01162
X00213Y-01161
X00028Y-00488
X00047Y-004545
X-00077Y-004635
X-00175Y-00512
X-00211Y-00481
X-0025Y-00574
X-00495Y-00453
X-00486Y-00106
X-0053937Y-0001968
X-0057874Y0001969
X-0067Y-0001
X-0060406Y00123
X-00639Y00233
X-00537Y00203
X-00425Y0017606
X-0025Y00259
X-00164Y0006441
X-0012453Y00032
X-0006547
X-00065Y-00026
X0Y-00061
X00042Y-00142
X-00066Y-0015
X-0009Y-00212
X-00173
X00159Y-0023
X00287Y-00364
X00306Y-001
Y-00055
X00351Y00029
X00307Y00209
X00087Y00168
X00033Y00149
X00029Y00062
X-0003
X-00046Y00172
X00066Y00019
X00118Y0003
X00095Y-00025
X-00891Y-000472
X-00979Y-00042
X-01003Y00028
X-0102448Y0006552
X-01028Y0016
X-010278Y002178
X-0106737Y0019963
X-0105098Y-0006598
X-01037Y-00151
X-01002Y-00182
X-00974Y-00269
Y-00338
X-0100841Y-0034659
X-0111Y-00404
X-01159Y-00214
X-00833Y-00229
X-00819Y-00562
X-00898Y-00558
X-00853Y-00635
X-00902Y-00762
X-01022Y-00592
X-00791Y00165
X-00621Y0027
X-00635Y00445
X-00617Y006
X-00626Y0065
X-00511Y0067
X-00484Y00606
X-00547Y00533
X-00288Y00528
X-00263Y00638
X-00253Y00994
X-00308Y00978
X-00292Y01144
X-0017Y01072
X-00124Y00969
X-00029Y0106
X0003Y01086
X0006552Y01024
X0017Y01066
X00215Y01011
X0031Y00894
X00334Y0084
X00356Y00783
X0036359Y0043915
X00354Y00307
X00308Y00319
X00276Y00357
X00088Y00284
X0004Y00312
X-000225Y00285
X0005Y00413
X-00344Y0031
X-00975Y00311
X-0098Y00391
X-0092411Y0046089
X-0093Y00521
X-00916Y0056
X-00846Y0052
X-0080399Y0059599
X-00804Y00642
X-00836Y00673
X-0077114Y00709
X-00839Y00832
X-0066Y00831
X-00597
X-0054Y00796
X-00461Y00915
X-00498Y01072
X-00675Y00969
X-0097Y00674
X-01076Y00484
X-01141Y00302
X003Y01143
X00387Y00972
X00432Y00926
X00508Y00916
X00539Y00871
X00502Y00744
X00596Y00721
X00691
Y00659
X00624Y00625
X00829Y00626
X00834Y00547
X008335Y0049468
X00874Y00494
X0092659Y0049041
X00892Y00547
X0090919Y0039319
X0097219
X00995Y00313
X0097126Y0028226
X01144Y00293
X01074Y00493
X00967Y0068
X0083Y00842
X00668Y00976
X00492Y01075
X004Y00619
X0037257Y00395
X00532Y00279
T02
X-0005Y-0055906
X0005
Y0055906
X-0005
X-0015
Y00685
X-0005
X0005
X0015
Y0055906
M30
