G04 Layer_Physical_Order=1*
G04 Layer_Color=255*
%FSLAX25Y25*%
%MOIN*%
G70*
G01*
G75*
%ADD10R,0.02362X0.02362*%
%ADD11R,0.02362X0.02362*%
%ADD12R,0.04803X0.03583*%
%ADD13R,0.02441X0.02441*%
%ADD14R,0.02441X0.02441*%
%ADD15R,0.02559X0.02165*%
%ADD16R,0.02165X0.01772*%
%ADD17R,0.02047X0.02047*%
%ADD18R,0.10630X0.03150*%
%ADD19P,0.02895X4X105.0*%
%ADD20R,0.05709X0.04528*%
%ADD21R,0.02047X0.02047*%
%ADD22R,0.02165X0.02559*%
%ADD23R,0.02953X0.02362*%
%ADD24R,0.02362X0.05512*%
%ADD25R,0.01772X0.02165*%
%ADD26R,0.03543X0.03937*%
G04:AMPARAMS|DCode=27|XSize=21.65mil|YSize=17.72mil|CornerRadius=0mil|HoleSize=0mil|Usage=FLASHONLY|Rotation=15.000|XOffset=0mil|YOffset=0mil|HoleType=Round|Shape=Rectangle|*
%AMROTATEDRECTD27*
4,1,4,-0.00817,-0.01136,-0.01275,0.00575,0.00817,0.01136,0.01275,-0.00575,-0.00817,-0.01136,0.0*
%
%ADD27ROTATEDRECTD27*%

%ADD28P,0.04009X4X240.0*%
G04:AMPARAMS|DCode=29|XSize=25.59mil|YSize=21.65mil|CornerRadius=0mil|HoleSize=0mil|Usage=FLASHONLY|Rotation=210.000|XOffset=0mil|YOffset=0mil|HoleType=Round|Shape=Rectangle|*
%AMROTATEDRECTD29*
4,1,4,0.00567,0.01577,0.01649,-0.00298,-0.00567,-0.01577,-0.01649,0.00298,0.00567,0.01577,0.0*
%
%ADD29ROTATEDRECTD29*%

%ADD30P,0.02895X4X90.0*%
%ADD31R,0.03937X0.03543*%
%ADD32R,0.02756X0.05118*%
%ADD33P,0.02895X4X360.0*%
%ADD34P,0.02895X4X195.0*%
%ADD35P,0.02895X4X350.0*%
%ADD36P,0.03452X4X195.0*%
%ADD37P,0.03452X4X285.0*%
G04:AMPARAMS|DCode=38|XSize=70.87mil|YSize=19.92mil|CornerRadius=0mil|HoleSize=0mil|Usage=FLASHONLY|Rotation=60.000|XOffset=0mil|YOffset=0mil|HoleType=Round|Shape=Rectangle|*
%AMROTATEDRECTD38*
4,1,4,-0.00909,-0.03567,-0.02634,-0.02571,0.00909,0.03567,0.02634,0.02571,-0.00909,-0.03567,0.0*
%
%ADD38ROTATEDRECTD38*%

G04:AMPARAMS|DCode=39|XSize=70.87mil|YSize=19.92mil|CornerRadius=0mil|HoleSize=0mil|Usage=FLASHONLY|Rotation=60.000|XOffset=0mil|YOffset=0mil|HoleType=Round|Shape=Round|*
%AMOVALD39*
21,1,0.05095,0.01992,0.00000,0.00000,60.0*
1,1,0.01992,-0.01274,-0.02206*
1,1,0.01992,0.01274,0.02206*
%
%ADD39OVALD39*%

%ADD40R,0.02000X0.02000*%
%ADD41R,0.04331X0.02559*%
%ADD42R,0.02000X0.03900*%
%ADD43O,0.00984X0.01476*%
%ADD44O,0.01476X0.00984*%
%ADD45R,0.01575X0.07480*%
%ADD46R,0.03937X0.06299*%
%ADD47R,0.02756X0.01181*%
%ADD48R,0.02559X0.02953*%
%ADD49R,0.02953X0.02559*%
G04:AMPARAMS|DCode=50|XSize=29.53mil|YSize=25.59mil|CornerRadius=0mil|HoleSize=0mil|Usage=FLASHONLY|Rotation=240.000|XOffset=0mil|YOffset=0mil|HoleType=Round|Shape=Rectangle|*
%AMROTATEDRECTD50*
4,1,4,-0.00370,0.01918,0.01846,0.00639,0.00370,-0.01918,-0.01846,-0.00639,-0.00370,0.01918,0.0*
%
%ADD50ROTATEDRECTD50*%

G04:AMPARAMS|DCode=51|XSize=29.53mil|YSize=25.59mil|CornerRadius=0mil|HoleSize=0mil|Usage=FLASHONLY|Rotation=150.000|XOffset=0mil|YOffset=0mil|HoleType=Round|Shape=Rectangle|*
%AMROTATEDRECTD51*
4,1,4,0.01918,0.00370,0.00639,-0.01846,-0.01918,-0.00370,-0.00639,0.01846,0.01918,0.00370,0.0*
%
%ADD51ROTATEDRECTD51*%

%ADD52R,0.05512X0.04134*%
%ADD53O,0.03347X0.01102*%
%ADD54R,0.06496X0.09449*%
%ADD55R,0.01181X0.01181*%
%ADD56O,0.01102X0.03347*%
%ADD57R,0.01969X0.01969*%
%ADD58R,0.04528X0.05709*%
%ADD59R,0.02000X0.02500*%
%ADD60R,0.02500X0.02000*%
%ADD61O,0.02362X0.07677*%
%ADD62O,0.07677X0.02362*%
%ADD63R,0.02953X0.03543*%
%ADD64R,0.14567X0.14567*%
%ADD65O,0.01181X0.03347*%
%ADD66O,0.03347X0.01181*%
%ADD67R,0.03937X0.03937*%
%ADD68R,0.05906X0.03543*%
G04:AMPARAMS|DCode=69|XSize=59.06mil|YSize=35.43mil|CornerRadius=0mil|HoleSize=0mil|Usage=FLASHONLY|Rotation=345.008|XOffset=0mil|YOffset=0mil|HoleType=Round|Shape=Rectangle|*
%AMROTATEDRECTD69*
4,1,4,-0.03311,-0.00948,-0.02394,0.02475,0.03311,0.00948,0.02394,-0.02475,-0.03311,-0.00948,0.0*
%
%ADD69ROTATEDRECTD69*%

G04:AMPARAMS|DCode=70|XSize=59.06mil|YSize=35.43mil|CornerRadius=0mil|HoleSize=0mil|Usage=FLASHONLY|Rotation=330.022|XOffset=0mil|YOffset=0mil|HoleType=Round|Shape=Rectangle|*
%AMROTATEDRECTD70*
4,1,4,-0.03443,-0.00059,-0.01673,0.03010,0.03443,0.00059,0.01673,-0.03010,-0.03443,-0.00059,0.0*
%
%ADD70ROTATEDRECTD70*%

G04:AMPARAMS|DCode=71|XSize=59.06mil|YSize=35.43mil|CornerRadius=0mil|HoleSize=0mil|Usage=FLASHONLY|Rotation=315.011|XOffset=0mil|YOffset=0mil|HoleType=Round|Shape=Rectangle|*
%AMROTATEDRECTD71*
4,1,4,-0.03341,0.00835,-0.00836,0.03341,0.03341,-0.00835,0.00836,-0.03341,-0.03341,0.00835,0.0*
%
%ADD71ROTATEDRECTD71*%

G04:AMPARAMS|DCode=72|XSize=59.06mil|YSize=35.43mil|CornerRadius=0mil|HoleSize=0mil|Usage=FLASHONLY|Rotation=300.025|XOffset=0mil|YOffset=0mil|HoleType=Round|Shape=Rectangle|*
%AMROTATEDRECTD72*
4,1,4,-0.03011,0.01670,0.00056,0.03443,0.03011,-0.01670,-0.00056,-0.03443,-0.03011,0.01670,0.0*
%
%ADD72ROTATEDRECTD72*%

G04:AMPARAMS|DCode=73|XSize=59.06mil|YSize=35.43mil|CornerRadius=0mil|HoleSize=0mil|Usage=FLASHONLY|Rotation=285.013|XOffset=0mil|YOffset=0mil|HoleType=Round|Shape=Rectangle|*
%AMROTATEDRECTD73*
4,1,4,-0.02476,0.02393,0.00946,0.03311,0.02476,-0.02393,-0.00946,-0.03311,-0.02476,0.02393,0.0*
%
%ADD73ROTATEDRECTD73*%

G04:AMPARAMS|DCode=74|XSize=59.06mil|YSize=35.43mil|CornerRadius=0mil|HoleSize=0mil|Usage=FLASHONLY|Rotation=270.002|XOffset=0mil|YOffset=0mil|HoleType=Round|Shape=Rectangle|*
%AMROTATEDRECTD74*
4,1,4,-0.01772,0.02953,0.01772,0.02953,0.01772,-0.02953,-0.01772,-0.02953,-0.01772,0.02953,0.0*
%
%ADD74ROTATEDRECTD74*%

G04:AMPARAMS|DCode=75|XSize=59.06mil|YSize=35.43mil|CornerRadius=0mil|HoleSize=0mil|Usage=FLASHONLY|Rotation=255.016|XOffset=0mil|YOffset=0mil|HoleType=Round|Shape=Rectangle|*
%AMROTATEDRECTD75*
4,1,4,-0.00948,0.03310,0.02475,0.02394,0.00948,-0.03310,-0.02475,-0.02394,-0.00948,0.03310,0.0*
%
%ADD75ROTATEDRECTD75*%

G04:AMPARAMS|DCode=76|XSize=59.06mil|YSize=35.43mil|CornerRadius=0mil|HoleSize=0mil|Usage=FLASHONLY|Rotation=240.005|XOffset=0mil|YOffset=0mil|HoleType=Round|Shape=Rectangle|*
%AMROTATEDRECTD76*
4,1,4,-0.00058,0.03443,0.03011,0.01672,0.00058,-0.03443,-0.03011,-0.01672,-0.00058,0.03443,0.0*
%
%ADD76ROTATEDRECTD76*%

G04:AMPARAMS|DCode=77|XSize=59.06mil|YSize=35.43mil|CornerRadius=0mil|HoleSize=0mil|Usage=FLASHONLY|Rotation=225.019|XOffset=0mil|YOffset=0mil|HoleType=Round|Shape=Rectangle|*
%AMROTATEDRECTD77*
4,1,4,0.00834,0.03341,0.03340,0.00836,-0.00834,-0.03341,-0.03340,-0.00836,0.00834,0.03341,0.0*
%
%ADD77ROTATEDRECTD77*%

G04:AMPARAMS|DCode=78|XSize=59.06mil|YSize=35.43mil|CornerRadius=0mil|HoleSize=0mil|Usage=FLASHONLY|Rotation=210.007|XOffset=0mil|YOffset=0mil|HoleType=Round|Shape=Rectangle|*
%AMROTATEDRECTD78*
4,1,4,0.01671,0.03011,0.03443,-0.00058,-0.01671,-0.03011,-0.03443,0.00058,0.01671,0.03011,0.0*
%
%ADD78ROTATEDRECTD78*%

G04:AMPARAMS|DCode=79|XSize=59.06mil|YSize=35.43mil|CornerRadius=0mil|HoleSize=0mil|Usage=FLASHONLY|Rotation=195.021|XOffset=0mil|YOffset=0mil|HoleType=Round|Shape=Rectangle|*
%AMROTATEDRECTD79*
4,1,4,0.02393,0.02476,0.03311,-0.00946,-0.02393,-0.02476,-0.03311,0.00946,0.02393,0.02476,0.0*
%
%ADD79ROTATEDRECTD79*%

%ADD80R,0.08661X0.05118*%
%ADD81C,0.01200*%
%ADD82C,0.00800*%
%ADD83C,0.01000*%
%ADD84C,0.01500*%
%ADD85C,0.03000*%
%ADD86C,0.05000*%
%ADD87R,0.01102X0.02756*%
%ADD88C,0.07400*%
%ADD89C,0.05984*%
%ADD90P,0.08463X4X380.0*%
%ADD91R,0.05984X0.05984*%
%ADD92R,0.05984X0.05984*%
%ADD93R,0.06102X0.06102*%
%ADD94C,0.06102*%
%ADD95C,0.02400*%
%ADD96C,0.01969*%
G36*
X6901Y122886D02*
X13781Y122306D01*
X20617Y121341D01*
X27388Y119994D01*
X34073Y118270D01*
X40651Y116173D01*
X47101Y113711D01*
X53402Y110891D01*
X59536Y107722D01*
X65482Y104215D01*
X71223Y100379D01*
X76739Y96228D01*
X82014Y91774D01*
X87031Y87031D01*
X91774Y82014D01*
X96228Y76739D01*
X100379Y71223D01*
X104215Y65482D01*
X107722Y59536D01*
X110891Y53402D01*
X113711Y47101D01*
X116173Y40651D01*
X118270Y34073D01*
X119994Y27388D01*
X121341Y20617D01*
X122306Y13781D01*
X122886Y6901D01*
X123080Y0D01*
X122886Y-6901D01*
X122306Y-13781D01*
X121341Y-20617D01*
X119994Y-27388D01*
X118270Y-34073D01*
X116173Y-40651D01*
X113711Y-47101D01*
X110891Y-53402D01*
X107722Y-59536D01*
X104215Y-65482D01*
X100379Y-71223D01*
X96228Y-76739D01*
X91774Y-82014D01*
X87031Y-87031D01*
X82014Y-91774D01*
X76739Y-96228D01*
X71223Y-100379D01*
X65482Y-104215D01*
X59536Y-107722D01*
X53402Y-110891D01*
X47101Y-113711D01*
X40651Y-116173D01*
X34073Y-118270D01*
X27388Y-119994D01*
X20617Y-121341D01*
X13781Y-122306D01*
X6901Y-122886D01*
X0Y-123080D01*
X-6901Y-122886D01*
X-13781Y-122306D01*
X-20617Y-121341D01*
X-27388Y-119994D01*
X-34073Y-118270D01*
X-40651Y-116173D01*
X-47101Y-113711D01*
X-53402Y-110891D01*
X-59536Y-107722D01*
X-65482Y-104215D01*
X-71223Y-100379D01*
X-76739Y-96228D01*
X-82014Y-91774D01*
X-87031Y-87031D01*
X-91774Y-82014D01*
X-96228Y-76739D01*
X-100379Y-71223D01*
X-104215Y-65482D01*
X-107722Y-59536D01*
X-110891Y-53402D01*
X-113711Y-47101D01*
X-116173Y-40651D01*
X-118270Y-34073D01*
X-119994Y-27388D01*
X-121341Y-20617D01*
X-122306Y-13781D01*
X-122886Y-6901D01*
X-123080Y0D01*
X-122886Y6901D01*
X-122306Y13781D01*
X-121341Y20617D01*
X-119994Y27388D01*
X-118270Y34073D01*
X-116173Y40651D01*
X-113711Y47101D01*
X-110891Y53402D01*
X-107722Y59536D01*
X-104215Y65482D01*
X-100379Y71223D01*
X-96228Y76739D01*
X-91774Y82014D01*
X-87031Y87031D01*
X-82014Y91774D01*
X-76739Y96228D01*
X-71223Y100379D01*
X-65482Y104215D01*
X-59536Y107722D01*
X-53402Y110891D01*
X-47101Y113711D01*
X-40651Y116173D01*
X-34073Y118270D01*
X-27388Y119994D01*
X-20617Y121341D01*
X-13781Y122306D01*
X-6901Y122886D01*
X0Y123080D01*
X6901Y122886D01*
D02*
G37*
%LPC*%
G36*
X96019Y43715D02*
X94052Y42578D01*
X95770Y39606D01*
D01*
D01*
X95770Y39606D01*
X95770Y39606D01*
D01*
X95771Y39606D01*
X95771Y39606D01*
X95771Y39605D01*
X95772Y39603D01*
X95780Y39589D01*
X95780Y39589D01*
X96161Y39350D01*
X96161Y39350D01*
X96178Y39340D01*
X96259Y39288D01*
X98057Y32588D01*
X98057D01*
X98407Y32319D01*
Y30860D01*
X98485Y30470D01*
X98706Y30139D01*
X99998Y28848D01*
X100328Y28626D01*
X100718Y28549D01*
X109896D01*
X110649Y27796D01*
Y11068D01*
X110726Y10678D01*
X110948Y10347D01*
X112583Y8712D01*
Y-920D01*
X112083Y-1071D01*
X112021Y-979D01*
X106523Y4519D01*
Y6093D01*
X107875Y6093D01*
X107875Y13198D01*
X103706Y13198D01*
X103640Y13698D01*
X104965Y14053D01*
X104071Y17388D01*
X101877Y16800D01*
X102760Y13507D01*
X102771Y13465D01*
X102771Y13465D01*
X103132Y13044D01*
X103132Y6093D01*
X104130Y6093D01*
X104484Y5739D01*
Y4096D01*
X104561Y3706D01*
X104782Y3376D01*
X110280Y-2122D01*
Y-37167D01*
X108860Y-42476D01*
X108292Y-42698D01*
X108002Y-42504D01*
X107300Y-42365D01*
X106620Y-42500D01*
X106531Y-42507D01*
X106120Y-42247D01*
Y-20808D01*
X107628Y-15172D01*
X103619Y-14099D01*
X103685Y-13599D01*
X105004Y-13599D01*
X105004Y-10146D01*
X102733Y-10146D01*
X102733Y-13595D01*
X102733Y-13599D01*
X102733Y-13599D01*
X103005Y-14099D01*
X101209Y-20809D01*
X104080Y-21578D01*
Y-45878D01*
X97678Y-52280D01*
X97216Y-52089D01*
Y-47376D01*
X100026Y-42507D01*
X96432Y-40433D01*
X96625Y-39967D01*
X97926Y-40315D01*
X98819Y-36980D01*
X96624Y-36392D01*
X95742Y-39689D01*
X95732Y-39728D01*
X95732Y-39728D01*
X95839Y-40274D01*
X92366Y-46290D01*
X95177Y-47912D01*
Y-61882D01*
X77079Y-79979D01*
X76858Y-80310D01*
X76780Y-80700D01*
Y-87452D01*
X72994Y-91241D01*
X72870Y-91255D01*
X72405Y-91163D01*
X72098Y-90702D01*
X71502Y-90304D01*
X70800Y-90165D01*
X70098Y-90304D01*
X69502Y-90702D01*
X69104Y-91298D01*
X68965Y-92000D01*
X69104Y-92702D01*
X69363Y-93090D01*
X67115Y-95339D01*
X63339Y-97519D01*
X65711Y-101627D01*
X71864Y-98073D01*
X70549Y-95797D01*
X71773Y-94573D01*
X71773Y-94573D01*
X71952Y-94305D01*
X72072Y-94127D01*
X72176Y-93600D01*
Y-93180D01*
X72496Y-92702D01*
X72635Y-92000D01*
X73097Y-91756D01*
X76143Y-94800D01*
X81165Y-89774D01*
X78820Y-87430D01*
Y-81122D01*
X89982Y-69959D01*
X90443Y-70206D01*
X90365Y-70600D01*
X90504Y-71302D01*
X90824Y-71780D01*
Y-73400D01*
X86424Y-77802D01*
X89779Y-81155D01*
X94802Y-76129D01*
X93577Y-74904D01*
Y-71780D01*
X93896Y-71302D01*
X94035Y-70600D01*
X93924Y-70042D01*
X94274Y-69721D01*
X94309Y-69705D01*
D01*
X94309Y-69705D01*
X94735Y-69932D01*
X98082Y-71864D01*
X101634Y-65710D01*
X98823Y-64088D01*
Y-54018D01*
X105572Y-47270D01*
X106072Y-47477D01*
Y-48534D01*
X103618Y-52785D01*
X107726Y-55156D01*
X111278Y-49003D01*
X108825Y-47586D01*
Y-45158D01*
X108996Y-44902D01*
X109135Y-44200D01*
X108996Y-43498D01*
X108901Y-43356D01*
X109212Y-42922D01*
X113354Y-44030D01*
X115191Y-37166D01*
X112320Y-36398D01*
Y-9646D01*
X112820Y-9494D01*
X112881Y-9586D01*
X113748Y-10452D01*
X114078Y-10673D01*
X114469Y-10751D01*
X116125D01*
X116125Y-12798D01*
Y-12798D01*
Y-12810D01*
Y-12936D01*
Y-12998D01*
X116125Y-13013D01*
Y-13018D01*
X116125Y-13018D01*
X115849Y-13273D01*
X115849Y-13273D01*
X115366Y-13318D01*
X115100Y-13265D01*
X114398Y-13404D01*
X113802Y-13802D01*
X113405Y-14398D01*
X113265Y-15100D01*
X113405Y-15802D01*
X113802Y-16398D01*
X114398Y-16795D01*
X114924Y-16900D01*
Y-19819D01*
X113759Y-24168D01*
X118342Y-25395D01*
X120179Y-18531D01*
X117676Y-17861D01*
Y-16300D01*
X117676Y-16300D01*
X117676Y-16300D01*
Y-16300D01*
X117648Y-16158D01*
X117572Y-15773D01*
X117572Y-15773D01*
X117572Y-15773D01*
X117384Y-15493D01*
X117273Y-15327D01*
X117273Y-15327D01*
X117273Y-15327D01*
X117273Y-15327D01*
X116908Y-14961D01*
X116796Y-14398D01*
X116512Y-13974D01*
X116280Y-13574D01*
X116281Y-13572D01*
X116345Y-13359D01*
X116345Y-13359D01*
X116368Y-13284D01*
X116375Y-13261D01*
X116379Y-13247D01*
X116383Y-13234D01*
X116394Y-13198D01*
X116395Y-13198D01*
X116396D01*
X116418D01*
X116550Y-13198D01*
X116553D01*
X116553D01*
X120868Y-13198D01*
X120868Y-6093D01*
X116125Y-6093D01*
X116125Y-8358D01*
X115771Y-8712D01*
X114891D01*
X114622Y-8443D01*
Y9135D01*
X114544Y9525D01*
X114323Y9856D01*
X112688Y11491D01*
Y28218D01*
X112610Y28609D01*
X112390Y28940D01*
X111039Y30290D01*
X110709Y30511D01*
X110319Y30588D01*
X101141D01*
X100446Y31282D01*
Y33229D01*
X102638Y33816D01*
X100797Y40679D01*
X96821Y39613D01*
X96628Y40079D01*
X97747Y40726D01*
X96019Y43715D01*
D02*
G37*
G36*
X84069Y2664D02*
X83366Y2524D01*
X82771Y2126D01*
X82373Y1531D01*
X82233Y828D01*
X82373Y126D01*
X82771Y-469D01*
X83366Y-867D01*
X84069Y-1007D01*
X84771Y-867D01*
X85366Y-469D01*
X85416Y-395D01*
X93417D01*
Y-658D01*
X96783D01*
Y2314D01*
X93417D01*
Y2052D01*
X85416D01*
X85366Y2126D01*
X84771Y2524D01*
X84069Y2664D01*
D02*
G37*
G36*
X78044Y-4200D02*
X76400D01*
Y-5844D01*
X76758Y-5772D01*
X77486Y-5286D01*
X77972Y-4558D01*
X78044Y-4200D01*
D02*
G37*
G36*
X75400Y-1556D02*
X75042Y-1628D01*
X74314Y-2114D01*
X73828Y-2842D01*
X73756Y-3200D01*
X75400D01*
Y-1556D01*
D02*
G37*
G36*
X76400D02*
Y-3200D01*
X78044D01*
X77972Y-2842D01*
X77486Y-2114D01*
X76758Y-1628D01*
X76400Y-1556D01*
D02*
G37*
G36*
X-54605Y-75848D02*
X-55366Y-77168D01*
X-54047Y-77930D01*
X-53285Y-76610D01*
X-54605Y-75848D01*
D02*
G37*
G36*
X-106007Y9148D02*
X-108278Y9147D01*
X-108277Y5694D01*
X-106006Y5695D01*
X-106007Y9148D01*
D02*
G37*
G36*
X-102735Y9149D02*
X-105007Y9148D01*
X-105006Y5695D01*
X-102734Y5696D01*
X-102735Y9149D01*
D02*
G37*
G36*
X-55866Y-78034D02*
X-56628Y-79353D01*
X-55309Y-80115D01*
X-54547Y-78796D01*
X-55866Y-78034D01*
D02*
G37*
G36*
X-59000Y-76956D02*
Y-78600D01*
X-57356D01*
X-57428Y-78242D01*
X-57914Y-77514D01*
X-58642Y-77028D01*
X-59000Y-76956D01*
D02*
G37*
G36*
X-60000D02*
X-60358Y-77028D01*
X-61086Y-77514D01*
X-61572Y-78242D01*
X-61644Y-78600D01*
X-60000D01*
Y-76956D01*
D02*
G37*
G36*
X75400Y-4200D02*
X73756D01*
X73828Y-4558D01*
X74314Y-5286D01*
X75042Y-5772D01*
X75400Y-5844D01*
Y-4200D01*
D02*
G37*
G36*
X82200Y-10156D02*
X81842Y-10228D01*
X81114Y-10714D01*
X80628Y-11442D01*
X80556Y-11800D01*
X82200D01*
Y-10156D01*
D02*
G37*
G36*
X83200D02*
Y-11800D01*
X84844D01*
X84772Y-11442D01*
X84286Y-10714D01*
X83558Y-10228D01*
X83200Y-10156D01*
D02*
G37*
G36*
X-95300D02*
Y-11800D01*
X-93656D01*
X-93728Y-11442D01*
X-94214Y-10714D01*
X-94942Y-10228D01*
X-95300Y-10156D01*
D02*
G37*
G36*
X108276Y-10146D02*
X106004Y-10146D01*
X106004Y-13599D01*
X108276Y-13599D01*
X108276Y-10146D01*
D02*
G37*
G36*
X-96300Y-10156D02*
X-96658Y-10228D01*
X-97386Y-10714D01*
X-97872Y-11442D01*
X-97944Y-11800D01*
X-96300D01*
Y-10156D01*
D02*
G37*
G36*
X-54656Y-72200D02*
X-56300D01*
Y-73844D01*
X-55942Y-73772D01*
X-55214Y-73286D01*
X-54728Y-72558D01*
X-54656Y-72200D01*
D02*
G37*
G36*
X-62956Y-73400D02*
X-64600D01*
Y-75044D01*
X-64242Y-74972D01*
X-63514Y-74486D01*
X-63028Y-73758D01*
X-62956Y-73400D01*
D02*
G37*
G36*
X-65600D02*
X-67244D01*
X-67172Y-73758D01*
X-66686Y-74486D01*
X-65958Y-74972D01*
X-65600Y-75044D01*
Y-73400D01*
D02*
G37*
G36*
X108276Y-5693D02*
X106004Y-5693D01*
X106004Y-9146D01*
X108276Y-9146D01*
X108276Y-5693D01*
D02*
G37*
G36*
X-57300Y-72200D02*
X-58944D01*
X-58872Y-72558D01*
X-58386Y-73286D01*
X-57658Y-73772D01*
X-57300Y-73844D01*
Y-72200D01*
D02*
G37*
G36*
X105004Y-5693D02*
X102732Y-5693D01*
X102733Y-9146D01*
X105004Y-9146D01*
X105004Y-5693D01*
D02*
G37*
G36*
X67787Y-82134D02*
X65346Y-84576D01*
X66953Y-86182D01*
X69394Y-83740D01*
X67787Y-82134D01*
D02*
G37*
G36*
X106077Y22537D02*
X103883Y21948D01*
X104778Y18613D01*
X106972Y19202D01*
X106077Y22537D01*
D02*
G37*
G36*
X102917Y21689D02*
X100723Y21101D01*
X101618Y17766D01*
X103812Y18354D01*
X102917Y21689D01*
D02*
G37*
G36*
X107231Y18236D02*
X105037Y17647D01*
X105931Y14312D01*
X108125Y14901D01*
X107231Y18236D01*
D02*
G37*
G36*
X-44029Y-80266D02*
X-45505Y-83431D01*
X-42340Y-84907D01*
X-40865Y-81742D01*
X-44029Y-80266D01*
D02*
G37*
G36*
X-39958Y-82165D02*
X-41434Y-85329D01*
X-38269Y-86805D01*
X-36793Y-83640D01*
X-39958Y-82165D01*
D02*
G37*
G36*
X-95900Y27700D02*
X-97544D01*
X-97472Y27342D01*
X-96986Y26614D01*
X-96258Y26128D01*
X-95900Y26056D01*
Y27700D01*
D02*
G37*
G36*
X-93256D02*
X-94900D01*
Y26056D01*
X-94542Y26128D01*
X-93814Y26614D01*
X-93328Y27342D01*
X-93256Y27700D01*
D02*
G37*
G36*
X-60925Y-87230D02*
X-62060Y-89198D01*
X-59069Y-90924D01*
X-57934Y-88956D01*
X-60925Y-87230D01*
D02*
G37*
G36*
X-59289Y-84397D02*
X-60425Y-86364D01*
X-57434Y-88090D01*
X-56299Y-86122D01*
X-59289Y-84397D01*
D02*
G37*
G36*
X-64781Y-85005D02*
X-65917Y-86972D01*
X-62926Y-88698D01*
X-61791Y-86730D01*
X-64781Y-85005D01*
D02*
G37*
G36*
X-118326Y25409D02*
X-120164Y18545D01*
X-117176Y17745D01*
Y15600D01*
X-117072Y15073D01*
X-117032Y15014D01*
X-117035Y15000D01*
X-116895Y14298D01*
X-116498Y13702D01*
X-116490Y13697D01*
X-116641Y13197D01*
X-120872Y13196D01*
X-120870Y6090D01*
X-119872Y6090D01*
X-119519Y5737D01*
Y769D01*
X-119441Y378D01*
X-119220Y48D01*
X-112951Y-6221D01*
Y-14244D01*
X-113165Y-14317D01*
X-113451Y-14328D01*
X-113802Y-13802D01*
X-114398Y-13404D01*
X-114961Y-13292D01*
X-116121Y-12133D01*
X-116123Y-6094D01*
X-120866Y-6096D01*
X-120864Y-13201D01*
X-118946Y-13201D01*
X-116908Y-15239D01*
X-116796Y-15802D01*
X-116398Y-16398D01*
X-115829Y-16778D01*
X-115802Y-16795D01*
X-115802D01*
X-115802Y-16795D01*
X-115799Y-16802D01*
X-115776Y-16851D01*
X-116024Y-17425D01*
X-116049Y-17432D01*
D01*
X-116049D01*
X-120166Y-18535D01*
X-118326Y-25398D01*
X-115192Y-24558D01*
X-105020Y-34730D01*
Y-44074D01*
X-105520Y-44124D01*
X-105604Y-43698D01*
X-106002Y-43102D01*
X-106598Y-42704D01*
X-107300Y-42565D01*
X-107414Y-42587D01*
X-109320Y-40681D01*
X-110590Y-35941D01*
X-115172Y-37169D01*
X-113332Y-44032D01*
X-110596Y-43298D01*
X-109046Y-44848D01*
X-108995Y-45102D01*
X-108598Y-45698D01*
X-108002Y-46095D01*
X-107431Y-46209D01*
X-107336Y-46536D01*
X-107329Y-46562D01*
X-107317Y-46602D01*
X-107314Y-46613D01*
X-107301Y-46657D01*
X-107300Y-46661D01*
X-107294Y-46681D01*
X-107294Y-46688D01*
X-107294Y-46691D01*
X-107294Y-46692D01*
X-107294Y-46697D01*
X-107294Y-46700D01*
X-107303Y-46712D01*
X-107570Y-46867D01*
D01*
Y-46867D01*
X-111275Y-49007D01*
X-107721Y-55160D01*
X-104971Y-53571D01*
X-83621Y-74921D01*
X-83290Y-75142D01*
X-82900Y-75220D01*
X-75427D01*
X-71015Y-79632D01*
X-71971Y-80588D01*
X-66947Y-85612D01*
X-64020Y-82685D01*
X-63620Y-82992D01*
X-64281Y-84139D01*
X-61291Y-85864D01*
X-60155Y-83897D01*
X-63124Y-82184D01*
Y-82184D01*
D01*
X-63124Y-82184D01*
X-63146Y-82171D01*
X-63146D01*
X-63584Y-82150D01*
X-63590Y-82149D01*
X-63707Y-82144D01*
X-68617Y-77234D01*
X-69323Y-77940D01*
X-69823Y-77940D01*
X-74284Y-73479D01*
X-74615Y-73258D01*
X-75005Y-73180D01*
X-82478D01*
X-104631Y-51027D01*
X-106931Y-47045D01*
X-106948Y-47016D01*
X-106948Y-47016D01*
X-106950Y-47012D01*
X-107056Y-46829D01*
X-107066Y-46812D01*
X-107071Y-46804D01*
X-107071Y-46804D01*
X-107110Y-46736D01*
X-107125Y-46710D01*
X-107117Y-46675D01*
X-107103Y-46613D01*
X-107096Y-46579D01*
X-107093Y-46567D01*
X-107087Y-46541D01*
X-107006Y-46177D01*
X-106598Y-46095D01*
X-106002Y-45698D01*
X-105604Y-45102D01*
X-105520Y-44676D01*
X-105020Y-44725D01*
Y-48763D01*
X-104942Y-49153D01*
X-104721Y-49484D01*
X-93984Y-60221D01*
X-93653Y-60442D01*
X-93263Y-60520D01*
X-89621D01*
X-86821Y-65365D01*
X-83228Y-63289D01*
X-82921Y-63689D01*
X-83865Y-64634D01*
X-81423Y-67075D01*
X-79817Y-65469D01*
X-81912Y-63374D01*
X-82241Y-63045D01*
X-82241Y-63044D01*
X-82242Y-63044D01*
X-82244Y-63042D01*
X-82259Y-63027D01*
X-82259D01*
X-82633Y-62907D01*
X-82683Y-62891D01*
X-82684Y-62890D01*
X-82714Y-62881D01*
X-82794Y-62855D01*
X-86269Y-56840D01*
X-89108Y-58480D01*
X-92841D01*
X-102980Y-48341D01*
Y-34402D01*
X-102480Y-34336D01*
X-100783Y-40668D01*
X-96785Y-39597D01*
X-96592Y-40063D01*
X-97739Y-40726D01*
X-96012Y-43715D01*
X-94045Y-42579D01*
X-95758Y-39613D01*
X-95772Y-39589D01*
X-95772Y-39589D01*
X-96244Y-39284D01*
X-97680Y-33923D01*
Y-32324D01*
X-97758Y-31934D01*
X-97979Y-31603D01*
X-110912Y-18670D01*
Y-5799D01*
X-110989Y-5409D01*
X-111211Y-5078D01*
X-117480Y1191D01*
Y6091D01*
X-116126Y6092D01*
X-116128Y12878D01*
X-116109Y12914D01*
X-115652Y13255D01*
X-115200Y13165D01*
X-114498Y13305D01*
X-113902Y13702D01*
X-113504Y14298D01*
X-113365Y15000D01*
X-113504Y15702D01*
X-113902Y16298D01*
X-114424Y16646D01*
Y20209D01*
X-114424Y20209D01*
X-114424Y20209D01*
X-114479Y20489D01*
X-114528Y20736D01*
X-114528Y20736D01*
X-114528Y20736D01*
X-114627Y20884D01*
X-113744Y24182D01*
X-118326Y25409D01*
D02*
G37*
G36*
X-42131Y-76195D02*
X-43607Y-79360D01*
X-40442Y-80835D01*
X-38966Y-77671D01*
X-42131Y-76195D01*
D02*
G37*
G36*
X-57356Y-79600D02*
X-59000D01*
Y-81244D01*
X-58642Y-81172D01*
X-57914Y-80686D01*
X-57428Y-79958D01*
X-57356Y-79600D01*
D02*
G37*
G36*
X-97456Y8300D02*
X-99100D01*
Y6656D01*
X-98742Y6728D01*
X-98014Y7214D01*
X-97528Y7942D01*
X-97456Y8300D01*
D02*
G37*
G36*
X68620Y-76672D02*
X66180Y-79114D01*
X67787Y-80720D01*
X70227Y-78277D01*
X68620Y-76672D01*
D02*
G37*
G36*
X-100100Y8300D02*
X-101744D01*
X-101672Y7942D01*
X-101186Y7214D01*
X-100458Y6728D01*
X-100100Y6656D01*
Y8300D01*
D02*
G37*
G36*
X-60000Y-79600D02*
X-61644D01*
X-61572Y-79958D01*
X-61086Y-80686D01*
X-60358Y-81172D01*
X-60000Y-81244D01*
Y-79600D01*
D02*
G37*
G36*
X-106008Y13600D02*
X-108280Y13600D01*
X-108279Y10147D01*
X-106007Y10148D01*
X-106008Y13600D01*
D02*
G37*
G36*
X97183Y12857D02*
X95600D01*
Y11472D01*
X97183D01*
Y12857D01*
D02*
G37*
G36*
X70934Y-78984D02*
X68494Y-81427D01*
X70101Y-83032D01*
X72541Y-80590D01*
X70934Y-78984D01*
D02*
G37*
G36*
X-100100Y10944D02*
X-100458Y10872D01*
X-101186Y10386D01*
X-101672Y9658D01*
X-101744Y9300D01*
X-100100D01*
Y10944D01*
D02*
G37*
G36*
X-99100D02*
Y9300D01*
X-97456D01*
X-97528Y9658D01*
X-98014Y10386D01*
X-98742Y10872D01*
X-99100Y10944D01*
D02*
G37*
G36*
X84844Y-12800D02*
X83200D01*
Y-14444D01*
X83558Y-14372D01*
X84286Y-13886D01*
X84772Y-13158D01*
X84844Y-12800D01*
D02*
G37*
G36*
X-57300Y-69556D02*
X-57658Y-69628D01*
X-58386Y-70114D01*
X-58872Y-70842D01*
X-58944Y-71200D01*
X-57300D01*
Y-69556D01*
D02*
G37*
G36*
X-93545Y-43445D02*
X-95512Y-44581D01*
X-93785Y-47571D01*
X-91818Y-46435D01*
X-93545Y-43445D01*
D02*
G37*
G36*
X-96378Y-45081D02*
X-98345Y-46218D01*
X-96618Y-49207D01*
X-94651Y-48071D01*
X-96378Y-45081D01*
D02*
G37*
G36*
X-81100Y-50156D02*
Y-51800D01*
X-79456D01*
X-79528Y-51442D01*
X-80014Y-50714D01*
X-80742Y-50228D01*
X-81100Y-50156D01*
D02*
G37*
G36*
X-56300Y-69556D02*
Y-71200D01*
X-54656D01*
X-54728Y-70842D01*
X-55214Y-70114D01*
X-55942Y-69628D01*
X-56300Y-69556D01*
D02*
G37*
G36*
X85700Y-24865D02*
X84998Y-25004D01*
X84402Y-25402D01*
X84004Y-25998D01*
X83865Y-26700D01*
X84004Y-27402D01*
X84402Y-27998D01*
X84680Y-28184D01*
Y-30724D01*
X84282Y-31178D01*
X81735Y-35590D01*
X81531Y-36191D01*
X81572Y-36825D01*
X81853Y-37394D01*
X81980Y-37506D01*
Y-41949D01*
X82058Y-42339D01*
X82279Y-42670D01*
X82750Y-43141D01*
X82717Y-43266D01*
X82472Y-43699D01*
X82472Y-43699D01*
X81710Y-45019D01*
X83463Y-46031D01*
X85215Y-47043D01*
X85977Y-45723D01*
X85630Y-45523D01*
X87005Y-43142D01*
X84193Y-41518D01*
Y-41518D01*
X84020Y-41069D01*
Y-37752D01*
X84135Y-37695D01*
X84554Y-37217D01*
X87101Y-32805D01*
X87305Y-32204D01*
X87264Y-31571D01*
X86983Y-31001D01*
X86720Y-30770D01*
Y-28184D01*
X86998Y-27998D01*
X87396Y-27402D01*
X87535Y-26700D01*
X87396Y-25998D01*
X86998Y-25402D01*
X86402Y-25004D01*
X85700Y-24865D01*
D02*
G37*
G36*
X97776Y-32091D02*
X96883Y-35426D01*
X99077Y-36014D01*
X99970Y-32678D01*
X97776Y-32091D01*
D02*
G37*
G36*
X59310Y-32985D02*
X58548Y-34305D01*
X59868Y-35066D01*
X60630Y-33747D01*
X59310Y-32985D01*
D02*
G37*
G36*
X100936Y-32937D02*
X100043Y-36272D01*
X102238Y-36860D01*
X103130Y-33524D01*
X100936Y-32937D01*
D02*
G37*
G36*
X-98605Y-41226D02*
X-100572Y-42362D01*
X-98845Y-45352D01*
X-96878Y-44216D01*
X-98605Y-41226D01*
D02*
G37*
G36*
X99785Y-37238D02*
X98892Y-40573D01*
X101086Y-41161D01*
X101979Y-37826D01*
X99785Y-37238D01*
D02*
G37*
G36*
X-82100Y-50156D02*
X-82458Y-50228D01*
X-83186Y-50714D01*
X-83672Y-51442D01*
X-83744Y-51800D01*
X-82100D01*
Y-50156D01*
D02*
G37*
G36*
X84112Y-57332D02*
X82468D01*
Y-58975D01*
X82827Y-58904D01*
X83555Y-58418D01*
X84041Y-57690D01*
X84112Y-57332D01*
D02*
G37*
G36*
X86735Y-61789D02*
X85009Y-64780D01*
X86976Y-65915D01*
X88702Y-62925D01*
X86735Y-61789D01*
D02*
G37*
G36*
X83901Y-60154D02*
X82189Y-63120D01*
X82189D01*
X82189Y-63120D01*
X82189Y-63121D01*
X82175Y-63144D01*
Y-63144D01*
X82152Y-63581D01*
X82152Y-63587D01*
X82145Y-63704D01*
X77235Y-68618D01*
X77940Y-69323D01*
X77940Y-69823D01*
X73779Y-73984D01*
X73558Y-74314D01*
X73480Y-74705D01*
Y-82339D01*
X51413Y-104406D01*
X46938Y-106991D01*
X46938D01*
X46891Y-107018D01*
X46891D01*
X46586Y-107004D01*
X46218Y-106709D01*
X46196Y-106598D01*
X45798Y-106002D01*
X45202Y-105604D01*
X45085Y-105581D01*
X44939Y-105103D01*
X60284Y-89758D01*
X65367Y-86823D01*
X63292Y-83230D01*
X63692Y-82923D01*
X64639Y-83869D01*
X67080Y-81427D01*
X65473Y-79821D01*
X63383Y-81912D01*
X63054Y-82241D01*
X63054D01*
X63054Y-82241D01*
X63054Y-82241D01*
X63054Y-82242D01*
X63051Y-82245D01*
X63032Y-82264D01*
Y-82264D01*
X62914Y-82619D01*
X62894Y-82681D01*
X62894Y-82682D01*
X62884Y-82710D01*
X62856Y-82795D01*
X56841Y-86269D01*
X58323Y-88835D01*
X43278Y-103880D01*
X34257D01*
X34066Y-103419D01*
X35247Y-102237D01*
X40678Y-100779D01*
X39614Y-96812D01*
X40080Y-96619D01*
X40725Y-97737D01*
X43715Y-96011D01*
X42579Y-94043D01*
X39617Y-95754D01*
X39589Y-95770D01*
X39589Y-95770D01*
X39285Y-96242D01*
X32586Y-98040D01*
X33427Y-101173D01*
X24520Y-110080D01*
X-1200D01*
X-1590Y-110158D01*
X-1921Y-110379D01*
X-7668Y-116126D01*
X-12878Y-116127D01*
X-12912Y-116109D01*
X-13254Y-115650D01*
X-13165Y-115200D01*
X-13304Y-114498D01*
X-13702Y-113902D01*
X-14298Y-113504D01*
X-15000Y-113365D01*
X-15702Y-113504D01*
X-16298Y-113902D01*
X-16695Y-114498D01*
X-16780Y-114924D01*
X-19753D01*
X-24168Y-113743D01*
X-25393Y-118325D01*
X-18529Y-120161D01*
X-17865Y-117676D01*
X-16100D01*
X-15573Y-117572D01*
X-15127Y-117273D01*
X-14861Y-117008D01*
X-14298Y-116895D01*
X-13702Y-116498D01*
X-13698Y-116491D01*
X-13198Y-116643D01*
X-13197Y-120870D01*
X-6091Y-120869D01*
X-6092Y-117434D01*
X-778Y-112120D01*
X24110D01*
X24302Y-112582D01*
X22753Y-114130D01*
X17750Y-115473D01*
X17750D01*
X17746Y-115474D01*
X17505Y-115539D01*
X17427Y-115559D01*
X17391Y-115569D01*
X17379Y-115562D01*
X17369Y-115556D01*
X17345Y-115542D01*
X17312Y-115522D01*
X17300Y-115515D01*
X16924Y-115244D01*
X16834Y-114790D01*
X16796Y-114598D01*
X16398Y-114002D01*
X15802Y-113604D01*
X15100Y-113465D01*
X14398Y-113604D01*
X13802Y-114002D01*
X13404Y-114598D01*
X13292Y-115161D01*
X12331Y-116122D01*
X6094Y-116123D01*
X6094Y-120867D01*
X13200Y-120865D01*
X13200Y-119147D01*
X15239Y-117108D01*
X15802Y-116996D01*
X16398Y-116598D01*
X16796Y-116002D01*
X16846Y-115747D01*
X16848Y-115747D01*
X16876Y-115746D01*
X16876D01*
X16893Y-115745D01*
X17194Y-115735D01*
X17247Y-115734D01*
X17318Y-115731D01*
X17359Y-115730D01*
X17366Y-115752D01*
X17443Y-116042D01*
X17443Y-116042D01*
Y-116042D01*
X18551Y-120169D01*
X25414Y-118328D01*
X24573Y-115194D01*
X33847Y-105920D01*
X42656D01*
X42923Y-106420D01*
X42804Y-106598D01*
X42665Y-107300D01*
X42672Y-107339D01*
X40695Y-109316D01*
X35954Y-110588D01*
X37183Y-115169D01*
X44046Y-113328D01*
X43312Y-110592D01*
X44836Y-109069D01*
X45202Y-108996D01*
X45798Y-108598D01*
X46196Y-108002D01*
X46222Y-107869D01*
X46550Y-107517D01*
X46843Y-107531D01*
X46843Y-107531D01*
Y-107531D01*
X49005Y-111275D01*
X55159Y-107721D01*
X53630Y-105074D01*
X75221Y-83483D01*
X75442Y-83152D01*
X75520Y-82762D01*
Y-75127D01*
X79632Y-71014D01*
X80590Y-71971D01*
X85612Y-66945D01*
X82676Y-64010D01*
X82982Y-63610D01*
X84143Y-64280D01*
X85869Y-61289D01*
X83901Y-60154D01*
D02*
G37*
G36*
X86127Y-56297D02*
X84401Y-59288D01*
X86369Y-60423D01*
X88095Y-57433D01*
X86127Y-56297D01*
D02*
G37*
G36*
X88961Y-57933D02*
X87235Y-60923D01*
X89202Y-62059D01*
X90928Y-59069D01*
X88961Y-57933D01*
D02*
G37*
G36*
X75073Y-51383D02*
X73082Y-54832D01*
X73351Y-54924D01*
X74143Y-54872D01*
X74856Y-54521D01*
X75379Y-53924D01*
X76403Y-52151D01*
X75073Y-51383D01*
D02*
G37*
G36*
X-84572Y-65341D02*
X-86178Y-66947D01*
X-83737Y-69389D01*
X-82130Y-67782D01*
X-84572Y-65341D01*
D02*
G37*
G36*
X-79110Y-66176D02*
X-80716Y-67782D01*
X-78275Y-70224D01*
X-76669Y-68617D01*
X-79110Y-66176D01*
D02*
G37*
G36*
X72878Y-50115D02*
X71854Y-51888D01*
X71599Y-52640D01*
X71651Y-53433D01*
X72002Y-54145D01*
X72216Y-54332D01*
X74207Y-50883D01*
X72878Y-50115D01*
D02*
G37*
G36*
X-82100Y-52800D02*
X-83744D01*
X-83672Y-53158D01*
X-83186Y-53886D01*
X-82458Y-54372D01*
X-82100Y-54444D01*
Y-52800D01*
D02*
G37*
G36*
X-79456D02*
X-81100D01*
Y-54444D01*
X-80742Y-54372D01*
X-80014Y-53886D01*
X-79528Y-53158D01*
X-79456Y-52800D01*
D02*
G37*
G36*
X98544Y-16000D02*
X96900D01*
Y-17644D01*
X97258Y-17572D01*
X97986Y-17086D01*
X98472Y-16358D01*
X98544Y-16000D01*
D02*
G37*
G36*
X53400Y-15256D02*
X53042Y-15328D01*
X52314Y-15814D01*
X51828Y-16542D01*
X51756Y-16900D01*
X53400D01*
Y-15256D01*
D02*
G37*
G36*
X95900Y-16000D02*
X94256D01*
X94328Y-16358D01*
X94814Y-17086D01*
X95542Y-17572D01*
X95900Y-17644D01*
Y-16000D01*
D02*
G37*
G36*
X77200Y-16156D02*
X76842Y-16228D01*
X76114Y-16714D01*
X75628Y-17442D01*
X75556Y-17800D01*
X77200D01*
Y-16156D01*
D02*
G37*
G36*
X78200D02*
Y-17800D01*
X79844D01*
X79772Y-17442D01*
X79286Y-16714D01*
X78558Y-16228D01*
X78200Y-16156D01*
D02*
G37*
G36*
X54400Y-15256D02*
Y-16900D01*
X56044D01*
X55972Y-16542D01*
X55486Y-15814D01*
X54758Y-15328D01*
X54400Y-15256D01*
D02*
G37*
G36*
X-93656Y-12800D02*
X-95300D01*
Y-14444D01*
X-94942Y-14372D01*
X-94214Y-13886D01*
X-93728Y-13158D01*
X-93656Y-12800D01*
D02*
G37*
G36*
X82200D02*
X80556D01*
X80628Y-13158D01*
X81114Y-13886D01*
X81842Y-14372D01*
X82200Y-14444D01*
Y-12800D01*
D02*
G37*
G36*
X-96300D02*
X-97944D01*
X-97872Y-13158D01*
X-97386Y-13886D01*
X-96658Y-14372D01*
X-96300Y-14444D01*
Y-12800D01*
D02*
G37*
G36*
X95900Y-13356D02*
X95542Y-13428D01*
X94814Y-13914D01*
X94328Y-14642D01*
X94256Y-15000D01*
X95900D01*
Y-13356D01*
D02*
G37*
G36*
X96900D02*
Y-15000D01*
X98544D01*
X98472Y-14642D01*
X97986Y-13914D01*
X97258Y-13428D01*
X96900Y-13356D01*
D02*
G37*
G36*
X-105912Y-14301D02*
X-108107Y-14889D01*
X-107213Y-18224D01*
X-105019Y-17636D01*
X-105912Y-14301D01*
D02*
G37*
G36*
X-65600Y-70756D02*
X-65958Y-70828D01*
X-66686Y-71314D01*
X-67172Y-72042D01*
X-67244Y-72400D01*
X-65600D01*
Y-70756D01*
D02*
G37*
G36*
X-81423Y-68489D02*
X-83030Y-70096D01*
X-80588Y-72537D01*
X-78982Y-70931D01*
X-81423Y-68489D01*
D02*
G37*
G36*
X-64600Y-70756D02*
Y-72400D01*
X-62956D01*
X-63028Y-72042D01*
X-63514Y-71314D01*
X-64242Y-70828D01*
X-64600Y-70756D01*
D02*
G37*
G36*
X11614Y-33029D02*
X10991D01*
Y-34110D01*
X13096D01*
X13075Y-34005D01*
X12732Y-33492D01*
X12219Y-33149D01*
X11614Y-33029D01*
D02*
G37*
G36*
X-97518Y-63339D02*
X-101626Y-65712D01*
X-98071Y-71864D01*
X-96139Y-70748D01*
X-95996Y-70776D01*
X-94080D01*
X-93995Y-71202D01*
X-93598Y-71798D01*
X-93002Y-72196D01*
X-92300Y-72335D01*
X-91598Y-72196D01*
X-91002Y-71798D01*
X-90604Y-71202D01*
X-90465Y-70500D01*
X-90604Y-69798D01*
X-91002Y-69202D01*
X-91598Y-68804D01*
X-92161Y-68692D01*
X-92427Y-68427D01*
X-92873Y-68128D01*
X-93400Y-68024D01*
X-94812D01*
X-97518Y-63339D01*
D02*
G37*
G36*
X-104760Y-18602D02*
X-106954Y-19190D01*
X-106060Y-22525D01*
X-103866Y-21937D01*
X-104760Y-18602D01*
D02*
G37*
G36*
X53400Y-17900D02*
X51756D01*
X51828Y-18258D01*
X52314Y-18986D01*
X53042Y-19472D01*
X53400Y-19544D01*
Y-17900D01*
D02*
G37*
G36*
X56044D02*
X54400D01*
Y-19544D01*
X54758Y-19472D01*
X55486Y-18986D01*
X55972Y-18258D01*
X56044Y-17900D01*
D02*
G37*
G36*
X79844Y-18800D02*
X78200D01*
Y-20444D01*
X78558Y-20372D01*
X79286Y-19886D01*
X79772Y-19158D01*
X79844Y-18800D01*
D02*
G37*
G36*
X-101600Y-17755D02*
X-103794Y-18343D01*
X-102900Y-21678D01*
X-100706Y-21090D01*
X-101600Y-17755D01*
D02*
G37*
G36*
X77200Y-18800D02*
X75556D01*
X75628Y-19158D01*
X76114Y-19886D01*
X76842Y-20372D01*
X77200Y-20444D01*
Y-18800D01*
D02*
G37*
G36*
X-53700Y82344D02*
Y80700D01*
X-52056D01*
X-52128Y81058D01*
X-52614Y81786D01*
X-53342Y82272D01*
X-53700Y82344D01*
D02*
G37*
G36*
X3400Y84792D02*
X-92D01*
Y81300D01*
X3400D01*
Y84792D01*
D02*
G37*
G36*
X-54700Y82344D02*
X-55058Y82272D01*
X-55786Y81786D01*
X-56272Y81058D01*
X-56344Y80700D01*
X-54700D01*
Y82344D01*
D02*
G37*
G36*
Y79700D02*
X-56344D01*
X-56272Y79342D01*
X-55786Y78614D01*
X-55058Y78128D01*
X-54700Y78056D01*
Y79700D01*
D02*
G37*
G36*
X-52056D02*
X-53700D01*
Y78056D01*
X-53342Y78128D01*
X-52614Y78614D01*
X-52128Y79342D01*
X-52056Y79700D01*
D02*
G37*
G36*
X-66948Y86184D02*
X-69389Y83742D01*
X-67783Y82136D01*
X-65342Y84578D01*
X-66948Y86184D01*
D02*
G37*
G36*
X62927Y88704D02*
X61792Y86737D01*
X64783Y85011D01*
X65918Y86979D01*
X62927Y88704D01*
D02*
G37*
G36*
X-30300Y89420D02*
X-30858Y89347D01*
X-31843Y88939D01*
X-32689Y88289D01*
X-33339Y87443D01*
X-33747Y86458D01*
X-33820Y85900D01*
X-30300D01*
Y89420D01*
D02*
G37*
G36*
X57436Y88095D02*
X56300Y86128D01*
X59291Y84402D01*
X60426Y86370D01*
X57436Y88095D01*
D02*
G37*
G36*
X-42200Y85100D02*
X-43844D01*
X-43772Y84742D01*
X-43286Y84014D01*
X-42558Y83528D01*
X-42200Y83456D01*
Y85100D01*
D02*
G37*
G36*
X-39556D02*
X-41200D01*
Y83456D01*
X-40842Y83528D01*
X-40114Y84014D01*
X-39628Y84742D01*
X-39556Y85100D01*
D02*
G37*
G36*
X3400Y80300D02*
X-92D01*
Y76808D01*
X3400D01*
Y80300D01*
D02*
G37*
G36*
X-54100Y68944D02*
X-54458Y68872D01*
X-55186Y68386D01*
X-55672Y67658D01*
X-55744Y67300D01*
X-54100D01*
Y68944D01*
D02*
G37*
G36*
X-53100D02*
Y67300D01*
X-51456D01*
X-51528Y67658D01*
X-52014Y68386D01*
X-52742Y68872D01*
X-53100Y68944D01*
D02*
G37*
G36*
X57800Y73198D02*
Y71175D01*
X57300D01*
Y70675D01*
X55252D01*
X55169Y70322D01*
X50032D01*
Y68966D01*
X49660Y68893D01*
X49330Y68672D01*
X47551Y66893D01*
X47469Y66956D01*
X46422Y67389D01*
X45300Y67537D01*
X44177Y67389D01*
X43132Y66956D01*
X42233Y66267D01*
X41544Y65369D01*
X41111Y64323D01*
X40963Y63200D01*
X41111Y62077D01*
X41544Y61031D01*
X42233Y60133D01*
X43132Y59444D01*
X44177Y59011D01*
X45300Y58863D01*
X46422Y59011D01*
X47469Y59444D01*
X48367Y60133D01*
X49056Y61031D01*
X49489Y62077D01*
X49637Y63200D01*
X49489Y64323D01*
X49056Y65369D01*
X48993Y65451D01*
X49570Y66028D01*
X50032Y65836D01*
Y65579D01*
X55169D01*
Y67006D01*
X55677D01*
Y66402D01*
X58924D01*
Y69151D01*
X59324D01*
Y69951D01*
X62900D01*
X63097Y69526D01*
X63097Y69526D01*
X63097Y69526D01*
X64174Y68449D01*
X65605Y69880D01*
X66312Y69173D01*
X64881Y67742D01*
X65958Y66665D01*
X66241Y66947D01*
X68186Y65003D01*
X69258Y66076D01*
X70001D01*
X70071Y65971D01*
X70666Y65573D01*
X71368Y65433D01*
X72071Y65573D01*
X72666Y65971D01*
X73064Y66566D01*
X73204Y67269D01*
X73652Y67576D01*
X77719D01*
X79116Y66180D01*
X80722Y67786D01*
X78280Y70227D01*
X78076Y70024D01*
X73738D01*
X72949Y70812D01*
X72552Y71077D01*
X72084Y71170D01*
X67176D01*
X65958Y72388D01*
X65393Y71823D01*
X65175Y72040D01*
X64778Y72305D01*
X64310Y72398D01*
X59324D01*
Y73198D01*
X57800D01*
D02*
G37*
G36*
X-5695Y-102733D02*
X-9147Y-102734D01*
X-9147Y-105006D01*
X-5694Y-105005D01*
X-5695Y-102733D01*
D02*
G37*
G36*
X83742Y69393D02*
X82136Y67787D01*
X84578Y65346D01*
X86184Y66952D01*
X83742Y69393D01*
D02*
G37*
G36*
X21948Y-103868D02*
X18613Y-104763D01*
X19202Y-106957D01*
X22536Y-106062D01*
X21948Y-103868D01*
D02*
G37*
G36*
X17647Y-105022D02*
X14312Y-105917D01*
X14901Y-108111D01*
X18236Y-107216D01*
X17647Y-105022D01*
D02*
G37*
G36*
X-10147Y-106006D02*
X-13600Y-106006D01*
X-13599Y-108278D01*
X-10146Y-108277D01*
X-10147Y-106006D01*
D02*
G37*
G36*
X-67782Y80722D02*
X-70223Y78280D01*
X-69006Y77063D01*
Y70894D01*
X-68913Y70426D01*
X-68648Y70029D01*
X-68630Y70011D01*
X-68730Y69769D01*
X-69299Y69686D01*
X-70025Y70412D01*
X-70008Y70500D01*
X-70147Y71202D01*
X-70545Y71798D01*
X-71141Y72196D01*
X-71843Y72335D01*
X-72545Y72196D01*
X-73141Y71798D01*
X-73539Y71202D01*
X-73678Y70500D01*
X-73539Y69798D01*
X-73141Y69202D01*
X-72545Y68805D01*
X-71843Y68665D01*
X-71755Y68682D01*
X-70571Y67498D01*
Y66998D01*
X-70604Y66965D01*
X-68308Y64669D01*
X-66363Y66613D01*
X-66080Y66330D01*
X-65003Y67408D01*
X-66434Y68839D01*
X-66080Y69192D01*
X-66434Y69546D01*
X-65003Y70977D01*
X-66080Y72054D01*
X-66097Y72037D01*
X-66559Y72229D01*
Y78617D01*
X-66530Y78761D01*
X-66176Y79116D01*
X-67782Y80722D01*
D02*
G37*
G36*
X-64296Y70270D02*
X-65373Y69192D01*
X-64296Y68115D01*
X-63219Y69192D01*
X-64296Y70270D01*
D02*
G37*
G36*
X80593Y72541D02*
X78987Y70935D01*
X81429Y68494D01*
X83035Y70100D01*
X80593Y72541D01*
D02*
G37*
G36*
X-29300Y89420D02*
Y85900D01*
X-25780D01*
X-25853Y86458D01*
X-26261Y87443D01*
X-26911Y88289D01*
X-27757Y88939D01*
X-28742Y89347D01*
X-29300Y89420D01*
D02*
G37*
G36*
X-18342Y103812D02*
X-21677Y102917D01*
X-21089Y100723D01*
X-17754Y101617D01*
X-18342Y103812D01*
D02*
G37*
G36*
X9146Y105004D02*
X5693D01*
Y102732D01*
X9146D01*
Y105004D01*
D02*
G37*
G36*
X37837Y101978D02*
X37249Y99783D01*
X40584Y98890D01*
X41172Y101085D01*
X37837Y101978D01*
D02*
G37*
G36*
X-11100Y99744D02*
X-11458Y99672D01*
X-12186Y99186D01*
X-12672Y98458D01*
X-12744Y98100D01*
X-11100D01*
Y99744D01*
D02*
G37*
G36*
X-10100D02*
Y98100D01*
X-8456D01*
X-8528Y98458D01*
X-9014Y99186D01*
X-9742Y99672D01*
X-10100Y99744D01*
D02*
G37*
G36*
X-6093Y107876D02*
X-13198D01*
Y103752D01*
X-13698Y103686D01*
X-14041Y104965D01*
X-17376Y104070D01*
X-16788Y101876D01*
X-13501Y102758D01*
X-13453Y102771D01*
X-13453Y102771D01*
X-13032Y103132D01*
X-6093D01*
Y103493D01*
X-5593Y103780D01*
X-5032Y103669D01*
X-4329Y103808D01*
X-3734Y104206D01*
X-3336Y104802D01*
X-3196Y105504D01*
X-3336Y106206D01*
X-3734Y106802D01*
X-4329Y107200D01*
X-5032Y107339D01*
X-5593Y107228D01*
X-6093Y107515D01*
Y107876D01*
D02*
G37*
G36*
X13198Y120868D02*
X6093D01*
Y116124D01*
X8626D01*
Y113954D01*
X8704Y113564D01*
X8925Y113233D01*
X12672Y109486D01*
Y108275D01*
X10146D01*
Y105504D01*
Y102732D01*
X11737D01*
X11928Y102270D01*
X8379Y98721D01*
X8158Y98390D01*
X8080Y98000D01*
Y92446D01*
X7580Y92347D01*
X7387Y92813D01*
X6747Y93647D01*
X5913Y94287D01*
X4942Y94689D01*
X4400Y94761D01*
Y90800D01*
Y86839D01*
X4942Y86911D01*
X5913Y87313D01*
X6747Y87953D01*
X7387Y88787D01*
X7580Y89253D01*
X8080Y89154D01*
Y85214D01*
X7892Y84792D01*
X7580Y84792D01*
X4400D01*
Y80800D01*
Y76808D01*
X7580D01*
X7892Y76808D01*
X8080Y76386D01*
D01*
Y71561D01*
X2407Y65888D01*
X2186Y65557D01*
X2109Y65167D01*
Y64683D01*
X1643D01*
Y61317D01*
X4614D01*
Y64683D01*
X4614D01*
X4586Y65183D01*
X9821Y70418D01*
X10042Y70748D01*
X10120Y71139D01*
Y79233D01*
X10620Y79333D01*
X10762Y78988D01*
X11338Y78238D01*
X12088Y77662D01*
X12962Y77300D01*
X13900Y77177D01*
X14838Y77300D01*
X15712Y77662D01*
X16462Y78238D01*
X17038Y78988D01*
X17400Y79862D01*
X17523Y80800D01*
X17400Y81738D01*
X17156Y82326D01*
X18675Y83845D01*
X21190D01*
X21298Y83526D01*
X21325Y83345D01*
X20762Y82612D01*
X20400Y81738D01*
X20277Y80800D01*
X20400Y79862D01*
X20762Y78988D01*
X21338Y78238D01*
X22088Y77662D01*
X22962Y77300D01*
X23900Y77177D01*
X24838Y77300D01*
X25712Y77662D01*
X26462Y78238D01*
X27038Y78988D01*
X27400Y79862D01*
X27523Y80800D01*
X27400Y81738D01*
X27038Y82612D01*
X26475Y83345D01*
X26502Y83526D01*
X26610Y83845D01*
X27268D01*
X27737Y83938D01*
X28134Y84203D01*
X29412Y85481D01*
X29475Y85473D01*
X29895Y85258D01*
Y68218D01*
X29988Y67750D01*
X30253Y67353D01*
X47344Y50263D01*
X47582Y50104D01*
X47741Y49998D01*
X48030Y49940D01*
X47981Y49440D01*
X47613D01*
Y45200D01*
X51187D01*
Y49440D01*
X51187Y49440D01*
X51187D01*
X51187Y49440D01*
X51273Y49905D01*
X60426D01*
X60578Y49405D01*
X60371Y49266D01*
X59973Y48671D01*
X59833Y47969D01*
X59851Y47881D01*
X59237Y47268D01*
X56701D01*
Y42131D01*
X59424D01*
Y41401D01*
X59024D01*
Y41001D01*
X55605D01*
X55512Y41078D01*
Y49040D01*
X52737D01*
Y40614D01*
X50505Y38383D01*
X50284Y38052D01*
X50207Y37661D01*
Y36351D01*
X49942Y36174D01*
X49441Y36166D01*
X49096Y36487D01*
Y37159D01*
X49018Y37549D01*
X48798Y37880D01*
X46063Y40615D01*
Y49040D01*
X43288D01*
Y40360D01*
X43696D01*
X43734Y40170D01*
X43955Y39839D01*
X46986Y36808D01*
X46952Y36280D01*
X46792Y36174D01*
X46399Y35585D01*
X46260Y34890D01*
Y29575D01*
X46399Y28880D01*
X46792Y28291D01*
X47381Y27897D01*
X48076Y27759D01*
X48771Y27897D01*
X49360Y28291D01*
X49401Y28352D01*
X49901D01*
X49942Y28291D01*
X50531Y27897D01*
X51226Y27759D01*
X51921Y27897D01*
X52510Y28291D01*
X52970Y28093D01*
X53152Y27923D01*
Y17525D01*
X50361Y14734D01*
X50096Y14337D01*
X50003Y13869D01*
Y5518D01*
X49503Y5366D01*
X49374Y5558D01*
X48779Y5956D01*
X48077Y6096D01*
X47374Y5956D01*
X46963Y5682D01*
X46334Y5724D01*
X46309Y5760D01*
X46248Y5801D01*
Y6301D01*
X46309Y6342D01*
X46703Y6931D01*
X46841Y7626D01*
X46703Y8321D01*
X46309Y8910D01*
X46248Y8951D01*
Y9451D01*
X46309Y9492D01*
X46703Y10081D01*
X46841Y10776D01*
X46703Y11470D01*
X46319Y12046D01*
X46248Y12172D01*
Y12529D01*
X46319Y12655D01*
X46703Y13230D01*
X46841Y13925D01*
X46703Y14620D01*
X46309Y15209D01*
X46248Y15250D01*
Y15750D01*
X46309Y15791D01*
X46703Y16380D01*
X46841Y17075D01*
X46703Y17770D01*
X46309Y18359D01*
X46248Y18400D01*
Y18900D01*
X46309Y18940D01*
X46703Y19530D01*
X46841Y20224D01*
X46703Y20919D01*
X46499Y21225D01*
X46613Y21854D01*
X46748Y21941D01*
X46799Y21924D01*
X47166Y21678D01*
X47868Y21539D01*
X48571Y21678D01*
X49166Y22076D01*
X49564Y22672D01*
X49704Y23374D01*
X49564Y24076D01*
X49166Y24672D01*
X48571Y25070D01*
X47868Y25209D01*
X47166Y25070D01*
X46799Y24825D01*
X46748Y24807D01*
X46632Y24891D01*
X46309Y25240D01*
X46703Y25829D01*
X46841Y26524D01*
X46703Y27219D01*
X46309Y27808D01*
X45720Y28201D01*
X45025Y28340D01*
X39710D01*
X39015Y28201D01*
X38426Y27808D01*
X37957Y28006D01*
X37571Y28264D01*
X36869Y28404D01*
X36166Y28264D01*
X36029Y28172D01*
X35588Y28408D01*
Y38262D01*
X35511Y38652D01*
X35289Y38982D01*
X25039Y49233D01*
X25043Y49702D01*
X25043D01*
X25043Y49702D01*
Y56414D01*
X21480D01*
Y54062D01*
X21168Y54000D01*
X20837Y53779D01*
X18024Y50967D01*
X17563Y51158D01*
Y56414D01*
X14000D01*
Y55520D01*
X13539Y55329D01*
X12934Y55934D01*
X12537Y56199D01*
X12280Y56250D01*
Y56749D01*
X12280Y56751D01*
Y57000D01*
Y57249D01*
X12280Y57251D01*
Y60614D01*
X8521D01*
Y60155D01*
X3331D01*
X2863Y60062D01*
X2466Y59797D01*
X187Y57518D01*
X100Y57535D01*
X-602Y57396D01*
X-1198Y56998D01*
X-1596Y56402D01*
X-1735Y55700D01*
X-1596Y54998D01*
X-1198Y54402D01*
X-602Y54004D01*
X100Y53865D01*
X802Y54004D01*
X1398Y54402D01*
X1796Y54998D01*
X1935Y55700D01*
X1918Y55787D01*
X3838Y57708D01*
X8167D01*
X8490Y57385D01*
X8521Y57249D01*
Y57000D01*
Y56751D01*
X8468Y56292D01*
X8000Y56199D01*
X7603Y55934D01*
X238Y48568D01*
X-4155D01*
X-4623Y48475D01*
X-5020Y48210D01*
X-7176Y46054D01*
X-8777D01*
Y63400D01*
X-8870Y63868D01*
X-9135Y64265D01*
X-14070Y69200D01*
X-8935Y74335D01*
X-8670Y74732D01*
X-8577Y75200D01*
Y81749D01*
X-6149D01*
Y89051D01*
X-13451D01*
Y86312D01*
X-13951Y86045D01*
X-14129Y86164D01*
X-14831Y86304D01*
X-15534Y86164D01*
X-15699Y86054D01*
X-16235Y86297D01*
X-16243Y86353D01*
X-16611Y87241D01*
X-17196Y88004D01*
X-17959Y88589D01*
X-18847Y88957D01*
X-19800Y89083D01*
X-20753Y88957D01*
X-21641Y88589D01*
X-22404Y88004D01*
X-22989Y87241D01*
X-23357Y86353D01*
X-23483Y85400D01*
X-23357Y84447D01*
X-22989Y83559D01*
X-22404Y82796D01*
X-22359Y82762D01*
X-22520Y82288D01*
X-26451D01*
X-26698Y82788D01*
X-26261Y83357D01*
X-25853Y84342D01*
X-25780Y84900D01*
X-33820D01*
X-33747Y84342D01*
X-33339Y83357D01*
X-32902Y82788D01*
X-33149Y82288D01*
X-40532D01*
X-40922Y82210D01*
X-41253Y81990D01*
X-49553Y73690D01*
X-49773Y73359D01*
X-49851Y72969D01*
Y46489D01*
X-49988Y46397D01*
X-82644D01*
X-82716Y46427D01*
X-90234D01*
X-90559Y46292D01*
X-90693Y46237D01*
X-90748Y46182D01*
X-90938Y45723D01*
Y-46523D01*
X-90748Y-46982D01*
X-90289Y-47172D01*
X-74807D01*
X-74655Y-47672D01*
X-74797Y-47766D01*
X-74897Y-47866D01*
X-75162Y-48263D01*
X-75255Y-48731D01*
Y-59143D01*
X-75162Y-59611D01*
X-74897Y-60009D01*
X-74797Y-60109D01*
X-74400Y-60374D01*
X-73931Y-60467D01*
X-73354D01*
Y-62107D01*
X-66446D01*
Y-60819D01*
X-66135Y-60564D01*
X-65190D01*
Y-61220D01*
X-59659D01*
Y-57461D01*
X-65190D01*
Y-58117D01*
X-65758D01*
X-65763Y-58113D01*
X-66232Y-58020D01*
X-66446D01*
Y-57034D01*
X-65946Y-56755D01*
X-65600Y-56823D01*
X-56141D01*
Y-57880D01*
X-55741D01*
Y-61220D01*
X-53010D01*
X-51223Y-63007D01*
Y-69500D01*
X-51600D01*
Y-72700D01*
Y-74700D01*
X-51223D01*
Y-75693D01*
X-51765Y-76235D01*
X-52030Y-76632D01*
X-52053Y-76744D01*
X-52263Y-76840D01*
X-53431Y-78863D01*
X-54443Y-80615D01*
X-53123Y-81377D01*
X-52923Y-81031D01*
X-52360Y-81356D01*
Y-88784D01*
X-52434Y-88834D01*
X-52832Y-89429D01*
X-52972Y-90131D01*
X-52832Y-90834D01*
X-52434Y-91429D01*
X-51839Y-91827D01*
X-51136Y-91967D01*
X-50434Y-91827D01*
X-49839Y-91429D01*
X-49441Y-90834D01*
X-49301Y-90131D01*
X-49441Y-89429D01*
X-49839Y-88834D01*
X-49913Y-88784D01*
Y-81316D01*
X-48918Y-79593D01*
X-49676Y-79155D01*
Y-77607D01*
X-49135Y-77065D01*
X-48869Y-76668D01*
X-48776Y-76200D01*
X-48806Y-76050D01*
X-48776Y-75900D01*
Y-74700D01*
X-48400D01*
Y-72700D01*
Y-69500D01*
X-48776D01*
Y-64424D01*
X-44200D01*
X-43732Y-64330D01*
X-43335Y-64065D01*
X-41377Y-62107D01*
X-40915Y-62299D01*
Y-65044D01*
X-30651D01*
Y-68282D01*
X-30573Y-68672D01*
X-30450Y-68856D01*
X-30655Y-69356D01*
X-40915D01*
Y-73706D01*
X-36223D01*
Y-78484D01*
X-36645Y-78753D01*
X-38060Y-78093D01*
X-39535Y-81258D01*
X-36251Y-82790D01*
X-35948Y-82741D01*
X-35832Y-82762D01*
X-34412Y-84181D01*
X-34421Y-84195D01*
X-34705Y-85097D01*
X-34746Y-86042D01*
X-34541Y-86965D01*
X-34105Y-87804D01*
X-33466Y-88502D01*
X-32668Y-89010D01*
X-31766Y-89294D01*
X-30821Y-89336D01*
X-29898Y-89131D01*
X-29059Y-88694D01*
X-28361Y-88055D01*
X-27853Y-87257D01*
X-27569Y-86355D01*
X-27528Y-85410D01*
X-27732Y-84487D01*
X-28169Y-83648D01*
X-28808Y-82951D01*
X-29606Y-82442D01*
X-30508Y-82158D01*
X-31453Y-82117D01*
X-32376Y-82322D01*
X-32662Y-82471D01*
X-33776Y-81356D01*
Y-73706D01*
X-30925D01*
X-30146Y-74484D01*
X-29749Y-74749D01*
X-29281Y-74842D01*
X-23111D01*
Y-83025D01*
X-23018Y-83494D01*
X-22753Y-83891D01*
X-20147Y-86497D01*
X-19750Y-86762D01*
X-19282Y-86855D01*
X-14763D01*
X-14593Y-87355D01*
X-14962Y-87638D01*
X-15538Y-88388D01*
X-15900Y-89262D01*
X-16023Y-90200D01*
X-15900Y-91138D01*
X-15538Y-92012D01*
X-14962Y-92762D01*
X-14212Y-93338D01*
X-13338Y-93700D01*
X-12400Y-93823D01*
X-11462Y-93700D01*
X-10588Y-93338D01*
X-9838Y-92762D01*
X-9262Y-92012D01*
X-8900Y-91138D01*
X-8777Y-90200D01*
X-8900Y-89262D01*
X-9228Y-88470D01*
X2059Y-77183D01*
X2280Y-76852D01*
X2358Y-76462D01*
Y-63896D01*
X6702D01*
Y-60255D01*
X5901D01*
Y-58581D01*
X6702D01*
Y-56382D01*
X7292Y-55792D01*
X7792Y-55792D01*
X8570Y-56570D01*
Y-58534D01*
Y-62077D01*
X9371D01*
Y-72187D01*
X-3121Y-84679D01*
X-3342Y-85010D01*
X-3419Y-85400D01*
Y-86608D01*
X-5992D01*
Y-93792D01*
X1192D01*
Y-86608D01*
X-1380D01*
Y-85822D01*
X6527Y-77914D01*
X6951Y-78198D01*
X6800Y-78562D01*
X6677Y-79500D01*
X6800Y-80438D01*
X7162Y-81312D01*
X7738Y-82062D01*
X8488Y-82638D01*
X9362Y-83000D01*
X10300Y-83123D01*
X11238Y-83000D01*
X12112Y-82638D01*
X12862Y-82062D01*
X13438Y-81312D01*
X13800Y-80438D01*
X13923Y-79500D01*
X13800Y-78562D01*
X13438Y-77688D01*
X12967Y-77075D01*
X18721Y-71321D01*
X18942Y-70990D01*
X19020Y-70600D01*
Y-68817D01*
X19200Y-68688D01*
X19700Y-68946D01*
Y-70600D01*
X22900D01*
Y-70020D01*
X23799D01*
Y-71828D01*
X29802D01*
Y-70456D01*
X29814D01*
X30204Y-70379D01*
X30534Y-70158D01*
X31831Y-68861D01*
X32331Y-69068D01*
Y-71756D01*
X32244Y-71842D01*
X30517D01*
Y-74814D01*
X33193D01*
X33231Y-74850D01*
X33228Y-74999D01*
X32872Y-75386D01*
X30517D01*
Y-78357D01*
X30517D01*
X30743Y-78417D01*
Y-81783D01*
X30743D01*
X30802Y-81876D01*
Y-85080D01*
X28523D01*
X28120Y-84677D01*
Y-76300D01*
X28042Y-75910D01*
X27821Y-75579D01*
X25921Y-73679D01*
X25590Y-73458D01*
X25200Y-73380D01*
X18400D01*
X18010Y-73458D01*
X17679Y-73679D01*
X15879Y-75479D01*
X15658Y-75810D01*
X15581Y-76200D01*
Y-86778D01*
X14354Y-88004D01*
X13892Y-87813D01*
Y-85908D01*
X6708D01*
Y-93092D01*
X13892D01*
Y-90519D01*
X14300D01*
X14690Y-90442D01*
X15021Y-90221D01*
X17321Y-87921D01*
X17542Y-87590D01*
X17620Y-87200D01*
Y-76623D01*
X17972Y-76332D01*
X18408Y-76518D01*
Y-82692D01*
X21019D01*
X21058Y-82890D01*
X21279Y-83221D01*
X23244Y-85186D01*
X22961Y-85610D01*
X22938Y-85600D01*
X22000Y-85477D01*
X21062Y-85600D01*
X20188Y-85962D01*
X19438Y-86538D01*
X18862Y-87288D01*
X18500Y-88162D01*
X18377Y-89100D01*
X18500Y-90038D01*
X18862Y-90912D01*
X19438Y-91662D01*
X20188Y-92238D01*
X21062Y-92600D01*
X22000Y-92723D01*
X22938Y-92600D01*
X23812Y-92238D01*
X24562Y-91662D01*
X25138Y-90912D01*
X25466Y-90119D01*
X50700D01*
X51090Y-90042D01*
X51421Y-89821D01*
X79721Y-61521D01*
X79942Y-61190D01*
X80020Y-60800D01*
Y-58706D01*
X80520Y-58509D01*
X81110Y-58904D01*
X81468Y-58975D01*
Y-56832D01*
X81968D01*
Y-56331D01*
X84112D01*
X84041Y-55973D01*
X83555Y-55245D01*
X83192Y-55003D01*
Y-50838D01*
X84078Y-49953D01*
X84343Y-49556D01*
X84436Y-49088D01*
Y-48392D01*
X84715Y-47908D01*
X82963Y-46897D01*
X81210Y-45885D01*
X80684Y-46796D01*
X80681Y-46801D01*
X80681Y-46801D01*
X80654Y-46849D01*
X80608Y-46927D01*
X80583Y-46970D01*
X80100Y-46948D01*
X80072Y-46940D01*
X80020Y-46880D01*
D01*
D01*
Y-34950D01*
X80224Y-34717D01*
X82771Y-30305D01*
X82975Y-29704D01*
X82933Y-29071D01*
X82652Y-28501D01*
X82175Y-28082D01*
X81574Y-27878D01*
X80940Y-27920D01*
X80371Y-28201D01*
X79952Y-28678D01*
X77469Y-32979D01*
X77458Y-32995D01*
X77457Y-32999D01*
X77405Y-33090D01*
X77201Y-33691D01*
X77242Y-34325D01*
X77523Y-34894D01*
X77980Y-35295D01*
Y-46767D01*
X77653Y-46916D01*
X75573Y-50517D01*
X76903Y-51285D01*
X77480Y-50284D01*
X77980Y-50418D01*
Y-57803D01*
X77480Y-57955D01*
X77466Y-57934D01*
X76871Y-57536D01*
X76169Y-57396D01*
X75466Y-57536D01*
X74976Y-57863D01*
X72024Y-56159D01*
X70145Y-59414D01*
X73741Y-61491D01*
X74284Y-60551D01*
X74871Y-60529D01*
X74873Y-60531D01*
X75466Y-60927D01*
X76169Y-61067D01*
X76687Y-60963D01*
X76934Y-61424D01*
X65260Y-73098D01*
X64664Y-72987D01*
X63934Y-71946D01*
X62277Y-73106D01*
X61703Y-72287D01*
X63361Y-71127D01*
X63038Y-70665D01*
Y-69556D01*
X63487Y-68777D01*
X61564Y-67667D01*
X62064Y-66801D01*
X63987Y-67911D01*
X64847Y-66421D01*
X64501Y-66221D01*
X65825Y-63928D01*
X66321Y-63863D01*
X66779Y-64321D01*
X67110Y-64542D01*
X67500Y-64620D01*
X68100D01*
X68490Y-64542D01*
X68821Y-64321D01*
X69246Y-63896D01*
X71576Y-65241D01*
X73455Y-61986D01*
X69859Y-59909D01*
X68815Y-61717D01*
X68610Y-61758D01*
X68279Y-61979D01*
X68120Y-62138D01*
X67620Y-61931D01*
Y-60954D01*
X68621Y-59219D01*
X66741Y-58134D01*
X66871Y-57651D01*
X67068D01*
X67459Y-57573D01*
X67790Y-57353D01*
X67799Y-57343D01*
X69665Y-58421D01*
X71741Y-54824D01*
X68849Y-53154D01*
X68783Y-52658D01*
X69447Y-51995D01*
X69708Y-51978D01*
X70277Y-51697D01*
X70696Y-51220D01*
X71473Y-49874D01*
X71502Y-49830D01*
X71504Y-49819D01*
X73243Y-46808D01*
X73447Y-46206D01*
X73406Y-45573D01*
X73125Y-45003D01*
X72648Y-44585D01*
X72046Y-44381D01*
X71413Y-44422D01*
X70843Y-44703D01*
X70425Y-45180D01*
X69734Y-46376D01*
X69618Y-46549D01*
X69610Y-46591D01*
X67877Y-49592D01*
X67673Y-50194D01*
X67715Y-50827D01*
X67720Y-50838D01*
X66665Y-51893D01*
X64735Y-50779D01*
X63450Y-53006D01*
X62945Y-53045D01*
X62478Y-52578D01*
Y-52227D01*
X63521Y-50420D01*
X62658Y-49921D01*
X62787Y-49438D01*
X64505D01*
X64744Y-49519D01*
X65378Y-49478D01*
X65947Y-49197D01*
X66366Y-48720D01*
X68913Y-44308D01*
X69117Y-43706D01*
X69076Y-43073D01*
X68795Y-42503D01*
X68317Y-42085D01*
X67716Y-41881D01*
X67083Y-41922D01*
X66513Y-42203D01*
X66094Y-42680D01*
X63547Y-47092D01*
X63443Y-47399D01*
X61819D01*
X61569Y-46966D01*
X65354Y-40410D01*
X62589Y-38814D01*
X61465Y-40762D01*
X60969Y-40827D01*
X60470Y-40328D01*
X60535Y-40000D01*
X60396Y-39298D01*
X59998Y-38702D01*
X59402Y-38304D01*
X58700Y-38165D01*
X57998Y-38304D01*
X57402Y-38702D01*
X57004Y-39298D01*
X56865Y-40000D01*
X57004Y-40702D01*
X57402Y-41298D01*
X57998Y-41696D01*
X58700Y-41835D01*
X59028Y-41770D01*
X60204Y-42946D01*
X58446Y-45990D01*
X60050Y-46916D01*
X59921Y-47399D01*
X59781D01*
X59391Y-47477D01*
X59060Y-47698D01*
X58968Y-47791D01*
X57299Y-46828D01*
X55479Y-49981D01*
X55756Y-50141D01*
X55822Y-50637D01*
X55324Y-51135D01*
X54535Y-50679D01*
X53548Y-52389D01*
X53065Y-52259D01*
Y-43177D01*
X52988Y-42787D01*
X52767Y-42456D01*
X46358Y-36047D01*
X46549Y-35585D01*
X49476D01*
X49671Y-35585D01*
Y-35585D01*
X49671Y-35585D01*
X49915Y-35454D01*
X49916Y-35454D01*
X49916Y-35454D01*
X49921Y-35451D01*
X50402Y-35451D01*
X53680D01*
Y-32086D01*
X49921D01*
X49921Y-32086D01*
Y-32086D01*
X49918Y-32085D01*
X49917Y-32085D01*
X49671Y-32023D01*
X49671Y-32023D01*
Y-32023D01*
X49671Y-32023D01*
X49446Y-32023D01*
X45518D01*
Y-34554D01*
X45056Y-34745D01*
X41009Y-30699D01*
Y-28283D01*
X36856D01*
X36651Y-28121D01*
Y-28121D01*
X33286D01*
Y-31880D01*
X36371D01*
X36651Y-31880D01*
Y-31880D01*
X36651Y-31880D01*
Y-31880D01*
X36856Y-31845D01*
X36856D01*
Y-31845D01*
X36856Y-31845D01*
X39272D01*
X46951Y-39524D01*
X46744Y-40024D01*
X35495D01*
X35272Y-40116D01*
X35048Y-40202D01*
X31613Y-43455D01*
X27213D01*
Y-42307D01*
X22076D01*
Y-42868D01*
X21869Y-43038D01*
X21326D01*
Y-42480D01*
X18846D01*
X18655Y-42018D01*
X19157Y-41516D01*
X21278D01*
Y-37973D01*
Y-34747D01*
X21569Y-34583D01*
X21849Y-34747D01*
Y-37973D01*
Y-41516D01*
X25411D01*
Y-40755D01*
X26273D01*
X26502Y-41098D01*
X27098Y-41496D01*
X27800Y-41635D01*
X28502Y-41496D01*
X29098Y-41098D01*
X29496Y-40502D01*
X29635Y-39800D01*
X29496Y-39098D01*
X29098Y-38502D01*
X28502Y-38104D01*
X27800Y-37965D01*
X27098Y-38104D01*
X26502Y-38502D01*
X26360Y-38715D01*
X25411D01*
Y-37973D01*
Y-34551D01*
X25411Y-34411D01*
X25751Y-34051D01*
X26985D01*
X27171Y-34329D01*
X27766Y-34727D01*
X28468Y-34867D01*
X29171Y-34727D01*
X29512Y-34499D01*
X30012Y-34766D01*
Y-35385D01*
X29734Y-35571D01*
X29336Y-36166D01*
X29196Y-36869D01*
X29336Y-37571D01*
X29734Y-38166D01*
X30329Y-38564D01*
X31032Y-38704D01*
X31734Y-38564D01*
X32329Y-38166D01*
X32727Y-37571D01*
X32867Y-36869D01*
X32727Y-36166D01*
X32329Y-35571D01*
X32051Y-35385D01*
Y-31880D01*
X32714D01*
Y-28121D01*
X29349D01*
Y-30899D01*
X28849Y-31272D01*
X28468Y-31196D01*
X27766Y-31336D01*
X27171Y-31734D01*
X26985Y-32012D01*
X18684D01*
X18294Y-32089D01*
X17963Y-32311D01*
X13198Y-37075D01*
X12737Y-36829D01*
X12787Y-36579D01*
X12698Y-36130D01*
X12663Y-36077D01*
X12732Y-35729D01*
X13075Y-35215D01*
X13096Y-35110D01*
X10491D01*
Y-34610D01*
X9991D01*
Y-33029D01*
X9369D01*
X8764Y-33149D01*
X8318Y-33447D01*
X7910Y-33194D01*
X7827Y-33097D01*
Y-31618D01*
X7737Y-31169D01*
X7672Y-31072D01*
Y-29531D01*
X7595Y-29141D01*
X7374Y-28811D01*
X5970Y-27406D01*
Y-26414D01*
X7026D01*
Y-23810D01*
X7488Y-23619D01*
X11866Y-27997D01*
X12263Y-28262D01*
X12731Y-28355D01*
X26568D01*
X27037Y-28262D01*
X27434Y-27997D01*
X27883Y-27547D01*
X45118D01*
Y-28505D01*
X47095D01*
Y-26324D01*
Y-24143D01*
X45118D01*
Y-25100D01*
X40095D01*
X39887Y-24600D01*
X52091Y-12397D01*
X52356Y-12000D01*
X52450Y-11531D01*
Y-5782D01*
X52484Y-5751D01*
X52950Y-5560D01*
X53525Y-5944D01*
X53876Y-6014D01*
Y-1232D01*
X54876D01*
Y-6014D01*
X55227Y-5944D01*
X55948Y-5462D01*
X56041Y-5444D01*
X56506Y-5742D01*
Y-7176D01*
X55902D01*
Y-10424D01*
X58651D01*
Y-10824D01*
X59451D01*
Y-24318D01*
X58669Y-25100D01*
X50071D01*
Y-24143D01*
X48094D01*
Y-26324D01*
Y-28505D01*
X49724D01*
X49921Y-28505D01*
X49921Y-28587D01*
Y-31514D01*
X53680D01*
Y-30851D01*
X54385D01*
X54571Y-31129D01*
X55166Y-31527D01*
X55869Y-31667D01*
X56571Y-31527D01*
X57166Y-31129D01*
X57564Y-30534D01*
X57704Y-29831D01*
X57564Y-29129D01*
X57166Y-28534D01*
X56571Y-28136D01*
X56126Y-28047D01*
X56175Y-27547D01*
X59176D01*
X59644Y-27454D01*
X60041Y-27189D01*
X61540Y-25690D01*
X61805Y-25293D01*
X61898Y-24825D01*
Y-10824D01*
X62699D01*
Y-9300D01*
X60675D01*
Y-8300D01*
X62699D01*
Y-6776D01*
X61898D01*
Y-5782D01*
X61956Y-5730D01*
X62321Y-5508D01*
X62973Y-5944D01*
X63324Y-6014D01*
Y-1232D01*
X64324D01*
Y-6014D01*
X64675Y-5944D01*
X65397Y-5462D01*
X65489Y-5444D01*
X65955Y-5742D01*
Y-17242D01*
X65676Y-17428D01*
X65279Y-18024D01*
X65139Y-18726D01*
X65279Y-19428D01*
X65676Y-20024D01*
X66272Y-20422D01*
X66974Y-20561D01*
X67676Y-20422D01*
X68272Y-20024D01*
X68670Y-19428D01*
X68809Y-18726D01*
X68670Y-18024D01*
X68272Y-17428D01*
X67994Y-17242D01*
Y-12218D01*
X68494Y-12132D01*
X68826Y-12629D01*
X69421Y-13027D01*
X70124Y-13167D01*
X70826Y-13027D01*
X71421Y-12629D01*
X71819Y-12034D01*
X71959Y-11332D01*
X71819Y-10629D01*
X71421Y-10034D01*
X71143Y-9848D01*
Y-5351D01*
X71408Y-5174D01*
X71801Y-4585D01*
X71940Y-3890D01*
Y1425D01*
X71801Y2120D01*
X71408Y2709D01*
X70819Y3103D01*
X70124Y3241D01*
X69429Y3103D01*
X68840Y2709D01*
X68799Y2648D01*
X68299D01*
X68258Y2709D01*
X67669Y3103D01*
X66974Y3241D01*
X66279Y3103D01*
X66036Y2941D01*
X65397Y2998D01*
X65048Y3231D01*
Y9780D01*
X65132Y9842D01*
X65812Y9724D01*
X65914Y9571D01*
X66509Y9173D01*
X67212Y9033D01*
X67914Y9173D01*
X68509Y9571D01*
X68907Y10166D01*
X69047Y10869D01*
X68982Y11197D01*
X70691Y12906D01*
X71714D01*
X71882Y12655D01*
X71952Y12529D01*
Y12172D01*
X71882Y12046D01*
X71497Y11470D01*
X71359Y10776D01*
X71497Y10081D01*
X71891Y9492D01*
X71952Y9451D01*
Y8951D01*
X71891Y8910D01*
X71497Y8321D01*
X71359Y7626D01*
X71497Y6931D01*
X71891Y6342D01*
X71952Y6301D01*
Y5801D01*
X71891Y5760D01*
X71497Y5171D01*
X71359Y4476D01*
X71497Y3781D01*
X71891Y3192D01*
X72480Y2799D01*
X73175Y2660D01*
X78490D01*
X79185Y2799D01*
X79774Y3192D01*
X79951Y3457D01*
X85042D01*
X85083Y3430D01*
X85474Y3352D01*
X93417D01*
Y2886D01*
X96783D01*
Y5857D01*
X96783D01*
X96783Y5857D01*
Y5943D01*
X96783D01*
X96783Y5943D01*
Y8845D01*
X97183Y9086D01*
X97183Y9086D01*
X97183D01*
X97183Y9086D01*
Y10472D01*
X95100D01*
Y10972D01*
X94600D01*
Y12857D01*
X93192D01*
Y13940D01*
X93555Y14182D01*
X94041Y14910D01*
X94112Y15269D01*
X89825D01*
X89896Y14910D01*
X90382Y14182D01*
X90745Y13940D01*
Y12222D01*
X90838Y11754D01*
X91103Y11357D01*
X92353Y10107D01*
X92750Y9841D01*
X93017Y9788D01*
Y9086D01*
X93017D01*
X93417Y8914D01*
Y5943D01*
X93417D01*
Y5891D01*
X93336Y5391D01*
X85800D01*
X85759Y5418D01*
X85369Y5496D01*
X79950D01*
X79783Y5747D01*
X79713Y5872D01*
Y6205D01*
X80011Y6606D01*
X83726D01*
X84116Y6684D01*
X84447Y6905D01*
X86290Y8748D01*
X86510Y9078D01*
X86588Y9469D01*
Y14255D01*
X86866Y14441D01*
X87264Y15036D01*
X87404Y15739D01*
X87264Y16441D01*
X86866Y17036D01*
X86767Y17103D01*
X86719Y17689D01*
X86993Y17965D01*
X90396D01*
X90548Y17465D01*
X90382Y17355D01*
X89896Y16627D01*
X89825Y16269D01*
X94112D01*
X94107Y16293D01*
X94568Y16539D01*
X98677Y12431D01*
Y-3593D01*
X76867Y-25403D01*
X76610Y-25420D01*
X76041Y-25701D01*
X75622Y-26178D01*
X75405Y-26554D01*
X74909Y-26619D01*
X74123Y-25833D01*
X73894Y-25680D01*
X74111Y-25306D01*
X74315Y-24704D01*
X74273Y-24071D01*
X73992Y-23501D01*
X73515Y-23083D01*
X72914Y-22878D01*
X72280Y-22920D01*
X71710Y-23201D01*
X71292Y-23678D01*
X70235Y-25508D01*
X66992D01*
X66524Y-25601D01*
X66127Y-25866D01*
X62979Y-29014D01*
X62293Y-28618D01*
X61095Y-30693D01*
X60612Y-30823D01*
X60572Y-30800D01*
X59810Y-32119D01*
X61563Y-33131D01*
X61313Y-33564D01*
X61746Y-33814D01*
X60734Y-35566D01*
X62053Y-36328D01*
X62943Y-34787D01*
X69557D01*
X74476Y-39707D01*
Y-47391D01*
X74401Y-47476D01*
X73378Y-49249D01*
X74707Y-50017D01*
X76924Y-46178D01*
Y-39200D01*
X76830Y-38732D01*
X76565Y-38335D01*
X70929Y-32699D01*
X70532Y-32434D01*
X70064Y-32340D01*
X64394D01*
X64144Y-31907D01*
X64960Y-30494D01*
X67499Y-27955D01*
X68262D01*
X68621Y-28455D01*
X68541Y-28691D01*
X68582Y-29325D01*
X68863Y-29894D01*
X69340Y-30313D01*
X69942Y-30517D01*
X70575Y-30476D01*
X71145Y-30195D01*
X71563Y-29717D01*
X72397Y-28274D01*
X73022Y-28192D01*
X73933Y-29103D01*
X73075Y-30590D01*
X72871Y-31191D01*
X72912Y-31825D01*
X73193Y-32394D01*
X73670Y-32813D01*
X74272Y-33017D01*
X74905Y-32976D01*
X75475Y-32695D01*
X75893Y-32217D01*
X78441Y-27806D01*
X78645Y-27204D01*
X78637Y-27093D01*
X100765Y-4965D01*
X101030Y-4568D01*
X101123Y-4100D01*
Y12937D01*
X101030Y13406D01*
X100765Y13803D01*
X95135Y19433D01*
X94699Y21059D01*
X92501Y20470D01*
X92406Y20519D01*
X92464Y21052D01*
X94551Y21612D01*
X93782Y24482D01*
X93782D01*
X93880Y24672D01*
X93880Y24672D01*
X92836Y28569D01*
X92836D01*
X92836Y28569D01*
X91817Y32372D01*
X89881Y31853D01*
X88318Y33416D01*
X88384Y33744D01*
X88244Y34446D01*
X87846Y35041D01*
X87251Y35439D01*
X86548Y35579D01*
X85846Y35439D01*
X85251Y35041D01*
X84853Y34446D01*
X84713Y33744D01*
X84853Y33041D01*
X85251Y32446D01*
X85846Y32048D01*
X86548Y31908D01*
X86876Y31974D01*
X88065Y30785D01*
X88964Y27431D01*
X88964D01*
X88964Y27431D01*
X89718Y24616D01*
X89414Y24220D01*
X85200D01*
X84810Y24142D01*
X84479Y23921D01*
X83659Y23101D01*
X83198Y23347D01*
X83204Y23374D01*
X83064Y24076D01*
X82666Y24672D01*
X82071Y25070D01*
X81368Y25209D01*
X80666Y25070D01*
X80275Y24808D01*
X80213Y24790D01*
X80090Y24881D01*
X79774Y25240D01*
X80168Y25829D01*
X80306Y26524D01*
X80168Y27219D01*
X79774Y27808D01*
X79185Y28201D01*
X78490Y28340D01*
X73175D01*
X72480Y28201D01*
X71891Y27808D01*
X71714Y27543D01*
X71544D01*
X71153Y27466D01*
X70823Y27245D01*
X70622Y27044D01*
X70294Y27109D01*
X69591Y26969D01*
X68996Y26571D01*
X68598Y25976D01*
X68458Y25274D01*
X68598Y24571D01*
X68996Y23976D01*
X69591Y23578D01*
X70294Y23438D01*
X70885Y23556D01*
X71021Y23504D01*
X71239Y23366D01*
X71386Y23237D01*
X71497Y22679D01*
X71701Y22374D01*
X71587Y21745D01*
X71452Y21659D01*
X71402Y21676D01*
X70971Y21964D01*
X70268Y22104D01*
X69566Y21964D01*
X68971Y21566D01*
X68573Y20971D01*
X68433Y20268D01*
X68573Y19566D01*
X68971Y18971D01*
X69566Y18573D01*
X70268Y18433D01*
X70971Y18573D01*
X71361Y18834D01*
X71462Y18854D01*
X71593Y18744D01*
X71891Y18359D01*
X71497Y17770D01*
X71359Y17075D01*
X71497Y16380D01*
X71891Y15791D01*
X71899Y15290D01*
X71578Y14945D01*
X70268D01*
X69878Y14867D01*
X69547Y14646D01*
X67540Y12639D01*
X67212Y12704D01*
X66509Y12564D01*
X65914Y12166D01*
X65812Y12013D01*
X65132Y11895D01*
X65048Y11957D01*
Y27769D01*
X65397Y28002D01*
X66036Y28059D01*
X66279Y27897D01*
X66974Y27759D01*
X67669Y27897D01*
X68258Y28291D01*
X68299Y28352D01*
X68799D01*
X68840Y28291D01*
X69429Y27897D01*
X70124Y27759D01*
X70819Y27897D01*
X71408Y28291D01*
X71801Y28880D01*
X71940Y29575D01*
Y34890D01*
X71801Y35585D01*
X71411Y36169D01*
X71521Y36279D01*
X71742Y36610D01*
X71820Y37000D01*
Y37416D01*
X72098Y37602D01*
X72496Y38198D01*
X72635Y38900D01*
X72496Y39602D01*
X72098Y40198D01*
X71502Y40596D01*
X70800Y40735D01*
X70098Y40596D01*
X69502Y40198D01*
X69176Y39710D01*
X68736Y39719D01*
X68646Y39748D01*
X68266Y40316D01*
X67671Y40714D01*
X66969Y40854D01*
X66632Y41231D01*
X66725Y41731D01*
X68144D01*
Y44199D01*
X65372D01*
Y45199D01*
X68144D01*
Y47668D01*
X66595D01*
Y49468D01*
X66502Y49937D01*
X66237Y50334D01*
X64577Y51993D01*
X64180Y52258D01*
X63712Y52352D01*
X48716D01*
X36599Y64468D01*
Y64969D01*
X38665Y67035D01*
X38930Y67432D01*
X38991Y67736D01*
X40925D01*
Y68136D01*
X44265D01*
Y72923D01*
X44648Y73306D01*
X46576D01*
Y72702D01*
X49824D01*
X50032Y72288D01*
Y71878D01*
X54777D01*
X55169Y71878D01*
X55217Y71675D01*
X56800D01*
Y73198D01*
X55669D01*
X55277Y73198D01*
X55169Y73654D01*
X55169Y73654D01*
Y76621D01*
X50032D01*
X49824Y77035D01*
Y79098D01*
X48018D01*
X46828Y80290D01*
X46497Y80510D01*
X46106Y80588D01*
X44265D01*
Y83903D01*
X39323D01*
Y85350D01*
X39700D01*
Y90450D01*
X39323D01*
Y90800D01*
X39230Y91268D01*
X38965Y91665D01*
X37965Y92665D01*
X37568Y92930D01*
X37100Y93024D01*
X30400D01*
X29932Y92930D01*
X29535Y92665D01*
X28303Y91434D01*
X28038Y91037D01*
X28013Y90910D01*
X27506Y90927D01*
X27400Y91738D01*
X27038Y92612D01*
X26462Y93362D01*
X25712Y93938D01*
X24838Y94300D01*
X23900Y94423D01*
X22962Y94300D01*
X22088Y93938D01*
X21338Y93362D01*
X20762Y92612D01*
X20400Y91738D01*
X20277Y90800D01*
X20400Y89862D01*
X20762Y88988D01*
X21338Y88238D01*
X22088Y87662D01*
X22962Y87300D01*
X23900Y87177D01*
X24838Y87300D01*
X25712Y87662D01*
X26462Y88238D01*
X27038Y88988D01*
X27400Y89862D01*
X27445Y90206D01*
X27945Y90174D01*
Y87475D01*
X26762Y86292D01*
X18169D01*
X17700Y86199D01*
X17303Y85934D01*
X15426Y84056D01*
X14838Y84300D01*
X13900Y84423D01*
X12962Y84300D01*
X12088Y83938D01*
X11338Y83362D01*
X10762Y82612D01*
X10620Y82267D01*
X10120Y82367D01*
Y89233D01*
X10620Y89333D01*
X10762Y88988D01*
X11338Y88238D01*
X12088Y87662D01*
X12962Y87300D01*
X13900Y87177D01*
X14838Y87300D01*
X15712Y87662D01*
X16462Y88238D01*
X17038Y88988D01*
X17400Y89862D01*
X17523Y90800D01*
X17400Y91738D01*
X17038Y92612D01*
X16462Y93362D01*
X15712Y93938D01*
X14838Y94300D01*
X13900Y94423D01*
X12962Y94300D01*
X12088Y93938D01*
X11338Y93362D01*
X10762Y92612D01*
X10620Y92267D01*
X10120Y92366D01*
Y97578D01*
X14413Y101871D01*
X14634Y102202D01*
X14662Y102342D01*
X15155Y102727D01*
X20820Y101210D01*
X21407Y103401D01*
X33161D01*
X33474Y102901D01*
X32948Y100935D01*
X36283Y100042D01*
X36871Y102236D01*
X34391Y102901D01*
X34457Y103401D01*
X45233D01*
X51547Y97086D01*
X51878Y96865D01*
X52268Y96788D01*
X64622D01*
X68982Y94273D01*
X69020Y93674D01*
X68704Y93202D01*
X68565Y92500D01*
X68704Y91798D01*
X69102Y91202D01*
X69698Y90804D01*
X70400Y90665D01*
X71102Y90804D01*
X71580Y91124D01*
X73030D01*
X73727Y90427D01*
X73727Y90427D01*
X73956Y90273D01*
X77807Y86424D01*
X81160Y89779D01*
X76135Y94802D01*
X74806Y93473D01*
X74573Y93473D01*
X74127Y93772D01*
X73600Y93876D01*
X71580D01*
X71102Y94196D01*
X70400Y94335D01*
X70261Y94308D01*
X69941Y94754D01*
X71864Y98087D01*
X65709Y101637D01*
X64088Y98827D01*
X52691D01*
X46377Y105141D01*
X46046Y105362D01*
X45656Y105440D01*
X45614D01*
X45379Y105940D01*
X45488Y106070D01*
X48530D01*
X52783Y103617D01*
X55153Y107726D01*
X48998Y111276D01*
X47583Y108823D01*
X45360D01*
X44802Y109196D01*
X44100Y109335D01*
X43450Y109206D01*
X43009Y109492D01*
X44043Y113352D01*
X37179Y115190D01*
X36593Y112999D01*
X29580D01*
X29190Y112922D01*
X28859Y112701D01*
X25497Y109338D01*
X25168Y109404D01*
X24466Y109264D01*
X23871Y108866D01*
X23473Y108271D01*
X23333Y107569D01*
X23473Y106866D01*
X23871Y106271D01*
X24366Y105940D01*
X24276Y105440D01*
X22318D01*
X22048Y105792D01*
Y105792D01*
X15184Y107630D01*
X15184Y107630D01*
X15184Y107630D01*
X14711Y107692D01*
Y109908D01*
X14634Y110298D01*
X14413Y110629D01*
X10665Y114377D01*
Y116124D01*
X12530D01*
X12929Y115624D01*
X12865Y115300D01*
X13004Y114598D01*
X13402Y114002D01*
X13998Y113604D01*
X14700Y113465D01*
X15402Y113604D01*
X15998Y114002D01*
X16396Y114598D01*
X16508Y115161D01*
X16940Y115594D01*
X17334D01*
X24181Y113760D01*
X25408Y118342D01*
X18545Y120180D01*
X18054Y118347D01*
X16370D01*
X16370Y118347D01*
X15843Y118242D01*
X15397Y117943D01*
X15397Y117943D01*
X14561Y117108D01*
X13998Y116996D01*
X13698Y116796D01*
X13198Y117063D01*
Y120868D01*
D02*
G37*
G36*
X-6093D02*
X-13198D01*
Y116890D01*
X-13612Y116477D01*
X-14220D01*
X-14698Y116796D01*
X-15400Y116935D01*
X-16102Y116796D01*
X-16698Y116398D01*
X-16916Y116071D01*
X-17458Y116160D01*
X-18537Y120184D01*
X-25400Y118343D01*
X-24559Y115209D01*
X-34049Y105720D01*
X-42894D01*
X-43157Y106220D01*
X-42904Y106598D01*
X-42792Y107161D01*
X-40596Y109357D01*
X-35941Y110606D01*
X-37170Y115187D01*
X-44033Y113347D01*
X-43286Y110561D01*
X-44739Y109108D01*
X-45302Y108996D01*
X-45898Y108598D01*
X-46295Y108002D01*
X-46357Y107692D01*
X-46884Y107604D01*
X-49009Y111282D01*
X-55161Y107726D01*
X-53606Y105035D01*
X-74621Y84021D01*
X-74842Y83690D01*
X-74920Y83300D01*
Y75729D01*
X-79630Y71019D01*
X-80587Y71975D01*
X-85611Y66950D01*
X-82675Y64015D01*
X-82982Y63615D01*
X-84140Y64283D01*
X-85865Y61292D01*
X-83897Y60157D01*
X-82425Y62709D01*
X-82185Y63126D01*
X-82182Y63131D01*
X-82172Y63148D01*
Y63148D01*
X-82149Y63593D01*
X-82144Y63709D01*
X-77232Y68621D01*
X-77938Y69327D01*
X-77938Y69827D01*
X-73179Y74586D01*
X-72958Y74917D01*
X-72880Y75307D01*
Y79916D01*
X-72655Y80322D01*
X-72645Y80327D01*
X-72429Y80416D01*
X-72417Y80421D01*
X-72397Y80429D01*
X-72380Y80436D01*
X-72348Y80404D01*
X-72345Y80401D01*
X-72249Y80304D01*
X-72232Y80288D01*
X-72232Y80288D01*
X-70931Y78987D01*
X-68490Y81429D01*
X-70096Y83035D01*
X-72232Y80898D01*
X-72232Y80898D01*
X-72249Y80882D01*
X-72345Y80786D01*
X-72348Y80782D01*
X-72380Y80750D01*
X-72397Y80757D01*
X-72417Y80765D01*
X-72429Y80770D01*
X-72655Y80864D01*
X-72880Y81270D01*
Y82878D01*
X-51249Y104509D01*
X-46891Y107028D01*
X-46337Y106806D01*
X-46295Y106598D01*
X-45898Y106002D01*
X-45302Y105605D01*
X-45254Y105595D01*
X-45090Y105052D01*
X-60514Y89628D01*
X-65364Y86825D01*
X-63287Y83231D01*
X-63687Y82924D01*
X-64634Y83871D01*
X-67075Y81429D01*
X-65469Y79823D01*
X-63048Y82245D01*
X-63048Y82245D01*
X-63047Y82245D01*
X-63028Y82265D01*
Y82265D01*
X-62890Y82686D01*
X-62890Y82686D01*
X-62853Y82798D01*
X-56839Y86273D01*
X-58357Y88901D01*
X-43578Y103680D01*
X-34464D01*
X-34272Y103218D01*
X-35237Y102254D01*
X-40668Y100798D01*
X-39590Y96781D01*
X-40056Y96588D01*
X-40726Y97746D01*
X-43715Y96019D01*
X-42579Y94052D01*
X-39603Y95772D01*
X-39589Y95780D01*
X-39589Y95780D01*
X-39287Y96257D01*
X-32576Y98057D01*
X-33416Y101191D01*
X-32327Y102280D01*
X-26284D01*
X-26098Y102002D01*
X-25502Y101604D01*
X-24800Y101465D01*
X-24098Y101604D01*
X-23502Y102002D01*
X-23104Y102598D01*
X-22965Y103300D01*
X-23104Y104002D01*
X-23502Y104598D01*
X-24098Y104996D01*
X-24800Y105135D01*
X-25502Y104996D01*
X-26098Y104598D01*
X-26284Y104320D01*
X-31912D01*
X-32103Y104781D01*
X-22739Y114146D01*
X-17664Y115507D01*
X-17234Y115104D01*
X-17235Y115100D01*
X-17096Y114398D01*
X-16698Y113802D01*
X-16102Y113405D01*
X-15400Y113265D01*
X-14698Y113405D01*
X-14220Y113724D01*
X-13042D01*
X-12515Y113828D01*
X-12068Y114127D01*
X-10071Y116124D01*
X-6093D01*
Y120868D01*
D02*
G37*
G36*
X9146Y108275D02*
X5693D01*
Y106004D01*
X9146D01*
Y108275D01*
D02*
G37*
G36*
X-19189Y106972D02*
X-22524Y106077D01*
X-21936Y103883D01*
X-18601Y104777D01*
X-19189Y106972D01*
D02*
G37*
G36*
X-14889Y108125D02*
X-18224Y107230D01*
X-17635Y105036D01*
X-14300Y105931D01*
X-14889Y108125D01*
D02*
G37*
G36*
X-42363Y100579D02*
X-45352Y98852D01*
X-44216Y96885D01*
X-41226Y98612D01*
X-42363Y100579D01*
D02*
G37*
G36*
X3400Y94761D02*
X2858Y94689D01*
X1887Y94287D01*
X1053Y93647D01*
X413Y92813D01*
X11Y91842D01*
X-61Y91300D01*
X3400D01*
Y94761D01*
D02*
G37*
G36*
X-65712Y101629D02*
X-71864Y98074D01*
X-70915Y96431D01*
X-71673Y95673D01*
X-71972Y95227D01*
X-72076Y94700D01*
Y93380D01*
X-72395Y92902D01*
X-72535Y92200D01*
X-72463Y91839D01*
X-72533Y91802D01*
X-72533Y91802D01*
X-72533Y91801D01*
X-72597Y91768D01*
X-72599Y91766D01*
X-72770Y91675D01*
X-72803Y91657D01*
X-72804Y91657D01*
X-72882Y91615D01*
X-72888Y91612D01*
X-72917Y91596D01*
X-72942Y91611D01*
X-73082Y91750D01*
X-73101Y91769D01*
D01*
X-73449Y92117D01*
X-76136Y94804D01*
X-81160Y89778D01*
X-78820Y87439D01*
Y80122D01*
X-96320Y62622D01*
X-96782Y62813D01*
Y64622D01*
X-94121Y69235D01*
X-93537Y69261D01*
X-93498Y69202D01*
X-92902Y68805D01*
X-92200Y68665D01*
X-91498Y68805D01*
X-90902Y69202D01*
X-90504Y69798D01*
X-90365Y70500D01*
X-90504Y71202D01*
X-90824Y71680D01*
Y73403D01*
X-86421Y77807D01*
X-89775Y81160D01*
X-94799Y76135D01*
X-93576Y74913D01*
Y71680D01*
X-93896Y71202D01*
X-94035Y70500D01*
X-93947Y70056D01*
X-94393Y69736D01*
X-98081Y71864D01*
X-101631Y65709D01*
X-98822Y64088D01*
Y49820D01*
X-104995Y43647D01*
X-105102Y43662D01*
X-105500Y44224D01*
X-105465Y44400D01*
X-105604Y45102D01*
X-106002Y45698D01*
X-106065Y45740D01*
Y48531D01*
X-103612Y52783D01*
X-107721Y55153D01*
X-111271Y48999D01*
X-108818Y47583D01*
Y45368D01*
X-108995Y45102D01*
X-109135Y44400D01*
X-108995Y43698D01*
X-108752Y43333D01*
X-108873Y43165D01*
X-108873Y43165D01*
X-109006Y42979D01*
X-109028Y42949D01*
X-109050Y42917D01*
X-109063Y42899D01*
X-109076Y42902D01*
X-109162Y42926D01*
X-109162Y42926D01*
X-109162D01*
X-113335Y44043D01*
X-115173Y37180D01*
X-112120Y36362D01*
Y609D01*
X-112042Y218D01*
X-111821Y-112D01*
X-106521Y-5413D01*
Y-6091D01*
X-107874Y-6092D01*
X-107872Y-13197D01*
X-103722Y-13196D01*
X-103656Y-13696D01*
X-104946Y-14042D01*
X-104053Y-17377D01*
X-101858Y-16789D01*
X-102745Y-13479D01*
X-102752Y-13454D01*
X-102752Y-13454D01*
X-103128Y-13037D01*
X-103130Y-6090D01*
X-104128Y-6090D01*
X-104481Y-5737D01*
Y-4990D01*
X-104559Y-4600D01*
X-104780Y-4269D01*
X-110080Y1031D01*
Y37860D01*
X-108848Y42461D01*
X-108839Y42494D01*
X-108839Y42494D01*
X-108815Y42584D01*
X-108809Y42606D01*
X-108801Y42637D01*
X-108795Y42640D01*
X-108780Y42648D01*
X-108742Y42668D01*
X-108535Y42777D01*
X-108535D01*
X-108299Y42903D01*
X-108002Y42704D01*
X-107300Y42565D01*
X-106598Y42704D01*
X-106481Y42782D01*
X-106121Y42422D01*
X-106142Y42390D01*
X-106220Y42000D01*
Y20391D01*
X-107614Y15184D01*
X-103571Y14101D01*
X-103637Y13601D01*
X-105008Y13600D01*
X-105007Y10148D01*
X-102735Y10148D01*
X-102736Y13584D01*
Y13601D01*
X-102736Y13601D01*
X-102994Y14101D01*
X-101194Y20820D01*
X-104180Y21620D01*
Y41578D01*
X-97669Y48089D01*
X-97207Y47897D01*
Y47377D01*
X-100017Y42507D01*
X-96463Y40456D01*
X-96656Y39990D01*
X-97908Y40325D01*
X-98801Y36990D01*
X-96607Y36402D01*
X-95725Y39695D01*
X-95713Y39738D01*
X-95714Y39738D01*
X-95823Y40285D01*
X-92358Y46291D01*
X-95168Y47912D01*
Y60890D01*
X-77079Y78979D01*
X-76858Y79310D01*
X-76780Y79700D01*
Y87450D01*
X-73096Y91136D01*
X-73076Y91155D01*
X-73076Y91155D01*
X-73069Y91163D01*
X-73002Y91230D01*
X-72972Y91259D01*
X-72972Y91260D01*
Y91260D01*
X-72904Y91328D01*
X-72888Y91343D01*
X-72864Y91368D01*
X-72859Y91369D01*
X-72855Y91370D01*
X-72850Y91372D01*
X-72835Y91376D01*
X-72819Y91380D01*
X-72801Y91385D01*
X-72798Y91386D01*
X-72796Y91386D01*
X-72790Y91386D01*
X-72784Y91386D01*
X-72782Y91386D01*
X-72764Y91385D01*
X-72641Y91382D01*
X-72492Y91379D01*
X-72313Y91374D01*
X-72302Y91358D01*
Y91358D01*
X-71998Y90902D01*
X-71402Y90504D01*
X-70700Y90365D01*
X-69998Y90504D01*
X-69402Y90902D01*
X-69004Y91498D01*
X-68865Y92200D01*
X-69004Y92902D01*
X-69323Y93380D01*
Y94064D01*
X-63339Y97522D01*
X-65712Y101629D01*
D02*
G37*
G36*
X3400Y90300D02*
X-61D01*
X11Y89758D01*
X413Y88787D01*
X1053Y87953D01*
X1887Y87313D01*
X2858Y86911D01*
X3400Y86839D01*
Y90300D01*
D02*
G37*
G36*
X-42200Y87744D02*
X-42558Y87672D01*
X-43286Y87186D01*
X-43772Y86458D01*
X-43844Y86100D01*
X-42200D01*
Y87744D01*
D02*
G37*
G36*
X-41200D02*
Y86100D01*
X-39556D01*
X-39628Y86458D01*
X-40114Y87186D01*
X-40842Y87672D01*
X-41200Y87744D01*
D02*
G37*
G36*
X-44581Y95519D02*
X-47570Y93791D01*
X-46434Y91824D01*
X-43444Y93552D01*
X-44581Y95519D01*
D02*
G37*
G36*
X42506Y100022D02*
X40451Y96459D01*
X39985Y96651D01*
X40326Y97924D01*
X36991Y98817D01*
X36403Y96623D01*
X39683Y95745D01*
X39738Y95730D01*
X39738Y95730D01*
X40282Y95829D01*
X46291Y92363D01*
X47859Y95080D01*
X49078D01*
X53879Y90279D01*
X54210Y90058D01*
X54600Y89980D01*
X58023D01*
X58273Y89547D01*
X57935Y88961D01*
X60926Y87236D01*
X62061Y89204D01*
X61553Y89497D01*
X61682Y89980D01*
X65278D01*
X71879Y83379D01*
X72210Y83158D01*
X72600Y83080D01*
X83067D01*
X87381Y78766D01*
X86425Y77809D01*
X91107Y73129D01*
X91019Y72510D01*
X90702Y72298D01*
X90304Y71702D01*
X90165Y71000D01*
X90304Y70298D01*
X90702Y69702D01*
X91298Y69305D01*
X92000Y69165D01*
X92702Y69305D01*
X92910Y69443D01*
X95479Y66874D01*
X97522Y63339D01*
X101629Y65712D01*
X98074Y71864D01*
X95734Y70512D01*
X94273Y71973D01*
X94273Y71973D01*
X94273Y71973D01*
X94007Y72151D01*
X93827Y72272D01*
X93827D01*
X93827Y72272D01*
X93510Y72335D01*
X93300Y72377D01*
X93300D01*
X93300D01*
X93180D01*
X92702Y72696D01*
X92172Y72801D01*
X91978Y73264D01*
X91975Y73311D01*
X94804Y76141D01*
X89778Y81164D01*
X89073Y80458D01*
X88573Y80458D01*
X84210Y84821D01*
X83879Y85042D01*
X83489Y85120D01*
X73022D01*
X66421Y91721D01*
X66090Y91942D01*
X65700Y92020D01*
X55022D01*
X50221Y96821D01*
X49890Y97042D01*
X49500Y97120D01*
X47538D01*
X42506Y100022D01*
D02*
G37*
G36*
X32689Y99969D02*
X32102Y97775D01*
X35437Y96882D01*
X36025Y99076D01*
X32689Y99969D01*
D02*
G37*
G36*
X-8456Y97100D02*
X-10100D01*
Y95456D01*
X-9742Y95528D01*
X-9014Y96014D01*
X-8528Y96742D01*
X-8456Y97100D01*
D02*
G37*
G36*
X-46218Y98351D02*
X-49207Y96624D01*
X-48071Y94657D01*
X-45081Y96384D01*
X-46218Y98351D01*
D02*
G37*
G36*
X-11100Y97100D02*
X-12744D01*
X-12672Y96742D01*
X-12186Y96014D01*
X-11458Y95528D01*
X-11100Y95456D01*
Y97100D01*
D02*
G37*
G36*
X98852Y45352D02*
X96885Y44216D01*
X98613Y41226D01*
X100580Y42363D01*
X98852Y45352D01*
D02*
G37*
G36*
X-35428Y-96867D02*
X-36015Y-99062D01*
X-32679Y-99954D01*
X-32092Y-97760D01*
X-35428Y-96867D01*
D02*
G37*
G36*
X44216Y-96876D02*
X41225Y-98603D01*
X42362Y-100570D01*
X45352Y-98844D01*
X44216Y-96876D01*
D02*
G37*
G36*
X61293Y85870D02*
X60158Y83903D01*
X63124Y82191D01*
Y82191D01*
X63124D01*
X63125Y82191D01*
X63148Y82177D01*
X63148D01*
X63585Y82154D01*
X63591Y82154D01*
X63708Y82147D01*
X68622Y77236D01*
X70965Y79580D01*
X76745D01*
X103733Y52593D01*
X106956Y47016D01*
X106702Y46456D01*
X106398Y46396D01*
X105802Y45998D01*
X105404Y45402D01*
X105265Y44700D01*
X105404Y43998D01*
X105802Y43402D01*
X106398Y43005D01*
X106961Y42893D01*
X109398Y40456D01*
X109963Y38349D01*
X109530Y38099D01*
X104588Y43041D01*
Y48401D01*
X104510Y48791D01*
X104289Y49122D01*
X93290Y60121D01*
X92959Y60342D01*
X92569Y60420D01*
X89682D01*
X86825Y65364D01*
X83221Y63281D01*
X82914Y63681D01*
X83871Y64638D01*
X81429Y67079D01*
X79823Y65473D01*
X80838Y64458D01*
X80648Y64060D01*
X80600Y63990D01*
X79913Y63853D01*
X79318Y63455D01*
X78920Y62860D01*
X78780Y62157D01*
X78920Y61455D01*
X79318Y60860D01*
X79392Y60810D01*
Y51241D01*
X78147Y50522D01*
X79575Y48048D01*
X79325Y47615D01*
X76101D01*
X75866Y47966D01*
X75271Y48364D01*
X74568Y48504D01*
X73866Y48364D01*
X73271Y47966D01*
X72873Y47371D01*
X72733Y46668D01*
X72873Y45966D01*
X73271Y45371D01*
X73866Y44973D01*
X74568Y44833D01*
X75271Y44973D01*
X75866Y45371D01*
X76003Y45575D01*
X81003D01*
X81798Y44198D01*
X85053Y46078D01*
X84114Y47705D01*
X84395Y48219D01*
X84851Y48309D01*
X85446Y48707D01*
X85844Y49302D01*
X85984Y50005D01*
X85844Y50707D01*
X85446Y51302D01*
X84851Y51700D01*
X84148Y51840D01*
X83446Y51700D01*
X82851Y51302D01*
X82801Y51228D01*
X82080D01*
X81839Y51645D01*
Y60810D01*
X81913Y60860D01*
X82311Y61455D01*
X82451Y62157D01*
X82361Y62608D01*
X82836Y62787D01*
X86273Y56838D01*
X88942Y58380D01*
X92147D01*
X102549Y47978D01*
Y42619D01*
X102627Y42228D01*
X102848Y41897D01*
X115953Y28792D01*
Y24771D01*
X113762Y24183D01*
X115476Y17794D01*
X115193Y17492D01*
X115056Y17427D01*
X114398Y17296D01*
X113802Y16898D01*
X113405Y16302D01*
X113265Y15600D01*
X113405Y14898D01*
X113802Y14302D01*
X113826Y14287D01*
X113828Y14273D01*
X114127Y13827D01*
X116124Y11829D01*
X116124Y6093D01*
X120868Y6093D01*
X120867Y13199D01*
X118648Y13199D01*
X116821Y15026D01*
X116935Y15600D01*
X116796Y16302D01*
X116398Y16898D01*
X116271Y16982D01*
X116361Y17524D01*
X120184Y18549D01*
X118343Y25412D01*
X118343D01*
X117992Y25681D01*
Y29214D01*
X117915Y29604D01*
X117694Y29935D01*
X111803Y35826D01*
X111932Y36309D01*
X115187Y37182D01*
X113346Y44045D01*
X110472Y43274D01*
X108908Y44839D01*
X108796Y45402D01*
X108398Y45998D01*
X107802Y46396D01*
X107769Y46402D01*
X107682Y46929D01*
X111282Y49010D01*
X107726Y55162D01*
X105395Y53815D01*
X77889Y81321D01*
X77558Y81542D01*
X77168Y81620D01*
X70946D01*
X66950Y85614D01*
X64014Y82677D01*
X63614Y82984D01*
X64284Y84145D01*
X61293Y85870D01*
D02*
G37*
G36*
X48900Y44200D02*
X47613D01*
Y39960D01*
X48900D01*
Y44200D01*
D02*
G37*
G36*
X51187D02*
X49900D01*
Y39960D01*
X51187D01*
Y44200D01*
D02*
G37*
G36*
X-36273Y-100028D02*
X-36860Y-102222D01*
X-33525Y-103115D01*
X-32938Y-100920D01*
X-36273Y-100028D01*
D02*
G37*
G36*
X32600Y48300D02*
X30956D01*
X31028Y47942D01*
X31514Y47214D01*
X32242Y46728D01*
X32600Y46656D01*
Y48300D01*
D02*
G37*
G36*
X35244D02*
X33600D01*
Y46656D01*
X33958Y46728D01*
X34686Y47214D01*
X35172Y47942D01*
X35244Y48300D01*
D02*
G37*
G36*
X93791Y47570D02*
X91825Y46434D01*
X93552Y43444D01*
X95519Y44581D01*
X93791Y47570D01*
D02*
G37*
G36*
X96624Y49207D02*
X94657Y48071D01*
X96385Y45081D01*
X98352Y46218D01*
X96624Y49207D01*
D02*
G37*
G36*
X-40575Y-98877D02*
X-41162Y-101072D01*
X-37826Y-101964D01*
X-37239Y-99770D01*
X-40575Y-98877D01*
D02*
G37*
G36*
X-21000Y-93956D02*
Y-95600D01*
X-19356D01*
X-19428Y-95242D01*
X-19914Y-94514D01*
X-20642Y-94028D01*
X-21000Y-93956D01*
D02*
G37*
G36*
X-99060Y36024D02*
X-99953Y32689D01*
X-97759Y32101D01*
X-96865Y35437D01*
X-99060Y36024D01*
D02*
G37*
G36*
X-102220Y36871D02*
X-103113Y33536D01*
X-100919Y32948D01*
X-100026Y36283D01*
X-102220Y36871D01*
D02*
G37*
G36*
X-95900Y30344D02*
X-96258Y30272D01*
X-96986Y29786D01*
X-97472Y29058D01*
X-97544Y28700D01*
X-95900D01*
Y30344D01*
D02*
G37*
G36*
X-94900D02*
Y28700D01*
X-93256D01*
X-93328Y29058D01*
X-93814Y29786D01*
X-94542Y30272D01*
X-94900Y30344D01*
D02*
G37*
G36*
X46435Y-91816D02*
X43445Y-93543D01*
X44581Y-95510D01*
X47571Y-93784D01*
X46435Y-91816D01*
D02*
G37*
G36*
X-101068Y41172D02*
X-101961Y37837D01*
X-99767Y37249D01*
X-98874Y40584D01*
X-101068Y41172D01*
D02*
G37*
G36*
X-22000Y-96600D02*
X-23644D01*
X-23572Y-96958D01*
X-23086Y-97686D01*
X-22358Y-98172D01*
X-22000Y-98244D01*
Y-96600D01*
D02*
G37*
G36*
X48071Y-94649D02*
X45081Y-96376D01*
X46218Y-98343D01*
X49207Y-96617D01*
X48071Y-94649D01*
D02*
G37*
G36*
X-22000Y-93956D02*
X-22358Y-94028D01*
X-23086Y-94514D01*
X-23572Y-95242D01*
X-23644Y-95600D01*
X-22000D01*
Y-93956D01*
D02*
G37*
G36*
X-91445Y-72780D02*
X-94799Y-76134D01*
X-89775Y-81158D01*
X-87536Y-78920D01*
X-77622D01*
X-60223Y-96319D01*
X-60414Y-96781D01*
X-64623D01*
X-69100Y-94197D01*
X-69119Y-93609D01*
X-69102Y-93598D01*
X-68704Y-93002D01*
X-68565Y-92300D01*
X-68704Y-91598D01*
X-69102Y-91002D01*
X-69698Y-90604D01*
X-70400Y-90465D01*
X-70414Y-90468D01*
X-70473Y-90428D01*
X-71000Y-90324D01*
X-73901D01*
X-77804Y-86421D01*
X-81158Y-89775D01*
X-76134Y-94799D01*
X-74411Y-93076D01*
X-72046D01*
X-71698Y-93598D01*
X-71102Y-93995D01*
X-70400Y-94135D01*
X-70135Y-94082D01*
X-69815Y-94529D01*
X-71864Y-98079D01*
X-65710Y-101630D01*
X-64088Y-98820D01*
X-50122D01*
X-43947Y-104995D01*
X-43962Y-105102D01*
X-44524Y-105500D01*
X-44700Y-105465D01*
X-45402Y-105604D01*
X-45998Y-106002D01*
X-46040Y-106066D01*
X-48533D01*
X-52784Y-103612D01*
X-55155Y-107721D01*
X-49001Y-111272D01*
X-47585Y-108819D01*
X-45667D01*
X-45402Y-108996D01*
X-44700Y-109135D01*
X-43998Y-108996D01*
X-43402Y-108598D01*
X-43004Y-108002D01*
X-42865Y-107300D01*
X-43004Y-106598D01*
X-43082Y-106482D01*
X-42722Y-106121D01*
X-42690Y-106142D01*
X-42300Y-106220D01*
X-21200D01*
X-20810Y-106142D01*
X-20767Y-106113D01*
X-15172Y-107610D01*
X-14100Y-103603D01*
X-13600Y-103669D01*
X-13600Y-105006D01*
X-10147Y-105006D01*
X-10147Y-102734D01*
X-13569Y-102735D01*
X-13600D01*
X-13600Y-102735D01*
X-14100Y-102987D01*
X-20810Y-101192D01*
X-21605Y-104163D01*
X-21622Y-104180D01*
X-41878D01*
X-48387Y-97671D01*
X-48196Y-97209D01*
X-47377D01*
X-42507Y-100019D01*
X-40439Y-96436D01*
X-39973Y-96629D01*
X-40316Y-97911D01*
X-36981Y-98804D01*
X-36394Y-96609D01*
X-39696Y-95726D01*
X-39729Y-95717D01*
X-39729Y-95717D01*
X-40277Y-95830D01*
X-46291Y-92360D01*
X-47912Y-95170D01*
X-58488D01*
X-76479Y-77179D01*
X-76810Y-76958D01*
X-77200Y-76880D01*
X-87345D01*
X-91445Y-72780D01*
D02*
G37*
G36*
X-19356Y-96600D02*
X-21000D01*
Y-98244D01*
X-20642Y-98172D01*
X-19914Y-97686D01*
X-19428Y-96958D01*
X-19356Y-96600D01*
D02*
G37*
G36*
X-89199Y62061D02*
X-90924Y59070D01*
X-88956Y57935D01*
X-87231Y60926D01*
X-89199Y62061D01*
D02*
G37*
G36*
X-63200Y60300D02*
X-64844D01*
X-64772Y59942D01*
X-64286Y59214D01*
X-63558Y58728D01*
X-63200Y58656D01*
Y60300D01*
D02*
G37*
G36*
X-60556D02*
X-62200D01*
Y58656D01*
X-61842Y58728D01*
X-61114Y59214D01*
X-60628Y59942D01*
X-60556Y60300D01*
D02*
G37*
G36*
X-76000Y54144D02*
Y52500D01*
X-74356D01*
X-74428Y52858D01*
X-74914Y53586D01*
X-75642Y54072D01*
X-76000Y54144D01*
D02*
G37*
G36*
X-86365Y60426D02*
X-88090Y57435D01*
X-86122Y56300D01*
X-84397Y59291D01*
X-86365Y60426D01*
D02*
G37*
G36*
X8157Y64683D02*
Y64683D01*
X8075Y64683D01*
X5186D01*
Y61317D01*
X7665D01*
X8157Y61317D01*
X8160Y61317D01*
X8160Y61317D01*
X8521Y61186D01*
X8521Y61186D01*
Y61186D01*
X8603Y61186D01*
X12280D01*
Y61849D01*
X13346D01*
X15378Y59817D01*
X15709Y59596D01*
X16099Y59518D01*
X17740D01*
Y57182D01*
X21303D01*
Y63894D01*
X17740D01*
Y61558D01*
X16521D01*
X14490Y63590D01*
X14159Y63810D01*
X13769Y63888D01*
X12280D01*
Y64551D01*
X8521D01*
X8521Y64551D01*
Y64551D01*
X8157Y64683D01*
D02*
G37*
G36*
X16799Y-101862D02*
X13488Y-102751D01*
X13464Y-102757D01*
X13464Y-102757D01*
X13047Y-103130D01*
X6091Y-103131D01*
X6092Y-104129D01*
X5738Y-104483D01*
X-1002D01*
X-1393Y-104560D01*
X-1723Y-104781D01*
X-5194Y-108252D01*
X-5436Y-108151D01*
X-5437Y-108151D01*
X-5612Y-108078D01*
X-5650Y-108063D01*
X-5679Y-108051D01*
X-5694Y-108045D01*
X-5694Y-108003D01*
X-5694Y-107873D01*
X-5694Y-107855D01*
Y-107855D01*
X-5694Y-106005D01*
X-9147Y-106006D01*
X-9146Y-108277D01*
X-6115Y-108277D01*
X-6115Y-108277D01*
X-6098D01*
X-5967Y-108277D01*
X-5926D01*
X-5920Y-108291D01*
X-5908Y-108321D01*
X-5892Y-108358D01*
X-5819Y-108534D01*
Y-108534D01*
X-5719Y-108777D01*
X-7122Y-110180D01*
X-37484D01*
X-42804Y-108757D01*
X-44029Y-113339D01*
X-37165Y-115176D01*
X-36375Y-112220D01*
X-6700D01*
X-6310Y-112142D01*
X-5979Y-111921D01*
X-580Y-106522D01*
X6092D01*
X6092Y-107875D01*
X13198Y-107873D01*
X13197Y-103690D01*
X13697Y-103624D01*
X14053Y-104951D01*
X17388Y-104056D01*
X16799Y-101862D01*
D02*
G37*
G36*
X-54100Y66300D02*
X-55744D01*
X-55672Y65942D01*
X-55186Y65214D01*
X-54458Y64728D01*
X-54100Y64656D01*
Y66300D01*
D02*
G37*
G36*
X-51456D02*
X-53100D01*
Y64656D01*
X-52742Y64728D01*
X-52014Y65214D01*
X-51528Y65942D01*
X-51456Y66300D01*
D02*
G37*
G36*
X-63200Y62944D02*
X-63558Y62872D01*
X-64286Y62386D01*
X-64772Y61658D01*
X-64844Y61300D01*
X-63200D01*
Y62944D01*
D02*
G37*
G36*
X-62200D02*
Y61300D01*
X-60556D01*
X-60628Y61658D01*
X-61114Y62386D01*
X-61842Y62872D01*
X-62200Y62944D01*
D02*
G37*
G36*
X-86974Y65918D02*
X-88699Y62927D01*
X-86731Y61792D01*
X-85006Y64783D01*
X-86974Y65918D01*
D02*
G37*
G36*
X-55656Y49700D02*
X-57300D01*
Y48056D01*
X-56942Y48128D01*
X-56214Y48614D01*
X-55728Y49342D01*
X-55656Y49700D01*
D02*
G37*
G36*
X-77000Y51500D02*
X-78644D01*
X-78572Y51142D01*
X-78086Y50414D01*
X-77358Y49928D01*
X-77000Y49856D01*
Y51500D01*
D02*
G37*
G36*
X33600Y50944D02*
Y49300D01*
X35244D01*
X35172Y49658D01*
X34686Y50386D01*
X33958Y50872D01*
X33600Y50944D01*
D02*
G37*
G36*
X21100Y-100708D02*
X17765Y-101603D01*
X18354Y-103797D01*
X21688Y-102902D01*
X21100Y-100708D01*
D02*
G37*
G36*
X32600Y50944D02*
X32242Y50872D01*
X31514Y50386D01*
X31028Y49658D01*
X30956Y49300D01*
X32600D01*
Y50944D01*
D02*
G37*
G36*
X-58300Y49700D02*
X-59944D01*
X-59872Y49342D01*
X-59386Y48614D01*
X-58658Y48128D01*
X-58300Y48056D01*
Y49700D01*
D02*
G37*
G36*
X-77000Y54144D02*
X-77358Y54072D01*
X-78086Y53586D01*
X-78572Y52858D01*
X-78644Y52500D01*
X-77000D01*
Y54144D01*
D02*
G37*
G36*
X-57300Y52344D02*
Y50700D01*
X-55656D01*
X-55728Y51058D01*
X-56214Y51786D01*
X-56942Y52272D01*
X-57300Y52344D01*
D02*
G37*
G36*
X-74356Y51500D02*
X-76000D01*
Y49856D01*
X-75642Y49928D01*
X-74914Y50414D01*
X-74428Y51142D01*
X-74356Y51500D01*
D02*
G37*
G36*
X-58300Y52344D02*
X-58658Y52272D01*
X-59386Y51786D01*
X-59872Y51058D01*
X-59944Y50700D01*
X-58300D01*
Y52344D01*
D02*
G37*
%LPD*%
G36*
X51046Y-58784D02*
X47306Y-62327D01*
X35495D01*
X31754Y-58784D01*
Y-54059D01*
X51046D01*
Y-58784D01*
D02*
G37*
G36*
X-2930Y-53512D02*
X-2852Y-53902D01*
X-2631Y-54233D01*
X-482Y-56382D01*
Y-58581D01*
X319D01*
Y-60255D01*
X-482D01*
Y-63896D01*
X319D01*
Y-76039D01*
X-6897Y-83255D01*
X-7359Y-83064D01*
Y-79413D01*
X-10208D01*
Y-76977D01*
X-6063D01*
Y-77239D01*
X-2698D01*
Y-74268D01*
X-6063D01*
Y-74530D01*
X-7774D01*
X-8055Y-74087D01*
X-8059Y-74030D01*
X-7978Y-73619D01*
X-8042Y-73294D01*
X-7938Y-73180D01*
X-7664Y-72996D01*
X-7633Y-72983D01*
X-7380Y-73152D01*
X-6990Y-73230D01*
X-6063D01*
Y-73696D01*
X-2698D01*
Y-70724D01*
X-2501Y-70433D01*
X-2501D01*
Y-67068D01*
X-2101Y-66896D01*
X-2101D01*
Y-65313D01*
X-4380D01*
Y-64313D01*
X-2101D01*
Y-62731D01*
X-2481D01*
X-2527Y-62678D01*
X-2703Y-62231D01*
X-2308Y-61640D01*
X-2237Y-61282D01*
X-6524D01*
X-6453Y-61640D01*
X-6437Y-61664D01*
X-6797Y-62025D01*
X-7229Y-61736D01*
X-7931Y-61596D01*
X-8634Y-61736D01*
X-9229Y-62134D01*
X-9627Y-62729D01*
X-9767Y-63432D01*
X-9640Y-64071D01*
X-9704Y-64278D01*
X-9861Y-64571D01*
X-10023D01*
X-10273Y-64521D01*
X-10408D01*
Y-59629D01*
X-10334Y-59579D01*
X-9936Y-58984D01*
X-9796Y-58281D01*
X-9936Y-57579D01*
X-10334Y-56984D01*
X-10929Y-56586D01*
X-11631Y-56446D01*
X-12334Y-56586D01*
X-12579Y-56750D01*
X-13079Y-56482D01*
Y-55269D01*
X-7550D01*
X-7160Y-55192D01*
X-6829Y-54971D01*
X-4879Y-53021D01*
X-4658Y-52690D01*
X-4580Y-52300D01*
Y-50422D01*
X-3722Y-49564D01*
X-2930D01*
Y-53512D01*
D02*
G37*
G36*
X49626Y-62268D02*
Y-76250D01*
X48957D01*
Y-76034D01*
X48864Y-75566D01*
X48666Y-75269D01*
X48831Y-74769D01*
X49121D01*
Y-69631D01*
X47470D01*
Y-68200D01*
X47545Y-68151D01*
X47943Y-67555D01*
X48082Y-66853D01*
X47943Y-66151D01*
X47545Y-65555D01*
X46949Y-65158D01*
X46247Y-65018D01*
X45545Y-65158D01*
X44949Y-65555D01*
X44551Y-66151D01*
X44412Y-66853D01*
X44551Y-67555D01*
X44949Y-68151D01*
X45023Y-68200D01*
Y-69631D01*
X44378D01*
Y-73690D01*
X43878Y-73897D01*
X43222Y-73241D01*
Y-72700D01*
X40450D01*
Y-71700D01*
X43222D01*
Y-69231D01*
X42752D01*
X42421Y-68868D01*
Y-66400D01*
X39650D01*
Y-65400D01*
X42421D01*
Y-62976D01*
X47306D01*
X47528Y-62884D01*
X47752Y-62798D01*
X48987Y-61629D01*
X49626Y-62268D01*
D02*
G37*
G36*
X-25422Y-7556D02*
Y-11669D01*
X-24274D01*
Y-14303D01*
X-24348Y-14353D01*
X-24746Y-14948D01*
X-24886Y-15650D01*
X-24746Y-16353D01*
X-24348Y-16948D01*
X-23753Y-17346D01*
X-23050Y-17486D01*
X-22348Y-17346D01*
X-21753Y-16948D01*
X-21355Y-16353D01*
X-21215Y-15650D01*
X-21355Y-14948D01*
X-21753Y-14353D01*
X-21827Y-14303D01*
Y-12022D01*
X-21473Y-11669D01*
X-20679D01*
X-20356Y-12035D01*
Y-12307D01*
X-17823D01*
Y-15393D01*
X-21407Y-18977D01*
X-25393D01*
X-28126Y-16244D01*
Y-12069D01*
X-26578D01*
Y-9600D01*
X-29350D01*
Y-8600D01*
X-26578D01*
Y-8059D01*
X-25884Y-7365D01*
X-25422Y-7556D01*
D02*
G37*
G36*
X56302Y27455D02*
Y27175D01*
X56302Y27175D01*
X56302Y27175D01*
X56352Y26924D01*
X56395Y26706D01*
X56395Y26706D01*
X56395Y26706D01*
X56535Y26497D01*
X56660Y26310D01*
X56660Y26309D01*
X56660Y26309D01*
X57535Y25435D01*
X57741Y25297D01*
X57932Y25170D01*
X57932Y25170D01*
X57932Y25170D01*
X58149Y25126D01*
X58400Y25077D01*
X62601D01*
Y21410D01*
X62502Y20951D01*
X62090Y20968D01*
X61972Y21558D01*
X61486Y22286D01*
X60758Y22772D01*
X60400Y22844D01*
Y20700D01*
Y18556D01*
X60758Y18628D01*
X61486Y19114D01*
X61972Y19842D01*
X62090Y20432D01*
X62502Y20449D01*
X62601Y19990D01*
Y3476D01*
X62251Y3270D01*
X61898Y3477D01*
Y3768D01*
X61805Y4237D01*
X61540Y4634D01*
X61440Y4734D01*
X61043Y4999D01*
X60575Y5092D01*
X54476D01*
X54008Y4999D01*
X53611Y4734D01*
X53511Y4634D01*
X53245Y4237D01*
X53152Y3768D01*
Y3545D01*
X52950Y3409D01*
X52450Y3676D01*
Y13362D01*
X55241Y16153D01*
X55506Y16550D01*
X55599Y17018D01*
Y27324D01*
X56099Y27591D01*
X56302Y27455D01*
D02*
G37*
G36*
X-32521Y65779D02*
X-32323Y65647D01*
X-32190Y65558D01*
X-32190D01*
X-32190Y65558D01*
X-31955Y65511D01*
X-31800Y65481D01*
X-30907D01*
Y60246D01*
X-25655D01*
Y58954D01*
X-30907D01*
Y55820D01*
X-34223D01*
X-34464Y55772D01*
X-41341D01*
Y51701D01*
X-44018Y49024D01*
X-44480Y49215D01*
Y61478D01*
X-39969Y65989D01*
X-32731D01*
X-32521Y65779D01*
D02*
G37*
G36*
X-113165Y-15883D02*
X-112951Y-15955D01*
Y-19093D01*
X-112873Y-19483D01*
X-112653Y-19814D01*
X-99906Y-32560D01*
X-100041Y-33113D01*
X-102585Y-33795D01*
X-102625Y-33806D01*
X-103050Y-33856D01*
X-103096Y-33861D01*
X-103279Y-33587D01*
X-114129Y-22737D01*
X-115461Y-17767D01*
X-115465Y-17753D01*
Y-17753D01*
X-115529Y-17512D01*
X-115535Y-17490D01*
X-115535Y-17490D01*
X-115535Y-17489D01*
X-115561Y-17393D01*
X-115572Y-17354D01*
X-115573Y-17351D01*
X-115567Y-17340D01*
X-115547Y-17304D01*
X-115541Y-17294D01*
X-115480Y-17181D01*
X-115064Y-16928D01*
D01*
X-114610Y-16838D01*
X-114398Y-16795D01*
X-113802Y-16398D01*
X-113451Y-15872D01*
X-113165Y-15883D01*
D02*
G37*
G36*
X-47312Y21490D02*
X-46632Y21355D01*
X-46361Y21408D01*
X-46353Y21405D01*
X-45976Y20975D01*
X-46067Y20518D01*
X-45927Y19816D01*
X-45529Y19221D01*
X-45415Y19144D01*
X-45372Y18619D01*
X-45405Y18537D01*
X-46621Y17321D01*
X-46842Y16990D01*
X-46920Y16600D01*
Y13200D01*
X-46842Y12810D01*
X-46621Y12479D01*
X-46170Y12028D01*
X-46235Y11700D01*
X-46096Y10998D01*
X-45698Y10402D01*
X-45102Y10004D01*
X-44400Y9865D01*
X-43698Y10004D01*
X-43102Y10402D01*
X-42992Y10568D01*
X-42461Y10462D01*
X-42442Y10366D01*
X-42221Y10035D01*
X-42220Y10034D01*
Y9384D01*
X-42498Y9198D01*
X-42896Y8602D01*
X-43035Y7900D01*
X-42896Y7198D01*
X-42777Y7020D01*
X-43044Y6520D01*
X-44252D01*
X-47812Y10080D01*
Y21237D01*
X-47400Y21497D01*
X-47312Y21490D01*
D02*
G37*
G36*
X-45466Y4850D02*
X-45523Y4566D01*
X-45653Y4350D01*
X-46500D01*
Y2600D01*
X-42270D01*
X-42193Y2677D01*
X-39826D01*
X-39358Y2770D01*
X-39097Y2944D01*
X-38678Y2708D01*
X-38642Y2667D01*
X-38735Y2200D01*
X-38596Y1498D01*
X-38198Y902D01*
X-37602Y504D01*
X-36900Y365D01*
X-36198Y504D01*
X-35602Y902D01*
X-35416Y1180D01*
X-34175D01*
X-33968Y680D01*
X-35917Y-1268D01*
X-35917Y-1268D01*
X-40626Y-5978D01*
X-42900D01*
Y-5250D01*
X-43378D01*
Y-4750D01*
X-42900D01*
Y-1050D01*
X-46100D01*
Y-4750D01*
X-45621D01*
Y-5250D01*
X-46100D01*
Y-8950D01*
X-42900D01*
Y-8222D01*
X-40162D01*
X-40162Y-8222D01*
X-39862Y-8162D01*
X-39733Y-8136D01*
X-39733Y-8136D01*
X-39733D01*
X-39659Y-8087D01*
X-39369Y-7893D01*
X-39369Y-7893D01*
X-35628Y-4152D01*
X-35536Y-4165D01*
X-35143Y-4374D01*
Y-5757D01*
X-42438Y-13052D01*
X-42900Y-12861D01*
Y-10250D01*
X-46100D01*
Y-13950D01*
X-46100Y-13950D01*
D01*
X-46100Y-13950D01*
X-46170Y-14369D01*
X-46170D01*
X-46170Y-14369D01*
X-46170D01*
X-46170Y-14421D01*
Y-17570D01*
X-42470D01*
Y-16256D01*
X-41632Y-15418D01*
X-41170Y-15610D01*
Y-17570D01*
X-40442D01*
Y-18844D01*
X-40606D01*
Y-22544D01*
X-37405D01*
Y-18844D01*
X-38199D01*
Y-17570D01*
X-37470D01*
Y-15706D01*
X-32583Y-10819D01*
X-32121Y-11010D01*
Y-12069D01*
X-30573D01*
Y-16750D01*
X-30480Y-17219D01*
X-30215Y-17616D01*
X-26765Y-21065D01*
X-26368Y-21330D01*
X-25900Y-21423D01*
X-20900D01*
X-20432Y-21330D01*
X-20035Y-21065D01*
X-16600Y-17630D01*
X-12965Y-21265D01*
X-12568Y-21531D01*
X-12100Y-21624D01*
X-11896D01*
Y-22877D01*
X-10117D01*
Y-20400D01*
Y-17924D01*
X-11896D01*
Y-18220D01*
X-12358Y-18411D01*
X-15376Y-15393D01*
Y-12307D01*
X-12844D01*
Y-8868D01*
X-6093D01*
Y-4124D01*
X-12869D01*
X-13198Y-4124D01*
X-13244Y-3643D01*
Y907D01*
X-17825D01*
X-18084Y1166D01*
Y4543D01*
X-17673Y4803D01*
X-17584Y4796D01*
X-16904Y4661D01*
X-16202Y4800D01*
X-15606Y5198D01*
X-15557Y5273D01*
X-13198D01*
Y4124D01*
X-12014D01*
X-11909Y3624D01*
X-12398Y3298D01*
X-12796Y2702D01*
X-12935Y2000D01*
X-12796Y1298D01*
X-12398Y702D01*
X-11802Y304D01*
X-11100Y165D01*
X-10398Y304D01*
X-9802Y702D01*
X-9616Y980D01*
X10285D01*
X10477Y519D01*
X9378Y-580D01*
X-7416D01*
X-7602Y-302D01*
X-8198Y96D01*
X-8900Y235D01*
X-9602Y96D01*
X-10198Y-302D01*
X-10596Y-898D01*
X-10735Y-1600D01*
X-10596Y-2302D01*
X-10198Y-2898D01*
X-9602Y-3296D01*
X-8900Y-3435D01*
X-8198Y-3296D01*
X-7602Y-2898D01*
X-7416Y-2620D01*
X9800D01*
X10190Y-2542D01*
X10521Y-2321D01*
X15360Y2518D01*
X15822Y2327D01*
Y-2414D01*
X15022D01*
Y-3937D01*
X17046D01*
Y-4437D01*
X17546D01*
Y-6461D01*
X19069D01*
Y-6061D01*
X21819D01*
Y-6061D01*
X22022D01*
X22522Y-6302D01*
Y-6541D01*
X22615Y-7009D01*
X22848Y-7357D01*
X22759Y-7544D01*
X22585Y-7740D01*
X22513Y-7774D01*
X22268Y-7725D01*
X21842Y-7810D01*
X21480Y-8051D01*
X21239Y-8412D01*
X21224Y-8486D01*
X21137Y-8617D01*
X21044Y-9085D01*
X21134Y-9534D01*
X21136Y-9554D01*
X20746Y-9867D01*
X20338Y-9460D01*
X20404Y-9132D01*
X20264Y-8429D01*
X19866Y-7834D01*
X19271Y-7436D01*
X18568Y-7296D01*
X17866Y-7436D01*
X17271Y-7834D01*
X16873Y-8429D01*
X16733Y-9132D01*
X16873Y-9834D01*
X17271Y-10429D01*
X17866Y-10827D01*
X18568Y-10967D01*
X18897Y-10902D01*
X19497Y-11502D01*
X19290Y-12002D01*
X18988D01*
X18598Y-12080D01*
X18267Y-12301D01*
X18106Y-12461D01*
X17778Y-12396D01*
X17076Y-12536D01*
X16481Y-12934D01*
X16083Y-13529D01*
X15943Y-14232D01*
X16083Y-14934D01*
X16481Y-15529D01*
X17076Y-15927D01*
X17778Y-16067D01*
X18481Y-15927D01*
X19076Y-15529D01*
X19474Y-14934D01*
X19614Y-14232D01*
X19770Y-14041D01*
X20868D01*
X21195Y-14541D01*
X21154Y-14744D01*
Y-15236D01*
X21215Y-15543D01*
X19311Y-17447D01*
X19090Y-17778D01*
X19012Y-18168D01*
Y-18520D01*
X18349D01*
Y-22279D01*
X19012D01*
Y-23695D01*
X19090Y-24085D01*
X19299Y-24399D01*
X19233Y-24732D01*
X19368Y-25408D01*
X19372Y-25496D01*
X19115Y-25908D01*
X13238D01*
X7426Y-20096D01*
Y-17924D01*
X6174D01*
Y-10357D01*
X7263Y-9268D01*
X9146D01*
Y-6996D01*
X5693D01*
Y-7377D01*
X4085Y-8985D01*
X3820Y-9382D01*
X3727Y-9850D01*
Y-17924D01*
X2474D01*
Y-19703D01*
X4950D01*
Y-20704D01*
X2474D01*
Y-22483D01*
X2474D01*
X2874Y-22655D01*
Y-26414D01*
X3931D01*
Y-27829D01*
X4008Y-28219D01*
X4229Y-28550D01*
X5406Y-29726D01*
X5354Y-30338D01*
X5235Y-30417D01*
X4330D01*
X3871Y-30608D01*
X3529Y-30608D01*
X3070Y-30417D01*
X2165D01*
X1705Y-30608D01*
X1197Y-30534D01*
X1127Y-30520D01*
X732Y-30362D01*
X655Y-29955D01*
Y-26414D01*
X1711D01*
Y-22655D01*
X-2441D01*
Y-26414D01*
X-1385D01*
Y-29909D01*
X-2352Y-30877D01*
X-2574Y-31208D01*
X-2651Y-31598D01*
Y-33437D01*
X-4213D01*
X-4662Y-33526D01*
X-4880Y-33672D01*
X-5374Y-33456D01*
X-5380Y-33450D01*
Y-31622D01*
X-4565Y-30807D01*
X-4344Y-30476D01*
X-4267Y-30086D01*
Y-27595D01*
X-3407D01*
Y-23442D01*
X-4267D01*
Y-22477D01*
X-3407D01*
Y-21420D01*
X-2441D01*
Y-22083D01*
X1711D01*
Y-18324D01*
X-2441D01*
Y-19381D01*
X-3407D01*
Y-18324D01*
X-7096D01*
X-7337Y-17924D01*
X-7337Y-17924D01*
Y-17924D01*
X-7337Y-17924D01*
X-9117D01*
Y-20400D01*
Y-22877D01*
X-7337D01*
Y-22877D01*
X-7166Y-22477D01*
X-6306D01*
Y-23442D01*
X-7166D01*
Y-27595D01*
X-6306D01*
Y-29664D01*
X-7121Y-30479D01*
X-7342Y-30810D01*
X-7420Y-31200D01*
Y-35192D01*
X-7881Y-35384D01*
X-10661Y-32605D01*
X-10619Y-32100D01*
X-10198Y-31866D01*
X-9617Y-31981D01*
X-8915Y-31842D01*
X-8319Y-31444D01*
X-7921Y-30848D01*
X-7782Y-30146D01*
X-7921Y-29444D01*
X-8319Y-28848D01*
X-8597Y-28662D01*
Y-27595D01*
X-7737D01*
Y-23442D01*
X-11496D01*
Y-27595D01*
X-10637D01*
Y-28662D01*
X-10915Y-28848D01*
X-11312Y-29444D01*
X-11452Y-30146D01*
X-11699Y-30447D01*
X-14261D01*
Y-34009D01*
X-12526D01*
X-12478Y-34081D01*
X-12745Y-34581D01*
X-14261D01*
Y-38016D01*
X-14261Y-38143D01*
X-14261Y-38143D01*
X-14255Y-38514D01*
X-14255D01*
X-14255Y-38514D01*
Y-42076D01*
X-12248D01*
X-12067Y-42307D01*
X-12300Y-42807D01*
X-16424D01*
Y-44159D01*
X-17587D01*
Y-42807D01*
X-17587Y-42807D01*
X-17587D01*
X-17308Y-42437D01*
X-16947Y-42076D01*
X-14826D01*
Y-38640D01*
X-14826Y-38514D01*
X-14826Y-38514D01*
X-14832Y-38143D01*
X-14832D01*
X-14832Y-38143D01*
Y-34581D01*
X-15588D01*
Y-34009D01*
X-14832D01*
Y-30447D01*
X-18394D01*
Y-34009D01*
X-17627D01*
Y-34581D01*
X-18394D01*
Y-38016D01*
X-18394Y-38143D01*
X-18394Y-38143D01*
X-18389Y-38514D01*
X-18389D01*
X-18389Y-38514D01*
Y-40634D01*
X-19143Y-41388D01*
X-22538D01*
X-22929Y-41465D01*
X-23259Y-41686D01*
X-23845Y-42272D01*
X-24066Y-42603D01*
X-24144Y-42993D01*
Y-53664D01*
X-24066Y-54054D01*
X-23845Y-54385D01*
X-23699Y-54532D01*
X-23906Y-55032D01*
X-24521D01*
Y-56462D01*
X-24524Y-56476D01*
X-25353D01*
X-25402Y-56402D01*
X-25998Y-56004D01*
X-26700Y-55865D01*
X-26787Y-55882D01*
X-29435Y-53235D01*
X-29832Y-52969D01*
X-30300Y-52876D01*
X-40493D01*
X-42346Y-51024D01*
Y-47593D01*
X-49254D01*
Y-50636D01*
X-50210D01*
Y-49980D01*
X-55741D01*
Y-53320D01*
X-56141D01*
Y-54376D01*
X-64783D01*
X-64867Y-54239D01*
X-64589Y-53739D01*
X-59659D01*
Y-49980D01*
X-62071D01*
X-62306Y-49539D01*
X-62236Y-49434D01*
X-62096Y-48731D01*
X-62236Y-48029D01*
X-62475Y-47672D01*
X-62207Y-47172D01*
X-50015D01*
X-49555Y-46982D01*
X-49529Y-46956D01*
X-49339Y-46496D01*
Y-39249D01*
X-45489D01*
X-44679Y-39143D01*
X-43925Y-38830D01*
X-43278Y-38333D01*
X-43016Y-37992D01*
X-39005D01*
X-38186Y-37830D01*
X-37994Y-37701D01*
X-37405D01*
Y-37237D01*
X-37027Y-36671D01*
X-36864Y-35851D01*
X-37027Y-35032D01*
X-37405Y-34466D01*
Y-34001D01*
X-37994D01*
X-38186Y-33873D01*
X-39005Y-33710D01*
X-43191D01*
X-43270Y-33601D01*
X-43017Y-33101D01*
X-41533D01*
Y-31351D01*
X-43533D01*
Y-30851D01*
X-44033D01*
Y-28601D01*
X-45533D01*
Y-29628D01*
X-46061D01*
Y-28601D01*
X-47561D01*
Y-30851D01*
X-48561D01*
Y-28601D01*
X-49339D01*
Y8070D01*
X-48877Y8261D01*
X-45466Y4850D01*
D02*
G37*
G36*
X35037Y7688D02*
X35033Y7668D01*
X35173Y6966D01*
X35571Y6371D01*
X36166Y5973D01*
X36869Y5833D01*
X37571Y5973D01*
X37917Y6204D01*
X37987Y6223D01*
X38070Y6165D01*
X38183Y5524D01*
X38163Y5496D01*
X38076D01*
X37686Y5418D01*
X37356Y5198D01*
X37197Y5038D01*
X36869Y5104D01*
X36166Y4964D01*
X35571Y4566D01*
X35173Y3971D01*
X35033Y3269D01*
X35173Y2566D01*
X35571Y1971D01*
X36166Y1573D01*
X36869Y1433D01*
X37571Y1573D01*
X38166Y1971D01*
X38564Y2566D01*
X38574Y2616D01*
X39015Y2799D01*
X39710Y2660D01*
X45025D01*
X45720Y2799D01*
X46155Y3089D01*
X46430Y3023D01*
X46637Y2477D01*
X46399Y2120D01*
X46260Y1425D01*
Y-3890D01*
X46399Y-4585D01*
X46792Y-5174D01*
X47381Y-5567D01*
X48076Y-5706D01*
X48771Y-5567D01*
X49360Y-5174D01*
X49821Y-5371D01*
X50003Y-5542D01*
Y-11025D01*
X38319Y-22708D01*
X33624D01*
X33451Y-22279D01*
X33451Y-22279D01*
X33451D01*
X33451Y-22279D01*
Y-21419D01*
X37000D01*
X37390Y-21342D01*
X37721Y-21121D01*
X40089Y-18753D01*
X40310Y-18422D01*
X40388Y-18032D01*
Y-11715D01*
X40666Y-11529D01*
X41064Y-10934D01*
X41204Y-10232D01*
X41064Y-9529D01*
X40666Y-8934D01*
X40071Y-8536D01*
X39369Y-8396D01*
X38666Y-8536D01*
X38071Y-8934D01*
X37673Y-9529D01*
X37533Y-10232D01*
X37673Y-10934D01*
X38071Y-11529D01*
X38349Y-11715D01*
Y-17609D01*
X36578Y-19380D01*
X33451D01*
Y-18520D01*
X31204D01*
X29193Y-16509D01*
Y-15676D01*
X29202Y-15663D01*
X29287Y-15236D01*
Y-14744D01*
X29246Y-14541D01*
X29281Y-14483D01*
X29852Y-14347D01*
X29901Y-14396D01*
X30231Y-14617D01*
X30621Y-14694D01*
X30977D01*
Y-15298D01*
X34224D01*
Y-12549D01*
X34624D01*
Y-11025D01*
X32600D01*
Y-10525D01*
X32100D01*
Y-8501D01*
X31415D01*
X31179Y-8061D01*
X31264Y-7934D01*
X31404Y-7231D01*
X31264Y-6529D01*
X30866Y-5934D01*
X30271Y-5536D01*
X29568Y-5396D01*
X29305Y-5449D01*
X28919Y-5131D01*
Y-4938D01*
X26895D01*
Y-3937D01*
X28919D01*
Y-2414D01*
X29416Y-2406D01*
X30242D01*
Y62D01*
X27470D01*
Y1063D01*
X30242D01*
Y3531D01*
X27636D01*
X25980Y5187D01*
X26172Y5649D01*
X31868D01*
X32259Y5726D01*
X32590Y5948D01*
X34576Y7934D01*
X35037Y7688D01*
D02*
G37*
G36*
X83496Y19347D02*
X83465Y19189D01*
X83604Y18486D01*
X84002Y17891D01*
X84326Y17675D01*
X84329Y17075D01*
X84271Y17036D01*
X83873Y16441D01*
X83733Y15739D01*
X83873Y15036D01*
X84271Y14441D01*
X84549Y14255D01*
Y9891D01*
X83304Y8646D01*
X82291D01*
X82180Y9146D01*
X82666Y9471D01*
X83064Y10066D01*
X83204Y10768D01*
X83064Y11471D01*
X82666Y12066D01*
X82071Y12464D01*
X81368Y12604D01*
X80666Y12464D01*
X80278Y12205D01*
X80213Y12186D01*
X79764Y12494D01*
X79735Y12569D01*
X79783Y12655D01*
X80168Y13230D01*
X80306Y13925D01*
X80168Y14620D01*
X79774Y15209D01*
X79713Y15250D01*
Y15750D01*
X79774Y15791D01*
X80168Y16380D01*
X80253Y16812D01*
X83035Y19593D01*
X83496Y19347D01*
D02*
G37*
G36*
X7093Y11346D02*
X9550D01*
X9742Y10884D01*
X8847Y9990D01*
X8626Y9659D01*
X8549Y9268D01*
Y8868D01*
X6093D01*
Y4124D01*
X11449D01*
X11641Y3663D01*
X10998Y3020D01*
X-9616D01*
X-9802Y3298D01*
X-10291Y3624D01*
X-10186Y4124D01*
X-6093D01*
Y8868D01*
X-13198D01*
Y7720D01*
X-15557D01*
X-15606Y7794D01*
X-16077Y8108D01*
X-16205Y8348D01*
X-16212Y8704D01*
X-16050Y8946D01*
X-15958Y9410D01*
X-16006Y9655D01*
X-15682Y10155D01*
X-6367D01*
X-6199Y9903D01*
X-5603Y9505D01*
X-4901Y9366D01*
X-4199Y9505D01*
X-3603Y9903D01*
X-3205Y10498D01*
X-3066Y11201D01*
X-3201Y11881D01*
X-3208Y11970D01*
X-2948Y12381D01*
X-1786D01*
X-1396Y12459D01*
X-1065Y12680D01*
X631Y14376D01*
X3637D01*
Y15728D01*
X7093D01*
Y11346D01*
D02*
G37*
G36*
X-30907Y52046D02*
X-25655D01*
Y48411D01*
X-26401D01*
Y41772D01*
X-26846Y41371D01*
X-26932Y41388D01*
X-27504D01*
X-27957Y41502D01*
Y48411D01*
X-33684D01*
Y41502D01*
X-31752D01*
X-31541Y41186D01*
X-30763Y40408D01*
X-30955Y39946D01*
X-33684D01*
Y33520D01*
X-34643D01*
Y35992D01*
X-37907D01*
Y36992D01*
X-34643D01*
Y40346D01*
X-36683D01*
Y41102D01*
X-34643D01*
Y44457D01*
X-37907D01*
Y44957D01*
X-38407D01*
Y48811D01*
X-40193D01*
X-40460Y49311D01*
X-40365Y49453D01*
X-31479D01*
Y53781D01*
X-30907D01*
Y52046D01*
D02*
G37*
G36*
X8521Y52684D02*
Y49449D01*
X12109D01*
X13310Y48248D01*
X13641Y48027D01*
X13657Y48024D01*
X13608Y47523D01*
X12600D01*
X12132Y47430D01*
X11735Y47165D01*
X8654Y44084D01*
X6872D01*
Y41320D01*
X10227D01*
Y42197D01*
X13107Y45077D01*
X16284D01*
X16436Y44576D01*
X16271Y44466D01*
X15873Y43871D01*
X15733Y43169D01*
X15853Y42568D01*
X15664Y42219D01*
X15537Y42068D01*
X11379D01*
Y36931D01*
X12731D01*
Y35868D01*
X11279D01*
Y31805D01*
X10817Y31613D01*
X9827Y32603D01*
Y36598D01*
X2918D01*
Y34957D01*
X1607D01*
Y37554D01*
X-33D01*
Y39146D01*
X1607D01*
Y46054D01*
X1607D01*
Y46054D01*
X1662Y46532D01*
X8075Y52945D01*
X8521Y52684D01*
D02*
G37*
G36*
X31105Y-48941D02*
X31295Y-49400D01*
X31754Y-49590D01*
X46466D01*
X46587Y-49768D01*
X46687Y-50090D01*
X46348Y-50598D01*
X46209Y-51300D01*
X46348Y-52002D01*
X46746Y-52598D01*
X47213Y-52910D01*
X47061Y-53410D01*
X31754D01*
X31295Y-53600D01*
X31105Y-54059D01*
Y-55543D01*
X29802D01*
Y-54172D01*
X27802D01*
X27613Y-53750D01*
X27613Y-53672D01*
Y-51478D01*
X24645D01*
Y-50978D01*
X24145D01*
Y-48206D01*
X24037D01*
X23381Y-47551D01*
X23386Y-47464D01*
X23543Y-47051D01*
X27213D01*
Y-45902D01*
X31105D01*
Y-48941D01*
D02*
G37*
G36*
X-11224Y62893D02*
Y44257D01*
X-11207Y44174D01*
Y39146D01*
X-5480D01*
Y44290D01*
X-4582Y45187D01*
X-4121Y44996D01*
Y39146D01*
X-2480D01*
Y37554D01*
X-4121D01*
Y30646D01*
X1607D01*
Y32510D01*
X2918D01*
Y30870D01*
X8100D01*
X10566Y28403D01*
X10963Y28138D01*
X11432Y28045D01*
X12121D01*
X12171Y27971D01*
X12766Y27573D01*
X13193Y27488D01*
X13468Y27433D01*
X13679Y26965D01*
Y24100D01*
X16443D01*
Y27454D01*
X15421D01*
X15169Y27954D01*
X15237Y28045D01*
X15918D01*
X16387Y28138D01*
X16783Y28403D01*
X19112Y30731D01*
X22321D01*
Y35868D01*
X17578D01*
Y32658D01*
X16484Y31565D01*
X16022Y31756D01*
Y35868D01*
X14770D01*
Y36931D01*
X16122D01*
Y41369D01*
X16573Y41616D01*
X16626Y41591D01*
X16848Y41260D01*
X17678Y40430D01*
Y36931D01*
X22421D01*
Y41841D01*
X22921Y42048D01*
X23476Y41493D01*
Y27107D01*
X21193Y24823D01*
X20207D01*
Y27454D01*
X17443D01*
Y23600D01*
Y19746D01*
X20207D01*
Y22376D01*
X21700D01*
X22168Y22469D01*
X22565Y22735D01*
X25565Y25735D01*
X25830Y26132D01*
X25923Y26600D01*
Y42000D01*
X25830Y42468D01*
X25565Y42865D01*
X21265Y47165D01*
X20868Y47430D01*
X20400Y47523D01*
X17892D01*
X17843Y48024D01*
X17859Y48027D01*
X18190Y48248D01*
X21019Y51077D01*
X21480Y50885D01*
Y49702D01*
X22242D01*
Y49569D01*
X22320Y49178D01*
X22540Y48847D01*
X33549Y37839D01*
Y21969D01*
X33626Y21578D01*
X33847Y21248D01*
X35592Y19503D01*
X35922Y19283D01*
X36312Y19205D01*
X38249D01*
X38426Y18940D01*
X38434Y18439D01*
X38113Y18094D01*
X31052D01*
X30866Y18373D01*
X30271Y18770D01*
X29568Y18910D01*
X28866Y18770D01*
X28761Y18700D01*
X28320Y18936D01*
Y21478D01*
X30521Y23679D01*
X30742Y24010D01*
X30820Y24400D01*
Y36616D01*
X31098Y36802D01*
X31496Y37398D01*
X31635Y38100D01*
X31496Y38802D01*
X31098Y39398D01*
X30502Y39796D01*
X29800Y39935D01*
X29098Y39796D01*
X28502Y39398D01*
X28104Y38802D01*
X27965Y38100D01*
X28104Y37398D01*
X28502Y36802D01*
X28780Y36616D01*
Y24822D01*
X26579Y22621D01*
X26358Y22290D01*
X26280Y21900D01*
Y13922D01*
X24046Y11688D01*
X20307D01*
Y14300D01*
X17043D01*
Y14800D01*
X16543D01*
Y18654D01*
X15288D01*
X14757Y19185D01*
Y19315D01*
X15188Y19746D01*
X16443D01*
Y23100D01*
X13679D01*
Y21121D01*
X13315Y20757D01*
X12720D01*
Y27054D01*
X8488D01*
X7121Y28421D01*
X6790Y28642D01*
X6400Y28720D01*
X1500D01*
X1110Y28642D01*
X779Y28421D01*
X-2617Y25024D01*
X-5437D01*
Y22018D01*
X-8402Y19053D01*
X-8902Y19260D01*
Y24121D01*
X-8828Y24171D01*
X-8430Y24766D01*
X-8290Y25469D01*
X-8430Y26171D01*
X-8828Y26766D01*
X-9423Y27164D01*
X-10126Y27304D01*
X-10828Y27164D01*
X-10936Y27092D01*
X-11377Y27328D01*
Y30077D01*
X-10200D01*
X-9732Y30170D01*
X-9618Y30246D01*
X-8843D01*
Y33600D01*
X-11607D01*
Y33291D01*
X-12069Y33099D01*
X-13187Y34217D01*
Y35992D01*
X-15950D01*
Y32638D01*
X-15068D01*
X-13824Y31393D01*
Y25736D01*
X-15633Y23926D01*
X-16275Y23991D01*
X-16313Y24048D01*
X-16707Y24311D01*
X-17172Y24404D01*
X-17312D01*
Y27719D01*
X-17234Y27771D01*
X-16836Y28366D01*
X-16696Y29068D01*
X-16836Y29771D01*
X-17234Y30366D01*
X-17829Y30764D01*
X-18531Y30904D01*
X-19234Y30764D01*
X-19346Y30689D01*
X-19787Y30925D01*
Y32168D01*
X-19714Y32638D01*
X-16950D01*
Y35992D01*
X-19714D01*
Y34330D01*
X-19937Y34199D01*
X-20214Y34144D01*
X-20673Y34604D01*
Y39946D01*
X-22313D01*
Y41502D01*
X-20673D01*
Y48411D01*
X-23208D01*
Y51646D01*
X-21457D01*
Y55500D01*
X-20957D01*
Y56000D01*
X-17693D01*
Y59354D01*
X-17693D01*
Y59846D01*
X-17693D01*
Y61776D01*
X-17193Y62137D01*
X-17131Y62125D01*
Y64268D01*
Y66412D01*
X-17193Y66400D01*
X-17693Y66761D01*
Y67554D01*
X-17693Y67554D01*
X-17693D01*
X-17693Y67554D01*
X-17505Y67976D01*
X-16307D01*
X-11224Y62893D01*
D02*
G37*
G36*
X-13451Y81749D02*
X-13451Y81749D01*
X-13451Y81749D01*
X-11024D01*
Y75707D01*
X-16307Y70424D01*
X-23208D01*
Y70718D01*
X-23301Y71187D01*
X-23566Y71584D01*
X-25816Y73834D01*
X-26213Y74099D01*
X-26682Y74192D01*
X-41831D01*
X-42300Y74099D01*
X-42697Y73834D01*
X-47350Y69180D01*
X-47812Y69372D01*
Y72546D01*
X-40109Y80249D01*
X-15832D01*
X-15441Y80326D01*
X-15111Y80547D01*
X-14110Y81547D01*
X-13951Y81786D01*
X-13451Y81749D01*
D02*
G37*
G36*
X46576Y77657D02*
Y75851D01*
Y75345D01*
X44225D01*
X43835Y75267D01*
X43504Y75046D01*
X42912Y74454D01*
X40925D01*
Y74854D01*
X39046D01*
Y71295D01*
X38047D01*
Y74854D01*
X36169D01*
X36169Y74854D01*
X35669Y74790D01*
X35527Y75002D01*
X35289Y75240D01*
X35354Y75568D01*
X35214Y76271D01*
X34816Y76866D01*
X34489Y77085D01*
X34641Y77585D01*
X44265D01*
Y78549D01*
X45684D01*
X46576Y77657D01*
D02*
G37*
G36*
X-18622Y-57100D02*
X-15850D01*
Y-58100D01*
X-18622D01*
Y-60568D01*
X-17074D01*
Y-61116D01*
X-17159Y-61212D01*
X-17574Y-61462D01*
X-17875Y-61402D01*
X-24776D01*
Y-60602D01*
X-26300D01*
Y-62625D01*
X-27300D01*
Y-60602D01*
X-28824D01*
Y-60602D01*
X-28824D01*
X-28824Y-60602D01*
X-29285Y-60694D01*
X-39645D01*
X-40076Y-60300D01*
Y-55323D01*
X-30807D01*
X-28518Y-57613D01*
X-28535Y-57700D01*
X-28396Y-58402D01*
X-27998Y-58998D01*
X-27402Y-59396D01*
X-26700Y-59535D01*
X-25998Y-59396D01*
X-25402Y-58998D01*
X-25353Y-58924D01*
X-24521D01*
Y-60168D01*
X-19778D01*
Y-55269D01*
X-18622D01*
Y-57100D01*
D02*
G37*
G36*
X35952Y110608D02*
Y110608D01*
X42341Y108897D01*
X42374Y108888D01*
X42550Y108420D01*
X42404Y108202D01*
X42265Y107500D01*
X42404Y106798D01*
X42802Y106202D01*
X43196Y105940D01*
X43044Y105440D01*
X26061D01*
X25971Y105940D01*
X26466Y106271D01*
X26864Y106866D01*
X27004Y107569D01*
X26939Y107897D01*
X30002Y110960D01*
X35682D01*
X35952Y110608D01*
D02*
G37*
G36*
X51046Y-44216D02*
Y-48941D01*
X31754D01*
Y-44216D01*
X35495Y-40673D01*
X47306D01*
X51046Y-44216D01*
D02*
G37*
G36*
X5235Y-35496D02*
X7735D01*
Y-47504D01*
X5235D01*
Y-51933D01*
X4330D01*
Y-49079D01*
X3070D01*
Y-51933D01*
X2165D01*
Y-47504D01*
X-335D01*
Y-35496D01*
X2165D01*
Y-31067D01*
X3070D01*
Y-33921D01*
X4330D01*
Y-31067D01*
X5235D01*
Y-35496D01*
D02*
G37*
G36*
X-41831Y30179D02*
X-41500Y29958D01*
X-41110Y29880D01*
X-39861D01*
X-39634Y29381D01*
X-40004Y28827D01*
X-40075Y28468D01*
X-37931D01*
Y27968D01*
X-37431D01*
Y25825D01*
X-37073Y25896D01*
X-36852Y26044D01*
X-36411Y25808D01*
Y24885D01*
X-36414Y24860D01*
X-36830Y24404D01*
X-37497D01*
X-37546Y24413D01*
X-45284D01*
X-45334Y24488D01*
X-45908Y24871D01*
Y33603D01*
X-45446Y33794D01*
X-41831Y30179D01*
D02*
G37*
G36*
X20100Y-53644D02*
X20458Y-53572D01*
X21176Y-53093D01*
X21240Y-53105D01*
X21676Y-53253D01*
Y-53750D01*
X23609D01*
X23609Y-53750D01*
X23799Y-54172D01*
X23799Y-54250D01*
Y-58954D01*
X29802D01*
Y-57582D01*
X31105D01*
Y-58784D01*
X31108Y-58792D01*
X31105Y-58801D01*
X31203Y-59021D01*
X31295Y-59243D01*
X31304Y-59246D01*
X31308Y-59255D01*
X35048Y-62798D01*
X35135Y-62831D01*
X35042Y-63332D01*
X30979D01*
Y-66830D01*
X30264Y-67545D01*
X29802Y-67353D01*
Y-67046D01*
X23799D01*
Y-67980D01*
X22900D01*
Y-67400D01*
Y-65400D01*
X19700D01*
Y-65416D01*
X19551Y-65522D01*
X19200Y-65637D01*
X18702Y-65304D01*
X18000Y-65165D01*
X17298Y-65304D01*
X16702Y-65702D01*
X16304Y-66298D01*
X16165Y-67000D01*
X16304Y-67702D01*
X16702Y-68298D01*
X16980Y-68484D01*
Y-70178D01*
X11167Y-75991D01*
X10300Y-75877D01*
X9362Y-76000D01*
X8998Y-76151D01*
X8714Y-75727D01*
X11111Y-73331D01*
X11332Y-73000D01*
X11410Y-72610D01*
Y-62077D01*
X12211D01*
Y-61277D01*
X13688D01*
Y-62077D01*
X17329D01*
Y-61277D01*
X18806D01*
Y-62077D01*
X22447D01*
Y-58534D01*
Y-54893D01*
X18806D01*
Y-55694D01*
X17329D01*
Y-54893D01*
X13688D01*
Y-55694D01*
X12522D01*
X12316Y-55337D01*
X12494Y-54811D01*
X12657Y-54764D01*
X13002Y-54696D01*
X13598Y-54298D01*
X13784Y-54020D01*
X14040D01*
X14431Y-53942D01*
X14761Y-53721D01*
X15205Y-53277D01*
X17326D01*
Y-52956D01*
X17826Y-52805D01*
X18014Y-53086D01*
X18742Y-53572D01*
X19100Y-53644D01*
Y-51500D01*
X20100D01*
Y-53644D01*
D02*
G37*
G36*
X58632Y-51801D02*
X58632Y-51801D01*
X59914Y-52541D01*
X59979Y-53037D01*
X59481Y-53535D01*
X58286Y-52845D01*
X56209Y-56441D01*
X59465Y-58321D01*
X61355Y-55046D01*
X61518Y-54970D01*
X61982Y-54918D01*
X62168Y-55042D01*
X62558Y-55120D01*
X63722D01*
X63885Y-55321D01*
X63827Y-55910D01*
X63484Y-56254D01*
X62399Y-55627D01*
X60579Y-58780D01*
X63732Y-60601D01*
X63732Y-60601D01*
X64631Y-61120D01*
X64619Y-61690D01*
X64004Y-62305D01*
X62919Y-61679D01*
X61568Y-64020D01*
X61041Y-63933D01*
X60941Y-63430D01*
X60455Y-62702D01*
X59727Y-62216D01*
X59368Y-62145D01*
Y-64289D01*
Y-66817D01*
X59439Y-66906D01*
X58781Y-68047D01*
X60591Y-69092D01*
Y-71206D01*
X59172Y-72200D01*
X59401Y-72527D01*
X57149Y-74104D01*
X57443Y-74524D01*
X56303Y-75664D01*
X56098Y-75704D01*
X55502Y-76102D01*
X55104Y-76698D01*
X55020Y-77124D01*
X54520Y-77075D01*
Y-55966D01*
X54953Y-55716D01*
X55714Y-56155D01*
X57791Y-52559D01*
X57507Y-52395D01*
X57442Y-51900D01*
X57940Y-51402D01*
X58632Y-51801D01*
D02*
G37*
%LPC*%
G36*
X-8843Y37954D02*
X-11607D01*
Y34600D01*
X-8843D01*
Y37954D01*
D02*
G37*
G36*
X-38432Y27468D02*
X-40075D01*
X-40004Y27110D01*
X-39518Y26382D01*
X-38790Y25896D01*
X-38432Y25825D01*
Y27468D01*
D02*
G37*
G36*
X-5080Y33600D02*
X-7843D01*
Y30246D01*
X-5080D01*
Y33600D01*
D02*
G37*
G36*
Y37954D02*
X-7843D01*
Y34600D01*
X-5080D01*
Y37954D01*
D02*
G37*
G36*
X-34643Y48811D02*
X-37407D01*
Y45457D01*
X-34643D01*
Y48811D01*
D02*
G37*
G36*
X-17693Y55000D02*
X-20457D01*
Y51646D01*
X-19476D01*
X-17674Y49843D01*
Y48811D01*
X-19714D01*
Y45457D01*
X-13187D01*
Y48811D01*
X-15227D01*
Y50350D01*
X-15320Y50819D01*
X-15585Y51215D01*
X-17693Y53323D01*
Y55000D01*
D02*
G37*
G36*
X-16131Y66412D02*
Y64768D01*
X-14488D01*
X-14559Y65127D01*
X-15045Y65855D01*
X-15773Y66341D01*
X-16131Y66412D01*
D02*
G37*
G36*
X-14488Y63769D02*
X-16131D01*
Y62125D01*
X-15773Y62196D01*
X-15045Y62682D01*
X-14559Y63410D01*
X-14488Y63769D01*
D02*
G37*
G36*
X5872Y40321D02*
X2518D01*
Y37557D01*
X5872D01*
Y40321D01*
D02*
G37*
G36*
X-13187Y44457D02*
X-19714D01*
Y41102D01*
X-17674D01*
Y40346D01*
X-19714D01*
Y36992D01*
X-13187D01*
Y40346D01*
X-15227D01*
Y41102D01*
X-13187D01*
Y44457D01*
D02*
G37*
G36*
X5872Y44084D02*
X2518D01*
Y41320D01*
X5872D01*
Y44084D01*
D02*
G37*
G36*
X10227Y40321D02*
X6872D01*
Y37557D01*
X10227D01*
Y40321D01*
D02*
G37*
G36*
X-41533Y-28601D02*
X-43033D01*
Y-30351D01*
X-41533D01*
Y-28601D01*
D02*
G37*
G36*
X-37405Y-23844D02*
X-40606D01*
Y-27544D01*
X-40127D01*
Y-29001D01*
X-40606D01*
Y-32701D01*
X-37405D01*
Y-29001D01*
X-37884D01*
Y-27544D01*
X-37405D01*
Y-23844D01*
D02*
G37*
G36*
X13598Y-3724D02*
X10146D01*
Y-6496D01*
Y-9268D01*
X13598D01*
Y-7720D01*
X14987D01*
X15455Y-7626D01*
X15852Y-7361D01*
X16546Y-6668D01*
Y-4938D01*
X14815D01*
X14480Y-5273D01*
X13598D01*
Y-3724D01*
D02*
G37*
G36*
X34624Y-8501D02*
X33100D01*
Y-10025D01*
X34624D01*
Y-8501D01*
D02*
G37*
G36*
X27613Y-48206D02*
X25145D01*
Y-50478D01*
X27613D01*
Y-48206D01*
D02*
G37*
G36*
X-3881Y-58638D02*
Y-60281D01*
X-2237D01*
X-2308Y-59923D01*
X-2794Y-59195D01*
X-3522Y-58709D01*
X-3881Y-58638D01*
D02*
G37*
G36*
X-4880D02*
X-5239Y-58709D01*
X-5967Y-59195D01*
X-6453Y-59923D01*
X-6524Y-60281D01*
X-4880D01*
Y-58638D01*
D02*
G37*
G36*
X58368Y-64789D02*
X56725D01*
X56796Y-65147D01*
X57282Y-65875D01*
X58010Y-66361D01*
X58368Y-66432D01*
Y-64789D01*
D02*
G37*
G36*
Y-62145D02*
X58010Y-62216D01*
X57282Y-62702D01*
X56796Y-63430D01*
X56725Y-63788D01*
X58368D01*
Y-62145D01*
D02*
G37*
G36*
X9146Y-3724D02*
X5693D01*
Y-5996D01*
X9146D01*
Y-3724D01*
D02*
G37*
G36*
X20307Y18654D02*
X17543D01*
Y15300D01*
X20307D01*
Y18654D01*
D02*
G37*
G36*
X1400Y9544D02*
Y7900D01*
X3044D01*
X2972Y8258D01*
X2486Y8986D01*
X1758Y9472D01*
X1400Y9544D01*
D02*
G37*
G36*
X59400Y22844D02*
X59042Y22772D01*
X58314Y22286D01*
X57828Y21558D01*
X57756Y21200D01*
X59400D01*
Y22844D01*
D02*
G37*
G36*
Y20200D02*
X57756D01*
X57828Y19842D01*
X58314Y19114D01*
X59042Y18628D01*
X59400Y18556D01*
Y20200D01*
D02*
G37*
G36*
X400Y9544D02*
X42Y9472D01*
X-686Y8986D01*
X-1172Y8258D01*
X-1244Y7900D01*
X400D01*
Y9544D01*
D02*
G37*
G36*
X-42500Y1600D02*
X-44000D01*
Y-150D01*
X-42500D01*
Y1600D01*
D02*
G37*
G36*
X-45000D02*
X-46500D01*
Y-150D01*
X-45000D01*
Y1600D01*
D02*
G37*
G36*
X3044Y6900D02*
X1400D01*
Y5256D01*
X1758Y5328D01*
X2486Y5814D01*
X2972Y6542D01*
X3044Y6900D01*
D02*
G37*
G36*
X400D02*
X-1244D01*
X-1172Y6542D01*
X-686Y5814D01*
X42Y5328D01*
X400Y5256D01*
Y6900D01*
D02*
G37*
%LPD*%
D10*
X23630Y-36192D02*
D03*
X19497D02*
D03*
X23630Y-39735D02*
D03*
X19497D02*
D03*
X-16608Y-40295D02*
D03*
X-12473D02*
D03*
X-16613Y-36362D02*
D03*
X-12479D02*
D03*
X-16613Y-32228D02*
D03*
X-12479D02*
D03*
D11*
X19545Y-44262D02*
D03*
Y-48395D02*
D03*
X15545Y-51496D02*
D03*
Y-47362D02*
D03*
X-9055Y-46461D02*
D03*
Y-50595D02*
D03*
D12*
X26800Y-56563D02*
D03*
Y-69437D02*
D03*
D13*
X20627Y-60257D02*
D03*
Y-56714D02*
D03*
X15508Y-60257D02*
D03*
Y-56714D02*
D03*
X10390Y-60257D02*
D03*
Y-56714D02*
D03*
D14*
X4882Y-56760D02*
D03*
X1338D02*
D03*
Y-62075D02*
D03*
X4882D02*
D03*
D15*
X-4380Y-68750D02*
D03*
Y-64813D02*
D03*
X51800Y-29831D02*
D03*
Y-33768D02*
D03*
X10400Y51131D02*
D03*
Y55068D02*
D03*
Y62868D02*
D03*
Y58931D02*
D03*
D16*
X-4380Y-72210D02*
D03*
Y-75753D02*
D03*
X95100Y4372D02*
D03*
Y828D02*
D03*
Y10972D02*
D03*
Y7428D02*
D03*
X35700Y-73328D02*
D03*
Y-76872D02*
D03*
X32200D02*
D03*
Y-73328D02*
D03*
D17*
X-26800Y-62625D02*
D03*
Y-65775D02*
D03*
X32600Y-13675D02*
D03*
Y-10525D02*
D03*
X57300Y71175D02*
D03*
Y68025D02*
D03*
X48200Y77475D02*
D03*
Y74325D02*
D03*
D18*
X-35000Y-62869D02*
D03*
Y-71531D02*
D03*
D19*
X-53864Y-78613D02*
D03*
X-51136Y-80187D02*
D03*
D20*
X-69900Y-52157D02*
D03*
Y-59243D02*
D03*
X-45800Y-57543D02*
D03*
Y-50457D02*
D03*
X6372Y40821D02*
D03*
Y33734D02*
D03*
D21*
X20195Y-4437D02*
D03*
X17046D02*
D03*
X26895D02*
D03*
X23746D02*
D03*
X63797Y39778D02*
D03*
X60647D02*
D03*
X60675Y-8800D02*
D03*
X57525D02*
D03*
X35575Y-83500D02*
D03*
X32425D02*
D03*
D22*
X31769Y-20400D02*
D03*
X27832D02*
D03*
X34969Y-30000D02*
D03*
X31032D02*
D03*
X20032Y-20400D02*
D03*
X23969D02*
D03*
D23*
X38933Y-30064D02*
D03*
X47594Y-26324D02*
D03*
Y-33804D02*
D03*
D24*
X15781Y53058D02*
D03*
X23261D02*
D03*
X19522Y60538D02*
D03*
D25*
X6672Y63000D02*
D03*
X3128D02*
D03*
X32228Y-80100D02*
D03*
X35772D02*
D03*
D26*
X65372Y44699D02*
D03*
X59073D02*
D03*
X-16030Y-81982D02*
D03*
X-9731D02*
D03*
X33350Y-65900D02*
D03*
X39650D02*
D03*
X-23050Y-9100D02*
D03*
X-29350D02*
D03*
X21171Y563D02*
D03*
X27470D02*
D03*
X40450Y-72200D02*
D03*
X46750D02*
D03*
X-15850Y-57600D02*
D03*
X-22150D02*
D03*
X19950Y33300D02*
D03*
X13650D02*
D03*
X20050Y39500D02*
D03*
X13750D02*
D03*
D27*
X92541Y22611D02*
D03*
X93458Y19189D02*
D03*
D28*
X91409Y26099D02*
D03*
X90390Y29901D02*
D03*
D29*
X82584Y46595D02*
D03*
X80616Y50005D02*
D03*
D30*
X65958Y69526D02*
D03*
X68186Y67299D02*
D03*
D31*
X52600Y67950D02*
D03*
Y74250D02*
D03*
X24645Y-44679D02*
D03*
Y-50978D02*
D03*
X-13855Y-51478D02*
D03*
Y-45179D02*
D03*
X-20155D02*
D03*
Y-51478D02*
D03*
D32*
X34806Y71295D02*
D03*
X38546D02*
D03*
X42287D02*
D03*
Y80744D02*
D03*
X38546D02*
D03*
X34806D02*
D03*
D33*
X-66080Y69192D02*
D03*
X-68308Y66965D02*
D03*
D34*
X61313Y-33564D02*
D03*
X62888Y-30836D02*
D03*
X83213Y-46464D02*
D03*
X84787Y-43736D02*
D03*
D35*
X61990Y-72697D02*
D03*
X59410Y-74503D02*
D03*
D36*
X61814Y-67234D02*
D03*
X63586Y-64166D02*
D03*
D37*
X61034Y-51086D02*
D03*
X57966Y-49314D02*
D03*
X66134Y-59886D02*
D03*
X63066Y-58114D02*
D03*
D38*
X61900Y-43200D02*
D03*
D39*
X66230Y-45700D02*
D03*
X70560Y-48200D02*
D03*
X74890Y-50700D02*
D03*
X71428Y-26698D02*
D03*
X75758Y-29198D02*
D03*
X80088Y-31698D02*
D03*
X84418Y-34198D02*
D03*
D40*
X21300Y-67000D02*
D03*
Y-69000D02*
D03*
X-50000Y-73100D02*
D03*
Y-71100D02*
D03*
D41*
X-52976Y-59340D02*
D03*
Y-55600D02*
D03*
Y-51860D02*
D03*
X-62424D02*
D03*
Y-59340D02*
D03*
D42*
X35300Y87900D02*
D03*
X38100D02*
D03*
X32500D02*
D03*
D43*
X22268Y-9085D02*
D03*
X24236D02*
D03*
X26205D02*
D03*
X28173D02*
D03*
Y-14990D02*
D03*
X26205D02*
D03*
X24236D02*
D03*
X22268D02*
D03*
D44*
X28173Y-11053D02*
D03*
Y-13022D02*
D03*
X22268D02*
D03*
Y-11053D02*
D03*
D45*
X54124Y44700D02*
D03*
X49400D02*
D03*
X44676D02*
D03*
D46*
X43600Y-80000D02*
D03*
D47*
X47734Y-77441D02*
D03*
Y-80000D02*
D03*
Y-82559D02*
D03*
X39466D02*
D03*
Y-80000D02*
D03*
Y-77441D02*
D03*
D48*
X-9617Y-25519D02*
D03*
X-5286D02*
D03*
X-9617Y-20400D02*
D03*
X-5286D02*
D03*
D49*
X4950Y-20203D02*
D03*
Y-24534D02*
D03*
X-365Y-20203D02*
D03*
Y-24534D02*
D03*
D50*
X55125Y-53417D02*
D03*
X58875Y-55583D02*
D03*
X65325Y-53517D02*
D03*
X69075Y-55683D02*
D03*
D51*
X70717Y-62575D02*
D03*
X72883Y-58825D02*
D03*
D52*
X-16600Y-9240D02*
D03*
Y-1760D02*
D03*
D53*
X-10273Y-65745D02*
D03*
Y-67713D02*
D03*
Y-69682D02*
D03*
Y-71650D02*
D03*
Y-73619D02*
D03*
X-21888D02*
D03*
Y-71650D02*
D03*
Y-69682D02*
D03*
Y-67713D02*
D03*
Y-65745D02*
D03*
X-3091Y-48390D02*
D03*
Y-46421D02*
D03*
Y-44453D02*
D03*
Y-42484D02*
D03*
Y-40516D02*
D03*
Y-38547D02*
D03*
Y-36579D02*
D03*
Y-34610D02*
D03*
X10491D02*
D03*
Y-36579D02*
D03*
Y-38547D02*
D03*
Y-40516D02*
D03*
Y-42484D02*
D03*
Y-44453D02*
D03*
Y-46421D02*
D03*
Y-48390D02*
D03*
D54*
X-16081Y-69682D02*
D03*
D55*
X3700Y-41500D02*
D03*
D56*
X6653Y-50260D02*
D03*
X747D02*
D03*
Y-32740D02*
D03*
X6653D02*
D03*
D57*
X-45489Y-36123D02*
D03*
D58*
X9957Y14800D02*
D03*
X17043D02*
D03*
X-8343Y34100D02*
D03*
X-1257D02*
D03*
X9857Y23600D02*
D03*
X16943D02*
D03*
X-23537Y44957D02*
D03*
X-16450D02*
D03*
X-37907Y44957D02*
D03*
X-30820D02*
D03*
Y36492D02*
D03*
X-37907D02*
D03*
X-20957Y55500D02*
D03*
X-28043D02*
D03*
X-23537Y36492D02*
D03*
X-16450D02*
D03*
X-20957Y63700D02*
D03*
X-28043D02*
D03*
X-1257Y42600D02*
D03*
X-8343D02*
D03*
D59*
X-43533Y-35851D02*
D03*
Y-30851D02*
D03*
X-39006Y-35851D02*
D03*
Y-30851D02*
D03*
X-48061Y-35851D02*
D03*
Y-30851D02*
D03*
X-44500Y2100D02*
D03*
Y-2900D02*
D03*
Y-7100D02*
D03*
Y-12100D02*
D03*
X-39006Y-20694D02*
D03*
Y-25694D02*
D03*
D60*
X-44320Y-15969D02*
D03*
X-39320D02*
D03*
D61*
X70124Y32232D02*
D03*
X66974D02*
D03*
X63824D02*
D03*
X60675D02*
D03*
X57525D02*
D03*
X54376D02*
D03*
X51226D02*
D03*
X48076D02*
D03*
Y-1232D02*
D03*
X51226D02*
D03*
X54376D02*
D03*
X57525D02*
D03*
X60675D02*
D03*
X63824D02*
D03*
X66974D02*
D03*
X70124D02*
D03*
D62*
X42368Y26524D02*
D03*
Y23374D02*
D03*
Y20224D02*
D03*
Y17075D02*
D03*
Y13925D02*
D03*
Y10776D02*
D03*
Y7626D02*
D03*
Y4476D02*
D03*
X75832D02*
D03*
Y7626D02*
D03*
Y10776D02*
D03*
Y13925D02*
D03*
Y17075D02*
D03*
Y20224D02*
D03*
Y23374D02*
D03*
Y26524D02*
D03*
D63*
X1561Y22653D02*
D03*
Y16747D02*
D03*
X-3361Y22653D02*
D03*
Y16747D02*
D03*
D64*
X-27900Y16300D02*
D03*
D65*
X-21010Y25946D02*
D03*
X-22979D02*
D03*
X-24947D02*
D03*
X-26916D02*
D03*
X-28884D02*
D03*
X-30853D02*
D03*
X-32821D02*
D03*
X-34790D02*
D03*
Y6654D02*
D03*
X-32821D02*
D03*
X-30853D02*
D03*
X-28884D02*
D03*
X-26916D02*
D03*
X-24947D02*
D03*
X-22979D02*
D03*
X-21010D02*
D03*
D66*
X-37546Y23190D02*
D03*
Y21221D02*
D03*
Y19253D02*
D03*
Y17284D02*
D03*
Y15316D02*
D03*
Y13347D02*
D03*
Y11379D02*
D03*
Y9410D02*
D03*
X-18254D02*
D03*
Y11379D02*
D03*
Y13347D02*
D03*
Y15316D02*
D03*
Y17284D02*
D03*
Y19253D02*
D03*
Y21221D02*
D03*
Y23190D02*
D03*
D67*
X41400Y-58193D02*
D03*
Y-44807D02*
D03*
D68*
X9646Y-6496D02*
D03*
Y6496D02*
D03*
X-9646D02*
D03*
Y-6496D02*
D03*
X-9646Y105504D02*
D03*
Y118496D02*
D03*
X9646D02*
D03*
Y105504D02*
D03*
X9645Y-105502D02*
D03*
X9647Y-118494D02*
D03*
X-9645Y-118498D02*
D03*
X-9647Y-105506D02*
D03*
D69*
X36637Y99430D02*
D03*
X39998Y111980D02*
D03*
X21363Y116970D02*
D03*
X18002Y104420D02*
D03*
X-36627Y-99416D02*
D03*
X-39985Y-111967D02*
D03*
X-21348Y-116952D02*
D03*
X-17991Y-104401D02*
D03*
D70*
X44399Y96193D02*
D03*
X50891Y107447D02*
D03*
X67601Y97807D02*
D03*
X61109Y86553D02*
D03*
X-44399Y-96189D02*
D03*
X-50892Y-107442D02*
D03*
X-67601Y-97800D02*
D03*
X-61108Y-86547D02*
D03*
D71*
X81429Y67787D02*
D03*
X90614Y76975D02*
D03*
X76971Y90614D02*
D03*
X67786Y81425D02*
D03*
X-81423Y-67782D02*
D03*
X-90610Y-76969D02*
D03*
X-76969Y-90610D02*
D03*
X-67782Y-81423D02*
D03*
D72*
X86549Y61101D02*
D03*
X97798Y67602D02*
D03*
X107451Y50899D02*
D03*
X96202Y44398D02*
D03*
X-86545Y-61103D02*
D03*
X-97795Y-67602D02*
D03*
X-107445Y-50897D02*
D03*
X-96195Y-44398D02*
D03*
D73*
X104424Y18001D02*
D03*
X116973Y21366D02*
D03*
X111976Y39999D02*
D03*
X99427Y36634D02*
D03*
X-104406Y-17989D02*
D03*
X-116955Y-21353D02*
D03*
X-111961Y-39986D02*
D03*
X-99412Y-36623D02*
D03*
D74*
X105504Y9645D02*
D03*
X118496Y9646D02*
D03*
X118496Y-9646D02*
D03*
X105504Y-9646D02*
D03*
X-105501Y-9644D02*
D03*
X-118493Y-9648D02*
D03*
X-118499Y9644D02*
D03*
X-105507Y9648D02*
D03*
D75*
X99431Y-36626D02*
D03*
X111981Y-39985D02*
D03*
X116969Y-21350D02*
D03*
X104419Y-17990D02*
D03*
X-99413Y36637D02*
D03*
X-111963Y39998D02*
D03*
X-116954Y21363D02*
D03*
X-104404Y18002D02*
D03*
D76*
X96196Y-44399D02*
D03*
X107448Y-50894D02*
D03*
X97804Y-67601D02*
D03*
X86552Y-61106D02*
D03*
X-96188Y44399D02*
D03*
X-107442Y50891D02*
D03*
X-97802Y67601D02*
D03*
X-86548Y61109D02*
D03*
D77*
X67787Y-81427D02*
D03*
X76977Y-90611D02*
D03*
X90613Y-76965D02*
D03*
X81423Y-67781D02*
D03*
X-67782Y81429D02*
D03*
X-76971Y90614D02*
D03*
X-90610Y76971D02*
D03*
X-81421Y67786D02*
D03*
D78*
X61104Y-86546D02*
D03*
X67602Y-97796D02*
D03*
X50896Y-107444D02*
D03*
X44398Y-96193D02*
D03*
X-61101Y86549D02*
D03*
X-67602Y97798D02*
D03*
X-50899Y107451D02*
D03*
X-44398Y96202D02*
D03*
D79*
X18000Y-104410D02*
D03*
X21368Y-116958D02*
D03*
X40000Y-111958D02*
D03*
X36632Y-99410D02*
D03*
X-17989Y104424D02*
D03*
X-21354Y116973D02*
D03*
X-39987Y111976D02*
D03*
X-36622Y99427D02*
D03*
D80*
X-36410Y52613D02*
D03*
Y69148D02*
D03*
D81*
X57500Y3869D02*
X60575D01*
X54476D02*
X57500D01*
Y6000D01*
X-57700Y-57500D02*
Y-55600D01*
X-41631Y40569D02*
X-37907Y44293D01*
Y44957D01*
X31119Y68218D02*
X48209Y51128D01*
X63712D01*
X-22979Y6654D02*
Y16103D01*
X-18254Y17284D02*
X-11767D01*
X-10126Y18926D01*
Y25469D01*
X-1257Y34100D02*
Y42600D01*
X-18254Y11379D02*
X-4942D01*
X-4901Y11338D01*
Y11201D02*
Y11338D01*
X15918Y29269D02*
X19950Y33300D01*
X6966Y33734D02*
X11432Y29269D01*
X-891Y33734D02*
X6373D01*
X-21010Y-7060D02*
Y6654D01*
X-23050Y-9100D02*
X-21010Y-7060D01*
X-23050Y-15650D02*
Y-9100D01*
X68186Y67299D02*
X71338D01*
X71368Y67269D01*
X3331Y58931D02*
X10400D01*
X100Y55700D02*
X3331Y58931D01*
X-16904Y6496D02*
X-9646D01*
X-71843Y70500D02*
X-68308Y66965D01*
X-50900Y-77100D02*
X-50000Y-76200D01*
Y-75900D02*
Y-73100D01*
X-51136Y-80187D02*
X-50900Y-79951D01*
Y-77100D01*
X-51136Y-90131D02*
Y-80187D01*
X26169Y-69437D02*
Y-69000D01*
X26363D01*
X26169Y-69437D02*
X26800D01*
X-11432Y-75753D02*
Y-73619D01*
Y-81982D02*
Y-75753D01*
Y-84281D02*
Y-81982D01*
X-35000Y-81863D02*
X-31137Y-85726D01*
X-11432Y-73619D02*
X-10273D01*
X-11432Y-75753D02*
X-4380D01*
X-11432Y-81982D02*
X-9731D01*
X84069Y828D02*
X95100D01*
X41400Y-44807D02*
X41551D01*
X-7931Y-63432D02*
X-7332Y-64031D01*
Y-69582D02*
Y-64031D01*
X-7431Y-69682D02*
X-7332Y-69582D01*
X-10273Y-69682D02*
X-7431D01*
X14868Y-44453D02*
X15060Y-44262D01*
X10492Y-44453D02*
X14868D01*
X-35000Y-81863D02*
Y-71531D01*
X-19282Y-85632D02*
X-12781D01*
X-11432Y-84281D01*
X47734Y-80000D02*
Y-77441D01*
X15060Y-44262D02*
X19545D01*
X21869D01*
X22286Y-44679D01*
X24645D01*
X41272D01*
X-21888Y-83025D02*
X-19282Y-85632D01*
X-21888Y-83025D02*
Y-73619D01*
X-29281D02*
X-21888D01*
X-31369Y-71531D02*
X-29281Y-73619D01*
X46750Y-75050D02*
Y-72200D01*
Y-75050D02*
X47734Y-76034D01*
Y-77441D02*
Y-76034D01*
X46750Y-72200D02*
Y-71603D01*
X46247Y-71100D02*
X46750Y-71603D01*
X46247Y-71100D02*
Y-66853D01*
X48044Y-51300D02*
Y-46344D01*
X-14112Y-67713D02*
X-10273D01*
X-17875Y-62625D02*
X-16350Y-64150D01*
X-26800Y-62625D02*
X-17875D01*
X-15850Y-64957D02*
Y-57600D01*
X-18049Y-66729D02*
X-16513D01*
Y-62800D01*
Y-69249D02*
Y-66729D01*
X-21888Y-71650D02*
X-16081D01*
X-16030Y-81982D02*
Y-69732D01*
X-15100Y-68701D02*
X-14112Y-67713D01*
X-15850Y-57600D02*
X-15100Y-58350D01*
X36516Y-82559D02*
X42616D01*
X43284Y-78109D02*
Y-75034D01*
X40451Y-72200D02*
X43284Y-75034D01*
X35575Y-83500D02*
X36516Y-82559D01*
X39322Y-73328D02*
X40451Y-72200D01*
X35700Y-73328D02*
X39322D01*
X39650Y-65900D02*
X40451Y-66701D01*
X61313Y-33564D02*
X70064D01*
X66613Y69947D02*
X72084D01*
X80416Y68800D02*
X81429Y67787D01*
X73231Y68800D02*
X80416D01*
X72084Y69947D02*
X73231Y68800D01*
X-34790Y6654D02*
X-34672Y6772D01*
Y9528D01*
X-34790Y25946D02*
X-34672Y25828D01*
Y23073D02*
Y25828D01*
X747Y-50260D02*
X2440D01*
X4840D02*
X6653D01*
X8622Y-34610D02*
X10492D01*
X5669Y-37563D02*
X8622Y-34610D01*
X65372Y41353D02*
Y44699D01*
X63797Y39778D02*
X65372Y41353D01*
X57525Y27175D02*
Y32232D01*
Y27175D02*
X58400Y26300D01*
X60675Y-1232D02*
X63824D01*
X-16450Y35850D02*
Y50350D01*
X-32821Y6654D02*
Y11379D01*
X43600Y-82100D02*
Y-78425D01*
X65372Y44699D02*
Y49468D01*
X26895Y-2231D02*
Y2542D01*
Y-4437D02*
Y-2231D01*
X-20957Y64268D02*
X-16632D01*
X-67782Y78918D02*
Y81429D01*
Y70894D02*
Y78918D01*
X-31964Y11576D02*
X-27900D01*
X-32821Y10718D02*
X-31964Y11576D01*
X-32821Y11379D02*
X-32625Y11576D01*
X-33772Y10428D02*
X-32821Y11379D01*
X57300Y71175D02*
X64310D01*
X65958Y69526D01*
X91969Y12222D02*
Y15768D01*
Y12222D02*
X93218Y10972D01*
X95100D01*
X58868Y-64289D02*
X61814Y-67234D01*
X-67782Y70894D02*
X-66080Y69192D01*
X-19129Y103283D02*
X-17989Y104424D01*
X-4380Y-64813D02*
Y-60782D01*
X63712Y51128D02*
X65372Y49468D01*
X17046Y-4437D02*
Y3218D01*
X18896Y5068D01*
X24369D01*
X26895Y2542D01*
X30597Y-10525D02*
X32600D01*
X30068Y-11053D02*
X30597Y-10525D01*
X26327Y-11053D02*
X30068D01*
X-37931Y27968D02*
X-37832Y27869D01*
X-34890D01*
X-34790Y27768D01*
Y25946D02*
Y27768D01*
X-20155Y-51478D02*
X-9938D01*
X-9055Y-50595D01*
X-20957Y55500D02*
Y64268D01*
X8304Y-6496D02*
X14987D01*
X17046Y-4437D01*
X-67846Y81429D02*
X-67782D01*
X-27900Y21024D02*
X-27703Y21221D01*
X61814Y-72573D02*
Y-67234D01*
X-32821Y6654D02*
Y10718D01*
X-23176Y16300D02*
X-22979Y16103D01*
X-20223Y19253D02*
X-18254D01*
X-23176Y16300D02*
X-20223Y19253D01*
X60675Y-1232D02*
Y3768D01*
X60575Y3869D02*
X60675Y3768D01*
X54376D02*
X54476Y3869D01*
X54376Y-1232D02*
Y3768D01*
X-27900Y16300D02*
Y21024D01*
X-34672Y9528D02*
X-33913D01*
X-33772Y9668D01*
Y10428D01*
X26205Y-10932D02*
X26327Y-11053D01*
X-67782Y78918D02*
X-67733Y78869D01*
X-14545Y-73067D02*
X-14112Y-72635D01*
X63824Y-1232D02*
Y32232D01*
X40451Y-72200D02*
Y-66701D01*
X-37907Y36492D02*
Y44293D01*
X27470Y-1657D02*
Y563D01*
X26895Y-2231D02*
X27470Y-1657D01*
X26895Y-6441D02*
Y-4437D01*
X26205Y-7131D02*
X26895Y-6441D01*
X26205Y-10932D02*
Y-7131D01*
X49400Y44700D02*
Y51028D01*
X-69900Y-52157D02*
X-69043D01*
X-65600Y-55600D01*
X4950Y-20203D02*
Y-9850D01*
X8304Y-6496D01*
X4950Y-20203D02*
X5804D01*
X19545Y-48395D02*
X22496D01*
X25600Y-51500D01*
X19600D02*
X25600D01*
X-18254Y21221D02*
X-18076Y21399D01*
X-16430D01*
X-12600Y25229D01*
Y31900D01*
X-27703Y21221D02*
X-18254D01*
X-16450Y35750D02*
X-12000Y31300D01*
X-10200D01*
X-9600Y31900D01*
X-20957Y54857D02*
X-16450Y50350D01*
X6373Y40821D02*
X7120D01*
X12600Y46300D01*
X20400D01*
X24700Y42000D01*
X-8343Y33343D02*
Y34100D01*
X81968Y-56832D02*
Y-50331D01*
X83213Y-49088D01*
Y-46464D01*
X74890Y-50700D02*
X75700Y-49890D01*
Y-39200D01*
X70064Y-33564D02*
X75700Y-39200D01*
X58400Y26300D02*
X63797D01*
Y39778D01*
X-44500Y2100D02*
X-42700Y3900D01*
X-29349Y-16750D02*
Y-9100D01*
Y-16750D02*
X-25900Y-20200D01*
X-20900D01*
X-16600Y-15900D01*
Y-9240D01*
Y-15900D02*
X-12100Y-20400D01*
X-9617D01*
X-29349Y-9100D02*
X-22979Y-2729D01*
Y6654D01*
X-42700Y3900D02*
X-39826D01*
X60675Y-8800D02*
Y-1232D01*
Y-24825D02*
Y-8800D01*
X5804Y-20203D02*
X12731Y-27132D01*
X59176Y-26324D02*
X60675Y-24825D01*
X12731Y-27132D02*
X26568D01*
X27376Y-26324D01*
X59176D01*
X34618Y64719D02*
X37800Y67900D01*
Y70549D01*
X38546Y71295D01*
X-39826Y3900D02*
X-37400Y6326D01*
Y6626D01*
X-37372Y6654D01*
X-34790D01*
X-23332Y-56631D02*
X-22150D01*
X-22949Y-56800D02*
X-22150Y-57600D01*
X-26700Y-57700D02*
X-22250D01*
X-11631Y-65745D02*
Y-58281D01*
Y-65745D02*
X-10273D01*
X-23613Y-67713D02*
X-21888D01*
X-24399Y-68499D02*
X-23613Y-67713D01*
X-25999Y-68499D02*
X-24399D01*
X-26131Y-68632D02*
X-25999Y-68499D01*
X-22150Y-57600D02*
Y-56631D01*
X-44200Y-63200D02*
X-41300Y-60300D01*
X-44643Y-50457D02*
X-41300Y-53800D01*
X-30300Y-54100D02*
X-26700Y-57700D01*
X-52975Y-51860D02*
X-47203D01*
X-41000Y-54100D02*
X-30300D01*
X-41300Y-60300D02*
Y-53800D01*
X-52975Y-59524D02*
Y-59340D01*
Y-59524D02*
X-50000Y-62500D01*
X-49600Y-63200D02*
X-44200D01*
X-50000Y-71100D02*
Y-62500D01*
X73258Y-26698D02*
X75758Y-29198D01*
X71428Y-26698D02*
X73258D01*
X93649Y19189D02*
X99900Y12937D01*
Y-4100D02*
Y12937D01*
X76800Y-27200D02*
X99900Y-4100D01*
X76800Y-28155D02*
Y-27200D01*
X75758Y-29198D02*
X76800Y-28155D01*
X-23537Y36492D02*
Y44957D01*
X66992Y-26732D02*
X71428D01*
X80616Y50005D02*
X84148D01*
X80616D02*
Y62157D01*
X93458Y19189D02*
X93649D01*
X71428Y-26732D02*
Y-26698D01*
X62888Y-30836D02*
X66992Y-26732D01*
X60675Y32232D02*
Y39750D01*
X60647Y39778D02*
X60675Y39750D01*
X-73931Y-59243D02*
X-69900D01*
X-74032Y-59143D02*
X-73931Y-59243D01*
X-74032Y-59143D02*
Y-48731D01*
X-73931Y-48632D01*
X-64031D01*
X-63932Y-48731D01*
X-26682Y72969D02*
X-24431Y70718D01*
X-41831Y72969D02*
X-26682D01*
X-47131Y67668D02*
X-41831Y72969D01*
X-47131Y23690D02*
Y67668D01*
X-46632Y23190D02*
X-37546D01*
X27832Y-22295D02*
Y-20400D01*
Y-22295D02*
X29469Y-23932D01*
X38826D01*
X51226Y-11531D01*
X55605Y39778D02*
X60647D01*
X54376Y38548D02*
X55605Y39778D01*
X54376Y17018D02*
Y38548D01*
X13900Y80800D02*
X18169Y85069D01*
X27268D01*
X29168Y86968D01*
X21171Y-1456D02*
Y563D01*
X20195Y-2431D02*
X21171Y-1456D01*
X20195Y-4437D02*
Y-2431D01*
X-66135Y-59340D02*
X-62424D01*
X-66232Y-59243D02*
X-66135Y-59340D01*
X-69900Y-59243D02*
X-66232D01*
X14079Y53058D02*
X15781D01*
X12069Y55068D02*
X14079Y53058D01*
X10400Y55068D02*
X12069D01*
X22268Y-9085D02*
X24236D01*
X51226Y13869D02*
X54376Y17018D01*
X51226Y-11531D02*
Y13869D01*
X23746Y-6541D02*
Y-4437D01*
Y-6541D02*
X24236Y-7032D01*
Y-9085D02*
Y-7032D01*
X20195Y-4437D02*
X23746D01*
X23969Y-20400D02*
X27832D01*
X24236Y-14990D02*
Y-9085D01*
Y-17564D02*
Y-14990D01*
X23969Y-17831D02*
X24236Y-17564D01*
X23969Y-20400D02*
Y-17831D01*
X24236Y-14990D02*
X26205D01*
X8468Y55068D02*
X10400D01*
X745Y47345D02*
X8468Y55068D01*
X-47131Y23690D02*
X-46632Y23190D01*
X85300Y19189D02*
X93458D01*
X60000Y46268D02*
Y46300D01*
X61668Y47969D01*
X59073Y44699D02*
X60647Y43124D01*
Y39778D02*
Y43124D01*
X-24431Y69200D02*
Y70718D01*
Y45851D02*
Y69200D01*
X-21010Y25946D02*
Y33210D01*
X-23537Y35737D02*
X-21010Y33210D01*
X-8343Y43157D02*
X-4155Y47345D01*
X745D01*
X-24431Y69200D02*
X-15800D01*
X-10000Y44257D02*
X-8343Y42600D01*
X-10000Y44257D02*
Y63400D01*
X-15800Y69200D02*
X-10000Y63400D01*
X-9800Y75200D02*
Y85400D01*
X-15800Y69200D02*
X-9800Y75200D01*
X-34672Y23073D02*
X-30268Y18668D01*
X-45800Y-57543D02*
Y-56861D01*
X-51861Y-55600D02*
X-50600Y-56861D01*
X-45800D01*
X38100Y81190D02*
Y87900D01*
X31119Y68218D02*
Y85418D01*
X32500Y86800D01*
X29168Y86968D02*
Y90569D01*
X30400Y91800D01*
X37100D01*
X38100Y90800D01*
Y87900D02*
Y90800D01*
X-3361Y16747D02*
Y17239D01*
X1561Y22161D01*
X13468Y29269D02*
X15918D01*
X11432D02*
X13468D01*
X24700Y26600D02*
Y42000D01*
X21700Y23600D02*
X24700Y26600D01*
X16943Y23600D02*
X21700D01*
X-48061Y-30851D02*
X-43533D01*
X-65600Y-55600D02*
X-57700D01*
X-52975D01*
D82*
X22000Y-82500D02*
Y-79100D01*
Y-82500D02*
X27000Y-87500D01*
X-96188Y44399D02*
Y61312D01*
X-77800Y79700D01*
Y89785D01*
X10492Y-38547D02*
X13169D01*
X18684Y-33031D01*
X70124Y-11332D02*
Y-1232D01*
X18684Y-33031D02*
X28468D01*
X-19104Y8561D02*
X-18254Y9410D01*
X-19104Y744D02*
Y8561D01*
Y744D02*
X-16600Y-1760D01*
X-18331Y23190D02*
Y28868D01*
Y23190D02*
X-18254D01*
X-18531Y29068D02*
X-18331Y28868D01*
X17569Y41981D02*
Y43169D01*
Y41981D02*
X20050Y39500D01*
X13750Y33400D02*
Y39500D01*
X-28443Y64100D02*
X-28043Y63700D01*
X-45500Y35290D02*
X-41110Y30900D01*
X-31765D01*
X-28884Y28019D01*
Y25946D02*
Y28019D01*
X-36410Y69148D02*
X-34448D01*
X-31800Y66500D01*
X-30000D01*
X-28443Y64943D01*
Y64100D02*
Y64943D01*
X-45500Y35290D02*
Y61900D01*
X-39500Y67900D01*
X-37658D01*
X-36410Y69148D01*
X-43900Y47700D02*
X-39388Y52213D01*
X-36810D01*
X-36410Y52613D01*
X-43900Y35953D02*
Y47700D01*
Y35953D02*
X-40447Y32500D01*
X-31103D02*
X-26916Y28313D01*
Y25946D02*
Y28313D01*
X-40447Y32500D02*
X-31103D01*
X-36410Y52613D02*
X-34223Y54800D01*
X-28743D01*
X-28043Y55500D01*
X-24947Y25946D02*
Y28325D01*
X-30820Y34198D02*
X-24947Y28325D01*
X-30820Y34198D02*
Y36492D01*
X-22979Y25946D02*
Y28336D01*
X-26831Y32189D02*
X-22979Y28336D01*
X-26831Y32189D02*
Y40268D01*
X-26932Y40369D02*
X-26831Y40268D01*
X-29281Y40369D02*
X-26932D01*
X-30820Y41907D02*
X-29281Y40369D01*
X-30820Y41907D02*
Y44957D01*
X32200Y-73328D02*
X33351Y-72178D01*
Y-65900D01*
X26800Y-69437D02*
X29814D01*
X33351Y-65900D01*
X21300Y-69000D02*
X26363D01*
X75832Y23374D02*
X81368D01*
X53500Y-55042D02*
X55125Y-53417D01*
X53500Y-84037D02*
Y-55042D01*
X64681Y-48419D02*
X66230Y-46870D01*
Y-45700D01*
X57966Y-49314D02*
X58886D01*
X59781Y-48419D01*
X64681D01*
X57656Y-49624D02*
X57966Y-49314D01*
X55125Y-52775D02*
X57656Y-50244D01*
Y-49624D01*
X27000Y-87500D02*
X50037D01*
X55125Y-53417D02*
Y-52775D01*
X50037Y-87500D02*
X53500Y-84037D01*
X22000Y-89100D02*
X50700D01*
X79000Y-60800D01*
Y-33985D01*
X78400Y-33386D02*
X79000Y-33985D01*
X31769Y-20527D02*
X32459Y-21217D01*
X28173Y-16931D02*
X31769Y-20527D01*
Y-20400D01*
X37000D01*
X39369Y-18032D01*
Y-10232D01*
X81361Y10776D02*
X81368Y10768D01*
X75832Y10776D02*
X81361D01*
X28173Y-16931D02*
Y-14990D01*
X20032Y-23695D02*
Y-20400D01*
Y-23695D02*
X21068Y-24732D01*
X67212Y10869D02*
X70268Y13925D01*
X75832D01*
X20032Y-20400D02*
Y-18168D01*
X22268Y-15932D01*
Y-14990D01*
X70312Y20224D02*
X75832D01*
X70268Y20268D02*
X70312Y20224D01*
X-3091Y-48390D02*
X-1910D01*
X1338Y-62075D02*
Y-56760D01*
X-23124Y-53664D02*
X-22538Y-54250D01*
X-23124Y-53664D02*
Y-42993D01*
X-22538Y-42408D01*
X-18720D01*
X-16608Y-40295D01*
X-22538Y-54250D02*
X-7550D01*
X-5600Y-52300D01*
Y-50000D01*
X-3990Y-48390D01*
X-3091D01*
X-1910Y-53512D02*
X1338Y-56760D01*
X-16608Y-40295D02*
Y-32234D01*
X-1910Y-53512D02*
Y-48390D01*
X-16608Y-40295D02*
Y-32234D01*
X-1910Y-53512D02*
Y-48390D01*
X1338Y-76462D02*
Y-62075D01*
X-12400Y-90200D02*
X1338Y-76462D01*
X71544Y26524D02*
X75832D01*
X-37546Y9410D02*
X-36432D01*
X70294Y25274D02*
X71544Y26524D01*
X74568Y46668D02*
X74642Y46595D01*
X82584D01*
X-37546Y8743D02*
Y9410D01*
X-48831Y72969D02*
X-40532Y81269D01*
X-15832D01*
X-14831Y82269D01*
Y84469D01*
X-44674Y5500D02*
X-40489D01*
X-48831Y9657D02*
Y72969D01*
Y9657D02*
X-44674Y5500D01*
X-40489D02*
X-39000Y6989D01*
Y7289D01*
X-37546Y8743D01*
X75832Y7626D02*
X83726D01*
X85568Y9469D01*
Y15739D01*
X33518Y75568D02*
X34806Y74281D01*
Y71295D02*
Y74281D01*
X-42966Y19253D02*
X-37546D01*
X48077Y-1232D02*
Y4261D01*
X-44232Y20518D02*
X-42966Y19253D01*
X36869Y3269D02*
X38076Y4476D01*
X42368D01*
X-38909Y13347D02*
X-37546D01*
X-41500Y10757D02*
X-38909Y13347D01*
X-41500Y10757D02*
X-41200Y10457D01*
Y7900D02*
Y10457D01*
X36911Y7626D02*
X42368D01*
X36869Y7668D02*
X36911Y7626D01*
X-43431Y15316D02*
X-37546D01*
X35976Y10776D02*
X42368D01*
X31868Y6668D02*
X35976Y10776D01*
X18068Y6668D02*
X31868D01*
X-38732Y17284D02*
X-37546D01*
X-8900Y-1600D02*
X9800D01*
X18068Y6668D01*
X-45900Y13200D02*
X-44400Y11700D01*
X-40384Y17284D02*
X-37546D01*
X-40953Y17853D02*
X-40384Y17284D01*
X-45900Y13200D02*
Y16600D01*
X-44647Y17853D01*
X-40953D01*
X-30853Y4947D02*
Y6654D01*
X-33600Y2200D02*
X-30853Y4947D01*
X-36900Y2200D02*
X-33600D01*
X-11100Y2000D02*
X11420D01*
X32525Y13925D02*
X42368D01*
X11420Y2000D02*
X18120Y8700D01*
X27300D01*
X32525Y13925D01*
X35872Y-80000D02*
X39466D01*
X35772Y-80100D02*
X35872Y-80000D01*
X51800Y-29831D02*
X55869D01*
X66974Y-18726D02*
Y-1232D01*
X36913Y26524D02*
X42368D01*
X36869Y26568D02*
X36913Y26524D01*
X73289Y-59232D02*
X76169D01*
X72883Y-58825D02*
X73289Y-59232D01*
X-1632Y-34610D02*
Y-31598D01*
X-3091Y-34610D02*
X-1632D01*
Y-31598D02*
X-365Y-30332D01*
Y-24534D01*
X4950Y-27829D02*
Y-24534D01*
Y-27829D02*
X6653Y-29531D01*
Y-32740D02*
Y-29531D01*
X-5286Y-25518D02*
Y-20400D01*
X-562D01*
X-365Y-20203D01*
X-4753Y-38547D02*
X-3091D01*
X-6400Y-36900D02*
X-4753Y-38547D01*
X-6400Y-36900D02*
Y-31200D01*
X-5286Y-30086D01*
Y-25518D01*
X-4380Y-72210D02*
Y-68750D01*
X-10273Y-71650D02*
X-7550D01*
X-6990Y-72210D01*
X-4380D01*
X37838Y-77441D02*
X39466D01*
X37268Y-76872D02*
X37838Y-77441D01*
X35700Y-76872D02*
X37268D01*
X32200D02*
X35700D01*
X49704Y-33768D02*
X51800D01*
X49668Y-33804D02*
X49704Y-33768D01*
X47594Y-33804D02*
X49668D01*
X16099Y60538D02*
X19522D01*
X13769Y62868D02*
X16099Y60538D01*
X10400Y62868D02*
X13769D01*
X8600D02*
X10400D01*
X8468Y63000D02*
X8600Y62868D01*
X6672Y63000D02*
X8468D01*
X9568Y6496D02*
Y9268D01*
Y6496D02*
X9646D01*
X9568Y9268D02*
X10968Y10668D01*
X-36622Y99427D02*
X-32749Y103300D01*
X-24800D01*
X27300Y13500D02*
Y21900D01*
X29800Y24400D01*
Y38100D01*
X-22494Y116667D02*
X-21354Y116973D01*
X-22494Y116667D02*
X-22481D01*
X-22432Y116617D01*
X-61101Y86549D02*
Y87599D01*
X-44000Y104700D01*
X-33626D01*
X-21354Y116973D01*
X-81421Y67786D02*
X-73900Y75307D01*
Y83300D01*
X-50899Y106301D01*
Y107450D01*
X-105000Y18598D02*
X-104404Y18002D01*
X-105200Y18798D02*
Y42000D01*
X-97802Y49398D01*
Y67601D01*
X-105501Y-9644D02*
Y-4990D01*
X-111100Y609D02*
X-105501Y-4990D01*
X-111100Y609D02*
Y39135D01*
X-111963Y39998D02*
X-111100Y39135D01*
X-118499Y769D02*
Y9644D01*
Y769D02*
X-111932Y-5799D01*
Y-19093D02*
Y-5799D01*
X-99412Y-36623D02*
X-98700Y-35911D01*
Y-32324D01*
X-111932Y-19093D02*
X-98700Y-32324D01*
X-93263Y-59500D02*
X-86545D01*
Y-61103D02*
Y-59500D01*
X-104000Y-48763D02*
X-93263Y-59500D01*
X-104000Y-48763D02*
Y-34308D01*
X-116955Y-21352D02*
X-104000Y-34308D01*
X-75005Y-74200D02*
X-67782Y-81423D01*
X-82900Y-74200D02*
X-75005D01*
X-106203Y-50897D02*
X-82900Y-74200D01*
X-45657Y-94932D02*
X-44399Y-96189D01*
X-58911D02*
X-44399D01*
X-77200Y-77900D02*
X-58911Y-96189D01*
X-90110Y-77900D02*
X-77200D01*
X-90610D02*
Y-76969D01*
X-20401Y-104401D02*
X-17991D01*
X-67601Y-97800D02*
X-49700D01*
X-42300Y-105200D01*
X-21200D01*
X-20401Y-104401D01*
X-1002Y-105502D02*
X9645D01*
X-6700Y-111200D02*
X-1002Y-105502D01*
X-39218Y-111200D02*
X-6700D01*
X-39985Y-111967D02*
X-39218Y-111200D01*
X-8598Y-118498D02*
X-1200Y-111100D01*
X24942D01*
X36632Y-99410D01*
X21368Y-116958D02*
X33425Y-104900D01*
X43700D01*
X61104Y-87496D01*
Y-86546D01*
X50896Y-107444D02*
Y-106366D01*
X74500Y-82762D01*
Y-74705D01*
X81423Y-67781D01*
X96196Y-62304D02*
Y-44399D01*
X76977Y-90611D02*
X77800Y-89787D01*
Y-80700D01*
X96196Y-62304D01*
X97804Y-67602D02*
Y-53596D01*
X105100Y-46300D01*
Y-18672D01*
X104419Y-17990D02*
X105100Y-18672D01*
X105503Y4096D02*
Y9645D01*
X111300Y-39304D02*
X111981Y-39985D01*
X111300Y-39304D02*
Y-1700D01*
X105503Y4096D02*
X111300Y-1700D01*
X114469Y-9731D02*
X118496D01*
Y-9646D01*
X113602Y-8865D02*
X114469Y-9731D01*
X113602Y-8865D02*
Y9135D01*
X111669Y11068D02*
X113602Y9135D01*
X111669Y11068D02*
Y28218D01*
X110319Y29568D02*
X111669Y28218D01*
X100718Y29568D02*
X110319D01*
X99427Y30860D02*
X100718Y29568D01*
X99427Y30860D02*
Y36634D01*
X103568Y42619D02*
Y48401D01*
Y42619D02*
X116973Y29214D01*
Y21366D02*
Y29214D01*
X86549Y61101D02*
X88250Y59400D01*
X92569D01*
X103568Y48401D01*
X106869Y50899D02*
X107451D01*
X67786Y81425D02*
X68611Y80600D01*
X77168D01*
X106869Y50899D01*
X89689Y77900D02*
X89689D01*
X89689D02*
X90614Y76975D01*
X83489Y84100D02*
X89689Y77900D01*
X72600Y84100D02*
X83489D01*
X65700Y91000D02*
X72600Y84100D01*
X54600Y91000D02*
X65700D01*
X49500Y96100D02*
X54600Y91000D01*
X44491Y96100D02*
X49500D01*
X44399Y96193D02*
X44491Y96100D01*
X89689Y77900D02*
X90614Y76975D01*
X18002Y104420D02*
X45656D01*
X52268Y97807D01*
X67601D01*
X3128Y63000D02*
Y65167D01*
X9646Y113954D02*
Y118496D01*
Y113954D02*
X13692Y109908D01*
X3128Y65167D02*
X9100Y71139D01*
Y98000D01*
X13692Y102592D01*
Y109908D01*
X-9646Y105504D02*
X-5032D01*
X25168Y107569D02*
X29580Y111980D01*
X39998D01*
X-44500Y-12100D02*
X-44100Y-11700D01*
Y-15969D02*
Y-11700D01*
X-44320Y-15969D02*
X-44100D01*
X-35000Y-62869D02*
X-29682D01*
X-29632Y-62919D01*
Y-68282D02*
Y-62919D01*
Y-68282D02*
X-27082Y-70832D01*
X-24384D01*
X-23235Y-69682D01*
X-21888D01*
X26800Y-56563D02*
X39770D01*
X47734Y-82559D02*
X48558D01*
X50646Y-80471D01*
Y-61846D01*
X47600Y-58800D02*
X50646Y-61846D01*
X42287Y71295D02*
Y72387D01*
X44225Y74325D01*
X48200D01*
X48276Y74250D01*
X52600D01*
X42287Y79568D02*
X46106D01*
X42287D02*
Y80744D01*
X46106Y79568D02*
X48200Y77475D01*
X68017Y-55683D02*
X69075D01*
X67068Y-56631D02*
X68017Y-55683D01*
X64548Y-56631D02*
X67068D01*
X63066Y-58114D02*
X64548Y-56631D01*
X63586Y-64166D02*
X65451Y-62300D01*
X66600D01*
Y-60351D01*
X66134Y-59886D02*
X66600Y-60351D01*
Y-62700D02*
Y-62300D01*
Y-62700D02*
X67500Y-63600D01*
X68100D01*
X69000Y-62700D01*
X69800D01*
X-24402Y-65745D02*
X-21888D01*
X-24431Y-65775D02*
X-24402Y-65745D01*
X-26800Y-65775D02*
X-24431D01*
X-2400Y-90200D02*
Y-85400D01*
X10390Y-72610D01*
Y-60257D01*
X15508D02*
X20627D01*
X10390D02*
X15508D01*
X58700Y-40000D02*
X58700D01*
X61900Y-43200D01*
X85700Y-32916D02*
Y-26700D01*
X83000Y-41949D02*
X84787Y-43736D01*
X83000Y-41949D02*
Y-35616D01*
X84418Y-34198D01*
X44676Y40560D02*
Y44700D01*
Y40560D02*
X48077Y37159D01*
Y32232D02*
Y37159D01*
X54124Y40560D02*
Y44700D01*
X51226Y37661D02*
X54124Y40560D01*
X51226Y32232D02*
Y37661D01*
X30621Y-13675D02*
X32600D01*
X29969Y-13022D02*
X30621Y-13675D01*
X28173Y-13022D02*
X29969D01*
X70560Y-48200D02*
Y-46940D01*
X58875Y-55583D02*
X61458Y-53000D01*
X62558Y-54100D01*
X64742D01*
X70560Y-49440D02*
Y-48200D01*
X66483Y-53517D02*
X70560Y-49440D01*
X61034Y-51086D02*
X61458Y-51510D01*
Y-53000D02*
Y-51510D01*
X91409Y23379D02*
Y26099D01*
Y23379D02*
X91689Y23100D01*
X75832Y17075D02*
X79075D01*
X85200Y23200D01*
X91953D01*
X92541Y22611D01*
X57525Y-8800D02*
Y-1232D01*
X10492Y-42484D02*
X16747D01*
X19497Y-39735D01*
X-6357Y-42484D02*
X-3091D01*
X-12479Y-36362D02*
X-6357Y-42484D01*
X-6047Y-40516D02*
X-3091D01*
X-8032Y-38532D02*
X-6047Y-40516D01*
X-8032Y-38532D02*
Y-36676D01*
X-12479Y-32228D02*
X-8032Y-36676D01*
X-5199Y-44453D02*
X-3091D01*
X-12473Y-40295D02*
X-8884Y-43884D01*
X-5767D02*
X-5199Y-44453D01*
X-8884Y-43884D02*
X-5767D01*
X-6362Y-46461D02*
X-6132D01*
X-9055D02*
X-6362D01*
X-6331Y-46431D01*
X-9617Y-30146D02*
Y-25518D01*
X-13856Y-45179D02*
X-11245D01*
X-10793Y-45632D01*
X-9886D01*
X-9055Y-46461D01*
X-20155Y-45179D02*
X-13856D01*
X-6091Y-46421D02*
X-3091D01*
X-6132Y-46461D02*
X-6091Y-46421D01*
X32425Y-83500D02*
Y-80297D01*
X32228Y-80100D02*
X32425Y-80297D01*
X13409Y-47362D02*
X15545D01*
X12468Y-46421D02*
X13409Y-47362D01*
X10492Y-46421D02*
X12468D01*
X10492Y-40516D02*
X13892D01*
X18216Y-36192D01*
X19497D01*
X9510Y-48390D02*
X10492D01*
X4882Y-62075D02*
Y-56760D01*
X10155Y-56714D02*
X10390D01*
X7542Y-54100D02*
X10155Y-56714D01*
X4882Y-56760D02*
X7542Y-54100D01*
X10390Y-56714D02*
X15508D01*
X20627D01*
X10492Y-48390D02*
X12439D01*
X15545Y-51496D01*
X23630Y-39735D02*
Y-36192D01*
X7542Y-54100D02*
X9510Y-52131D01*
Y-48390D01*
X14040Y-53000D02*
X15545Y-51496D01*
X12300Y-53000D02*
X14040D01*
X23630Y-39735D02*
X27735D01*
X-48061Y-36123D02*
Y-35851D01*
Y-36132D02*
Y-36123D01*
X-80016Y-30611D02*
Y35373D01*
Y-33347D02*
Y-30611D01*
X-77232Y-36132D02*
X-48061D01*
X-80016Y-33347D02*
X-77232Y-36132D01*
X-44460Y-35851D02*
X-43533D01*
X-44732Y-36123D02*
X-44460Y-35851D01*
X-45489Y-36123D02*
X-44732D01*
X18988Y-13022D02*
X22268D01*
X17778Y-14232D02*
X18988Y-13022D01*
X70124Y32232D02*
Y36324D01*
X70800Y37000D01*
Y38437D01*
X28173Y-9085D02*
X28868D01*
X29568Y-8385D01*
Y-7231D01*
Y17075D02*
X42368D01*
X36312Y20224D02*
X42368D01*
X34569Y21969D02*
X36312Y20224D01*
X34569Y21969D02*
Y38262D01*
X23261Y49569D02*
X34569Y38262D01*
X23261Y49569D02*
Y53058D01*
X21558D02*
X23261D01*
X17469Y48969D02*
X21558Y53058D01*
X14031Y48969D02*
X17469D01*
X11868Y51131D02*
X14031Y48969D01*
X10400Y51131D02*
X11868D01*
X42368Y23374D02*
X47868D01*
X86548Y33744D02*
X90390Y29901D01*
X20490Y-11053D02*
X22268D01*
X18568Y-9132D02*
X20490Y-11053D01*
X66974Y32232D02*
Y39013D01*
X66969Y39018D02*
X66974Y39013D01*
X50050Y67950D02*
X52600D01*
X45300Y63200D02*
X50050Y67950D01*
X52675Y68025D02*
X57300D01*
X52600Y67950D02*
X52675Y68025D01*
X38869Y-30000D02*
X38933Y-30064D01*
X34969Y-30000D02*
X38869D01*
X38933Y-30064D02*
X52046Y-43177D01*
X16600Y-76200D02*
X18400Y-74400D01*
X28100Y-86100D02*
X49100D01*
X52046Y-83154D02*
Y-43177D01*
X18400Y-74400D02*
X25200D01*
X27100Y-85100D02*
X28100Y-86100D01*
X27100Y-85100D02*
Y-76300D01*
X25200Y-74400D02*
X27100Y-76300D01*
X49100Y-86100D02*
X52046Y-83154D01*
X30754Y-30277D02*
X31032Y-30000D01*
Y-36869D02*
Y-30000D01*
X21100Y-66800D02*
X21300Y-67000D01*
X20900Y-67000D02*
X21100Y-66800D01*
X18000Y-67000D02*
X20900D01*
X10300Y-79500D02*
Y-78300D01*
X18000Y-70600D01*
Y-67000D01*
X85474Y4372D02*
X95100D01*
X85369Y4476D02*
X85474Y4372D01*
X75832Y4476D02*
X85369D01*
X95100Y4372D02*
Y7428D01*
X10300Y-89500D02*
X14300D01*
X16600Y-87200D01*
Y-76200D01*
X35300Y81238D02*
Y87900D01*
X34806Y80744D02*
X35300Y81238D01*
X24468Y10668D02*
X27300Y13500D01*
X10968Y10668D02*
X24468D01*
X-18254Y15316D02*
X-10698D01*
X-3361Y22653D01*
X-18254Y13347D02*
X-18201Y13401D01*
X-1786D01*
X1561Y16747D01*
X-3361Y22653D02*
Y22839D01*
X1561Y16747D02*
X9309D01*
X-3361Y22839D02*
X1500Y27700D01*
X1561Y22653D02*
X4476Y19738D01*
X1500Y27700D02*
X6400D01*
X9856Y24243D01*
X4476Y19738D02*
X13738D01*
Y18762D02*
X17043Y15457D01*
X13738Y18762D02*
Y19738D01*
X16943Y22943D01*
D83*
X-43590Y-15790D02*
X-34121Y-6321D01*
X-39320Y-20379D02*
X-39005Y-20694D01*
X-39320Y-20379D02*
Y-15969D01*
X-32321Y-8970D01*
Y-6521D01*
X-24947Y853D01*
Y6654D01*
X-44500Y-7100D02*
Y-2900D01*
Y-7100D02*
X-40162D01*
X-35124Y-2062D01*
X-28884Y4178D02*
Y6654D01*
X-35124Y-2062D02*
X-28884Y4178D01*
X-39005Y-30851D02*
Y-25694D01*
X-44500Y-15790D02*
Y-12100D01*
Y-15790D02*
X-43590D01*
X-34021Y-6221D02*
Y-4221D01*
X-26916Y2884D02*
Y6654D01*
X-34021Y-4221D02*
X-26916Y2884D01*
D84*
X76184Y91400D02*
X76971Y90614D01*
X74700Y91400D02*
X76184D01*
X92000Y71000D02*
X93300D01*
X96698Y67602D01*
X70400Y92500D02*
X73600D01*
X74700Y91400D01*
X107100Y44700D02*
X111801Y39999D01*
X111976D01*
X96698Y67602D02*
X97798Y67602D01*
X16370Y116970D02*
X21363D01*
X14700Y115300D02*
X16370Y116970D01*
X44153Y107447D02*
X50890D01*
X-13042Y115100D02*
X-9646Y118496D01*
X-15400Y115100D02*
X-13042D01*
X118496Y9646D02*
Y11404D01*
X115100Y14800D02*
X115100Y15600D01*
X116300Y-20680D02*
Y-16300D01*
Y-20680D02*
X116969Y-21350D01*
X115100Y-15100D02*
X116300Y-16300D01*
X115100Y14800D02*
X118496Y11404D01*
X107448Y-50894D02*
Y-44348D01*
X90613Y-76965D02*
X92200Y-75378D01*
Y-70600D01*
X70800Y-93600D02*
Y-92000D01*
X67602Y-96798D02*
X70800Y-93600D01*
X56800Y-77113D02*
X59410Y-74503D01*
X56800Y-77400D02*
Y-77113D01*
X67602Y-97796D02*
Y-96798D01*
X44500Y-107458D02*
Y-107300D01*
X40000Y-111958D02*
X44500Y-107458D01*
X11906Y-118494D02*
X15100Y-115300D01*
X9647Y-118494D02*
X11906D01*
X-16100Y-116300D02*
X-15000Y-115200D01*
X-39987Y111913D02*
Y111976D01*
X-44600Y107300D02*
X-39987Y111913D01*
X-70700Y94700D02*
X-67602Y97798D01*
X-70700Y92200D02*
Y94700D01*
X-92200Y75381D02*
X-90610Y76971D01*
X-92200Y70500D02*
Y75381D01*
X-107442Y44542D02*
Y50891D01*
Y44542D02*
X-107300Y44400D01*
X-115800Y15600D02*
X-115200Y15000D01*
X-115800Y15600D02*
Y20209D01*
X-116954Y21363D02*
X-115800Y20209D01*
X-118493Y-11707D02*
Y-9648D01*
Y-11707D02*
X-115100Y-15100D01*
X-20697Y-116300D02*
X-16100D01*
X-21349Y-116952D02*
X-20697Y-116300D01*
X-44585Y-107300D02*
X-44442Y-107442D01*
X-50893D02*
X-44442D01*
X-44700Y-107300D02*
X-44585D01*
X-93400Y-69400D02*
X-92300Y-70500D01*
X-95996Y-69400D02*
X-93400D01*
X-111961Y-39986D02*
X-107547Y-44400D01*
X-71000Y-91700D02*
X-70400Y-92300D01*
X-75879Y-91700D02*
X-71000D01*
X-76969Y-90610D02*
X-75879Y-91700D01*
D85*
X-43533Y-35851D02*
X-39005D01*
D86*
X-74504Y-36123D02*
X-45489D01*
X-80016Y-30611D02*
Y35374D01*
Y-30611D02*
X-74504Y-36123D01*
D87*
X-17065Y-75784D02*
D03*
X-15096D02*
D03*
Y-63580D02*
D03*
X-17065D02*
D03*
D88*
X45300Y63200D02*
D03*
D89*
X-31137Y-85726D02*
D03*
X-12400Y-90200D02*
D03*
X22000Y-89100D02*
D03*
X10300Y-79500D02*
D03*
X3900Y90800D02*
D03*
X13900Y80800D02*
D03*
X23900D02*
D03*
X13900Y90800D02*
D03*
X23900D02*
D03*
D90*
X-40200Y-81500D02*
D03*
D91*
X-2400Y-90200D02*
D03*
X3900Y80800D02*
D03*
D92*
X22000Y-79100D02*
D03*
X10300Y-89500D02*
D03*
D93*
X-9800Y85400D02*
D03*
D94*
X-19800D02*
D03*
X-29800D02*
D03*
D95*
X-10600Y97600D02*
D03*
X33100Y48800D02*
D03*
X59900Y20700D02*
D03*
X53900Y-17400D02*
D03*
X-21500Y-96100D02*
D03*
X-59500Y-79100D02*
D03*
X-56800Y-71700D02*
D03*
X-65100Y-72900D02*
D03*
X-81600Y-52300D02*
D03*
X-95800Y-12300D02*
D03*
X-99600Y8800D02*
D03*
X-95400Y28200D02*
D03*
X96400Y-15500D02*
D03*
X77700Y-18300D02*
D03*
X82700Y-12300D02*
D03*
X75900Y-3700D02*
D03*
X-76500Y52000D02*
D03*
X-57800Y50200D02*
D03*
X-62700Y60800D02*
D03*
X-53600Y66800D02*
D03*
X-54200Y80200D02*
D03*
X-41700Y85600D02*
D03*
X70124Y-11332D02*
D03*
X28468Y-33031D02*
D03*
X-18531Y29068D02*
D03*
X17569Y43169D02*
D03*
X-10126Y25469D02*
D03*
X-4901Y11201D02*
D03*
X-23050Y-15650D02*
D03*
X92000Y71000D02*
D03*
X107100Y44700D02*
D03*
X115100Y15600D02*
D03*
X71368Y67269D02*
D03*
X44100Y107500D02*
D03*
X14700Y115300D02*
D03*
X-15400Y115100D02*
D03*
X70400Y92500D02*
D03*
X100Y55700D02*
D03*
X115100Y-15100D02*
D03*
X107300Y-44200D02*
D03*
X92200Y-70600D02*
D03*
X70800Y-92000D02*
D03*
X56800Y-77400D02*
D03*
X-16904Y6496D02*
D03*
X44500Y-107300D02*
D03*
X15100Y-115300D02*
D03*
X-15000Y-115200D02*
D03*
X-44600Y107300D02*
D03*
X-70700Y92200D02*
D03*
X-71843Y70500D02*
D03*
X-92200D02*
D03*
X-107300Y44400D02*
D03*
X-115200Y15000D02*
D03*
X-115100Y-15100D02*
D03*
X-51136Y-90131D02*
D03*
X-44700Y-107300D02*
D03*
X-92300Y-70500D02*
D03*
X-107300Y-44400D02*
D03*
X-70400Y-92300D02*
D03*
X84069Y828D02*
D03*
X46247Y-66853D02*
D03*
X-7931Y-63432D02*
D03*
X48044Y-51300D02*
D03*
X81368Y23374D02*
D03*
X91969Y15768D02*
D03*
X58868Y-64289D02*
D03*
X-4380Y-60782D02*
D03*
X1732Y-45437D02*
D03*
X-41631Y40569D02*
D03*
X-37931Y27968D02*
D03*
X-16632Y64268D02*
D03*
X81968Y-56832D02*
D03*
X19600Y-51500D02*
D03*
X39369Y-10232D02*
D03*
X81368Y10768D02*
D03*
X21068Y-24732D02*
D03*
X67212Y10869D02*
D03*
X70268Y20268D02*
D03*
X70294Y25274D02*
D03*
X-14831Y84469D02*
D03*
X74568Y46668D02*
D03*
X85568Y15739D02*
D03*
X33518Y75568D02*
D03*
X48077Y4261D02*
D03*
X-44232Y20518D02*
D03*
X36869Y3269D02*
D03*
X-41200Y7900D02*
D03*
X36869Y7668D02*
D03*
X-43431Y15316D02*
D03*
X-8900Y-1600D02*
D03*
X-44400Y11700D02*
D03*
X-36900Y2200D02*
D03*
X-11100Y2000D02*
D03*
X55869Y-29831D02*
D03*
X66974Y-18726D02*
D03*
X36869Y26568D02*
D03*
X76169Y-59232D02*
D03*
X-24800Y103300D02*
D03*
X29800Y38100D02*
D03*
X-5032Y105504D02*
D03*
X25168Y107569D02*
D03*
X58700Y-40000D02*
D03*
X85700Y-26700D02*
D03*
X-6331Y-46431D02*
D03*
X-9617Y-30146D02*
D03*
X12300Y-53000D02*
D03*
X27800Y-39800D02*
D03*
X17778Y-14232D02*
D03*
X70800Y38900D02*
D03*
X29568Y-7231D02*
D03*
Y17075D02*
D03*
X47868Y23374D02*
D03*
X86548Y33744D02*
D03*
X18568Y-9132D02*
D03*
X66969Y39018D02*
D03*
X31032Y-36869D02*
D03*
X18000Y-67000D02*
D03*
X-26700Y-57700D02*
D03*
X-11631Y-58281D02*
D03*
X-26131Y-68632D02*
D03*
X84148Y50005D02*
D03*
X80616Y62157D02*
D03*
X-63932Y-48731D02*
D03*
X61668Y47969D02*
D03*
X-46632Y23190D02*
D03*
X85300Y19189D02*
D03*
X-17000Y-51478D02*
D03*
X900Y7400D02*
D03*
X13468Y29269D02*
D03*
X5669Y-45437D02*
D03*
Y-41500D02*
D03*
Y-37563D02*
D03*
X1732Y-45437D02*
D03*
Y-41500D02*
D03*
Y-37563D02*
D03*
X-27900Y16300D02*
D03*
X-23176Y11576D02*
D03*
X-27900D02*
D03*
X-32624D02*
D03*
Y16300D02*
D03*
Y21024D02*
D03*
X-27900D02*
D03*
X-23176D02*
D03*
Y16300D02*
D03*
D96*
X43600Y-81575D02*
D03*
Y-78425D02*
D03*
X-14112Y-72635D02*
D03*
X-18049D02*
D03*
Y-66729D02*
D03*
X-14112D02*
D03*
X-16081Y-69682D02*
D03*
M02*
