G04 Layer_Color=16711935*
%FSLAX25Y25*%
%MOIN*%
G70*
G01*
G75*
%ADD179C,0.08200*%
%ADD180C,0.06784*%
%ADD181P,0.09594X4X380.0*%
%ADD182R,0.06784X0.06784*%
%ADD183R,0.06784X0.06784*%
%ADD184R,0.06902X0.06902*%
%ADD185C,0.06902*%
%ADD186C,0.03200*%
%ADD187C,0.02769*%
D179*
X45300Y63200D02*
D03*
D180*
X-31137Y-85726D02*
D03*
X-12400Y-90200D02*
D03*
X22000Y-89100D02*
D03*
X10300Y-79500D02*
D03*
X3900Y90800D02*
D03*
X13900Y80800D02*
D03*
X23900D02*
D03*
X13900Y90800D02*
D03*
X23900D02*
D03*
D181*
X-40200Y-81500D02*
D03*
D182*
X-2400Y-90200D02*
D03*
X3900Y80800D02*
D03*
D183*
X22000Y-79100D02*
D03*
X10300Y-89500D02*
D03*
D184*
X-9800Y85400D02*
D03*
D185*
X-19800D02*
D03*
X-29800D02*
D03*
D186*
X-10600Y97600D02*
D03*
X33100Y48800D02*
D03*
X59900Y20700D02*
D03*
X53900Y-17400D02*
D03*
X-21500Y-96100D02*
D03*
X-59500Y-79100D02*
D03*
X-56800Y-71700D02*
D03*
X-65100Y-72900D02*
D03*
X-81600Y-52300D02*
D03*
X-95800Y-12300D02*
D03*
X-99600Y8800D02*
D03*
X-95400Y28200D02*
D03*
X96400Y-15500D02*
D03*
X77700Y-18300D02*
D03*
X82700Y-12300D02*
D03*
X75900Y-3700D02*
D03*
X-76500Y52000D02*
D03*
X-57800Y50200D02*
D03*
X-62700Y60800D02*
D03*
X-53600Y66800D02*
D03*
X-54200Y80200D02*
D03*
X-41700Y85600D02*
D03*
X70124Y-11332D02*
D03*
X28468Y-33031D02*
D03*
X-18531Y29068D02*
D03*
X17569Y43169D02*
D03*
X-10126Y25469D02*
D03*
X-4901Y11201D02*
D03*
X-23050Y-15650D02*
D03*
X71368Y67269D02*
D03*
X100Y55700D02*
D03*
X56800Y-77400D02*
D03*
X-16904Y6496D02*
D03*
X44500Y-107300D02*
D03*
X15100Y-115300D02*
D03*
X-71843Y70500D02*
D03*
X-51136Y-90131D02*
D03*
X84069Y828D02*
D03*
X46247Y-66853D02*
D03*
X-7931Y-63432D02*
D03*
X48044Y-51300D02*
D03*
X81368Y23374D02*
D03*
X91969Y15768D02*
D03*
X58868Y-64289D02*
D03*
X-4380Y-60782D02*
D03*
X1732Y-45437D02*
D03*
X-41631Y40569D02*
D03*
X-37931Y27968D02*
D03*
X-16632Y64268D02*
D03*
X81968Y-56832D02*
D03*
X19600Y-51500D02*
D03*
X39369Y-10232D02*
D03*
X81368Y10768D02*
D03*
X21068Y-24732D02*
D03*
X67212Y10869D02*
D03*
X70268Y20268D02*
D03*
X70294Y25274D02*
D03*
X-14831Y84469D02*
D03*
X74568Y46668D02*
D03*
X85568Y15739D02*
D03*
X33518Y75568D02*
D03*
X48077Y4261D02*
D03*
X-44232Y20518D02*
D03*
X36869Y3269D02*
D03*
X-41200Y7900D02*
D03*
X36869Y7668D02*
D03*
X-43431Y15316D02*
D03*
X-8900Y-1600D02*
D03*
X-44400Y11700D02*
D03*
X-36900Y2200D02*
D03*
X-11100Y2000D02*
D03*
X55869Y-29831D02*
D03*
X66974Y-18726D02*
D03*
X36869Y26568D02*
D03*
X76169Y-59232D02*
D03*
X-24800Y103300D02*
D03*
X29800Y38100D02*
D03*
X-5032Y105504D02*
D03*
X25168Y107569D02*
D03*
X58700Y-40000D02*
D03*
X85700Y-26700D02*
D03*
X-6331Y-46431D02*
D03*
X-9617Y-30146D02*
D03*
X12300Y-53000D02*
D03*
X27800Y-39800D02*
D03*
X17778Y-14232D02*
D03*
X70800Y38900D02*
D03*
X29568Y-7231D02*
D03*
Y17075D02*
D03*
X47868Y23374D02*
D03*
X86548Y33744D02*
D03*
X18568Y-9132D02*
D03*
X66969Y39018D02*
D03*
X31032Y-36869D02*
D03*
X18000Y-67000D02*
D03*
X-26700Y-57700D02*
D03*
X-11631Y-58281D02*
D03*
X-26131Y-68632D02*
D03*
X84148Y50005D02*
D03*
X80616Y62157D02*
D03*
X-63932Y-48731D02*
D03*
X61668Y47969D02*
D03*
X-46632Y23190D02*
D03*
X85300Y19189D02*
D03*
X-17000Y-51478D02*
D03*
X900Y7400D02*
D03*
X13468Y29269D02*
D03*
D187*
X43600Y-81575D02*
D03*
Y-78425D02*
D03*
X-14112Y-72635D02*
D03*
X-18049D02*
D03*
Y-66729D02*
D03*
X-14112D02*
D03*
X-16081Y-69682D02*
D03*
M02*
