G04 Layer_Color=16711935*
%FSLAX25Y25*%
%MOIN*%
G70*
G01*
G75*
%ADD175R,0.06784X0.06784*%
%ADD176C,0.06784*%
%ADD177C,0.03200*%
D175*
X-15000Y68500D02*
D03*
Y55906D02*
D03*
X-5000Y-55906D02*
D03*
D176*
Y68500D02*
D03*
X5000D02*
D03*
X15000D02*
D03*
X-5000Y55906D02*
D03*
X5000D02*
D03*
X15000D02*
D03*
X5000Y-55906D02*
D03*
D177*
X-48600Y-10600D02*
D03*
X28700Y-36400D02*
D03*
X-63900Y23300D02*
D03*
X35400Y30700D02*
D03*
X35100Y2900D02*
D03*
X30700Y20900D02*
D03*
X30800Y31900D02*
D03*
X27600Y35700D02*
D03*
X47900Y-7600D02*
D03*
X46900Y-11900D02*
D03*
X-6500Y-2600D02*
D03*
X9500Y-2500D02*
D03*
X11800Y3000D02*
D03*
X6600Y1900D02*
D03*
X8700Y16800D02*
D03*
X-4600Y17200D02*
D03*
X15900Y-23000D02*
D03*
X-17300Y-21200D02*
D03*
X-6600Y-15000D02*
D03*
X0Y-6100D02*
D03*
X4200Y-14200D02*
D03*
X2900Y6200D02*
D03*
X-9000Y-21200D02*
D03*
X-100300Y2800D02*
D03*
X-97900Y-4200D02*
D03*
X-105098Y-6598D02*
D03*
X-100200Y-18200D02*
D03*
X-102780Y21780D02*
D03*
X-102448Y6552D02*
D03*
X-102800Y16000D02*
D03*
X-106737Y19963D02*
D03*
X-92411Y46089D02*
D03*
X-98000Y39100D02*
D03*
X-93000Y52100D02*
D03*
X-91600Y56000D02*
D03*
X-84600Y52000D02*
D03*
X30600Y-5500D02*
D03*
X39400Y-14400D02*
D03*
X-77114Y70900D02*
D03*
X-80400Y64200D02*
D03*
X-83600Y67300D02*
D03*
X-80399Y59599D02*
D03*
X-62600Y65000D02*
D03*
X-46100Y91500D02*
D03*
X-25300Y99400D02*
D03*
X-30800Y97800D02*
D03*
X-12400Y96900D02*
D03*
X-2900Y106000D02*
D03*
X-17000Y107200D02*
D03*
X-26300Y63800D02*
D03*
X31000Y89400D02*
D03*
X3000Y108600D02*
D03*
X21500Y101100D02*
D03*
X6552Y102400D02*
D03*
X38700Y97200D02*
D03*
X43200Y92600D02*
D03*
X50800Y91600D02*
D03*
X53900Y87100D02*
D03*
X59600Y72100D02*
D03*
X62400Y62500D02*
D03*
X69100Y65900D02*
D03*
X83400Y54700D02*
D03*
X87400Y49400D02*
D03*
X83350Y49468D02*
D03*
X-83300Y-22900D02*
D03*
X85600Y-26600D02*
D03*
X104500Y-15300D02*
D03*
X102600Y-24100D02*
D03*
X97400Y-18800D02*
D03*
X97126Y28226D02*
D03*
X92659Y49041D02*
D03*
X90919Y39319D02*
D03*
X97219D02*
D03*
X99500Y31300D02*
D03*
X102900Y2900D02*
D03*
X105500Y0D02*
D03*
X95900Y10400D02*
D03*
X106200Y20100D02*
D03*
X104700Y-6700D02*
D03*
X96200Y-9100D02*
D03*
X77300Y-38600D02*
D03*
X98399Y-37299D02*
D03*
X91000Y-52600D02*
D03*
X80400Y-67500D02*
D03*
X85100Y-61300D02*
D03*
X68100Y-80900D02*
D03*
X54200Y-90700D02*
D03*
X47800Y-82300D02*
D03*
X44900Y-95200D02*
D03*
X36100Y-99300D02*
D03*
X27400Y-101500D02*
D03*
X6200Y-105700D02*
D03*
X15400Y-104000D02*
D03*
X19200Y-103600D02*
D03*
X-9400Y-104500D02*
D03*
X-18537Y-104437D02*
D03*
X-6498Y-100800D02*
D03*
X-24200D02*
D03*
X-27700Y-99100D02*
D03*
X-34659Y-93500D02*
D03*
X-48800Y-93300D02*
D03*
X-52500Y-85000D02*
D03*
X-74900Y-74600D02*
D03*
X-61900Y-84900D02*
D03*
X-67900Y-80900D02*
D03*
X-81900Y-56200D02*
D03*
X-85300Y-63500D02*
D03*
X-89800Y-55800D02*
D03*
X-67000Y-1000D02*
D03*
X-100841Y-34659D02*
D03*
X60906Y-11506D02*
D03*
X-60406Y12300D02*
D03*
X68000Y-7606D02*
D03*
X37257Y39500D02*
D03*
X-51100Y67000D02*
D03*
X36359Y43915D02*
D03*
X46400Y600D02*
D03*
X33400Y84000D02*
D03*
X43200Y-2250D02*
D03*
X30600Y-10000D02*
D03*
X-53700Y20300D02*
D03*
X-97500Y31100D02*
D03*
X-79100Y16500D02*
D03*
X-97400Y-26900D02*
D03*
Y-33800D02*
D03*
X60600Y-86900D02*
D03*
X74000Y-74300D02*
D03*
X76500Y-32300D02*
D03*
X-25000Y25900D02*
D03*
X-34400Y31000D02*
D03*
X100000Y-31180D02*
D03*
X101400Y9300D02*
D03*
X89200Y54700D02*
D03*
X69100Y72100D02*
D03*
X17000Y106600D02*
D03*
X40000Y61900D02*
D03*
X53200Y27900D02*
D03*
X-3000Y6200D02*
D03*
X3300Y14900D02*
D03*
X-42500Y17606D02*
D03*
X35100Y-79800D02*
D03*
X-103700Y-15100D02*
D03*
X35600Y78300D02*
D03*
X9205Y-100205D02*
D03*
X0Y-105700D02*
D03*
X95100Y-44400D02*
D03*
X82900Y62600D02*
D03*
X-52700Y-91200D02*
D03*
X-16400Y6441D02*
D03*
X-6547Y3200D02*
D03*
X-12453D02*
D03*
X-28800Y52800D02*
D03*
X50200Y74400D02*
D03*
X-89100Y-4720D02*
D03*
X-21300Y-116200D02*
D03*
X-40300Y-111000D02*
D03*
X-58900Y-102500D02*
D03*
X-75700Y-90600D02*
D03*
X-90200Y-76200D02*
D03*
X-102200Y-59200D02*
D03*
X-111000Y-40400D02*
D03*
X-115900Y-21400D02*
D03*
X-114100Y30200D02*
D03*
X-107600Y48400D02*
D03*
X-97000Y67400D02*
D03*
X-83900Y83200D02*
D03*
X-67500Y96900D02*
D03*
X-49800Y107200D02*
D03*
X-29200Y114400D02*
D03*
X30000Y114300D02*
D03*
X49200Y107500D02*
D03*
X66800Y97600D02*
D03*
X83000Y84200D02*
D03*
X96700Y68000D02*
D03*
X107400Y49300D02*
D03*
X114400Y29300D02*
D03*
X116300Y-20900D02*
D03*
X111000Y-40300D02*
D03*
X102200Y-59000D02*
D03*
X90500Y-75800D02*
D03*
X76100Y-90300D02*
D03*
X59100Y-102200D02*
D03*
X40700Y-110800D02*
D03*
X21300Y-116100D02*
D03*
X-57874Y1969D02*
D03*
X-53937Y-1968D02*
D03*
X57874D02*
D03*
X53937Y1969D02*
D03*
X-66000Y83100D02*
D03*
X-59700D02*
D03*
X-54000Y79600D02*
D03*
X43200Y-35500D02*
D03*
X75800Y-55300D02*
D03*
X2800Y-48800D02*
D03*
X4700Y-45450D02*
D03*
X-17500Y-51200D02*
D03*
X-21100Y-48100D02*
D03*
X-7700Y-46350D02*
D03*
X-25000Y-57400D02*
D03*
X-49500Y-45300D02*
D03*
X-48400Y60600D02*
D03*
X5000Y41300D02*
D03*
X-62100Y27000D02*
D03*
X-61700Y60000D02*
D03*
X-63500Y44500D02*
D03*
X-54700Y53300D02*
D03*
X-2250Y28500D02*
D03*
X4000Y31200D02*
D03*
X8800Y28400D02*
D03*
M02*
