G04 Layer_Physical_Order=2*
G04 Layer_Color=16711680*
%FSLAX25Y25*%
%MOIN*%
G70*
G01*
G75*
%ADD88C,0.01200*%
%ADD89C,0.00800*%
%ADD90R,0.05984X0.05984*%
%ADD91C,0.05984*%
%ADD92C,0.02400*%
%ADD93C,0.05000*%
D88*
X31900Y112879D02*
X32556Y113535D01*
X31000Y89400D02*
Y111979D01*
X85600Y-26600D02*
X114914D01*
X115014Y-26500D01*
X115083Y-26569D01*
X-5000Y-55906D02*
Y-48300D01*
X250Y-43050D02*
X35650D01*
X43200Y-35500D01*
X-5650Y-42400D02*
X-2375Y-45675D01*
X-27200Y-42400D02*
X-5650D01*
X-30100Y-45300D02*
X-27200Y-42400D01*
X-49500Y-45300D02*
X-30100D01*
X-5000Y-48300D02*
X-2375Y-45675D01*
X250Y-43050D01*
X-63500Y44500D02*
X-54700Y53300D01*
D89*
X-48600Y-19300D02*
X-31600Y-36300D01*
X-48600Y-19300D02*
Y-10600D01*
X-46482Y-7100D02*
X-19015Y-34567D01*
X-57600Y-7100D02*
X-46482D01*
X-66384Y1684D02*
X-57600Y-7100D01*
X-45950Y-5200D02*
X-20850Y-30300D01*
X-56700Y-5200D02*
X-45950D01*
X-65200Y3300D02*
X-56700Y-5200D01*
X-31600Y-36300D02*
X28600D01*
X28700Y-36400D01*
X-69400Y7000D02*
Y21600D01*
X-88725Y40925D02*
X-69400Y21600D01*
X-88725Y40925D02*
Y42402D01*
X-62249Y9849D02*
X-46151D01*
X-63900Y11500D02*
X-62249Y9849D01*
X-63900Y11500D02*
Y23300D01*
X-64249Y8449D02*
X-43651D01*
X-65386Y6186D02*
X-23777D01*
X-68000Y8800D02*
X-65386Y6186D01*
X-68000Y8800D02*
Y23375D01*
X-50900Y4700D02*
X-18700Y-27500D01*
X-67100Y4700D02*
X-50900D01*
X-69400Y7000D02*
X-67100Y4700D01*
X-69984Y1684D02*
X-66384D01*
X-72552Y4252D02*
X-69984Y1684D01*
X-72552Y4252D02*
Y17800D01*
X-69000Y3300D02*
X-65200D01*
X-70925Y5225D02*
X-69000Y3300D01*
X-70925Y5225D02*
Y18525D01*
X41594Y55906D02*
X45100Y52400D01*
Y29700D02*
Y52400D01*
X50782Y23918D02*
X65282D01*
X45000Y29700D02*
X50782Y23918D01*
X39950Y24650D02*
X45000Y29700D01*
X65282Y23918D02*
X68000Y21200D01*
X-80399Y35773D02*
X-68000Y23375D01*
X14300Y23700D02*
X35100Y2900D01*
X-32300Y23700D02*
X14300D01*
X34063Y600D02*
X46400D01*
X12463Y22200D02*
X34063Y600D01*
X-46151Y9849D02*
X-32300Y23700D01*
X24050Y44950D02*
X35400Y33600D01*
Y30700D02*
Y33600D01*
X15900Y35700D02*
X30700Y20900D01*
X32582Y22518D02*
X48382D01*
X18000Y37100D02*
X32582Y22518D01*
X-28300Y37100D02*
X18000D01*
X33600Y26500D02*
X38100D01*
X33236Y24650D02*
X39950D01*
X30800Y29300D02*
X33600Y26500D01*
X38100D02*
X40700Y29100D01*
X19086Y38800D02*
X33236Y24650D01*
X30800Y29300D02*
Y31900D01*
X40700Y29100D02*
Y49287D01*
X38587Y51400D02*
X40700Y49287D01*
X-36750Y44950D02*
X24050D01*
X46900Y-11900D02*
X46906Y-11906D01*
X4700Y1900D02*
X6600D01*
X-2700Y-5500D02*
X4700Y1900D01*
X-2700Y-16600D02*
Y-5500D01*
X-4100Y-18000D02*
X-2700Y-16600D01*
X-9000Y-18000D02*
X-4100D01*
X-11700Y-15300D02*
X-9000Y-18000D01*
X-11700Y-15300D02*
Y-2600D01*
X-3000Y-3000D02*
Y6200D01*
X-6600Y-6600D02*
X-3000Y-3000D01*
X-6600Y-15000D02*
Y-6600D01*
X-11700Y-2600D02*
X-6500D01*
X-16400Y2100D02*
X-11700Y-2600D01*
X-16400Y2100D02*
Y6441D01*
X11800Y-200D02*
Y3000D01*
X9500Y-2500D02*
X11800Y-200D01*
X5900Y-6100D02*
X9500Y-2500D01*
X0Y-6100D02*
X5900D01*
X4150Y-14050D02*
X15300Y-2900D01*
Y6200D01*
Y11400D01*
X2900Y6200D02*
X15300D01*
X9900Y16800D02*
X15300Y11400D01*
X8700Y16800D02*
X9900D01*
X9600Y19400D02*
X17200Y11800D01*
Y-21700D02*
Y11800D01*
X15900Y-23000D02*
X17200Y-21700D01*
X-7800Y19400D02*
X9600D01*
X-4600Y7800D02*
X-3000Y6200D01*
X-4600Y7800D02*
Y17200D01*
X1000D01*
X3300Y14900D01*
X-43651Y8449D02*
X-29900Y22200D01*
X10953Y20800D02*
X34003Y-2250D01*
X-23777Y6186D02*
X-9163Y20800D01*
X-16400Y10800D02*
X-7800Y19400D01*
X-9163Y20800D02*
X10953D01*
X-29900Y22200D02*
X12463D01*
X-16400Y6441D02*
Y10800D01*
X-17300Y-21200D02*
X-9000D01*
X4150Y-14050D02*
X4200Y-14100D01*
X-3000Y-21200D02*
X4150Y-14050D01*
X4200Y-14200D02*
Y-14100D01*
X-9000Y-21200D02*
X-3000D01*
X-108500Y-19500D02*
X-104200Y-23800D01*
Y-35200D02*
Y-23800D01*
X-106700Y-37000D02*
Y-24200D01*
X-111100Y15600D02*
X-106737Y19963D01*
X-111100Y-19800D02*
Y15600D01*
Y-19800D02*
X-106700Y-24200D01*
X-108500Y500D02*
X-102448Y6552D01*
X-108500Y-19500D02*
Y500D01*
X-100200Y-18200D02*
X-97900Y-15900D01*
Y-4200D01*
X-105098Y-6598D02*
X-100300Y-1800D01*
Y2800D01*
X-79100Y14600D02*
Y16500D01*
X-97900Y-4200D02*
X-79100Y14600D01*
X-105098Y-6598D02*
X-103700Y-7995D01*
Y-15100D02*
Y-7995D01*
X-102800Y16000D02*
X-102780Y16020D01*
Y21780D01*
X-102800Y16000D02*
X-102448Y15648D01*
Y6552D02*
Y15648D01*
X-97500Y31100D02*
X-85852D01*
X-19015Y-34567D02*
X23233D01*
X-98000Y47100D02*
X-93000Y52100D01*
X-98000Y39100D02*
Y47100D01*
Y39100D02*
X-91500D01*
X-92411Y46089D02*
X-88725Y42402D01*
X-88600Y56000D02*
X-84600Y52000D01*
X-91600Y56000D02*
X-88600D01*
X26600Y-5500D02*
X30600D01*
X24000Y-8100D02*
X26600Y-5500D01*
X24000Y-21000D02*
Y-8100D01*
X17500Y-27500D02*
X24000Y-21000D01*
X-20850Y-30300D02*
X21300D01*
X30600Y-21000D01*
Y-10000D01*
X39400Y-18400D02*
Y-14400D01*
X23233Y-34567D02*
X39400Y-18400D01*
X-80400Y64200D02*
Y67614D01*
X-77114Y70900D01*
X-62700D01*
X-83600Y62800D02*
X-80399Y59599D01*
X-83600Y62800D02*
Y67300D01*
X-80399Y35773D02*
Y59599D01*
X-69300Y81200D02*
X-61150Y73050D01*
X-50450D01*
X-38900Y61500D01*
X31599D01*
X-62700Y70900D02*
X-36750Y44950D01*
X-35700Y47600D02*
X29157D01*
X-50120Y67000D02*
X-32120Y49000D01*
X-51100Y67000D02*
X-50120D01*
X-32120Y49000D02*
X31274D01*
X-37100Y91500D02*
X-30800Y97800D01*
X-46100Y91500D02*
X-37100D01*
X-8200Y99400D02*
X9400Y81800D01*
X-25300Y99400D02*
X-8200D01*
X-2900Y106000D02*
Y109900D01*
X10500Y84000D02*
X33400D01*
X-8000Y102500D02*
X10500Y84000D01*
X6900Y77600D02*
X24300D01*
X-12400Y96900D02*
X6900Y77600D01*
X1500Y110100D02*
X3000Y108600D01*
X-14100Y110100D02*
X1500D01*
X-17000Y107200D02*
X-14100Y110100D01*
X-17200Y107400D02*
X-17000Y107200D01*
X-23700Y107400D02*
X-17200D01*
X-26700Y104400D02*
X-23700Y107400D01*
X33938Y63800D02*
X38077Y59661D01*
X-26300Y63800D02*
X33938D01*
X53200Y27900D02*
Y47800D01*
X42739Y58261D02*
X53200Y47800D01*
X34838Y58261D02*
X42739D01*
X34400Y86800D02*
X46800Y74400D01*
X14100Y86800D02*
X34400D01*
X6552Y94348D02*
X14100Y86800D01*
X17000Y102400D02*
X20200D01*
X6552D02*
X17000D01*
Y106600D01*
X20200Y102400D02*
X21500Y101100D01*
X6552Y94348D02*
Y102400D01*
X44200Y91600D02*
X50800D01*
X43200Y92600D02*
X44200Y91600D01*
X46800Y74400D02*
X50200D01*
X59600Y72100D02*
X69100D01*
X65700Y62500D02*
X69100Y65900D01*
X62400Y62500D02*
X65700D01*
X82900Y62600D02*
X83400Y62100D01*
Y54700D02*
Y62100D01*
X87400Y52900D02*
X89200Y54700D01*
X87400Y49400D02*
Y52900D01*
X83400Y49518D02*
Y54700D01*
X-83300Y-21300D02*
X-67000Y-5000D01*
X-83300Y-22900D02*
Y-21300D01*
X104500Y-15300D02*
X104900Y-14900D01*
X95700Y-15300D02*
X104500D01*
X102600Y-24100D02*
X104500Y-22200D01*
X72300Y-18800D02*
X97400D01*
X104500Y-22200D02*
Y-15300D01*
X97126Y28226D02*
Y39226D01*
X92659Y45541D02*
Y49041D01*
Y45541D02*
X95100Y43100D01*
X97600D01*
X99500Y41200D01*
X90919Y39319D02*
X97219D01*
X99500Y31300D02*
Y41200D01*
X95900Y6100D02*
Y10400D01*
Y6100D02*
X99100Y2900D01*
X102900D01*
X101400Y9300D02*
X105500Y5200D01*
Y0D02*
Y5200D01*
X96400Y-9100D02*
X105500Y0D01*
X96200Y-9100D02*
X96400D01*
X101400Y15300D02*
X106200Y20100D01*
X101400Y9300D02*
Y15300D01*
X104700Y-14700D02*
X104900Y-14900D01*
X92200Y-11800D02*
X95700Y-15300D01*
X92200Y-11800D02*
Y16600D01*
X49139Y59661D02*
X92200Y16600D01*
X38077Y59661D02*
X49139D01*
X104700Y-14700D02*
Y-6700D01*
X65800Y-12300D02*
X72300Y-18800D01*
X64400Y-15000D02*
X79800Y-30400D01*
Y-36100D02*
Y-30400D01*
X77300Y-38600D02*
X79800Y-36100D01*
X95100Y-44400D02*
X98399Y-41101D01*
Y-37299D01*
X95100Y-48500D02*
Y-44400D01*
X91000Y-52600D02*
X95100Y-48500D01*
X80400Y-67500D02*
Y-66000D01*
Y-67900D02*
Y-67500D01*
Y-66000D02*
X85100Y-61300D01*
X74000Y-74300D02*
X80400Y-67900D01*
X66300Y-66600D02*
X74000Y-74300D01*
X-9400Y-66600D02*
X66300D01*
X66600Y-80900D02*
X68100D01*
X60600Y-86900D02*
X66600Y-80900D01*
X56800Y-90700D02*
X60600Y-86900D01*
X54200Y-90700D02*
X56800D01*
X54200D02*
Y-81300D01*
X42800Y-69900D02*
X54200Y-81300D01*
X47800Y-82300D02*
Y-82200D01*
X40100Y-74500D02*
X47800Y-82200D01*
X28700Y-99300D02*
X36100D01*
X27400Y-100600D02*
X28700Y-99300D01*
X27400Y-101500D02*
Y-100600D01*
X36100Y-99300D02*
X40800D01*
X44900Y-95200D01*
X15805Y-100205D02*
X19200Y-103600D01*
X9205Y-100205D02*
X15805D01*
X5495D02*
X9205D01*
X0Y-105700D02*
X5495Y-100205D01*
X11600Y-104000D02*
X15400D01*
X9900Y-105700D02*
X11600Y-104000D01*
X6200Y-105700D02*
X9900D01*
X-18537Y-104437D02*
X-9463D01*
X-25663D02*
X-18537D01*
X-27700Y-102400D02*
X-25663Y-104437D01*
X-27700Y-102400D02*
Y-99100D01*
X-24200Y-100800D02*
X-6498D01*
X-48800Y-93300D02*
X-34859D01*
X-52500Y-91000D02*
Y-85000D01*
X-65900Y-80900D02*
X-61900Y-84900D01*
X-67900Y-80900D02*
X-65900D01*
X-74200Y-74600D02*
X-67900Y-80900D01*
X-74900Y-74600D02*
X-74200D01*
X-89800Y-55800D02*
X-89400Y-56200D01*
X-81900D01*
X-89800Y-59000D02*
X-85300Y-63500D01*
X-89800Y-59000D02*
Y-55800D01*
X-67000Y-5000D02*
Y-1000D01*
X-100841Y-34659D02*
X-98300Y-37200D01*
X31274Y49000D02*
X36359Y43915D01*
X-494Y51400D02*
X38587D01*
X-5000Y55906D02*
X-494Y51400D01*
X50632Y-1232D02*
X60906Y-11506D01*
X50632Y-1232D02*
Y2968D01*
X37119Y16481D02*
X50632Y2968D01*
X15000Y55906D02*
X41594D01*
X-39622Y38800D02*
X19086D01*
X-60406Y18016D02*
X-39622Y38800D01*
X-60406Y12300D02*
Y18016D01*
X68000Y-7606D02*
Y21200D01*
X29157Y47600D02*
X37257Y39500D01*
X34003Y-2250D02*
X43200D01*
X-18700Y-27500D02*
X17500D01*
X-91500Y39100D02*
X-70925Y18525D01*
X-85852Y31100D02*
X-72552Y17800D01*
X-97400Y-33800D02*
Y-26900D01*
X48800Y-4600D02*
X76500Y-32300D01*
X48800Y-4600D02*
Y1500D01*
X35219Y15081D02*
X48800Y1500D01*
X26319Y15081D02*
X35219D01*
X15500Y25900D02*
X26319Y15081D01*
X-25000Y25900D02*
X15500D01*
X-34400Y31000D02*
X-28300Y37100D01*
X48382Y22518D02*
X49600Y21300D01*
X65100D01*
X65800Y20600D01*
Y-12300D02*
Y20600D01*
X89200Y54700D02*
X89300Y54600D01*
X24300Y77600D02*
X40000Y61900D01*
X31599Y61500D02*
X34838Y58261D01*
X13456Y33694D02*
X29270Y17881D01*
X52719D01*
X64400Y6200D01*
Y-15000D02*
Y6200D01*
X-16900Y-74500D02*
X40100D01*
X9400Y81800D02*
X32100D01*
X35600Y78300D01*
X-12453Y3200D02*
X-6547D01*
X-28800Y52800D02*
X-21500Y60100D01*
X-9194D01*
X-5000Y55906D01*
X-98300Y-37200D02*
X-91000D01*
X-89100Y-35300D01*
Y-4720D01*
X-66000Y83100D02*
X-59700D01*
X-42700Y104400D02*
X-26700D01*
X-47400Y99700D02*
X-42700Y104400D01*
X-40600Y102500D02*
X-8000D01*
X-49100Y94000D02*
X-40600Y102500D01*
X-52800Y83100D02*
X-49100Y86800D01*
Y94000D01*
X-53800Y99700D02*
X-47400D01*
X-69300Y81200D02*
Y84200D01*
X-53800Y99700D01*
X-54000Y79600D02*
Y83100D01*
X-59700D02*
X-54000D01*
X-52800D01*
X46906Y-21694D02*
Y-11906D01*
X47900Y-7600D02*
X49400Y-9100D01*
Y-23600D02*
Y-9100D01*
X11200Y-55300D02*
X75800D01*
X76600Y-51100D02*
X96520Y-31180D01*
X100000D01*
X2800Y-48800D02*
X4700D01*
X11200Y-55300D01*
X4700Y-45450D02*
X10350Y-51100D01*
X76600D01*
X-104200Y-35200D02*
X-100800Y-38600D01*
X30000D01*
X46906Y-21694D01*
X-106700Y-37000D02*
X-103700Y-40000D01*
X33000D01*
X49400Y-23600D01*
X-17500Y-64050D02*
Y-51200D01*
Y-64050D02*
X-11650Y-69900D01*
X42800D01*
X-21050Y-70350D02*
X-16900Y-74500D01*
X-21050Y-70350D02*
Y-48150D01*
X-21100Y-48100D02*
X-21050Y-48150D01*
X-11400Y-64600D02*
X-9400Y-66600D01*
X-11400Y-64600D02*
Y-50050D01*
X-7700Y-46350D01*
X-25000Y-69600D02*
Y-57400D01*
Y-69600D02*
X-14800Y-79800D01*
X35100D01*
X-48400Y60300D02*
X-35700Y47600D01*
X-48400Y60300D02*
Y60600D01*
X-62100Y27000D02*
X-47800Y41300D01*
X5000D01*
X-61700Y60000D02*
X-55200D01*
X-38750Y43550D01*
X-66600Y10800D02*
X-64249Y8449D01*
X-66600Y10800D02*
Y23955D01*
X-74800Y32155D02*
X-66600Y23955D01*
X-74800Y32155D02*
Y52800D01*
X-62600Y65000D01*
X-38750Y43550D02*
X22950D01*
X27600Y38900D01*
Y35700D02*
Y38900D01*
X4000Y31200D02*
X13400D01*
X28119Y16481D01*
X37119D01*
X-2250Y28500D02*
X8700D01*
X38700Y90600D02*
Y97200D01*
Y90600D02*
X42200Y87100D01*
X53900D01*
X-53700Y20300D02*
X-41000D01*
X-25600Y35700D01*
X15900D01*
X-24606Y33694D02*
X13456D01*
X-42500Y17606D02*
X-40694D01*
X-24606Y33694D01*
D90*
X-15000Y68500D02*
D03*
Y55906D02*
D03*
X-5000Y-55906D02*
D03*
D91*
Y68500D02*
D03*
X5000D02*
D03*
X15000D02*
D03*
X-5000Y55906D02*
D03*
X5000D02*
D03*
X15000D02*
D03*
X5000Y-55906D02*
D03*
D92*
X-48600Y-10600D02*
D03*
X28700Y-36400D02*
D03*
X-63900Y23300D02*
D03*
X35400Y30700D02*
D03*
X35100Y2900D02*
D03*
X30700Y20900D02*
D03*
X30800Y31900D02*
D03*
X27600Y35700D02*
D03*
X47900Y-7600D02*
D03*
X46900Y-11900D02*
D03*
X-6500Y-2600D02*
D03*
X9500Y-2500D02*
D03*
X11800Y3000D02*
D03*
X6600Y1900D02*
D03*
X8700Y16800D02*
D03*
X-4600Y17200D02*
D03*
X15900Y-23000D02*
D03*
X-17300Y-21200D02*
D03*
X-6600Y-15000D02*
D03*
X0Y-6100D02*
D03*
X4200Y-14200D02*
D03*
X2900Y6200D02*
D03*
X-9000Y-21200D02*
D03*
X-100300Y2800D02*
D03*
X-97900Y-4200D02*
D03*
X-105098Y-6598D02*
D03*
X-100200Y-18200D02*
D03*
X-102780Y21780D02*
D03*
X-102448Y6552D02*
D03*
X-102800Y16000D02*
D03*
X-106737Y19963D02*
D03*
X-92411Y46089D02*
D03*
X-98000Y39100D02*
D03*
X-93000Y52100D02*
D03*
X-91600Y56000D02*
D03*
X-84600Y52000D02*
D03*
X30600Y-5500D02*
D03*
X39400Y-14400D02*
D03*
X-77114Y70900D02*
D03*
X-80400Y64200D02*
D03*
X-83600Y67300D02*
D03*
X-80399Y59599D02*
D03*
X-62600Y65000D02*
D03*
X-46100Y91500D02*
D03*
X-25300Y99400D02*
D03*
X-30800Y97800D02*
D03*
X-12400Y96900D02*
D03*
X-2900Y106000D02*
D03*
X-17000Y107200D02*
D03*
X-26300Y63800D02*
D03*
X31000Y89400D02*
D03*
X3000Y108600D02*
D03*
X21500Y101100D02*
D03*
X6552Y102400D02*
D03*
X38700Y97200D02*
D03*
X43200Y92600D02*
D03*
X50800Y91600D02*
D03*
X53900Y87100D02*
D03*
X59600Y72100D02*
D03*
X62400Y62500D02*
D03*
X69100Y65900D02*
D03*
X83400Y54700D02*
D03*
X87400Y49400D02*
D03*
X83350Y49468D02*
D03*
X-83300Y-22900D02*
D03*
X85600Y-26600D02*
D03*
X104500Y-15300D02*
D03*
X102600Y-24100D02*
D03*
X97400Y-18800D02*
D03*
X97126Y28226D02*
D03*
X92659Y49041D02*
D03*
X90919Y39319D02*
D03*
X97219D02*
D03*
X99500Y31300D02*
D03*
X102900Y2900D02*
D03*
X105500Y0D02*
D03*
X95900Y10400D02*
D03*
X106200Y20100D02*
D03*
X104700Y-6700D02*
D03*
X96200Y-9100D02*
D03*
X77300Y-38600D02*
D03*
X98399Y-37299D02*
D03*
X91000Y-52600D02*
D03*
X80400Y-67500D02*
D03*
X85100Y-61300D02*
D03*
X68100Y-80900D02*
D03*
X54200Y-90700D02*
D03*
X47800Y-82300D02*
D03*
X44900Y-95200D02*
D03*
X36100Y-99300D02*
D03*
X27400Y-101500D02*
D03*
X6200Y-105700D02*
D03*
X15400Y-104000D02*
D03*
X19200Y-103600D02*
D03*
X-9400Y-104500D02*
D03*
X-18537Y-104437D02*
D03*
X-6498Y-100800D02*
D03*
X-24200D02*
D03*
X-27700Y-99100D02*
D03*
X-34659Y-93500D02*
D03*
X-48800Y-93300D02*
D03*
X-52500Y-85000D02*
D03*
X-74900Y-74600D02*
D03*
X-61900Y-84900D02*
D03*
X-67900Y-80900D02*
D03*
X-81900Y-56200D02*
D03*
X-85300Y-63500D02*
D03*
X-89800Y-55800D02*
D03*
X-67000Y-1000D02*
D03*
X-100841Y-34659D02*
D03*
X60906Y-11506D02*
D03*
X-60406Y12300D02*
D03*
X68000Y-7606D02*
D03*
X37257Y39500D02*
D03*
X-51100Y67000D02*
D03*
X36359Y43915D02*
D03*
X46400Y600D02*
D03*
X33400Y84000D02*
D03*
X43200Y-2250D02*
D03*
X30600Y-10000D02*
D03*
X-53700Y20300D02*
D03*
X-97500Y31100D02*
D03*
X-79100Y16500D02*
D03*
X-97400Y-26900D02*
D03*
Y-33800D02*
D03*
X60600Y-86900D02*
D03*
X74000Y-74300D02*
D03*
X76500Y-32300D02*
D03*
X-25000Y25900D02*
D03*
X-34400Y31000D02*
D03*
X100000Y-31180D02*
D03*
X101400Y9300D02*
D03*
X89200Y54700D02*
D03*
X69100Y72100D02*
D03*
X17000Y106600D02*
D03*
X40000Y61900D02*
D03*
X53200Y27900D02*
D03*
X-3000Y6200D02*
D03*
X3300Y14900D02*
D03*
X-42500Y17606D02*
D03*
X35100Y-79800D02*
D03*
X-103700Y-15100D02*
D03*
X35600Y78300D02*
D03*
X9205Y-100205D02*
D03*
X0Y-105700D02*
D03*
X95100Y-44400D02*
D03*
X82900Y62600D02*
D03*
X-52700Y-91200D02*
D03*
X-16400Y6441D02*
D03*
X-6547Y3200D02*
D03*
X-12453D02*
D03*
X-28800Y52800D02*
D03*
X50200Y74400D02*
D03*
X-89100Y-4720D02*
D03*
X-21300Y-116200D02*
D03*
X-40300Y-111000D02*
D03*
X-58900Y-102500D02*
D03*
X-75700Y-90600D02*
D03*
X-90200Y-76200D02*
D03*
X-102200Y-59200D02*
D03*
X-111000Y-40400D02*
D03*
X-115900Y-21400D02*
D03*
X-114100Y30200D02*
D03*
X-107600Y48400D02*
D03*
X-97000Y67400D02*
D03*
X-83900Y83200D02*
D03*
X-67500Y96900D02*
D03*
X-49800Y107200D02*
D03*
X-29200Y114400D02*
D03*
X30000Y114300D02*
D03*
X49200Y107500D02*
D03*
X66800Y97600D02*
D03*
X83000Y84200D02*
D03*
X96700Y68000D02*
D03*
X107400Y49300D02*
D03*
X114400Y29300D02*
D03*
X116300Y-20900D02*
D03*
X111000Y-40300D02*
D03*
X102200Y-59000D02*
D03*
X90500Y-75800D02*
D03*
X76100Y-90300D02*
D03*
X59100Y-102200D02*
D03*
X40700Y-110800D02*
D03*
X21300Y-116100D02*
D03*
X-57874Y1969D02*
D03*
X-53937Y-1968D02*
D03*
X57874D02*
D03*
X53937Y1969D02*
D03*
X-66000Y83100D02*
D03*
X-59700D02*
D03*
X-54000Y79600D02*
D03*
X43200Y-35500D02*
D03*
X75800Y-55300D02*
D03*
X2800Y-48800D02*
D03*
X4700Y-45450D02*
D03*
X-17500Y-51200D02*
D03*
X-21100Y-48100D02*
D03*
X-7700Y-46350D02*
D03*
X-25000Y-57400D02*
D03*
X-49500Y-45300D02*
D03*
X-48400Y60600D02*
D03*
X5000Y41300D02*
D03*
X-62100Y27000D02*
D03*
X-61700Y60000D02*
D03*
X-63500Y44500D02*
D03*
X-54700Y53300D02*
D03*
X-2250Y28500D02*
D03*
X4000Y31200D02*
D03*
X8800Y28400D02*
D03*
D93*
X32556Y113535D02*
G03*
X30569Y114086I-32556J-113535D01*
G01*
X32556Y113535D02*
G03*
X30569Y114086I-32556J-113535D01*
G01*
X32556Y113535D02*
G03*
X30569Y114086I-32556J-113535D01*
G01*
X32556Y113535D02*
G03*
X30569Y114086I-32556J-113535D01*
G01*
X32556Y113535D02*
G03*
X30569Y114086I-32556J-113535D01*
G01*
X32556Y113535D02*
G03*
X30569Y114086I-32556J-113535D01*
G01*
X32556Y113535D02*
G03*
X30569Y114086I-32556J-113535D01*
G01*
X32556Y113535D02*
G03*
X30569Y114086I-32556J-113535D01*
G01*
X34532Y112949D02*
G03*
X32556Y113535I-34532J-112949D01*
G01*
X34532Y112949D02*
G03*
X32556Y113535I-34532J-112949D01*
G01*
X34532Y112949D02*
G03*
X32556Y113535I-34532J-112949D01*
G01*
X34532Y112949D02*
G03*
X32556Y113535I-34532J-112949D01*
G01*
X34532Y112949D02*
G03*
X32556Y113535I-34532J-112949D01*
G01*
X34532Y112949D02*
G03*
X32556Y113535I-34532J-112949D01*
G01*
X34532Y112949D02*
G03*
X32556Y113535I-34532J-112949D01*
G01*
X34532Y112949D02*
G03*
X32556Y113535I-34532J-112949D01*
G01*
X115083Y-26569D02*
G03*
X115529Y-24556I-115083J26569D01*
G01*
X115083Y-26569D02*
G03*
X115529Y-24556I-115083J26569D01*
G01*
X32556Y113535D02*
G03*
X30569Y114086I-32556J-113535D01*
G01*
X32556Y113535D02*
G03*
X30569Y114086I-32556J-113535D01*
G01*
X34532Y112949D02*
G03*
X32556Y113535I-34532J-112949D01*
G01*
X34532Y112949D02*
G03*
X32556Y113535I-34532J-112949D01*
G01*
X116316Y20510D02*
G03*
X20510Y116316I-116316J-20510D01*
G01*
X116316Y20510D02*
G03*
X20510Y116316I-116316J-20510D01*
G01*
X49916Y107044D02*
G03*
X48040Y107899I-49916J-107044D01*
G01*
X49916Y107044D02*
G03*
X48040Y107899I-49916J-107044D01*
G01*
X20510Y-116316D02*
G03*
X116316Y-20510I-20510J116316D01*
G01*
X-20510Y116316D02*
G03*
X-116316Y20510I20510J-116316D01*
G01*
Y-20510D02*
G03*
X-20510Y-116316I116316J20510D01*
G01*
X114602Y-28574D02*
G03*
X115083Y-26569I-114602J28574D01*
G01*
D02*
G03*
X115529Y-24556I-115083J26569D01*
G01*
X34532Y112949D02*
G03*
X32556Y113535I-34532J-112949D01*
G01*
X34532Y112949D02*
G03*
X32556Y113535I-34532J-112949D01*
G01*
X34532Y112949D02*
G03*
X32556Y113535I-34532J-112949D01*
G01*
X34532Y112949D02*
G03*
X32556Y113535I-34532J-112949D01*
G01*
D02*
G03*
X30569Y114086I-32556J-113535D01*
G01*
X32556Y113535D02*
G03*
X30569Y114086I-32556J-113535D01*
G01*
X32556Y113535D02*
G03*
X30569Y114086I-32556J-113535D01*
G01*
X32556Y113535D02*
G03*
X30569Y114086I-32556J-113535D01*
G01*
M02*
