G04 Layer_Color=32896*
%FSLAX25Y25*%
%MOIN*%
G70*
G01*
G75*
%ADD95C,0.00787*%
G36*
X24707Y57706D02*
X24785Y57702D01*
X24859Y57688D01*
X24929Y57674D01*
X24993Y57656D01*
X25054Y57637D01*
X25109Y57614D01*
X25160Y57591D01*
X25206Y57568D01*
X25243Y57545D01*
X25275Y57526D01*
X25303Y57508D01*
X25326Y57494D01*
X25340Y57480D01*
X25349Y57475D01*
X25354Y57471D01*
X25400Y57424D01*
X25442Y57374D01*
X25483Y57318D01*
X25515Y57263D01*
X25571Y57152D01*
X25608Y57041D01*
X25622Y56990D01*
X25636Y56939D01*
X25645Y56898D01*
X25654Y56861D01*
X25659Y56828D01*
Y56805D01*
X25663Y56792D01*
Y56787D01*
X25261Y56745D01*
X25252Y56852D01*
X25234Y56944D01*
X25206Y57027D01*
X25174Y57092D01*
X25146Y57147D01*
X25118Y57184D01*
X25100Y57207D01*
X25090Y57217D01*
X25021Y57272D01*
X24947Y57314D01*
X24869Y57346D01*
X24799Y57364D01*
X24735Y57378D01*
X24679Y57383D01*
X24661Y57388D01*
X24633D01*
X24536Y57383D01*
X24448Y57364D01*
X24374Y57337D01*
X24310Y57309D01*
X24259Y57277D01*
X24227Y57253D01*
X24203Y57235D01*
X24194Y57226D01*
X24139Y57161D01*
X24097Y57096D01*
X24065Y57032D01*
X24046Y56967D01*
X24033Y56916D01*
X24028Y56870D01*
X24023Y56842D01*
Y56838D01*
Y56833D01*
X24033Y56750D01*
X24051Y56662D01*
X24083Y56584D01*
X24116Y56510D01*
X24153Y56450D01*
X24185Y56399D01*
X24194Y56380D01*
X24203Y56366D01*
X24213Y56362D01*
Y56357D01*
X24250Y56306D01*
X24296Y56256D01*
X24347Y56200D01*
X24402Y56145D01*
X24518Y56034D01*
X24633Y55923D01*
X24693Y55872D01*
X24744Y55826D01*
X24795Y55784D01*
X24836Y55747D01*
X24869Y55720D01*
X24896Y55697D01*
X24915Y55683D01*
X24919Y55678D01*
X25035Y55581D01*
X25141Y55489D01*
X25229Y55405D01*
X25298Y55336D01*
X25358Y55276D01*
X25400Y55235D01*
X25423Y55207D01*
X25432Y55202D01*
Y55198D01*
X25497Y55119D01*
X25548Y55045D01*
X25594Y54971D01*
X25631Y54907D01*
X25659Y54851D01*
X25677Y54809D01*
X25686Y54782D01*
X25691Y54777D01*
Y54773D01*
X25710Y54722D01*
X25719Y54676D01*
X25728Y54629D01*
X25733Y54588D01*
X25737Y54551D01*
Y54523D01*
Y54505D01*
Y54500D01*
X23617D01*
Y54879D01*
X25192D01*
X25137Y54957D01*
X25109Y54990D01*
X25086Y55022D01*
X25063Y55050D01*
X25044Y55068D01*
X25030Y55082D01*
X25026Y55087D01*
X25003Y55110D01*
X24975Y55133D01*
X24910Y55193D01*
X24836Y55262D01*
X24758Y55332D01*
X24684Y55392D01*
X24652Y55419D01*
X24624Y55447D01*
X24601Y55466D01*
X24582Y55479D01*
X24573Y55489D01*
X24568Y55493D01*
X24495Y55558D01*
X24420Y55618D01*
X24356Y55678D01*
X24296Y55729D01*
X24240Y55780D01*
X24194Y55826D01*
X24148Y55867D01*
X24111Y55905D01*
X24074Y55941D01*
X24046Y55969D01*
X24023Y55992D01*
X24000Y56015D01*
X23977Y56043D01*
X23968Y56052D01*
X23903Y56131D01*
X23848Y56200D01*
X23801Y56270D01*
X23765Y56325D01*
X23737Y56376D01*
X23718Y56413D01*
X23709Y56436D01*
X23704Y56445D01*
X23677Y56514D01*
X23658Y56584D01*
X23640Y56648D01*
X23630Y56704D01*
X23626Y56755D01*
X23621Y56792D01*
Y56815D01*
Y56824D01*
X23626Y56893D01*
X23635Y56958D01*
X23644Y57023D01*
X23663Y57078D01*
X23709Y57189D01*
X23755Y57277D01*
X23783Y57318D01*
X23806Y57350D01*
X23829Y57383D01*
X23852Y57406D01*
X23871Y57424D01*
X23880Y57443D01*
X23889Y57448D01*
X23894Y57452D01*
X23945Y57498D01*
X24000Y57540D01*
X24060Y57572D01*
X24120Y57600D01*
X24240Y57646D01*
X24361Y57679D01*
X24411Y57688D01*
X24462Y57697D01*
X24508Y57702D01*
X24545Y57706D01*
X24578Y57711D01*
X24624D01*
X24707Y57706D01*
D02*
G37*
G36*
X28500Y54500D02*
X28075D01*
Y55798D01*
X27257D01*
X27137Y55803D01*
X27022Y55812D01*
X26920Y55826D01*
X26828Y55844D01*
X26740Y55863D01*
X26666Y55886D01*
X26597Y55914D01*
X26537Y55941D01*
X26486Y55964D01*
X26439Y55992D01*
X26403Y56015D01*
X26375Y56038D01*
X26352Y56052D01*
X26338Y56066D01*
X26329Y56075D01*
X26324Y56080D01*
X26278Y56135D01*
X26236Y56191D01*
X26204Y56246D01*
X26171Y56306D01*
X26144Y56366D01*
X26125Y56422D01*
X26093Y56528D01*
X26084Y56579D01*
X26074Y56625D01*
X26070Y56667D01*
X26065Y56699D01*
X26061Y56731D01*
Y56750D01*
Y56764D01*
Y56768D01*
X26065Y56856D01*
X26074Y56939D01*
X26093Y57013D01*
X26107Y57078D01*
X26125Y57133D01*
X26144Y57175D01*
X26153Y57198D01*
X26158Y57207D01*
X26195Y57277D01*
X26241Y57337D01*
X26282Y57392D01*
X26324Y57434D01*
X26361Y57466D01*
X26389Y57494D01*
X26407Y57508D01*
X26416Y57512D01*
X26476Y57549D01*
X26546Y57582D01*
X26610Y57609D01*
X26671Y57632D01*
X26726Y57646D01*
X26768Y57656D01*
X26800Y57665D01*
X26809D01*
X26878Y57674D01*
X26957Y57683D01*
X27040Y57688D01*
X27119Y57692D01*
X27188Y57697D01*
X28500D01*
Y54500D01*
D02*
G37*
G36*
X15249Y-54289D02*
X15336Y-54298D01*
X15419Y-54317D01*
X15489Y-54335D01*
X15544Y-54354D01*
X15590Y-54372D01*
X15618Y-54382D01*
X15623Y-54386D01*
X15627D01*
X15701Y-54428D01*
X15771Y-54474D01*
X15826Y-54520D01*
X15872Y-54562D01*
X15909Y-54603D01*
X15937Y-54636D01*
X15955Y-54654D01*
X15960Y-54663D01*
X16002Y-54733D01*
X16039Y-54807D01*
X16066Y-54885D01*
X16094Y-54959D01*
X16113Y-55028D01*
X16126Y-55079D01*
X16131Y-55102D01*
Y-55116D01*
X16136Y-55125D01*
Y-55130D01*
X15572Y-55222D01*
X15558Y-55148D01*
X15540Y-55084D01*
X15521Y-55028D01*
X15498Y-54987D01*
X15475Y-54950D01*
X15457Y-54922D01*
X15443Y-54908D01*
X15438Y-54904D01*
X15396Y-54867D01*
X15350Y-54839D01*
X15304Y-54820D01*
X15262Y-54807D01*
X15225Y-54797D01*
X15198Y-54793D01*
X15170D01*
X15115Y-54797D01*
X15059Y-54807D01*
X15018Y-54825D01*
X14981Y-54839D01*
X14948Y-54857D01*
X14930Y-54876D01*
X14916Y-54885D01*
X14911Y-54890D01*
X14879Y-54927D01*
X14856Y-54973D01*
X14837Y-55014D01*
X14828Y-55056D01*
X14819Y-55093D01*
X14814Y-55121D01*
Y-55139D01*
Y-55148D01*
X14819Y-55218D01*
X14833Y-55278D01*
X14856Y-55329D01*
X14879Y-55370D01*
X14907Y-55407D01*
X14925Y-55430D01*
X14944Y-55449D01*
X14948Y-55453D01*
X15004Y-55490D01*
X15064Y-55518D01*
X15128Y-55537D01*
X15189Y-55550D01*
X15244Y-55555D01*
X15290Y-55560D01*
X15332D01*
X15396Y-56054D01*
X15336Y-56040D01*
X15285Y-56026D01*
X15235Y-56017D01*
X15193Y-56012D01*
X15161Y-56008D01*
X15115D01*
X15050Y-56012D01*
X14995Y-56031D01*
X14944Y-56049D01*
X14897Y-56077D01*
X14865Y-56100D01*
X14837Y-56123D01*
X14819Y-56142D01*
X14814Y-56146D01*
X14773Y-56202D01*
X14740Y-56262D01*
X14717Y-56322D01*
X14699Y-56382D01*
X14690Y-56437D01*
X14685Y-56479D01*
Y-56507D01*
Y-56511D01*
Y-56516D01*
X14690Y-56604D01*
X14703Y-56682D01*
X14727Y-56752D01*
X14750Y-56807D01*
X14777Y-56849D01*
X14796Y-56881D01*
X14814Y-56904D01*
X14819Y-56909D01*
X14870Y-56955D01*
X14925Y-56992D01*
X14976Y-57015D01*
X15027Y-57033D01*
X15073Y-57043D01*
X15105Y-57047D01*
X15128Y-57052D01*
X15138D01*
X15202Y-57047D01*
X15258Y-57033D01*
X15309Y-57015D01*
X15355Y-56992D01*
X15387Y-56973D01*
X15415Y-56955D01*
X15433Y-56941D01*
X15438Y-56936D01*
X15480Y-56885D01*
X15517Y-56830D01*
X15540Y-56770D01*
X15563Y-56715D01*
X15577Y-56664D01*
X15586Y-56622D01*
X15590Y-56595D01*
Y-56590D01*
Y-56585D01*
X16182Y-56659D01*
X16173Y-56733D01*
X16154Y-56802D01*
X16113Y-56932D01*
X16062Y-57043D01*
X16029Y-57089D01*
X16002Y-57135D01*
X15974Y-57177D01*
X15946Y-57209D01*
X15923Y-57241D01*
X15900Y-57264D01*
X15881Y-57283D01*
X15868Y-57297D01*
X15858Y-57306D01*
X15854Y-57311D01*
X15798Y-57352D01*
X15738Y-57394D01*
X15683Y-57426D01*
X15618Y-57454D01*
X15498Y-57500D01*
X15387Y-57528D01*
X15332Y-57537D01*
X15285Y-57546D01*
X15244Y-57551D01*
X15207Y-57555D01*
X15175Y-57560D01*
X15133D01*
X15050Y-57555D01*
X14967Y-57546D01*
X14893Y-57532D01*
X14819Y-57514D01*
X14754Y-57491D01*
X14690Y-57468D01*
X14629Y-57440D01*
X14579Y-57412D01*
X14533Y-57385D01*
X14486Y-57357D01*
X14454Y-57334D01*
X14422Y-57311D01*
X14399Y-57292D01*
X14380Y-57278D01*
X14371Y-57269D01*
X14366Y-57264D01*
X14311Y-57209D01*
X14265Y-57149D01*
X14223Y-57089D01*
X14186Y-57029D01*
X14158Y-56964D01*
X14130Y-56904D01*
X14094Y-56793D01*
X14084Y-56742D01*
X14075Y-56691D01*
X14066Y-56650D01*
X14061Y-56613D01*
X14057Y-56585D01*
Y-56562D01*
Y-56548D01*
Y-56544D01*
X14066Y-56437D01*
X14084Y-56345D01*
X14107Y-56257D01*
X14140Y-56188D01*
X14172Y-56128D01*
X14195Y-56086D01*
X14214Y-56059D01*
X14223Y-56049D01*
X14288Y-55980D01*
X14362Y-55920D01*
X14435Y-55874D01*
X14505Y-55837D01*
X14565Y-55809D01*
X14616Y-55795D01*
X14634Y-55786D01*
X14648D01*
X14657Y-55781D01*
X14662D01*
X14579Y-55730D01*
X14509Y-55680D01*
X14449Y-55624D01*
X14394Y-55569D01*
X14348Y-55513D01*
X14311Y-55458D01*
X14283Y-55402D01*
X14255Y-55352D01*
X14237Y-55301D01*
X14223Y-55255D01*
X14214Y-55213D01*
X14209Y-55176D01*
X14204Y-55148D01*
X14200Y-55125D01*
Y-55111D01*
Y-55107D01*
X14204Y-55051D01*
X14209Y-55001D01*
X14237Y-54899D01*
X14269Y-54807D01*
X14311Y-54728D01*
X14352Y-54663D01*
X14389Y-54617D01*
X14403Y-54599D01*
X14417Y-54585D01*
X14422Y-54580D01*
X14426Y-54576D01*
X14477Y-54525D01*
X14537Y-54479D01*
X14593Y-54442D01*
X14653Y-54409D01*
X14717Y-54377D01*
X14777Y-54354D01*
X14893Y-54321D01*
X14944Y-54308D01*
X14995Y-54298D01*
X15036Y-54294D01*
X15078Y-54289D01*
X15110Y-54285D01*
X15152D01*
X15249Y-54289D01*
D02*
G37*
G36*
X19000Y-57500D02*
X18353D01*
Y-56294D01*
X17780D01*
X17711Y-56290D01*
X17646D01*
X17586Y-56285D01*
X17531Y-56280D01*
X17480Y-56276D01*
X17438Y-56271D01*
X17397D01*
X17365Y-56266D01*
X17332Y-56262D01*
X17309Y-56257D01*
X17291D01*
X17277Y-56253D01*
X17267D01*
X17203Y-56234D01*
X17143Y-56211D01*
X17087Y-56188D01*
X17037Y-56160D01*
X16995Y-56137D01*
X16963Y-56119D01*
X16944Y-56105D01*
X16935Y-56100D01*
X16875Y-56054D01*
X16824Y-56003D01*
X16773Y-55948D01*
X16736Y-55901D01*
X16704Y-55855D01*
X16681Y-55818D01*
X16667Y-55795D01*
X16662Y-55786D01*
X16625Y-55707D01*
X16598Y-55624D01*
X16579Y-55537D01*
X16565Y-55458D01*
X16556Y-55393D01*
Y-55361D01*
X16551Y-55338D01*
Y-55315D01*
Y-55301D01*
Y-55292D01*
Y-55287D01*
X16561Y-55153D01*
X16579Y-55028D01*
X16612Y-54927D01*
X16644Y-54834D01*
X16662Y-54797D01*
X16681Y-54765D01*
X16695Y-54737D01*
X16713Y-54710D01*
X16722Y-54691D01*
X16732Y-54677D01*
X16741Y-54673D01*
Y-54668D01*
X16815Y-54585D01*
X16889Y-54515D01*
X16967Y-54460D01*
X17037Y-54418D01*
X17101Y-54391D01*
X17152Y-54368D01*
X17170Y-54363D01*
X17184Y-54358D01*
X17194Y-54354D01*
X17198D01*
X17235Y-54344D01*
X17281Y-54335D01*
X17337Y-54331D01*
X17392Y-54326D01*
X17522Y-54317D01*
X17651Y-54308D01*
X17771D01*
X17822Y-54303D01*
X19000D01*
Y-57500D01*
D02*
G37*
G36*
X24504Y69132D02*
X24554Y69058D01*
X24615Y68985D01*
X24670Y68920D01*
X24725Y68864D01*
X24767Y68818D01*
X24785Y68804D01*
X24799Y68791D01*
X24804Y68786D01*
X24809Y68781D01*
X24906Y68703D01*
X25003Y68629D01*
X25095Y68564D01*
X25188Y68513D01*
X25266Y68467D01*
X25298Y68449D01*
X25326Y68435D01*
X25349Y68421D01*
X25368Y68416D01*
X25377Y68407D01*
X25381D01*
Y68028D01*
X25312Y68056D01*
X25243Y68088D01*
X25174Y68121D01*
X25109Y68153D01*
X25054Y68181D01*
X25007Y68204D01*
X24980Y68222D01*
X24975Y68227D01*
X24970D01*
X24887Y68278D01*
X24813Y68328D01*
X24749Y68375D01*
X24698Y68416D01*
X24652Y68449D01*
X24624Y68476D01*
X24601Y68495D01*
X24596Y68499D01*
Y66000D01*
X24203D01*
Y69211D01*
X24457D01*
X24504Y69132D01*
D02*
G37*
G36*
X28500Y66000D02*
X28075D01*
Y67298D01*
X27257D01*
X27137Y67303D01*
X27022Y67312D01*
X26920Y67326D01*
X26828Y67344D01*
X26740Y67363D01*
X26666Y67386D01*
X26597Y67414D01*
X26537Y67441D01*
X26486Y67465D01*
X26439Y67492D01*
X26403Y67515D01*
X26375Y67538D01*
X26352Y67552D01*
X26338Y67566D01*
X26329Y67575D01*
X26324Y67580D01*
X26278Y67636D01*
X26236Y67691D01*
X26204Y67746D01*
X26171Y67806D01*
X26144Y67866D01*
X26125Y67922D01*
X26093Y68028D01*
X26084Y68079D01*
X26074Y68125D01*
X26070Y68167D01*
X26065Y68199D01*
X26061Y68231D01*
Y68250D01*
Y68264D01*
Y68268D01*
X26065Y68356D01*
X26074Y68439D01*
X26093Y68513D01*
X26107Y68578D01*
X26125Y68633D01*
X26144Y68675D01*
X26153Y68698D01*
X26158Y68707D01*
X26195Y68777D01*
X26241Y68837D01*
X26282Y68892D01*
X26324Y68934D01*
X26361Y68966D01*
X26389Y68994D01*
X26407Y69008D01*
X26416Y69012D01*
X26476Y69049D01*
X26546Y69081D01*
X26610Y69109D01*
X26671Y69132D01*
X26726Y69146D01*
X26768Y69156D01*
X26800Y69165D01*
X26809D01*
X26878Y69174D01*
X26957Y69183D01*
X27040Y69188D01*
X27119Y69192D01*
X27188Y69197D01*
X28500D01*
Y66000D01*
D02*
G37*
%LPC*%
G36*
X18353Y-54843D02*
X17873D01*
X17827Y-54848D01*
X17785D01*
X17743Y-54853D01*
X17683D01*
X17637Y-54857D01*
X17605Y-54862D01*
X17586Y-54867D01*
X17582D01*
X17526Y-54880D01*
X17475Y-54899D01*
X17429Y-54922D01*
X17392Y-54950D01*
X17365Y-54973D01*
X17341Y-54991D01*
X17328Y-55005D01*
X17323Y-55010D01*
X17286Y-55056D01*
X17263Y-55102D01*
X17244Y-55153D01*
X17231Y-55199D01*
X17221Y-55241D01*
X17217Y-55273D01*
Y-55292D01*
Y-55301D01*
X17221Y-55352D01*
X17226Y-55398D01*
X17240Y-55440D01*
X17254Y-55476D01*
X17267Y-55509D01*
X17277Y-55532D01*
X17286Y-55546D01*
X17291Y-55550D01*
X17318Y-55587D01*
X17355Y-55620D01*
X17388Y-55647D01*
X17420Y-55670D01*
X17448Y-55684D01*
X17471Y-55698D01*
X17489Y-55703D01*
X17494Y-55707D01*
X17522Y-55717D01*
X17554Y-55721D01*
X17628Y-55735D01*
X17711Y-55744D01*
X17794Y-55749D01*
X17877D01*
X17910Y-55754D01*
X18353D01*
Y-54843D01*
D02*
G37*
G36*
X28075Y68818D02*
X27160D01*
X27077Y68814D01*
X27008Y68809D01*
X26952Y68804D01*
X26915Y68795D01*
X26888Y68791D01*
X26869Y68786D01*
X26864D01*
X26805Y68763D01*
X26754Y68735D01*
X26707Y68707D01*
X26666Y68675D01*
X26638Y68643D01*
X26615Y68620D01*
X26601Y68601D01*
X26597Y68596D01*
X26564Y68541D01*
X26537Y68486D01*
X26518Y68426D01*
X26509Y68375D01*
X26500Y68328D01*
X26495Y68287D01*
Y68264D01*
Y68259D01*
Y68255D01*
X26504Y68158D01*
X26523Y68074D01*
X26550Y68001D01*
X26583Y67940D01*
X26615Y67894D01*
X26643Y67857D01*
X26661Y67839D01*
X26671Y67830D01*
X26703Y67802D01*
X26744Y67779D01*
X26832Y67742D01*
X26929Y67714D01*
X27026Y67695D01*
X27114Y67686D01*
X27151Y67682D01*
X27183D01*
X27216Y67677D01*
X28075D01*
Y68818D01*
D02*
G37*
G36*
Y57318D02*
X27160D01*
X27077Y57314D01*
X27008Y57309D01*
X26952Y57304D01*
X26915Y57295D01*
X26888Y57291D01*
X26869Y57286D01*
X26864D01*
X26805Y57263D01*
X26754Y57235D01*
X26707Y57207D01*
X26666Y57175D01*
X26638Y57143D01*
X26615Y57120D01*
X26601Y57101D01*
X26597Y57096D01*
X26564Y57041D01*
X26537Y56986D01*
X26518Y56925D01*
X26509Y56875D01*
X26500Y56828D01*
X26495Y56787D01*
Y56764D01*
Y56759D01*
Y56755D01*
X26504Y56657D01*
X26523Y56574D01*
X26550Y56501D01*
X26583Y56440D01*
X26615Y56394D01*
X26643Y56357D01*
X26661Y56339D01*
X26671Y56330D01*
X26703Y56302D01*
X26744Y56279D01*
X26832Y56242D01*
X26929Y56214D01*
X27026Y56195D01*
X27114Y56186D01*
X27151Y56182D01*
X27183D01*
X27216Y56177D01*
X28075D01*
Y57318D01*
D02*
G37*
%LPD*%
D95*
X-20748Y63600D02*
X20748D01*
X-20748Y73400D02*
X20748D01*
X-20748Y63600D02*
Y73400D01*
X20748Y63600D02*
Y73400D01*
X-20748Y51006D02*
X20748D01*
X-20748Y60806D02*
X20748D01*
X-20748Y51006D02*
Y60806D01*
X20748Y51006D02*
Y60806D01*
X-10748Y-60806D02*
X10748D01*
X-10748Y-51006D02*
X10748D01*
X-10748Y-60806D02*
Y-51006D01*
X10748Y-60806D02*
Y-51006D01*
M02*
