M48
;Layer_Color=9474304
;FILE_FORMAT=2:5
INCH,LZ
;TYPE=PLATED
T1F00S00C0.01300
T2F00S00C0.04016
%
T01
X0039Y-0092
X0049Y-01
X00626Y-00932
X0082Y-0072
X00803Y-006525
X00885Y-0054528
Y-00389
X009085Y-003225
X0099Y-0034
X01075Y-00215
X01035Y-0014
X0108898Y-00084
X0108Y00065
X0092
X006855Y00109
X006235Y000805
X006265Y0003
X0053937Y0001969
X0057874Y-0001968
X00515Y-00075
X00447Y0000384
X00477Y00051
X00455Y000935
X0043Y00074
X00435Y-00223
X0048Y-0022
X005515Y-002165
X0075095Y-0031
X0116Y-0028
X00579Y00231
X00325Y00045
Y-00035
X0028Y-0006
X00262Y-00014
X0023Y-00045
X00138Y-00036
X0014437Y-0015437
X00084Y-00157
X0Y-00134
X-00035Y-00155
X-00094Y-00145
X-00165Y-00126
X-00152Y-00079
X-00125Y0002
X-00072Y00039
X-00152Y00089
X-00211Y00039
X-0019Y0019
X-0004006Y00141
X00023Y00097
X0006547Y00039
X00042Y-00088
X002095Y00049
X00169Y00097
X00029Y002385
X-00535Y0026
X-0060906Y002415
X-00695Y0024
X-0057874Y0001969
X-0053937Y-0001968
X-00405Y-00175
X-0040358Y-0022
X-003715Y-0026366
X-003125Y-00203
X-001985Y-00238
X-00222Y-0031
X-0028456Y-00331
X-0015256Y-00335
X-004435Y-00366
X-00686Y-005674
X-0087Y-0060138
X-00871Y-00416
X-00975Y-00345
X-00932Y-00142
X-01009Y-0004
Y00046
X-0104258Y0011358
X-0103935Y0017
X-01045Y0021
X-0077Y-00705
X-00549Y-00815
X-00425Y-008284
X-00367Y-00997
X-0061Y-00915
X-0002953Y-01048
X00212
X0036325Y-009981
X002225Y-00282
X-0019Y00315
X-00236Y00332
X-00295Y00498
X-00256Y00555
X-00345Y0077
X-00422Y00725
X-00475Y00955
X-00575Y00865
X-00614Y00903
X-0075Y00865
X-00725Y00765
X-00865Y00755
X-00895Y0059
X-00786Y0054256
X-00674Y00558
X-005715Y0047
X-0070944Y003
X-0095184Y0045816
X-0031942Y0099057
X-0026Y00995
X-0014235Y01052
X0
X-0002953Y00928
X0022Y01025
X00345Y01029
X00334Y00928
X0031169Y0066
X00387Y007
X00447Y00655
X004375Y0076866
X00365Y00835
X0059
X0075Y0086
X0086Y00755
Y0061656
X0089933Y0051
X00998Y00297
X0064Y00626
X0045816Y0097184
T02
X-0005Y-0055906
X0005
Y0055906
X0015
Y00685
X0005
X-0005
X-0015
Y0055906
X-0005
M30
